<?xml version="1.0" standalone="no"?>
 <!DOCTYPE svg PUBLIC "-//W3C//DTD SVG 1.1//EN" 
 "http://www.w3.org/Graphics/SVG/1.1/DTD/svg11.dtd"> 
<svg
  xmlns:svg="http://www.w3.org/2000/svg"
  xmlns="http://www.w3.org/2000/svg"
  xmlns:xlink="http://www.w3.org/1999/xlink"
  version="1.1"
  width="297.0022mm" height="210.0072mm" viewBox="0.0000 0.0000 297.0022 210.0072">
<title>SVG Image created as dragstar-infotainment-B_Silkscreen.svg date 2025/06/24 19:32:59 </title>
  <desc>Image generated by PCBNEW </desc>
<g style="fill:#000000; fill-opacity:1.0000;stroke:#000000; stroke-opacity:1.0000;
stroke-linecap:round; stroke-linejoin:round;"
 transform="translate(0 0) scale(1 1)">
</g>
<g style="fill:none; 
stroke:#000000; stroke-width:0.1500; stroke-opacity:1; 
stroke-linecap:round; stroke-linejoin:round;">
<text x="134.5000" y="127.0000"
transform="scale(-1 1) translate(-269.000000 0)"
textLength="2.2024" font-size="1.3333" lengthAdjust="spacingAndGlyphs"
text-anchor="middle" opacity="0" stroke-opacity="0">D5</text>
<g class="stroked-text"><desc>D5</desc>
<path d="M135.2381 126.9548
L135.2381 125.9548
" />
<path d="M135.2381 125.9548
L135.0000 125.9548
" />
<path d="M135.0000 125.9548
L134.8571 126.0024
" />
<path d="M134.8571 126.0024
L134.7619 126.0977
" />
<path d="M134.7619 126.0977
L134.7143 126.1929
" />
<path d="M134.7143 126.1929
L134.6667 126.3834
" />
<path d="M134.6667 126.3834
L134.6667 126.5262
" />
<path d="M134.6667 126.5262
L134.7143 126.7167
" />
<path d="M134.7143 126.7167
L134.7619 126.8120
" />
<path d="M134.7619 126.8120
L134.8571 126.9072
" />
<path d="M134.8571 126.9072
L135.0000 126.9548
" />
<path d="M135.0000 126.9548
L135.2381 126.9548
" />
<path d="M133.7619 125.9548
L134.2381 125.9548
" />
<path d="M134.2381 125.9548
L134.2857 126.4310
" />
<path d="M134.2857 126.4310
L134.2381 126.3834
" />
<path d="M134.2381 126.3834
L134.1429 126.3358
" />
<path d="M134.1429 126.3358
L133.9048 126.3358
" />
<path d="M133.9048 126.3358
L133.8095 126.3834
" />
<path d="M133.8095 126.3834
L133.7619 126.4310
" />
<path d="M133.7619 126.4310
L133.7143 126.5262
" />
<path d="M133.7143 126.5262
L133.7143 126.7643
" />
<path d="M133.7143 126.7643
L133.7619 126.8596
" />
<path d="M133.7619 126.8596
L133.8095 126.9072
" />
<path d="M133.8095 126.9072
L133.9048 126.9548
" />
<path d="M133.9048 126.9548
L134.1429 126.9548
" />
<path d="M134.1429 126.9548
L134.2381 126.9072
" />
<path d="M134.2381 126.9072
L134.2857 126.8596
" />
</g><text x="115.7500" y="111.7500"
transform="scale(-1 1) translate(-231.500000 0)"
textLength="3.1548" font-size="1.3333" lengthAdjust="spacingAndGlyphs"
text-anchor="middle" opacity="0" stroke-opacity="0">D10</text>
<g class="stroked-text"><desc>D10</desc>
<path d="M116.9643 111.7048
L116.9643 110.7048
" />
<path d="M116.9643 110.7048
L116.7262 110.7048
" />
<path d="M116.7262 110.7048
L116.5833 110.7524
" />
<path d="M116.5833 110.7524
L116.4881 110.8477
" />
<path d="M116.4881 110.8477
L116.4405 110.9429
" />
<path d="M116.4405 110.9429
L116.3929 111.1334
" />
<path d="M116.3929 111.1334
L116.3929 111.2762
" />
<path d="M116.3929 111.2762
L116.4405 111.4667
" />
<path d="M116.4405 111.4667
L116.4881 111.5620
" />
<path d="M116.4881 111.5620
L116.5833 111.6572
" />
<path d="M116.5833 111.6572
L116.7262 111.7048
" />
<path d="M116.7262 111.7048
L116.9643 111.7048
" />
<path d="M115.4405 111.7048
L116.0119 111.7048
" />
<path d="M115.7262 111.7048
L115.7262 110.7048
" />
<path d="M115.7262 110.7048
L115.8214 110.8477
" />
<path d="M115.8214 110.8477
L115.9167 110.9429
" />
<path d="M115.9167 110.9429
L116.0119 110.9905
" />
<path d="M114.8214 110.7048
L114.7262 110.7048
" />
<path d="M114.7262 110.7048
L114.6310 110.7524
" />
<path d="M114.6310 110.7524
L114.5833 110.8001
" />
<path d="M114.5833 110.8001
L114.5357 110.8953
" />
<path d="M114.5357 110.8953
L114.4881 111.0858
" />
<path d="M114.4881 111.0858
L114.4881 111.3239
" />
<path d="M114.4881 111.3239
L114.5357 111.5143
" />
<path d="M114.5357 111.5143
L114.5833 111.6096
" />
<path d="M114.5833 111.6096
L114.6310 111.6572
" />
<path d="M114.6310 111.6572
L114.7262 111.7048
" />
<path d="M114.7262 111.7048
L114.8214 111.7048
" />
<path d="M114.8214 111.7048
L114.9167 111.6572
" />
<path d="M114.9167 111.6572
L114.9643 111.6096
" />
<path d="M114.9643 111.6096
L115.0119 111.5143
" />
<path d="M115.0119 111.5143
L115.0595 111.3239
" />
<path d="M115.0595 111.3239
L115.0595 111.0858
" />
<path d="M115.0595 111.0858
L115.0119 110.8953
" />
<path d="M115.0119 110.8953
L114.9643 110.8001
" />
<path d="M114.9643 110.8001
L114.9167 110.7524
" />
<path d="M114.9167 110.7524
L114.8214 110.7048
" />
</g><text x="105.7500" y="128.2500"
transform="scale(-1 1) translate(-211.500000 0)"
textLength="2.2024" font-size="1.3333" lengthAdjust="spacingAndGlyphs"
text-anchor="middle" opacity="0" stroke-opacity="0">D7</text>
<g class="stroked-text"><desc>D7</desc>
<path d="M106.4881 128.2048
L106.4881 127.2048
" />
<path d="M106.4881 127.2048
L106.2500 127.2048
" />
<path d="M106.2500 127.2048
L106.1071 127.2524
" />
<path d="M106.1071 127.2524
L106.0119 127.3477
" />
<path d="M106.0119 127.3477
L105.9643 127.4429
" />
<path d="M105.9643 127.4429
L105.9167 127.6334
" />
<path d="M105.9167 127.6334
L105.9167 127.7762
" />
<path d="M105.9167 127.7762
L105.9643 127.9667
" />
<path d="M105.9643 127.9667
L106.0119 128.0620
" />
<path d="M106.0119 128.0620
L106.1071 128.1572
" />
<path d="M106.1071 128.1572
L106.2500 128.2048
" />
<path d="M106.2500 128.2048
L106.4881 128.2048
" />
<path d="M105.5833 127.2048
L104.9167 127.2048
" />
<path d="M104.9167 127.2048
L105.3452 128.2048
" />
</g><text x="128.5000" y="101.7500"
transform="scale(-1 1) translate(-257.000000 0)"
textLength="3.1548" font-size="1.3333" lengthAdjust="spacingAndGlyphs"
text-anchor="middle" opacity="0" stroke-opacity="0">D16</text>
<g class="stroked-text"><desc>D16</desc>
<path d="M129.7143 101.7048
L129.7143 100.7048
" />
<path d="M129.7143 100.7048
L129.4762 100.7048
" />
<path d="M129.4762 100.7048
L129.3333 100.7524
" />
<path d="M129.3333 100.7524
L129.2381 100.8477
" />
<path d="M129.2381 100.8477
L129.1905 100.9429
" />
<path d="M129.1905 100.9429
L129.1429 101.1334
" />
<path d="M129.1429 101.1334
L129.1429 101.2762
" />
<path d="M129.1429 101.2762
L129.1905 101.4667
" />
<path d="M129.1905 101.4667
L129.2381 101.5620
" />
<path d="M129.2381 101.5620
L129.3333 101.6572
" />
<path d="M129.3333 101.6572
L129.4762 101.7048
" />
<path d="M129.4762 101.7048
L129.7143 101.7048
" />
<path d="M128.1905 101.7048
L128.7619 101.7048
" />
<path d="M128.4762 101.7048
L128.4762 100.7048
" />
<path d="M128.4762 100.7048
L128.5714 100.8477
" />
<path d="M128.5714 100.8477
L128.6667 100.9429
" />
<path d="M128.6667 100.9429
L128.7619 100.9905
" />
<path d="M127.3333 100.7048
L127.5238 100.7048
" />
<path d="M127.5238 100.7048
L127.6190 100.7524
" />
<path d="M127.6190 100.7524
L127.6667 100.8001
" />
<path d="M127.6667 100.8001
L127.7619 100.9429
" />
<path d="M127.7619 100.9429
L127.8095 101.1334
" />
<path d="M127.8095 101.1334
L127.8095 101.5143
" />
<path d="M127.8095 101.5143
L127.7619 101.6096
" />
<path d="M127.7619 101.6096
L127.7143 101.6572
" />
<path d="M127.7143 101.6572
L127.6190 101.7048
" />
<path d="M127.6190 101.7048
L127.4286 101.7048
" />
<path d="M127.4286 101.7048
L127.3333 101.6572
" />
<path d="M127.3333 101.6572
L127.2857 101.6096
" />
<path d="M127.2857 101.6096
L127.2381 101.5143
" />
<path d="M127.2381 101.5143
L127.2381 101.2762
" />
<path d="M127.2381 101.2762
L127.2857 101.1810
" />
<path d="M127.2857 101.1810
L127.3333 101.1334
" />
<path d="M127.3333 101.1334
L127.4286 101.0858
" />
<path d="M127.4286 101.0858
L127.6190 101.0858
" />
<path d="M127.6190 101.0858
L127.7143 101.1334
" />
<path d="M127.7143 101.1334
L127.7619 101.1810
" />
<path d="M127.7619 101.1810
L127.8095 101.2762
" />
</g><text x="145.5000" y="135.4875"
transform="scale(-1 1) translate(-291.000000 0)"
textLength="2.2500" font-size="1.3333" lengthAdjust="spacingAndGlyphs"
text-anchor="middle" opacity="0" stroke-opacity="0">Q3</text>
<g class="stroked-text"><desc>Q3</desc>
<path d="M145.5952 135.5376
L145.6905 135.4899
" />
<path d="M145.6905 135.4899
L145.7857 135.3947
" />
<path d="M145.7857 135.3947
L145.9286 135.2518
" />
<path d="M145.9286 135.2518
L146.0238 135.2042
" />
<path d="M146.0238 135.2042
L146.1190 135.2042
" />
<path d="M146.0714 135.4423
L146.1667 135.3947
" />
<path d="M146.1667 135.3947
L146.2619 135.2995
" />
<path d="M146.2619 135.2995
L146.3095 135.1090
" />
<path d="M146.3095 135.1090
L146.3095 134.7757
" />
<path d="M146.3095 134.7757
L146.2619 134.5852
" />
<path d="M146.2619 134.5852
L146.1667 134.4899
" />
<path d="M146.1667 134.4899
L146.0714 134.4423
" />
<path d="M146.0714 134.4423
L145.8810 134.4423
" />
<path d="M145.8810 134.4423
L145.7857 134.4899
" />
<path d="M145.7857 134.4899
L145.6905 134.5852
" />
<path d="M145.6905 134.5852
L145.6429 134.7757
" />
<path d="M145.6429 134.7757
L145.6429 135.1090
" />
<path d="M145.6429 135.1090
L145.6905 135.2995
" />
<path d="M145.6905 135.2995
L145.7857 135.3947
" />
<path d="M145.7857 135.3947
L145.8810 135.4423
" />
<path d="M145.8810 135.4423
L146.0714 135.4423
" />
<path d="M145.3095 134.4423
L144.6905 134.4423
" />
<path d="M144.6905 134.4423
L145.0238 134.8233
" />
<path d="M145.0238 134.8233
L144.8810 134.8233
" />
<path d="M144.8810 134.8233
L144.7857 134.8709
" />
<path d="M144.7857 134.8709
L144.7381 134.9185
" />
<path d="M144.7381 134.9185
L144.6905 135.0137
" />
<path d="M144.6905 135.0137
L144.6905 135.2518
" />
<path d="M144.6905 135.2518
L144.7381 135.3471
" />
<path d="M144.7381 135.3471
L144.7857 135.3947
" />
<path d="M144.7857 135.3947
L144.8810 135.4423
" />
<path d="M144.8810 135.4423
L145.1667 135.4423
" />
<path d="M145.1667 135.4423
L145.2619 135.3947
" />
<path d="M145.2619 135.3947
L145.3095 135.3471
" />
</g><text x="137.5000" y="72.5584"
transform="scale(-1 1) translate(-275.000000 0)"
textLength="2.2500" font-size="1.3333" lengthAdjust="spacingAndGlyphs"
text-anchor="middle" opacity="0" stroke-opacity="0">Q1</text>
<g class="stroked-text"><desc>Q1</desc>
<path d="M137.5952 72.6084
L137.6905 72.5608
" />
<path d="M137.6905 72.5608
L137.7857 72.4656
" />
<path d="M137.7857 72.4656
L137.9286 72.3227
" />
<path d="M137.9286 72.3227
L138.0238 72.2751
" />
<path d="M138.0238 72.2751
L138.1190 72.2751
" />
<path d="M138.0714 72.5132
L138.1667 72.4656
" />
<path d="M138.1667 72.4656
L138.2619 72.3703
" />
<path d="M138.2619 72.3703
L138.3095 72.1798
" />
<path d="M138.3095 72.1798
L138.3095 71.8465
" />
<path d="M138.3095 71.8465
L138.2619 71.6560
" />
<path d="M138.2619 71.6560
L138.1667 71.5608
" />
<path d="M138.1667 71.5608
L138.0714 71.5132
" />
<path d="M138.0714 71.5132
L137.8810 71.5132
" />
<path d="M137.8810 71.5132
L137.7857 71.5608
" />
<path d="M137.7857 71.5608
L137.6905 71.6560
" />
<path d="M137.6905 71.6560
L137.6429 71.8465
" />
<path d="M137.6429 71.8465
L137.6429 72.1798
" />
<path d="M137.6429 72.1798
L137.6905 72.3703
" />
<path d="M137.6905 72.3703
L137.7857 72.4656
" />
<path d="M137.7857 72.4656
L137.8810 72.5132
" />
<path d="M137.8810 72.5132
L138.0714 72.5132
" />
<path d="M136.6905 72.5132
L137.2619 72.5132
" />
<path d="M136.9762 72.5132
L136.9762 71.5132
" />
<path d="M136.9762 71.5132
L137.0714 71.6560
" />
<path d="M137.0714 71.6560
L137.1667 71.7513
" />
<path d="M137.1667 71.7513
L137.2619 71.7989
" />
</g><text x="158.0000" y="141.5000"
transform="scale(-1 1) translate(-316.000000 0)"
textLength="3.1548" font-size="1.3333" lengthAdjust="spacingAndGlyphs"
text-anchor="middle" opacity="0" stroke-opacity="0">D12</text>
<g class="stroked-text"><desc>D12</desc>
<path d="M159.2143 141.4548
L159.2143 140.4548
" />
<path d="M159.2143 140.4548
L158.9762 140.4548
" />
<path d="M158.9762 140.4548
L158.8333 140.5024
" />
<path d="M158.8333 140.5024
L158.7381 140.5977
" />
<path d="M158.7381 140.5977
L158.6905 140.6929
" />
<path d="M158.6905 140.6929
L158.6429 140.8834
" />
<path d="M158.6429 140.8834
L158.6429 141.0262
" />
<path d="M158.6429 141.0262
L158.6905 141.2167
" />
<path d="M158.6905 141.2167
L158.7381 141.3120
" />
<path d="M158.7381 141.3120
L158.8333 141.4072
" />
<path d="M158.8333 141.4072
L158.9762 141.4548
" />
<path d="M158.9762 141.4548
L159.2143 141.4548
" />
<path d="M157.6905 141.4548
L158.2619 141.4548
" />
<path d="M157.9762 141.4548
L157.9762 140.4548
" />
<path d="M157.9762 140.4548
L158.0714 140.5977
" />
<path d="M158.0714 140.5977
L158.1667 140.6929
" />
<path d="M158.1667 140.6929
L158.2619 140.7405
" />
<path d="M157.3095 140.5501
L157.2619 140.5024
" />
<path d="M157.2619 140.5024
L157.1667 140.4548
" />
<path d="M157.1667 140.4548
L156.9286 140.4548
" />
<path d="M156.9286 140.4548
L156.8333 140.5024
" />
<path d="M156.8333 140.5024
L156.7857 140.5501
" />
<path d="M156.7857 140.5501
L156.7381 140.6453
" />
<path d="M156.7381 140.6453
L156.7381 140.7405
" />
<path d="M156.7381 140.7405
L156.7857 140.8834
" />
<path d="M156.7857 140.8834
L157.3571 141.4548
" />
<path d="M157.3571 141.4548
L156.7381 141.4548
" />
</g><text x="134.0000" y="147.0000"
transform="scale(-1 1) translate(-268.000000 0)"
textLength="2.2024" font-size="1.3333" lengthAdjust="spacingAndGlyphs"
text-anchor="middle" opacity="0" stroke-opacity="0">D3</text>
<g class="stroked-text"><desc>D3</desc>
<path d="M134.7381 146.9548
L134.7381 145.9548
" />
<path d="M134.7381 145.9548
L134.5000 145.9548
" />
<path d="M134.5000 145.9548
L134.3571 146.0024
" />
<path d="M134.3571 146.0024
L134.2619 146.0977
" />
<path d="M134.2619 146.0977
L134.2143 146.1929
" />
<path d="M134.2143 146.1929
L134.1667 146.3834
" />
<path d="M134.1667 146.3834
L134.1667 146.5262
" />
<path d="M134.1667 146.5262
L134.2143 146.7167
" />
<path d="M134.2143 146.7167
L134.2619 146.8120
" />
<path d="M134.2619 146.8120
L134.3571 146.9072
" />
<path d="M134.3571 146.9072
L134.5000 146.9548
" />
<path d="M134.5000 146.9548
L134.7381 146.9548
" />
<path d="M133.8333 145.9548
L133.2143 145.9548
" />
<path d="M133.2143 145.9548
L133.5476 146.3358
" />
<path d="M133.5476 146.3358
L133.4048 146.3358
" />
<path d="M133.4048 146.3358
L133.3095 146.3834
" />
<path d="M133.3095 146.3834
L133.2619 146.4310
" />
<path d="M133.2619 146.4310
L133.2143 146.5262
" />
<path d="M133.2143 146.5262
L133.2143 146.7643
" />
<path d="M133.2143 146.7643
L133.2619 146.8596
" />
<path d="M133.2619 146.8596
L133.3095 146.9072
" />
<path d="M133.3095 146.9072
L133.4048 146.9548
" />
<path d="M133.4048 146.9548
L133.6905 146.9548
" />
<path d="M133.6905 146.9548
L133.7857 146.9072
" />
<path d="M133.7857 146.9072
L133.8333 146.8596
" />
</g><text x="122.0000" y="96.5584"
transform="scale(-1 1) translate(-244.000000 0)"
textLength="2.2024" font-size="1.3333" lengthAdjust="spacingAndGlyphs"
text-anchor="middle" opacity="0" stroke-opacity="0">R8</text>
<g class="stroked-text"><desc>R8</desc>
<path d="M122.1667 96.5132
L122.5000 96.0370
" />
<path d="M122.7381 96.5132
L122.7381 95.5132
" />
<path d="M122.7381 95.5132
L122.3571 95.5132
" />
<path d="M122.3571 95.5132
L122.2619 95.5608
" />
<path d="M122.2619 95.5608
L122.2143 95.6084
" />
<path d="M122.2143 95.6084
L122.1667 95.7037
" />
<path d="M122.1667 95.7037
L122.1667 95.8465
" />
<path d="M122.1667 95.8465
L122.2143 95.9418
" />
<path d="M122.2143 95.9418
L122.2619 95.9894
" />
<path d="M122.2619 95.9894
L122.3571 96.0370
" />
<path d="M122.3571 96.0370
L122.7381 96.0370
" />
<path d="M121.5952 95.9418
L121.6905 95.8941
" />
<path d="M121.6905 95.8941
L121.7381 95.8465
" />
<path d="M121.7381 95.8465
L121.7857 95.7513
" />
<path d="M121.7857 95.7513
L121.7857 95.7037
" />
<path d="M121.7857 95.7037
L121.7381 95.6084
" />
<path d="M121.7381 95.6084
L121.6905 95.5608
" />
<path d="M121.6905 95.5608
L121.5952 95.5132
" />
<path d="M121.5952 95.5132
L121.4048 95.5132
" />
<path d="M121.4048 95.5132
L121.3095 95.5608
" />
<path d="M121.3095 95.5608
L121.2619 95.6084
" />
<path d="M121.2619 95.6084
L121.2143 95.7037
" />
<path d="M121.2143 95.7037
L121.2143 95.7513
" />
<path d="M121.2143 95.7513
L121.2619 95.8465
" />
<path d="M121.2619 95.8465
L121.3095 95.8941
" />
<path d="M121.3095 95.8941
L121.4048 95.9418
" />
<path d="M121.4048 95.9418
L121.5952 95.9418
" />
<path d="M121.5952 95.9418
L121.6905 95.9894
" />
<path d="M121.6905 95.9894
L121.7381 96.0370
" />
<path d="M121.7381 96.0370
L121.7857 96.1322
" />
<path d="M121.7857 96.1322
L121.7857 96.3227
" />
<path d="M121.7857 96.3227
L121.7381 96.4179
" />
<path d="M121.7381 96.4179
L121.6905 96.4656
" />
<path d="M121.6905 96.4656
L121.5952 96.5132
" />
<path d="M121.5952 96.5132
L121.4048 96.5132
" />
<path d="M121.4048 96.5132
L121.3095 96.4656
" />
<path d="M121.3095 96.4656
L121.2619 96.4179
" />
<path d="M121.2619 96.4179
L121.2143 96.3227
" />
<path d="M121.2143 96.3227
L121.2143 96.1322
" />
<path d="M121.2143 96.1322
L121.2619 96.0370
" />
<path d="M121.2619 96.0370
L121.3095 95.9894
" />
<path d="M121.3095 95.9894
L121.4048 95.9418
" />
</g><text x="156.8750" y="131.1000"
transform="scale(-1 1) translate(-313.750000 0)"
textLength="2.2024" font-size="1.3333" lengthAdjust="spacingAndGlyphs"
text-anchor="middle" opacity="0" stroke-opacity="0">R5</text>
<g class="stroked-text"><desc>R5</desc>
<path d="M157.0417 131.0548
L157.3750 130.5786
" />
<path d="M157.6131 131.0548
L157.6131 130.0548
" />
<path d="M157.6131 130.0548
L157.2321 130.0548
" />
<path d="M157.2321 130.0548
L157.1369 130.1024
" />
<path d="M157.1369 130.1024
L157.0893 130.1501
" />
<path d="M157.0893 130.1501
L157.0417 130.2453
" />
<path d="M157.0417 130.2453
L157.0417 130.3882
" />
<path d="M157.0417 130.3882
L157.0893 130.4834
" />
<path d="M157.0893 130.4834
L157.1369 130.5310
" />
<path d="M157.1369 130.5310
L157.2321 130.5786
" />
<path d="M157.2321 130.5786
L157.6131 130.5786
" />
<path d="M156.1369 130.0548
L156.6131 130.0548
" />
<path d="M156.6131 130.0548
L156.6607 130.5310
" />
<path d="M156.6607 130.5310
L156.6131 130.4834
" />
<path d="M156.6131 130.4834
L156.5179 130.4358
" />
<path d="M156.5179 130.4358
L156.2798 130.4358
" />
<path d="M156.2798 130.4358
L156.1845 130.4834
" />
<path d="M156.1845 130.4834
L156.1369 130.5310
" />
<path d="M156.1369 130.5310
L156.0893 130.6262
" />
<path d="M156.0893 130.6262
L156.0893 130.8643
" />
<path d="M156.0893 130.8643
L156.1369 130.9596
" />
<path d="M156.1369 130.9596
L156.1845 131.0072
" />
<path d="M156.1845 131.0072
L156.2798 131.0548
" />
<path d="M156.2798 131.0548
L156.5179 131.0548
" />
<path d="M156.5179 131.0548
L156.6131 131.0072
" />
<path d="M156.6131 131.0072
L156.6607 130.9596
" />
</g><text x="123.0000" y="85.3084"
transform="scale(-1 1) translate(-246.000000 0)"
textLength="2.2500" font-size="1.3333" lengthAdjust="spacingAndGlyphs"
text-anchor="middle" opacity="0" stroke-opacity="0">Q5</text>
<g class="stroked-text"><desc>Q5</desc>
<path d="M123.0952 85.3584
L123.1905 85.3108
" />
<path d="M123.1905 85.3108
L123.2857 85.2156
" />
<path d="M123.2857 85.2156
L123.4286 85.0727
" />
<path d="M123.4286 85.0727
L123.5238 85.0251
" />
<path d="M123.5238 85.0251
L123.6190 85.0251
" />
<path d="M123.5714 85.2632
L123.6667 85.2156
" />
<path d="M123.6667 85.2156
L123.7619 85.1203
" />
<path d="M123.7619 85.1203
L123.8095 84.9298
" />
<path d="M123.8095 84.9298
L123.8095 84.5965
" />
<path d="M123.8095 84.5965
L123.7619 84.4060
" />
<path d="M123.7619 84.4060
L123.6667 84.3108
" />
<path d="M123.6667 84.3108
L123.5714 84.2632
" />
<path d="M123.5714 84.2632
L123.3810 84.2632
" />
<path d="M123.3810 84.2632
L123.2857 84.3108
" />
<path d="M123.2857 84.3108
L123.1905 84.4060
" />
<path d="M123.1905 84.4060
L123.1429 84.5965
" />
<path d="M123.1429 84.5965
L123.1429 84.9298
" />
<path d="M123.1429 84.9298
L123.1905 85.1203
" />
<path d="M123.1905 85.1203
L123.2857 85.2156
" />
<path d="M123.2857 85.2156
L123.3810 85.2632
" />
<path d="M123.3810 85.2632
L123.5714 85.2632
" />
<path d="M122.2381 84.2632
L122.7143 84.2632
" />
<path d="M122.7143 84.2632
L122.7619 84.7394
" />
<path d="M122.7619 84.7394
L122.7143 84.6918
" />
<path d="M122.7143 84.6918
L122.6190 84.6441
" />
<path d="M122.6190 84.6441
L122.3810 84.6441
" />
<path d="M122.3810 84.6441
L122.2857 84.6918
" />
<path d="M122.2857 84.6918
L122.2381 84.7394
" />
<path d="M122.2381 84.7394
L122.1905 84.8346
" />
<path d="M122.1905 84.8346
L122.1905 85.0727
" />
<path d="M122.1905 85.0727
L122.2381 85.1679
" />
<path d="M122.2381 85.1679
L122.2857 85.2156
" />
<path d="M122.2857 85.2156
L122.3810 85.2632
" />
<path d="M122.3810 85.2632
L122.6190 85.2632
" />
<path d="M122.6190 85.2632
L122.7143 85.2156
" />
<path d="M122.7143 85.2156
L122.7619 85.1679
" />
</g><g transform="rotate(-90.000000 174.8950 97.7450)">
<text x="174.8950" y="98.2450"
transform="scale(-1 1) translate(-349.790000 0)"
textLength="3.1548" font-size="1.3333" lengthAdjust="spacingAndGlyphs"
text-anchor="middle" opacity="0" stroke-opacity="0">R21</text>
</g>
<g class="stroked-text"><desc>R21</desc>
<path d="M175.3498 97.1021
L174.8736 96.7688
" />
<path d="M175.3498 96.5307
L174.3498 96.5307
" />
<path d="M174.3498 96.5307
L174.3498 96.9117
" />
<path d="M174.3498 96.9117
L174.3974 97.0069
" />
<path d="M174.3974 97.0069
L174.4451 97.0545
" />
<path d="M174.4451 97.0545
L174.5403 97.1021
" />
<path d="M174.5403 97.1021
L174.6832 97.1021
" />
<path d="M174.6832 97.1021
L174.7784 97.0545
" />
<path d="M174.7784 97.0545
L174.8260 97.0069
" />
<path d="M174.8260 97.0069
L174.8736 96.9117
" />
<path d="M174.8736 96.9117
L174.8736 96.5307
" />
<path d="M174.4451 97.4831
L174.3974 97.5307
" />
<path d="M174.3974 97.5307
L174.3498 97.6260
" />
<path d="M174.3498 97.6260
L174.3498 97.8640
" />
<path d="M174.3498 97.8640
L174.3974 97.9593
" />
<path d="M174.3974 97.9593
L174.4451 98.0069
" />
<path d="M174.4451 98.0069
L174.5403 98.0545
" />
<path d="M174.5403 98.0545
L174.6355 98.0545
" />
<path d="M174.6355 98.0545
L174.7784 98.0069
" />
<path d="M174.7784 98.0069
L175.3498 97.4355
" />
<path d="M175.3498 97.4355
L175.3498 98.0545
" />
<path d="M175.3498 99.0069
L175.3498 98.4355
" />
<path d="M175.3498 98.7212
L174.3498 98.7212
" />
<path d="M174.3498 98.7212
L174.4927 98.6260
" />
<path d="M174.4927 98.6260
L174.5879 98.5307
" />
<path d="M174.5879 98.5307
L174.6355 98.4355
" />
</g><text x="122.0000" y="106.2500"
transform="scale(-1 1) translate(-244.000000 0)"
textLength="3.1548" font-size="1.3333" lengthAdjust="spacingAndGlyphs"
text-anchor="middle" opacity="0" stroke-opacity="0">D15</text>
<g class="stroked-text"><desc>D15</desc>
<path d="M123.2143 106.2048
L123.2143 105.2048
" />
<path d="M123.2143 105.2048
L122.9762 105.2048
" />
<path d="M122.9762 105.2048
L122.8333 105.2524
" />
<path d="M122.8333 105.2524
L122.7381 105.3477
" />
<path d="M122.7381 105.3477
L122.6905 105.4429
" />
<path d="M122.6905 105.4429
L122.6429 105.6334
" />
<path d="M122.6429 105.6334
L122.6429 105.7762
" />
<path d="M122.6429 105.7762
L122.6905 105.9667
" />
<path d="M122.6905 105.9667
L122.7381 106.0620
" />
<path d="M122.7381 106.0620
L122.8333 106.1572
" />
<path d="M122.8333 106.1572
L122.9762 106.2048
" />
<path d="M122.9762 106.2048
L123.2143 106.2048
" />
<path d="M121.6905 106.2048
L122.2619 106.2048
" />
<path d="M121.9762 106.2048
L121.9762 105.2048
" />
<path d="M121.9762 105.2048
L122.0714 105.3477
" />
<path d="M122.0714 105.3477
L122.1667 105.4429
" />
<path d="M122.1667 105.4429
L122.2619 105.4905
" />
<path d="M120.7857 105.2048
L121.2619 105.2048
" />
<path d="M121.2619 105.2048
L121.3095 105.6810
" />
<path d="M121.3095 105.6810
L121.2619 105.6334
" />
<path d="M121.2619 105.6334
L121.1667 105.5858
" />
<path d="M121.1667 105.5858
L120.9286 105.5858
" />
<path d="M120.9286 105.5858
L120.8333 105.6334
" />
<path d="M120.8333 105.6334
L120.7857 105.6810
" />
<path d="M120.7857 105.6810
L120.7381 105.7762
" />
<path d="M120.7381 105.7762
L120.7381 106.0143
" />
<path d="M120.7381 106.0143
L120.7857 106.1096
" />
<path d="M120.7857 106.1096
L120.8333 106.1572
" />
<path d="M120.8333 106.1572
L120.9286 106.2048
" />
<path d="M120.9286 106.2048
L121.1667 106.2048
" />
<path d="M121.1667 106.2048
L121.2619 106.1572
" />
<path d="M121.2619 106.1572
L121.3095 106.1096
" />
</g><text x="122.0000" y="87.7500"
transform="scale(-1 1) translate(-244.000000 0)"
textLength="3.1548" font-size="1.3333" lengthAdjust="spacingAndGlyphs"
text-anchor="middle" opacity="0" stroke-opacity="0">D13</text>
<g class="stroked-text"><desc>D13</desc>
<path d="M123.2143 87.7048
L123.2143 86.7048
" />
<path d="M123.2143 86.7048
L122.9762 86.7048
" />
<path d="M122.9762 86.7048
L122.8333 86.7524
" />
<path d="M122.8333 86.7524
L122.7381 86.8477
" />
<path d="M122.7381 86.8477
L122.6905 86.9429
" />
<path d="M122.6905 86.9429
L122.6429 87.1334
" />
<path d="M122.6429 87.1334
L122.6429 87.2762
" />
<path d="M122.6429 87.2762
L122.6905 87.4667
" />
<path d="M122.6905 87.4667
L122.7381 87.5620
" />
<path d="M122.7381 87.5620
L122.8333 87.6572
" />
<path d="M122.8333 87.6572
L122.9762 87.7048
" />
<path d="M122.9762 87.7048
L123.2143 87.7048
" />
<path d="M121.6905 87.7048
L122.2619 87.7048
" />
<path d="M121.9762 87.7048
L121.9762 86.7048
" />
<path d="M121.9762 86.7048
L122.0714 86.8477
" />
<path d="M122.0714 86.8477
L122.1667 86.9429
" />
<path d="M122.1667 86.9429
L122.2619 86.9905
" />
<path d="M121.3571 86.7048
L120.7381 86.7048
" />
<path d="M120.7381 86.7048
L121.0714 87.0858
" />
<path d="M121.0714 87.0858
L120.9286 87.0858
" />
<path d="M120.9286 87.0858
L120.8333 87.1334
" />
<path d="M120.8333 87.1334
L120.7857 87.1810
" />
<path d="M120.7857 87.1810
L120.7381 87.2762
" />
<path d="M120.7381 87.2762
L120.7381 87.5143
" />
<path d="M120.7381 87.5143
L120.7857 87.6096
" />
<path d="M120.7857 87.6096
L120.8333 87.6572
" />
<path d="M120.8333 87.6572
L120.9286 87.7048
" />
<path d="M120.9286 87.7048
L121.2143 87.7048
" />
<path d="M121.2143 87.7048
L121.3095 87.6572
" />
<path d="M121.3095 87.6572
L121.3571 87.6096
" />
</g><text x="135.7500" y="132.5000"
transform="scale(-1 1) translate(-271.500000 0)"
textLength="3.1548" font-size="1.3333" lengthAdjust="spacingAndGlyphs"
text-anchor="middle" opacity="0" stroke-opacity="0">D11</text>
<g class="stroked-text"><desc>D11</desc>
<path d="M136.9643 132.4548
L136.9643 131.4548
" />
<path d="M136.9643 131.4548
L136.7262 131.4548
" />
<path d="M136.7262 131.4548
L136.5833 131.5024
" />
<path d="M136.5833 131.5024
L136.4881 131.5977
" />
<path d="M136.4881 131.5977
L136.4405 131.6929
" />
<path d="M136.4405 131.6929
L136.3929 131.8834
" />
<path d="M136.3929 131.8834
L136.3929 132.0262
" />
<path d="M136.3929 132.0262
L136.4405 132.2167
" />
<path d="M136.4405 132.2167
L136.4881 132.3120
" />
<path d="M136.4881 132.3120
L136.5833 132.4072
" />
<path d="M136.5833 132.4072
L136.7262 132.4548
" />
<path d="M136.7262 132.4548
L136.9643 132.4548
" />
<path d="M135.4405 132.4548
L136.0119 132.4548
" />
<path d="M135.7262 132.4548
L135.7262 131.4548
" />
<path d="M135.7262 131.4548
L135.8214 131.5977
" />
<path d="M135.8214 131.5977
L135.9167 131.6929
" />
<path d="M135.9167 131.6929
L136.0119 131.7405
" />
<path d="M134.4881 132.4548
L135.0595 132.4548
" />
<path d="M134.7738 132.4548
L134.7738 131.4548
" />
<path d="M134.7738 131.4548
L134.8690 131.5977
" />
<path d="M134.8690 131.5977
L134.9643 131.6929
" />
<path d="M134.9643 131.6929
L135.0595 131.7405
" />
</g><text x="120.7500" y="135.5000"
transform="scale(-1 1) translate(-241.500000 0)"
textLength="1.9643" font-size="1.3333" lengthAdjust="spacingAndGlyphs"
text-anchor="middle" opacity="0" stroke-opacity="0">J6</text>
<g class="stroked-text"><desc>J6</desc>
<path d="M121.0833 134.4548
L121.0833 135.1691
" />
<path d="M121.0833 135.1691
L121.1310 135.3120
" />
<path d="M121.1310 135.3120
L121.2262 135.4072
" />
<path d="M121.2262 135.4072
L121.3690 135.4548
" />
<path d="M121.3690 135.4548
L121.4643 135.4548
" />
<path d="M120.1786 134.4548
L120.3690 134.4548
" />
<path d="M120.3690 134.4548
L120.4643 134.5024
" />
<path d="M120.4643 134.5024
L120.5119 134.5501
" />
<path d="M120.5119 134.5501
L120.6071 134.6929
" />
<path d="M120.6071 134.6929
L120.6548 134.8834
" />
<path d="M120.6548 134.8834
L120.6548 135.2643
" />
<path d="M120.6548 135.2643
L120.6071 135.3596
" />
<path d="M120.6071 135.3596
L120.5595 135.4072
" />
<path d="M120.5595 135.4072
L120.4643 135.4548
" />
<path d="M120.4643 135.4548
L120.2738 135.4548
" />
<path d="M120.2738 135.4548
L120.1786 135.4072
" />
<path d="M120.1786 135.4072
L120.1310 135.3596
" />
<path d="M120.1310 135.3596
L120.0833 135.2643
" />
<path d="M120.0833 135.2643
L120.0833 135.0262
" />
<path d="M120.0833 135.0262
L120.1310 134.9310
" />
<path d="M120.1310 134.9310
L120.1786 134.8834
" />
<path d="M120.1786 134.8834
L120.2738 134.8358
" />
<path d="M120.2738 134.8358
L120.4643 134.8358
" />
<path d="M120.4643 134.8358
L120.5595 134.8834
" />
<path d="M120.5595 134.8834
L120.6071 134.9310
" />
<path d="M120.6071 134.9310
L120.6548 135.0262
" />
</g><text x="142.0000" y="68.7500"
transform="scale(-1 1) translate(-284.000000 0)"
textLength="2.2024" font-size="1.3333" lengthAdjust="spacingAndGlyphs"
text-anchor="middle" opacity="0" stroke-opacity="0">D2</text>
<g class="stroked-text"><desc>D2</desc>
<path d="M142.7381 68.7048
L142.7381 67.7048
" />
<path d="M142.7381 67.7048
L142.5000 67.7048
" />
<path d="M142.5000 67.7048
L142.3571 67.7524
" />
<path d="M142.3571 67.7524
L142.2619 67.8477
" />
<path d="M142.2619 67.8477
L142.2143 67.9429
" />
<path d="M142.2143 67.9429
L142.1667 68.1334
" />
<path d="M142.1667 68.1334
L142.1667 68.2762
" />
<path d="M142.1667 68.2762
L142.2143 68.4667
" />
<path d="M142.2143 68.4667
L142.2619 68.5620
" />
<path d="M142.2619 68.5620
L142.3571 68.6572
" />
<path d="M142.3571 68.6572
L142.5000 68.7048
" />
<path d="M142.5000 68.7048
L142.7381 68.7048
" />
<path d="M141.7857 67.8001
L141.7381 67.7524
" />
<path d="M141.7381 67.7524
L141.6429 67.7048
" />
<path d="M141.6429 67.7048
L141.4048 67.7048
" />
<path d="M141.4048 67.7048
L141.3095 67.7524
" />
<path d="M141.3095 67.7524
L141.2619 67.8001
" />
<path d="M141.2619 67.8001
L141.2143 67.8953
" />
<path d="M141.2143 67.8953
L141.2143 67.9905
" />
<path d="M141.2143 67.9905
L141.2619 68.1334
" />
<path d="M141.2619 68.1334
L141.8333 68.7048
" />
<path d="M141.8333 68.7048
L141.2143 68.7048
" />
</g><text x="124.2500" y="120.7500"
transform="scale(-1 1) translate(-248.500000 0)"
textLength="2.2024" font-size="1.3333" lengthAdjust="spacingAndGlyphs"
text-anchor="middle" opacity="0" stroke-opacity="0">D4</text>
<g class="stroked-text"><desc>D4</desc>
<path d="M124.9881 120.7048
L124.9881 119.7048
" />
<path d="M124.9881 119.7048
L124.7500 119.7048
" />
<path d="M124.7500 119.7048
L124.6071 119.7524
" />
<path d="M124.6071 119.7524
L124.5119 119.8477
" />
<path d="M124.5119 119.8477
L124.4643 119.9429
" />
<path d="M124.4643 119.9429
L124.4167 120.1334
" />
<path d="M124.4167 120.1334
L124.4167 120.2762
" />
<path d="M124.4167 120.2762
L124.4643 120.4667
" />
<path d="M124.4643 120.4667
L124.5119 120.5620
" />
<path d="M124.5119 120.5620
L124.6071 120.6572
" />
<path d="M124.6071 120.6572
L124.7500 120.7048
" />
<path d="M124.7500 120.7048
L124.9881 120.7048
" />
<path d="M123.5595 120.0382
L123.5595 120.7048
" />
<path d="M123.7976 119.6572
L124.0357 120.3715
" />
<path d="M124.0357 120.3715
L123.4167 120.3715
" />
</g><text x="122.2500" y="78.0584"
transform="scale(-1 1) translate(-244.500000 0)"
textLength="2.2024" font-size="1.3333" lengthAdjust="spacingAndGlyphs"
text-anchor="middle" opacity="0" stroke-opacity="0">R7</text>
<g class="stroked-text"><desc>R7</desc>
<path d="M122.4167 78.0132
L122.7500 77.5370
" />
<path d="M122.9881 78.0132
L122.9881 77.0132
" />
<path d="M122.9881 77.0132
L122.6071 77.0132
" />
<path d="M122.6071 77.0132
L122.5119 77.0608
" />
<path d="M122.5119 77.0608
L122.4643 77.1084
" />
<path d="M122.4643 77.1084
L122.4167 77.2037
" />
<path d="M122.4167 77.2037
L122.4167 77.3465
" />
<path d="M122.4167 77.3465
L122.4643 77.4418
" />
<path d="M122.4643 77.4418
L122.5119 77.4894
" />
<path d="M122.5119 77.4894
L122.6071 77.5370
" />
<path d="M122.6071 77.5370
L122.9881 77.5370
" />
<path d="M122.0833 77.0132
L121.4167 77.0132
" />
<path d="M121.4167 77.0132
L121.8452 78.0132
" />
</g><text x="122.5625" y="103.8084"
transform="scale(-1 1) translate(-245.125000 0)"
textLength="2.2500" font-size="1.3333" lengthAdjust="spacingAndGlyphs"
text-anchor="middle" opacity="0" stroke-opacity="0">Q6</text>
<g class="stroked-text"><desc>Q6</desc>
<path d="M122.6577 103.8584
L122.7530 103.8108
" />
<path d="M122.7530 103.8108
L122.8482 103.7156
" />
<path d="M122.8482 103.7156
L122.9911 103.5727
" />
<path d="M122.9911 103.5727
L123.0863 103.5251
" />
<path d="M123.0863 103.5251
L123.1815 103.5251
" />
<path d="M123.1339 103.7632
L123.2292 103.7156
" />
<path d="M123.2292 103.7156
L123.3244 103.6203
" />
<path d="M123.3244 103.6203
L123.3720 103.4298
" />
<path d="M123.3720 103.4298
L123.3720 103.0965
" />
<path d="M123.3720 103.0965
L123.3244 102.9060
" />
<path d="M123.3244 102.9060
L123.2292 102.8108
" />
<path d="M123.2292 102.8108
L123.1339 102.7632
" />
<path d="M123.1339 102.7632
L122.9435 102.7632
" />
<path d="M122.9435 102.7632
L122.8482 102.8108
" />
<path d="M122.8482 102.8108
L122.7530 102.9060
" />
<path d="M122.7530 102.9060
L122.7054 103.0965
" />
<path d="M122.7054 103.0965
L122.7054 103.4298
" />
<path d="M122.7054 103.4298
L122.7530 103.6203
" />
<path d="M122.7530 103.6203
L122.8482 103.7156
" />
<path d="M122.8482 103.7156
L122.9435 103.7632
" />
<path d="M122.9435 103.7632
L123.1339 103.7632
" />
<path d="M121.8482 102.7632
L122.0387 102.7632
" />
<path d="M122.0387 102.7632
L122.1339 102.8108
" />
<path d="M122.1339 102.8108
L122.1815 102.8584
" />
<path d="M122.1815 102.8584
L122.2768 103.0013
" />
<path d="M122.2768 103.0013
L122.3244 103.1918
" />
<path d="M122.3244 103.1918
L122.3244 103.5727
" />
<path d="M122.3244 103.5727
L122.2768 103.6679
" />
<path d="M122.2768 103.6679
L122.2292 103.7156
" />
<path d="M122.2292 103.7156
L122.1339 103.7632
" />
<path d="M122.1339 103.7632
L121.9435 103.7632
" />
<path d="M121.9435 103.7632
L121.8482 103.7156
" />
<path d="M121.8482 103.7156
L121.8006 103.6679
" />
<path d="M121.8006 103.6679
L121.7530 103.5727
" />
<path d="M121.7530 103.5727
L121.7530 103.3346
" />
<path d="M121.7530 103.3346
L121.8006 103.2394
" />
<path d="M121.8006 103.2394
L121.8482 103.1918
" />
<path d="M121.8482 103.1918
L121.9435 103.1441
" />
<path d="M121.9435 103.1441
L122.1339 103.1441
" />
<path d="M122.1339 103.1441
L122.2292 103.1918
" />
<path d="M122.2292 103.1918
L122.2768 103.2394
" />
<path d="M122.2768 103.2394
L122.3244 103.3346
" />
</g><text x="124.5000" y="127.0000"
transform="scale(-1 1) translate(-249.000000 0)"
textLength="2.2024" font-size="1.3333" lengthAdjust="spacingAndGlyphs"
text-anchor="middle" opacity="0" stroke-opacity="0">D6</text>
<g class="stroked-text"><desc>D6</desc>
<path d="M125.2381 126.9548
L125.2381 125.9548
" />
<path d="M125.2381 125.9548
L125.0000 125.9548
" />
<path d="M125.0000 125.9548
L124.8571 126.0024
" />
<path d="M124.8571 126.0024
L124.7619 126.0977
" />
<path d="M124.7619 126.0977
L124.7143 126.1929
" />
<path d="M124.7143 126.1929
L124.6667 126.3834
" />
<path d="M124.6667 126.3834
L124.6667 126.5262
" />
<path d="M124.6667 126.5262
L124.7143 126.7167
" />
<path d="M124.7143 126.7167
L124.7619 126.8120
" />
<path d="M124.7619 126.8120
L124.8571 126.9072
" />
<path d="M124.8571 126.9072
L125.0000 126.9548
" />
<path d="M125.0000 126.9548
L125.2381 126.9548
" />
<path d="M123.8095 125.9548
L124.0000 125.9548
" />
<path d="M124.0000 125.9548
L124.0952 126.0024
" />
<path d="M124.0952 126.0024
L124.1429 126.0501
" />
<path d="M124.1429 126.0501
L124.2381 126.1929
" />
<path d="M124.2381 126.1929
L124.2857 126.3834
" />
<path d="M124.2857 126.3834
L124.2857 126.7643
" />
<path d="M124.2857 126.7643
L124.2381 126.8596
" />
<path d="M124.2381 126.8596
L124.1905 126.9072
" />
<path d="M124.1905 126.9072
L124.0952 126.9548
" />
<path d="M124.0952 126.9548
L123.9048 126.9548
" />
<path d="M123.9048 126.9548
L123.8095 126.9072
" />
<path d="M123.8095 126.9072
L123.7619 126.8596
" />
<path d="M123.7619 126.8596
L123.7143 126.7643
" />
<path d="M123.7143 126.7643
L123.7143 126.5262
" />
<path d="M123.7143 126.5262
L123.7619 126.4310
" />
<path d="M123.7619 126.4310
L123.8095 126.3834
" />
<path d="M123.8095 126.3834
L123.9048 126.3358
" />
<path d="M123.9048 126.3358
L124.0952 126.3358
" />
<path d="M124.0952 126.3358
L124.1905 126.3834
" />
<path d="M124.1905 126.3834
L124.2381 126.4310
" />
<path d="M124.2381 126.4310
L124.2857 126.5262
" />
</g><text x="138.5000" y="139.5000"
transform="scale(-1 1) translate(-277.000000 0)"
textLength="2.2500" font-size="1.3333" lengthAdjust="spacingAndGlyphs"
text-anchor="middle" opacity="0" stroke-opacity="0">Q2</text>
<g class="stroked-text"><desc>Q2</desc>
<path d="M138.5952 139.5501
L138.6905 139.5024
" />
<path d="M138.6905 139.5024
L138.7857 139.4072
" />
<path d="M138.7857 139.4072
L138.9286 139.2643
" />
<path d="M138.9286 139.2643
L139.0238 139.2167
" />
<path d="M139.0238 139.2167
L139.1190 139.2167
" />
<path d="M139.0714 139.4548
L139.1667 139.4072
" />
<path d="M139.1667 139.4072
L139.2619 139.3120
" />
<path d="M139.2619 139.3120
L139.3095 139.1215
" />
<path d="M139.3095 139.1215
L139.3095 138.7882
" />
<path d="M139.3095 138.7882
L139.2619 138.5977
" />
<path d="M139.2619 138.5977
L139.1667 138.5024
" />
<path d="M139.1667 138.5024
L139.0714 138.4548
" />
<path d="M139.0714 138.4548
L138.8810 138.4548
" />
<path d="M138.8810 138.4548
L138.7857 138.5024
" />
<path d="M138.7857 138.5024
L138.6905 138.5977
" />
<path d="M138.6905 138.5977
L138.6429 138.7882
" />
<path d="M138.6429 138.7882
L138.6429 139.1215
" />
<path d="M138.6429 139.1215
L138.6905 139.3120
" />
<path d="M138.6905 139.3120
L138.7857 139.4072
" />
<path d="M138.7857 139.4072
L138.8810 139.4548
" />
<path d="M138.8810 139.4548
L139.0714 139.4548
" />
<path d="M138.2619 138.5501
L138.2143 138.5024
" />
<path d="M138.2143 138.5024
L138.1190 138.4548
" />
<path d="M138.1190 138.4548
L137.8810 138.4548
" />
<path d="M137.8810 138.4548
L137.7857 138.5024
" />
<path d="M137.7857 138.5024
L137.7381 138.5501
" />
<path d="M137.7381 138.5501
L137.6905 138.6453
" />
<path d="M137.6905 138.6453
L137.6905 138.7405
" />
<path d="M137.6905 138.7405
L137.7381 138.8834
" />
<path d="M137.7381 138.8834
L138.3095 139.4548
" />
<path d="M138.3095 139.4548
L137.6905 139.4548
" />
</g><text x="152.5000" y="134.5000"
transform="scale(-1 1) translate(-305.000000 0)"
textLength="3.1548" font-size="1.3333" lengthAdjust="spacingAndGlyphs"
text-anchor="middle" opacity="0" stroke-opacity="0">R17</text>
<g class="stroked-text"><desc>R17</desc>
<path d="M153.1429 134.4548
L153.4762 133.9786
" />
<path d="M153.7143 134.4548
L153.7143 133.4548
" />
<path d="M153.7143 133.4548
L153.3333 133.4548
" />
<path d="M153.3333 133.4548
L153.2381 133.5024
" />
<path d="M153.2381 133.5024
L153.1905 133.5501
" />
<path d="M153.1905 133.5501
L153.1429 133.6453
" />
<path d="M153.1429 133.6453
L153.1429 133.7882
" />
<path d="M153.1429 133.7882
L153.1905 133.8834
" />
<path d="M153.1905 133.8834
L153.2381 133.9310
" />
<path d="M153.2381 133.9310
L153.3333 133.9786
" />
<path d="M153.3333 133.9786
L153.7143 133.9786
" />
<path d="M152.1905 134.4548
L152.7619 134.4548
" />
<path d="M152.4762 134.4548
L152.4762 133.4548
" />
<path d="M152.4762 133.4548
L152.5714 133.5977
" />
<path d="M152.5714 133.5977
L152.6667 133.6929
" />
<path d="M152.6667 133.6929
L152.7619 133.7405
" />
<path d="M151.8571 133.4548
L151.1905 133.4548
" />
<path d="M151.1905 133.4548
L151.6190 134.4548
" />
</g><text x="109.0000" y="112.0000"
transform="scale(-1 1) translate(-218.000000 0)"
textLength="2.2024" font-size="1.3333" lengthAdjust="spacingAndGlyphs"
text-anchor="middle" opacity="0" stroke-opacity="0">D9</text>
<g class="stroked-text"><desc>D9</desc>
<path d="M109.7381 111.9548
L109.7381 110.9548
" />
<path d="M109.7381 110.9548
L109.5000 110.9548
" />
<path d="M109.5000 110.9548
L109.3571 111.0024
" />
<path d="M109.3571 111.0024
L109.2619 111.0977
" />
<path d="M109.2619 111.0977
L109.2143 111.1929
" />
<path d="M109.2143 111.1929
L109.1667 111.3834
" />
<path d="M109.1667 111.3834
L109.1667 111.5262
" />
<path d="M109.1667 111.5262
L109.2143 111.7167
" />
<path d="M109.2143 111.7167
L109.2619 111.8120
" />
<path d="M109.2619 111.8120
L109.3571 111.9072
" />
<path d="M109.3571 111.9072
L109.5000 111.9548
" />
<path d="M109.5000 111.9548
L109.7381 111.9548
" />
<path d="M108.6905 111.9548
L108.5000 111.9548
" />
<path d="M108.5000 111.9548
L108.4048 111.9072
" />
<path d="M108.4048 111.9072
L108.3571 111.8596
" />
<path d="M108.3571 111.8596
L108.2619 111.7167
" />
<path d="M108.2619 111.7167
L108.2143 111.5262
" />
<path d="M108.2143 111.5262
L108.2143 111.1453
" />
<path d="M108.2143 111.1453
L108.2619 111.0501
" />
<path d="M108.2619 111.0501
L108.3095 111.0024
" />
<path d="M108.3095 111.0024
L108.4048 110.9548
" />
<path d="M108.4048 110.9548
L108.5952 110.9548
" />
<path d="M108.5952 110.9548
L108.6905 111.0024
" />
<path d="M108.6905 111.0024
L108.7381 111.0501
" />
<path d="M108.7381 111.0501
L108.7857 111.1453
" />
<path d="M108.7857 111.1453
L108.7857 111.3834
" />
<path d="M108.7857 111.3834
L108.7381 111.4786
" />
<path d="M108.7381 111.4786
L108.6905 111.5262
" />
<path d="M108.6905 111.5262
L108.5952 111.5739
" />
<path d="M108.5952 111.5739
L108.4048 111.5739
" />
<path d="M108.4048 111.5739
L108.3095 111.5262
" />
<path d="M108.3095 111.5262
L108.2619 111.4786
" />
<path d="M108.2619 111.4786
L108.2143 111.3834
" />
</g><text x="132.1771" y="139.0000"
transform="scale(-1 1) translate(-264.354128 0)"
textLength="2.2024" font-size="1.3333" lengthAdjust="spacingAndGlyphs"
text-anchor="middle" opacity="0" stroke-opacity="0">R2</text>
<g class="stroked-text"><desc>R2</desc>
<path d="M132.3437 138.9548
L132.6771 138.4786
" />
<path d="M132.9152 138.9548
L132.9152 137.9548
" />
<path d="M132.9152 137.9548
L132.5342 137.9548
" />
<path d="M132.5342 137.9548
L132.4390 138.0024
" />
<path d="M132.4390 138.0024
L132.3913 138.0501
" />
<path d="M132.3913 138.0501
L132.3437 138.1453
" />
<path d="M132.3437 138.1453
L132.3437 138.2882
" />
<path d="M132.3437 138.2882
L132.3913 138.3834
" />
<path d="M132.3913 138.3834
L132.4390 138.4310
" />
<path d="M132.4390 138.4310
L132.5342 138.4786
" />
<path d="M132.5342 138.4786
L132.9152 138.4786
" />
<path d="M131.9628 138.0501
L131.9152 138.0024
" />
<path d="M131.9152 138.0024
L131.8199 137.9548
" />
<path d="M131.8199 137.9548
L131.5818 137.9548
" />
<path d="M131.5818 137.9548
L131.4866 138.0024
" />
<path d="M131.4866 138.0024
L131.4390 138.0501
" />
<path d="M131.4390 138.0501
L131.3913 138.1453
" />
<path d="M131.3913 138.1453
L131.3913 138.2405
" />
<path d="M131.3913 138.2405
L131.4390 138.3834
" />
<path d="M131.4390 138.3834
L132.0104 138.9548
" />
<path d="M132.0104 138.9548
L131.3913 138.9548
" />
</g><g transform="rotate(-90.000000 151.0000 130.0000)">
<text x="151.0000" y="130.5000"
transform="scale(-1 1) translate(-302.000000 0)"
textLength="2.2024" font-size="1.3333" lengthAdjust="spacingAndGlyphs"
text-anchor="middle" opacity="0" stroke-opacity="0">R4</text>
</g>
<g class="stroked-text"><desc>R4</desc>
<path d="M151.4548 129.8333
L150.9786 129.5000
" />
<path d="M151.4548 129.2619
L150.4548 129.2619
" />
<path d="M150.4548 129.2619
L150.4548 129.6429
" />
<path d="M150.4548 129.6429
L150.5024 129.7381
" />
<path d="M150.5024 129.7381
L150.5501 129.7857
" />
<path d="M150.5501 129.7857
L150.6453 129.8333
" />
<path d="M150.6453 129.8333
L150.7882 129.8333
" />
<path d="M150.7882 129.8333
L150.8834 129.7857
" />
<path d="M150.8834 129.7857
L150.9310 129.7381
" />
<path d="M150.9310 129.7381
L150.9786 129.6429
" />
<path d="M150.9786 129.6429
L150.9786 129.2619
" />
<path d="M150.7882 130.6905
L151.4548 130.6905
" />
<path d="M150.4072 130.4524
L151.1215 130.2143
" />
<path d="M151.1215 130.2143
L151.1215 130.8333
" />
</g><text x="128.7500" y="83.3084"
transform="scale(-1 1) translate(-257.500000 0)"
textLength="3.1548" font-size="1.3333" lengthAdjust="spacingAndGlyphs"
text-anchor="middle" opacity="0" stroke-opacity="0">D14</text>
<g class="stroked-text"><desc>D14</desc>
<path d="M129.9643 83.2632
L129.9643 82.2632
" />
<path d="M129.9643 82.2632
L129.7262 82.2632
" />
<path d="M129.7262 82.2632
L129.5833 82.3108
" />
<path d="M129.5833 82.3108
L129.4881 82.4060
" />
<path d="M129.4881 82.4060
L129.4405 82.5013
" />
<path d="M129.4405 82.5013
L129.3929 82.6918
" />
<path d="M129.3929 82.6918
L129.3929 82.8346
" />
<path d="M129.3929 82.8346
L129.4405 83.0251
" />
<path d="M129.4405 83.0251
L129.4881 83.1203
" />
<path d="M129.4881 83.1203
L129.5833 83.2156
" />
<path d="M129.5833 83.2156
L129.7262 83.2632
" />
<path d="M129.7262 83.2632
L129.9643 83.2632
" />
<path d="M128.4405 83.2632
L129.0119 83.2632
" />
<path d="M128.7262 83.2632
L128.7262 82.2632
" />
<path d="M128.7262 82.2632
L128.8214 82.4060
" />
<path d="M128.8214 82.4060
L128.9167 82.5013
" />
<path d="M128.9167 82.5013
L129.0119 82.5489
" />
<path d="M127.5833 82.5965
L127.5833 83.2632
" />
<path d="M127.8214 82.2156
L128.0595 82.9298
" />
<path d="M128.0595 82.9298
L127.4405 82.9298
" />
</g><text x="151.3500" y="144.3875"
transform="scale(-1 1) translate(-302.700000 0)"
textLength="2.2500" font-size="1.3333" lengthAdjust="spacingAndGlyphs"
text-anchor="middle" opacity="0" stroke-opacity="0">Q4</text>
<g class="stroked-text"><desc>Q4</desc>
<path d="M151.4452 144.4376
L151.5405 144.3899
" />
<path d="M151.5405 144.3899
L151.6357 144.2947
" />
<path d="M151.6357 144.2947
L151.7786 144.1518
" />
<path d="M151.7786 144.1518
L151.8738 144.1042
" />
<path d="M151.8738 144.1042
L151.9690 144.1042
" />
<path d="M151.9214 144.3423
L152.0167 144.2947
" />
<path d="M152.0167 144.2947
L152.1119 144.1995
" />
<path d="M152.1119 144.1995
L152.1595 144.0090
" />
<path d="M152.1595 144.0090
L152.1595 143.6757
" />
<path d="M152.1595 143.6757
L152.1119 143.4852
" />
<path d="M152.1119 143.4852
L152.0167 143.3899
" />
<path d="M152.0167 143.3899
L151.9214 143.3423
" />
<path d="M151.9214 143.3423
L151.7310 143.3423
" />
<path d="M151.7310 143.3423
L151.6357 143.3899
" />
<path d="M151.6357 143.3899
L151.5405 143.4852
" />
<path d="M151.5405 143.4852
L151.4929 143.6757
" />
<path d="M151.4929 143.6757
L151.4929 144.0090
" />
<path d="M151.4929 144.0090
L151.5405 144.1995
" />
<path d="M151.5405 144.1995
L151.6357 144.2947
" />
<path d="M151.6357 144.2947
L151.7310 144.3423
" />
<path d="M151.7310 144.3423
L151.9214 144.3423
" />
<path d="M150.6357 143.6757
L150.6357 144.3423
" />
<path d="M150.8738 143.2947
L151.1119 144.0090
" />
<path d="M151.1119 144.0090
L150.4929 144.0090
" />
</g><text x="139.3000" y="62.6800"
transform="scale(-1 1) translate(-278.600000 0)"
textLength="2.2024" font-size="1.3333" lengthAdjust="spacingAndGlyphs"
text-anchor="middle" opacity="0" stroke-opacity="0">R1</text>
<g class="stroked-text"><desc>R1</desc>
<path d="M139.4667 62.6348
L139.8000 62.1586
" />
<path d="M140.0381 62.6348
L140.0381 61.6348
" />
<path d="M140.0381 61.6348
L139.6571 61.6348
" />
<path d="M139.6571 61.6348
L139.5619 61.6824
" />
<path d="M139.5619 61.6824
L139.5143 61.7301
" />
<path d="M139.5143 61.7301
L139.4667 61.8253
" />
<path d="M139.4667 61.8253
L139.4667 61.9682
" />
<path d="M139.4667 61.9682
L139.5143 62.0634
" />
<path d="M139.5143 62.0634
L139.5619 62.1110
" />
<path d="M139.5619 62.1110
L139.6571 62.1586
" />
<path d="M139.6571 62.1586
L140.0381 62.1586
" />
<path d="M138.5143 62.6348
L139.0857 62.6348
" />
<path d="M138.8000 62.6348
L138.8000 61.6348
" />
<path d="M138.8000 61.6348
L138.8952 61.7777
" />
<path d="M138.8952 61.7777
L138.9905 61.8729
" />
<path d="M138.9905 61.8729
L139.0857 61.9205
" />
</g><text x="145.5000" y="137.2500"
transform="scale(-1 1) translate(-291.000000 0)"
textLength="2.2024" font-size="1.3333" lengthAdjust="spacingAndGlyphs"
text-anchor="middle" opacity="0" stroke-opacity="0">R3</text>
<g class="stroked-text"><desc>R3</desc>
<path d="M145.6667 137.2048
L146.0000 136.7286
" />
<path d="M146.2381 137.2048
L146.2381 136.2048
" />
<path d="M146.2381 136.2048
L145.8571 136.2048
" />
<path d="M145.8571 136.2048
L145.7619 136.2524
" />
<path d="M145.7619 136.2524
L145.7143 136.3001
" />
<path d="M145.7143 136.3001
L145.6667 136.3953
" />
<path d="M145.6667 136.3953
L145.6667 136.5382
" />
<path d="M145.6667 136.5382
L145.7143 136.6334
" />
<path d="M145.7143 136.6334
L145.7619 136.6810
" />
<path d="M145.7619 136.6810
L145.8571 136.7286
" />
<path d="M145.8571 136.7286
L146.2381 136.7286
" />
<path d="M145.3333 136.2048
L144.7143 136.2048
" />
<path d="M144.7143 136.2048
L145.0476 136.5858
" />
<path d="M145.0476 136.5858
L144.9048 136.5858
" />
<path d="M144.9048 136.5858
L144.8095 136.6334
" />
<path d="M144.8095 136.6334
L144.7619 136.6810
" />
<path d="M144.7619 136.6810
L144.7143 136.7762
" />
<path d="M144.7143 136.7762
L144.7143 137.0143
" />
<path d="M144.7143 137.0143
L144.7619 137.1096
" />
<path d="M144.7619 137.1096
L144.8095 137.1572
" />
<path d="M144.8095 137.1572
L144.9048 137.2048
" />
<path d="M144.9048 137.2048
L145.1905 137.2048
" />
<path d="M145.1905 137.2048
L145.2857 137.1572
" />
<path d="M145.2857 137.1572
L145.3333 137.1096
" />
</g><text x="132.2500" y="67.5000"
transform="scale(-1 1) translate(-264.500000 0)"
textLength="2.2024" font-size="1.3333" lengthAdjust="spacingAndGlyphs"
text-anchor="middle" opacity="0" stroke-opacity="0">D1</text>
<g class="stroked-text"><desc>D1</desc>
<path d="M132.9881 67.4548
L132.9881 66.4548
" />
<path d="M132.9881 66.4548
L132.7500 66.4548
" />
<path d="M132.7500 66.4548
L132.6071 66.5024
" />
<path d="M132.6071 66.5024
L132.5119 66.5977
" />
<path d="M132.5119 66.5977
L132.4643 66.6929
" />
<path d="M132.4643 66.6929
L132.4167 66.8834
" />
<path d="M132.4167 66.8834
L132.4167 67.0262
" />
<path d="M132.4167 67.0262
L132.4643 67.2167
" />
<path d="M132.4643 67.2167
L132.5119 67.3120
" />
<path d="M132.5119 67.3120
L132.6071 67.4072
" />
<path d="M132.6071 67.4072
L132.7500 67.4548
" />
<path d="M132.7500 67.4548
L132.9881 67.4548
" />
<path d="M131.4643 67.4548
L132.0357 67.4548
" />
<path d="M131.7500 67.4548
L131.7500 66.4548
" />
<path d="M131.7500 66.4548
L131.8452 66.5977
" />
<path d="M131.8452 66.5977
L131.9405 66.6929
" />
<path d="M131.9405 66.6929
L132.0357 66.7405
" />
</g><g transform="rotate(-90.000000 144.1475 139.3000)">
<text x="144.1475" y="139.8000"
transform="scale(-1 1) translate(-288.295000 0)"
textLength="2.2024" font-size="1.3333" lengthAdjust="spacingAndGlyphs"
text-anchor="middle" opacity="0" stroke-opacity="0">R6</text>
</g>
<g class="stroked-text"><desc>R6</desc>
<path d="M144.6023 139.1333
L144.1261 138.8000
" />
<path d="M144.6023 138.5619
L143.6023 138.5619
" />
<path d="M143.6023 138.5619
L143.6023 138.9429
" />
<path d="M143.6023 138.9429
L143.6499 139.0381
" />
<path d="M143.6499 139.0381
L143.6976 139.0857
" />
<path d="M143.6976 139.0857
L143.7928 139.1333
" />
<path d="M143.7928 139.1333
L143.9357 139.1333
" />
<path d="M143.9357 139.1333
L144.0309 139.0857
" />
<path d="M144.0309 139.0857
L144.0785 139.0381
" />
<path d="M144.0785 139.0381
L144.1261 138.9429
" />
<path d="M144.1261 138.9429
L144.1261 138.5619
" />
<path d="M143.6023 139.9905
L143.6023 139.8000
" />
<path d="M143.6023 139.8000
L143.6499 139.7048
" />
<path d="M143.6499 139.7048
L143.6976 139.6571
" />
<path d="M143.6976 139.6571
L143.8404 139.5619
" />
<path d="M143.8404 139.5619
L144.0309 139.5143
" />
<path d="M144.0309 139.5143
L144.4118 139.5143
" />
<path d="M144.4118 139.5143
L144.5071 139.5619
" />
<path d="M144.5071 139.5619
L144.5547 139.6095
" />
<path d="M144.5547 139.6095
L144.6023 139.7048
" />
<path d="M144.6023 139.7048
L144.6023 139.8952
" />
<path d="M144.6023 139.8952
L144.5547 139.9905
" />
<path d="M144.5547 139.9905
L144.5071 140.0381
" />
<path d="M144.5071 140.0381
L144.4118 140.0857
" />
<path d="M144.4118 140.0857
L144.1737 140.0857
" />
<path d="M144.1737 140.0857
L144.0785 140.0381
" />
<path d="M144.0785 140.0381
L144.0309 139.9905
" />
<path d="M144.0309 139.9905
L143.9833 139.8952
" />
<path d="M143.9833 139.8952
L143.9833 139.7048
" />
<path d="M143.9833 139.7048
L144.0309 139.6095
" />
<path d="M144.0309 139.6095
L144.0785 139.5619
" />
<path d="M144.0785 139.5619
L144.1737 139.5143
" />
</g><text x="118.7500" y="128.2500"
transform="scale(-1 1) translate(-237.500000 0)"
textLength="2.2024" font-size="1.3333" lengthAdjust="spacingAndGlyphs"
text-anchor="middle" opacity="0" stroke-opacity="0">D8</text>
<g class="stroked-text"><desc>D8</desc>
<path d="M119.4881 128.2048
L119.4881 127.2048
" />
<path d="M119.4881 127.2048
L119.2500 127.2048
" />
<path d="M119.2500 127.2048
L119.1071 127.2524
" />
<path d="M119.1071 127.2524
L119.0119 127.3477
" />
<path d="M119.0119 127.3477
L118.9643 127.4429
" />
<path d="M118.9643 127.4429
L118.9167 127.6334
" />
<path d="M118.9167 127.6334
L118.9167 127.7762
" />
<path d="M118.9167 127.7762
L118.9643 127.9667
" />
<path d="M118.9643 127.9667
L119.0119 128.0620
" />
<path d="M119.0119 128.0620
L119.1071 128.1572
" />
<path d="M119.1071 128.1572
L119.2500 128.2048
" />
<path d="M119.2500 128.2048
L119.4881 128.2048
" />
<path d="M118.3452 127.6334
L118.4405 127.5858
" />
<path d="M118.4405 127.5858
L118.4881 127.5382
" />
<path d="M118.4881 127.5382
L118.5357 127.4429
" />
<path d="M118.5357 127.4429
L118.5357 127.3953
" />
<path d="M118.5357 127.3953
L118.4881 127.3001
" />
<path d="M118.4881 127.3001
L118.4405 127.2524
" />
<path d="M118.4405 127.2524
L118.3452 127.2048
" />
<path d="M118.3452 127.2048
L118.1548 127.2048
" />
<path d="M118.1548 127.2048
L118.0595 127.2524
" />
<path d="M118.0595 127.2524
L118.0119 127.3001
" />
<path d="M118.0119 127.3001
L117.9643 127.3953
" />
<path d="M117.9643 127.3953
L117.9643 127.4429
" />
<path d="M117.9643 127.4429
L118.0119 127.5382
" />
<path d="M118.0119 127.5382
L118.0595 127.5858
" />
<path d="M118.0595 127.5858
L118.1548 127.6334
" />
<path d="M118.1548 127.6334
L118.3452 127.6334
" />
<path d="M118.3452 127.6334
L118.4405 127.6810
" />
<path d="M118.4405 127.6810
L118.4881 127.7286
" />
<path d="M118.4881 127.7286
L118.5357 127.8239
" />
<path d="M118.5357 127.8239
L118.5357 128.0143
" />
<path d="M118.5357 128.0143
L118.4881 128.1096
" />
<path d="M118.4881 128.1096
L118.4405 128.1572
" />
<path d="M118.4405 128.1572
L118.3452 128.2048
" />
<path d="M118.3452 128.2048
L118.1548 128.2048
" />
<path d="M118.1548 128.2048
L118.0595 128.1572
" />
<path d="M118.0595 128.1572
L118.0119 128.1096
" />
<path d="M118.0119 128.1096
L117.9643 128.0143
" />
<path d="M117.9643 128.0143
L117.9643 127.8239
" />
<path d="M117.9643 127.8239
L118.0119 127.7286
" />
<path d="M118.0119 127.7286
L118.0595 127.6810
" />
<path d="M118.0595 127.6810
L118.1548 127.6334
" />
</g></g>
<g style="fill:none; 
stroke:#000000; stroke-width:0.1200; stroke-opacity:1; 
stroke-linecap:round; stroke-linejoin:round;">
<path d="M133.5000 131.0184
L133.5000 124.0084
" />
<path d="M133.5000 131.0184
L130.2000 131.0184
" />
<path d="M130.2000 131.0184
L130.2000 124.0084
" />
<path d="M119.0000 112.1984
L119.0000 123.5084
" />
<path d="M119.0000 112.1984
L112.5000 112.1984
" />
<path d="M112.5000 112.1984
L112.5000 123.5084
" />
<path d="M112.2500 139.9184
L112.2500 128.6084
" />
<path d="M105.7500 139.9184
L112.2500 139.9184
" />
<path d="M105.7500 139.9184
L105.7500 128.6084
" />
<path d="M126.8600 96.6484
L126.8600 104.0584
" />
<path d="M124.6400 104.0584
L124.6400 96.6484
" />
<path d="M124.6400 96.6484
L126.8600 96.6484
" />
<path style="fill:#000000; fill-opacity:1.0000; 
stroke:#000000; stroke-width:0.1200; stroke-opacity:1; 
stroke-linecap:round; stroke-linejoin:round;fill-rule:evenodd;"
d="M 150.3900,136.7150
150.0600,136.4750
150.3900,136.2350
Z" /> 
</g>
<g style="fill:none; 
stroke:#000000; stroke-width:0.1200; stroke-opacity:1; 
stroke-linecap:round; stroke-linejoin:round;">
<path d="M150.1100 135.3125
L150.1100 135.9625
" />
<path d="M150.1100 135.3125
L150.1100 134.6625
" />
<path d="M146.9900 135.3125
L146.9900 135.9625
" />
<path d="M146.9900 135.3125
L146.9900 134.6625
" />
<path style="fill:#000000; fill-opacity:1.0000; 
stroke:#000000; stroke-width:0.1200; stroke-opacity:1; 
stroke-linecap:round; stroke-linejoin:round;fill-rule:evenodd;"
d="M 139.9750,68.1484
139.7350,67.8184
140.2150,67.8184
Z" /> 
</g>
<g style="fill:none; 
stroke:#000000; stroke-width:0.1200; stroke-opacity:1; 
stroke-linecap:round; stroke-linejoin:round;">
<path d="M138.8125 71.2184
L139.4625 71.2184
" />
<path d="M138.8125 71.2184
L138.1625 71.2184
" />
<path d="M138.8125 68.0984
L139.4625 68.0984
" />
<path d="M138.8125 68.0984
L138.1625 68.0984
" />
<path d="M156.1100 143.1600
L153.8900 143.1600
" />
<path d="M156.1100 135.7500
L156.1100 143.1600
" />
<path d="M153.8900 143.1600
L153.8900 135.7500
" />
<path d="M136.5000 145.6100
L129.0900 145.6100
" />
<path d="M129.0900 145.6100
L129.0900 143.3900
" />
<path d="M129.0900 143.3900
L136.5000 143.3900
" />
<path d="M121.2729 98.7184
L122.7271 98.7184
" />
<path d="M121.2729 96.8984
L122.7271 96.8984
" />
<path d="M158.4100 133.0729
L158.4100 134.5271
" />
<path d="M156.5900 133.0729
L156.5900 134.5271
" />
<path style="fill:#000000; fill-opacity:1.0000; 
stroke:#000000; stroke-width:0.1200; stroke-opacity:1; 
stroke-linecap:round; stroke-linejoin:round;fill-rule:evenodd;"
d="M 123.9125,80.7984
123.6725,80.4684
124.1525,80.4684
Z" /> 
</g>
<g style="fill:none; 
stroke:#000000; stroke-width:0.1200; stroke-opacity:1; 
stroke-linecap:round; stroke-linejoin:round;">
<path d="M122.7500 83.8684
L123.4000 83.8684
" />
<path d="M122.7500 83.8684
L122.1000 83.8684
" />
<path d="M122.7500 80.7484
L123.4000 80.7484
" />
<path d="M122.7500 80.7484
L122.1000 80.7484
" />
<path style="fill:none; 
stroke:#000000; stroke-width:0.1200; stroke-opacity:1; 
stroke-linecap:round; stroke-linejoin:round;fill:none"
d="M 173.8950,127.8650
159.6550,127.8650
159.6550,67.6250
173.8950,67.6250
Z" /> 
<path d="M166.7750 129.3250
L166.7750 127.8650
" />
<path d="M166.7750 66.1650
L166.7750 67.6250
" />
<path d="M120.4000 108.0684
L120.4000 101.0584
" />
<path d="M120.4000 108.0684
L117.1000 108.0684
" />
<path d="M117.1000 108.0684
L117.1000 101.0584
" />
<path d="M120.4000 89.5684
L120.4000 82.5584
" />
<path d="M120.4000 89.5684
L117.1000 89.5684
" />
<path d="M117.1000 89.5684
L117.1000 82.5584
" />
<path d="M125.2400 134.7084
L132.2500 134.7084
" />
<path d="M125.2400 134.7084
L125.2400 131.4084
" />
<path d="M125.2400 131.4084
L132.2500 131.4084
" />
<circle cx="121.5000" cy="137.4084" r="1.4500" /> 
<path d="M144.2500 67.3600
L136.8400 67.3600
" />
<path d="M136.8400 67.3600
L136.8400 65.1400
" />
<path d="M136.8400 65.1400
L144.2500 65.1400
" />
<path d="M125.2400 121.9084
L132.2500 121.9084
" />
<path d="M125.2400 121.9084
L125.2400 118.6084
" />
<path d="M125.2400 118.6084
L132.2500 118.6084
" />
<path d="M121.5229 80.2184
L122.9771 80.2184
" />
<path d="M121.5229 78.3984
L122.9771 78.3984
" />
<path style="fill:#000000; fill-opacity:1.0000; 
stroke:#000000; stroke-width:0.1200; stroke-opacity:1; 
stroke-linecap:round; stroke-linejoin:round;fill-rule:evenodd;"
d="M 123.7250,99.2484
123.4850,98.9184
123.9650,98.9184
Z" /> 
</g>
<g style="fill:none; 
stroke:#000000; stroke-width:0.1200; stroke-opacity:1; 
stroke-linecap:round; stroke-linejoin:round;">
<path d="M122.5625 102.3184
L123.2125 102.3184
" />
<path d="M122.5625 102.3184
L121.9125 102.3184
" />
<path d="M122.5625 99.1984
L123.2125 99.1984
" />
<path d="M122.5625 99.1984
L121.9125 99.1984
" />
<path d="M128.9500 131.0184
L128.9500 124.0084
" />
<path d="M128.9500 131.0184
L125.6500 131.0184
" />
<path d="M125.6500 131.0184
L125.6500 124.0084
" />
<path style="fill:#000000; fill-opacity:1.0000; 
stroke:#000000; stroke-width:0.1200; stroke-opacity:1; 
stroke-linecap:round; stroke-linejoin:round;fill-rule:evenodd;"
d="M 135.5775,142.6400
135.0975,142.6400
135.3375,142.3100
Z" /> 
</g>
<g style="fill:none; 
stroke:#000000; stroke-width:0.1200; stroke-opacity:1; 
stroke-linecap:round; stroke-linejoin:round;">
<path d="M136.5000 142.3600
L137.1500 142.3600
" />
<path d="M136.5000 142.3600
L135.8500 142.3600
" />
<path d="M136.5000 139.2400
L137.1500 139.2400
" />
<path d="M136.5000 139.2400
L135.8500 139.2400
" />
<path d="M152.9100 137.9271
L152.9100 136.4729
" />
<path d="M151.0900 137.9271
L151.0900 136.4729
" />
<path d="M112.2500 112.1984
L112.2500 123.5084
" />
<path d="M112.2500 112.1984
L105.7500 112.1984
" />
<path d="M105.7500 112.1984
L105.7500 123.5084
" />
<path d="M130.7229 141.1829
L132.1771 141.1829
" />
<path d="M130.7229 139.3629
L132.1771 139.3629
" />
<path d="M150.2229 133.1600
L151.6771 133.1600
" />
<path d="M150.2229 131.3400
L151.6771 131.3400
" />
<path d="M127.1100 78.1484
L127.1100 85.5584
" />
<path d="M124.8900 85.5584
L124.8900 78.1484
" />
<path d="M124.8900 78.1484
L127.1100 78.1484
" />
<path style="fill:#000000; fill-opacity:1.0000; 
stroke:#000000; stroke-width:0.1200; stroke-opacity:1; 
stroke-linecap:round; stroke-linejoin:round;fill-rule:evenodd;"
d="M 151.8400,142.6525
151.5100,142.4125
151.8400,142.1725
Z" /> 
</g>
<g style="fill:none; 
stroke:#000000; stroke-width:0.1200; stroke-opacity:1; 
stroke-linecap:round; stroke-linejoin:round;">
<path d="M151.5600 141.2500
L151.5600 141.9000
" />
<path d="M151.5600 141.2500
L151.5600 140.6000
" />
<path d="M148.4400 141.2500
L148.4400 141.9000
" />
<path d="M148.4400 141.2500
L148.4400 140.6000
" />
<path d="M140.0271 64.9100
L138.5729 64.9100
" />
<path d="M140.0271 63.0900
L138.5729 63.0900
" />
<path d="M146.2229 139.6600
L147.6771 139.6600
" />
<path d="M146.2229 137.8400
L147.6771 137.8400
" />
<path d="M136.6500 62.4484
L136.6500 69.4584
" />
<path d="M133.3500 62.4484
L136.6500 62.4484
" />
<path d="M133.3500 62.4484
L133.3500 69.4584
" />
<path d="M144.9100 142.0229
L144.9100 143.4771
" />
<path d="M143.0900 142.0229
L143.0900 143.4771
" />
<path d="M119.0000 139.9184
L119.0000 128.6084
" />
<path d="M112.5000 139.9184
L119.0000 139.9184
" />
<path d="M112.5000 139.9184
L112.5000 128.6084
" />
<path style="fill:none; 
stroke:#000000; stroke-width:0.2000; stroke-opacity:1; 
stroke-linecap:round; stroke-linejoin:round;fill:none"
d="M 179.0000,149.8084
104.0000,149.8084
104.0000,49.8084
179.0000,49.8084
Z" /> 
</g> 
</svg>
