<?xml version="1.0" standalone="no"?>
 <!DOCTYPE svg PUBLIC "-//W3C//DTD SVG 1.1//EN" 
 "http://www.w3.org/Graphics/SVG/1.1/DTD/svg11.dtd"> 
<svg
  xmlns:svg="http://www.w3.org/2000/svg"
  xmlns="http://www.w3.org/2000/svg"
  xmlns:xlink="http://www.w3.org/1999/xlink"
  version="1.1"
  width="297.0022mm" height="210.0072mm" viewBox="0.0000 0.0000 297.0022 210.0072">
<title>SVG Image created as dragstar-infotainment-NPTH-drl_map.svg date 2025/06/24 19:32:57 </title>
  <desc>Image generated by PCBNEW </desc>
<g style="fill:#000000; fill-opacity:1.0000;stroke:#000000; stroke-opacity:1.0000;
stroke-linecap:round; stroke-linejoin:round;"
 transform="translate(0 0) scale(1 1)">
<path style="fill:none; 
stroke:#000000; stroke-width:0.2315; stroke-opacity:1; 
stroke-linecap:round; stroke-linejoin:round;fill:none"
d="M 191.9159,120.8885
105.0863,120.8885
105.0863,5.1158
191.9159,5.1158
Z" /> 
</g>
<g style="fill:none; 
stroke:#000000; stroke-width:0.2000; stroke-opacity:1; 
stroke-linecap:round; stroke-linejoin:round;">
<text x="106.9705" y="124.2043"
textLength="14.8667" font-size="2.6667" lengthAdjust="spacingAndGlyphs"
text-anchor="start" opacity="0" stroke-opacity="0">Drill Map:</text>
<g class="stroked-text"><desc>Drill Map:</desc>
<path d="M107.5783 124.1192
L107.5783 122.1192
" />
<path d="M107.5783 122.1192
L108.0545 122.1192
" />
<path d="M108.0545 122.1192
L108.3402 122.2144
" />
<path d="M108.3402 122.2144
L108.5307 122.4049
" />
<path d="M108.5307 122.4049
L108.6259 122.5953
" />
<path d="M108.6259 122.5953
L108.7212 122.9763
" />
<path d="M108.7212 122.9763
L108.7212 123.2620
" />
<path d="M108.7212 123.2620
L108.6259 123.6430
" />
<path d="M108.6259 123.6430
L108.5307 123.8334
" />
<path d="M108.5307 123.8334
L108.3402 124.0239
" />
<path d="M108.3402 124.0239
L108.0545 124.1192
" />
<path d="M108.0545 124.1192
L107.5783 124.1192
" />
<path d="M109.5783 124.1192
L109.5783 122.7858
" />
<path d="M109.5783 123.1668
L109.6735 122.9763
" />
<path d="M109.6735 122.9763
L109.7688 122.8811
" />
<path d="M109.7688 122.8811
L109.9593 122.7858
" />
<path d="M109.9593 122.7858
L110.1497 122.7858
" />
<path d="M110.8164 124.1192
L110.8164 122.7858
" />
<path d="M110.8164 122.1192
L110.7212 122.2144
" />
<path d="M110.7212 122.2144
L110.8164 122.3096
" />
<path d="M110.8164 122.3096
L110.9116 122.2144
" />
<path d="M110.9116 122.2144
L110.8164 122.1192
" />
<path d="M110.8164 122.1192
L110.8164 122.3096
" />
<path d="M112.0545 124.1192
L111.8640 124.0239
" />
<path d="M111.8640 124.0239
L111.7688 123.8334
" />
<path d="M111.7688 123.8334
L111.7688 122.1192
" />
<path d="M113.1021 124.1192
L112.9116 124.0239
" />
<path d="M112.9116 124.0239
L112.8164 123.8334
" />
<path d="M112.8164 123.8334
L112.8164 122.1192
" />
<path d="M115.3878 124.1192
L115.3878 122.1192
" />
<path d="M115.3878 122.1192
L116.0545 123.5477
" />
<path d="M116.0545 123.5477
L116.7212 122.1192
" />
<path d="M116.7212 122.1192
L116.7212 124.1192
" />
<path d="M118.5307 124.1192
L118.5307 123.0715
" />
<path d="M118.5307 123.0715
L118.4354 122.8811
" />
<path d="M118.4354 122.8811
L118.2450 122.7858
" />
<path d="M118.2450 122.7858
L117.8640 122.7858
" />
<path d="M117.8640 122.7858
L117.6735 122.8811
" />
<path d="M118.5307 124.0239
L118.3402 124.1192
" />
<path d="M118.3402 124.1192
L117.8640 124.1192
" />
<path d="M117.8640 124.1192
L117.6735 124.0239
" />
<path d="M117.6735 124.0239
L117.5783 123.8334
" />
<path d="M117.5783 123.8334
L117.5783 123.6430
" />
<path d="M117.5783 123.6430
L117.6735 123.4525
" />
<path d="M117.6735 123.4525
L117.8640 123.3573
" />
<path d="M117.8640 123.3573
L118.3402 123.3573
" />
<path d="M118.3402 123.3573
L118.5307 123.2620
" />
<path d="M119.4831 122.7858
L119.4831 124.7858
" />
<path d="M119.4831 122.8811
L119.6735 122.7858
" />
<path d="M119.6735 122.7858
L120.0545 122.7858
" />
<path d="M120.0545 122.7858
L120.2450 122.8811
" />
<path d="M120.2450 122.8811
L120.3402 122.9763
" />
<path d="M120.3402 122.9763
L120.4354 123.1668
" />
<path d="M120.4354 123.1668
L120.4354 123.7382
" />
<path d="M120.4354 123.7382
L120.3402 123.9287
" />
<path d="M120.3402 123.9287
L120.2450 124.0239
" />
<path d="M120.2450 124.0239
L120.0545 124.1192
" />
<path d="M120.0545 124.1192
L119.6735 124.1192
" />
<path d="M119.6735 124.1192
L119.4831 124.0239
" />
<path d="M121.2926 123.9287
L121.3878 124.0239
" />
<path d="M121.3878 124.0239
L121.2926 124.1192
" />
<path d="M121.2926 124.1192
L121.1974 124.0239
" />
<path d="M121.1974 124.0239
L121.2926 123.9287
" />
<path d="M121.2926 123.9287
L121.2926 124.1192
" />
<path d="M121.2926 122.8811
L121.3878 122.9763
" />
<path d="M121.3878 122.9763
L121.2926 123.0715
" />
<path d="M121.2926 123.0715
L121.1974 122.9763
" />
<path d="M121.1974 122.9763
L121.2926 122.8811
" />
<path d="M121.2926 122.8811
L121.2926 123.0715
" />
</g></g> 
</svg>
