M48
; DRILL file {KiCad 9.0.2} date 2025-06-24T19:32:57+0100
; FORMAT={-:-/ absolute / metric / decimal}
; #@! TF.CreationDate,2025-06-24T19:32:57+01:00
; #@! TF.GenerationSoftware,Kicad,Pcbnew,9.0.2
; #@! TF.FileFunction,Plated,1,2,PTH
FMAT,2
METRIC
; #@! TA.AperFunction,Plated,PTH,ComponentDrill
T1C0.600
; #@! TA.AperFunction,Plated,PTH,ComponentDrill
T2C0.700
; #@! TA.AperFunction,Plated,PTH,ComponentDrill
T3C1.000
; #@! TA.AperFunction,Plated,PTH,ComponentDrill
T4C1.100
; #@! TA.AperFunction,Plated,PTH,ComponentDrill
T5C1.200
; #@! TA.AperFunction,Plated,PTH,ComponentDrill
T6C1.300
; #@! TA.AperFunction,Plated,PTH,ComponentDrill
T7C1.450
; #@! TA.AperFunction,Plated,PTH,ComponentDrill
T8C1.600
; #@! TA.AperFunction,Plated,PTH,ComponentDrill
T9C2.700
; #@! TA.AperFunction,Plated,PTH,ComponentDrill
T10C3.200
%
G90
G05
T2
X116.55Y-79.308
X116.55Y-91.308
X116.55Y-97.558
X116.55Y-109.558
T3
X161.25Y-61.25
X163.79Y-61.25
X173.0Y-61.25
X175.54Y-61.25
T4
X114.55Y-85.308
X114.55Y-103.558
X132.05Y-61.708
X132.05Y-71.908
T5
X108.75Y-79.308
X108.75Y-85.308
X108.75Y-91.308
X108.75Y-97.808
X108.75Y-103.558
X115.25Y-56.358
X118.75Y-56.358
X121.5Y-114.708
X121.5Y-126.108
X121.5Y-137.408
X122.25Y-56.358
X123.5Y-132.25
X127.0Y-144.5
X128.75Y-79.308
X128.75Y-91.308
X128.75Y-97.558
X128.75Y-109.558
X129.75Y-116.558
X137.21Y-95.796
X137.21Y-116.171
X137.25Y-126.358
X137.5Y-54.108
X140.5Y-144.5
X142.0Y-132.5
X166.775Y-64.725
X166.775Y-130.765
X170.025Y-64.725
X170.025Y-130.765
T6
X147.0Y-132.75
X147.0Y-142.75
X159.5Y-137.75
T7
X141.42Y-85.608
X141.42Y-95.796
X141.42Y-105.983
X141.42Y-116.171
X141.46Y-126.358
X146.5Y-85.608
X146.5Y-95.796
X146.5Y-105.983
X146.5Y-116.171
X146.54Y-126.358
X150.67Y-85.608
X150.67Y-95.796
X150.67Y-105.983
X150.67Y-116.171
X150.71Y-126.358
X155.75Y-85.608
X155.75Y-95.796
X155.75Y-105.983
X155.75Y-116.171
X155.79Y-126.358
T8
X129.51Y-66.808
X144.71Y-57.908
X147.25Y-75.708
X154.85Y-75.708
T9
X111.75Y-64.408
X111.75Y-71.608
T10
X109.0Y-54.808
X109.0Y-144.808
X119.0Y-64.408
X136.75Y-79.5
X174.0Y-54.808
X174.0Y-144.808
T1
G00X105.2Y-61.258
M15
G01X106.3Y-61.258
M16
G05
G00X105.2Y-74.758
M15
G01X106.3Y-74.758
M16
G05
M30
