<?xml version="1.0" standalone="no"?>
 <!DOCTYPE svg PUBLIC "-//W3C//DTD SVG 1.1//EN" 
 "http://www.w3.org/Graphics/SVG/1.1/DTD/svg11.dtd"> 
<svg
  xmlns:svg="http://www.w3.org/2000/svg"
  xmlns="http://www.w3.org/2000/svg"
  xmlns:xlink="http://www.w3.org/1999/xlink"
  version="1.1"
  width="297.0022mm" height="210.0072mm" viewBox="0.0000 0.0000 297.0022 210.0072">
<title>SVG Image created as dragstar-infotainment-F_Silkscreen.svg date 2025/06/24 19:32:59 </title>
  <desc>Image generated by PCBNEW </desc>
<g style="fill:#000000; fill-opacity:1.0000;stroke:#000000; stroke-opacity:1.0000;
stroke-linecap:round; stroke-linejoin:round;"
 transform="translate(0 0) scale(1 1)">
<path style="fill:none; 
stroke:#000000; stroke-width:0.1500; stroke-opacity:1; 
stroke-linecap:round; stroke-linejoin:round;fill:none"
d="M 138.9600,112.6709
158.2100,112.6709
158.2100,119.6709
138.9600,119.6709
Z" /> 
<path style="fill:none; 
stroke:#000000; stroke-width:0.1500; stroke-opacity:1; 
stroke-linecap:round; stroke-linejoin:round;fill:none"
d="M 139.0000,122.8584
158.2500,122.8584
158.2500,129.8584
139.0000,129.8584
Z" /> 
<path style="fill:none; 
stroke:#000000; stroke-width:0.1500; stroke-opacity:1; 
stroke-linecap:round; stroke-linejoin:round;fill:none"
d="M 138.9600,92.2959
158.2100,92.2959
158.2100,99.2959
138.9600,99.2959
Z" /> 
<path style="fill:none; 
stroke:#000000; stroke-width:0.1500; stroke-opacity:1; 
stroke-linecap:round; stroke-linejoin:round;fill:none"
d="M 138.9600,102.4834
158.2100,102.4834
158.2100,109.4834
138.9600,109.4834
Z" /> 
<path style="fill:none; 
stroke:#000000; stroke-width:0.1500; stroke-opacity:1; 
stroke-linecap:round; stroke-linejoin:round;fill:none"
d="M 138.9600,82.1084
158.2100,82.1084
158.2100,89.1084
138.9600,89.1084
Z" /> 
</g>
<g style="fill:none; 
stroke:#000000; stroke-width:0.1500; stroke-opacity:1; 
stroke-linecap:round; stroke-linejoin:round;">
<text x="109.0000" y="141.5084"
textLength="2.2500" font-size="1.3333" lengthAdjust="spacingAndGlyphs"
text-anchor="middle" opacity="0" stroke-opacity="0">H3</text>
<g class="stroked-text"><desc>H3</desc>
<path d="M108.2381 141.4632
L108.2381 140.4632
" />
<path d="M108.2381 140.9394
L108.8095 140.9394
" />
<path d="M108.8095 141.4632
L108.8095 140.4632
" />
<path d="M109.1905 140.4632
L109.8095 140.4632
" />
<path d="M109.8095 140.4632
L109.4762 140.8441
" />
<path d="M109.4762 140.8441
L109.6190 140.8441
" />
<path d="M109.6190 140.8441
L109.7143 140.8918
" />
<path d="M109.7143 140.8918
L109.7619 140.9394
" />
<path d="M109.7619 140.9394
L109.8095 141.0346
" />
<path d="M109.8095 141.0346
L109.8095 141.2727
" />
<path d="M109.8095 141.2727
L109.7619 141.3679
" />
<path d="M109.7619 141.3679
L109.7143 141.4156
" />
<path d="M109.7143 141.4156
L109.6190 141.4632
" />
<path d="M109.6190 141.4632
L109.3333 141.4632
" />
<path d="M109.3333 141.4632
L109.2381 141.4156
" />
<path d="M109.2381 141.4156
L109.1905 141.3679
" />
</g><text x="109.0000" y="51.5084"
textLength="2.2500" font-size="1.3333" lengthAdjust="spacingAndGlyphs"
text-anchor="middle" opacity="0" stroke-opacity="0">H1</text>
<g class="stroked-text"><desc>H1</desc>
<path d="M108.2381 51.4632
L108.2381 50.4632
" />
<path d="M108.2381 50.9394
L108.8095 50.9394
" />
<path d="M108.8095 51.4632
L108.8095 50.4632
" />
<path d="M109.8095 51.4632
L109.2381 51.4632
" />
<path d="M109.5238 51.4632
L109.5238 50.4632
" />
<path d="M109.5238 50.4632
L109.4286 50.6060
" />
<path d="M109.4286 50.6060
L109.3333 50.7013
" />
<path d="M109.3333 50.7013
L109.2381 50.7489
" />
</g><text x="174.0000" y="51.5084"
textLength="2.2500" font-size="1.3333" lengthAdjust="spacingAndGlyphs"
text-anchor="middle" opacity="0" stroke-opacity="0">H2</text>
<g class="stroked-text"><desc>H2</desc>
<path d="M173.2381 51.4632
L173.2381 50.4632
" />
<path d="M173.2381 50.9394
L173.8095 50.9394
" />
<path d="M173.8095 51.4632
L173.8095 50.4632
" />
<path d="M174.2381 50.5584
L174.2857 50.5108
" />
<path d="M174.2857 50.5108
L174.3810 50.4632
" />
<path d="M174.3810 50.4632
L174.6190 50.4632
" />
<path d="M174.6190 50.4632
L174.7143 50.5108
" />
<path d="M174.7143 50.5108
L174.7619 50.5584
" />
<path d="M174.7619 50.5584
L174.8095 50.6537
" />
<path d="M174.8095 50.6537
L174.8095 50.7489
" />
<path d="M174.8095 50.7489
L174.7619 50.8918
" />
<path d="M174.7619 50.8918
L174.1905 51.4632
" />
<path d="M174.1905 51.4632
L174.8095 51.4632
" />
</g><text x="174.0000" y="141.5084"
textLength="2.2500" font-size="1.3333" lengthAdjust="spacingAndGlyphs"
text-anchor="middle" opacity="0" stroke-opacity="0">H4</text>
<g class="stroked-text"><desc>H4</desc>
<path d="M173.2381 141.4632
L173.2381 140.4632
" />
<path d="M173.2381 140.9394
L173.8095 140.9394
" />
<path d="M173.8095 141.4632
L173.8095 140.4632
" />
<path d="M174.7143 140.7965
L174.7143 141.4632
" />
<path d="M174.4762 140.4156
L174.2381 141.1298
" />
<path d="M174.2381 141.1298
L174.8571 141.1298
" />
</g><g transform="rotate(-90.000000 161.9050 97.7450)">
<text x="161.9050" y="98.2450"
textLength="3.1548" font-size="1.3333" lengthAdjust="spacingAndGlyphs"
text-anchor="middle" opacity="0" stroke-opacity="0">R20</text>
</g>
<g class="stroked-text"><desc>R20</desc>
<path d="M162.3598 98.3879
L161.8836 98.7212
" />
<path d="M162.3598 98.9593
L161.3598 98.9593
" />
<path d="M161.3598 98.9593
L161.3598 98.5783
" />
<path d="M161.3598 98.5783
L161.4074 98.4831
" />
<path d="M161.4074 98.4831
L161.4551 98.4355
" />
<path d="M161.4551 98.4355
L161.5503 98.3879
" />
<path d="M161.5503 98.3879
L161.6932 98.3879
" />
<path d="M161.6932 98.3879
L161.7884 98.4355
" />
<path d="M161.7884 98.4355
L161.8360 98.4831
" />
<path d="M161.8360 98.4831
L161.8836 98.5783
" />
<path d="M161.8836 98.5783
L161.8836 98.9593
" />
<path d="M161.4551 98.0069
L161.4074 97.9593
" />
<path d="M161.4074 97.9593
L161.3598 97.8640
" />
<path d="M161.3598 97.8640
L161.3598 97.6260
" />
<path d="M161.3598 97.6260
L161.4074 97.5307
" />
<path d="M161.4074 97.5307
L161.4551 97.4831
" />
<path d="M161.4551 97.4831
L161.5503 97.4355
" />
<path d="M161.5503 97.4355
L161.6455 97.4355
" />
<path d="M161.6455 97.4355
L161.7884 97.4831
" />
<path d="M161.7884 97.4831
L162.3598 98.0545
" />
<path d="M162.3598 98.0545
L162.3598 97.4355
" />
<path d="M161.3598 96.8164
L161.3598 96.7212
" />
<path d="M161.3598 96.7212
L161.4074 96.6260
" />
<path d="M161.4074 96.6260
L161.4551 96.5783
" />
<path d="M161.4551 96.5783
L161.5503 96.5307
" />
<path d="M161.5503 96.5307
L161.7408 96.4831
" />
<path d="M161.7408 96.4831
L161.9789 96.4831
" />
<path d="M161.9789 96.4831
L162.1693 96.5307
" />
<path d="M162.1693 96.5307
L162.2646 96.5783
" />
<path d="M162.2646 96.5783
L162.3122 96.6260
" />
<path d="M162.3122 96.6260
L162.3598 96.7212
" />
<path d="M162.3598 96.7212
L162.3598 96.8164
" />
<path d="M162.3598 96.8164
L162.3122 96.9117
" />
<path d="M162.3122 96.9117
L162.2646 96.9593
" />
<path d="M162.2646 96.9593
L162.1693 97.0069
" />
<path d="M162.1693 97.0069
L161.9789 97.0545
" />
<path d="M161.9789 97.0545
L161.7408 97.0545
" />
<path d="M161.7408 97.0545
L161.5503 97.0069
" />
<path d="M161.5503 97.0069
L161.4551 96.9593
" />
<path d="M161.4551 96.9593
L161.4074 96.9117
" />
<path d="M161.4074 96.9117
L161.3598 96.8164
" />
</g><text x="137.2100" y="94.1479"
textLength="1.9643" font-size="1.3333" lengthAdjust="spacingAndGlyphs"
text-anchor="middle" opacity="0" stroke-opacity="0">J8</text>
<g class="stroked-text"><desc>J8</desc>
<path d="M136.8767 93.1027
L136.8767 93.8170
" />
<path d="M136.8767 93.8170
L136.8290 93.9598
" />
<path d="M136.8290 93.9598
L136.7338 94.0551
" />
<path d="M136.7338 94.0551
L136.5910 94.1027
" />
<path d="M136.5910 94.1027
L136.4957 94.1027
" />
<path d="M137.4957 93.5313
L137.4005 93.4836
" />
<path d="M137.4005 93.4836
L137.3529 93.4360
" />
<path d="M137.3529 93.4360
L137.3052 93.3408
" />
<path d="M137.3052 93.3408
L137.3052 93.2932
" />
<path d="M137.3052 93.2932
L137.3529 93.1979
" />
<path d="M137.3529 93.1979
L137.4005 93.1503
" />
<path d="M137.4005 93.1503
L137.4957 93.1027
" />
<path d="M137.4957 93.1027
L137.6862 93.1027
" />
<path d="M137.6862 93.1027
L137.7814 93.1503
" />
<path d="M137.7814 93.1503
L137.8290 93.1979
" />
<path d="M137.8290 93.1979
L137.8767 93.2932
" />
<path d="M137.8767 93.2932
L137.8767 93.3408
" />
<path d="M137.8767 93.3408
L137.8290 93.4360
" />
<path d="M137.8290 93.4360
L137.7814 93.4836
" />
<path d="M137.7814 93.4836
L137.6862 93.5313
" />
<path d="M137.6862 93.5313
L137.4957 93.5313
" />
<path d="M137.4957 93.5313
L137.4005 93.5789
" />
<path d="M137.4005 93.5789
L137.3529 93.6265
" />
<path d="M137.3529 93.6265
L137.3052 93.7217
" />
<path d="M137.3052 93.7217
L137.3052 93.9122
" />
<path d="M137.3052 93.9122
L137.3529 94.0074
" />
<path d="M137.3529 94.0074
L137.4005 94.0551
" />
<path d="M137.4005 94.0551
L137.4957 94.1027
" />
<path d="M137.4957 94.1027
L137.6862 94.1027
" />
<path d="M137.6862 94.1027
L137.7814 94.0551
" />
<path d="M137.7814 94.0551
L137.8290 94.0074
" />
<path d="M137.8290 94.0074
L137.8767 93.9122
" />
<path d="M137.8767 93.9122
L137.8767 93.7217
" />
<path d="M137.8767 93.7217
L137.8290 93.6265
" />
<path d="M137.8290 93.6265
L137.7814 93.5789
" />
<path d="M137.7814 93.5789
L137.6862 93.5313
" />
</g><text x="122.2500" y="54.7104"
textLength="2.9167" font-size="1.3333" lengthAdjust="spacingAndGlyphs"
text-anchor="middle" opacity="0" stroke-opacity="0">J22</text>
<g class="stroked-text"><desc>J22</desc>
<path d="M121.4405 53.6652
L121.4405 54.3795
" />
<path d="M121.4405 54.3795
L121.3929 54.5223
" />
<path d="M121.3929 54.5223
L121.2976 54.6176
" />
<path d="M121.2976 54.6176
L121.1548 54.6652
" />
<path d="M121.1548 54.6652
L121.0595 54.6652
" />
<path d="M121.8690 53.7604
L121.9167 53.7128
" />
<path d="M121.9167 53.7128
L122.0119 53.6652
" />
<path d="M122.0119 53.6652
L122.2500 53.6652
" />
<path d="M122.2500 53.6652
L122.3452 53.7128
" />
<path d="M122.3452 53.7128
L122.3929 53.7604
" />
<path d="M122.3929 53.7604
L122.4405 53.8557
" />
<path d="M122.4405 53.8557
L122.4405 53.9509
" />
<path d="M122.4405 53.9509
L122.3929 54.0938
" />
<path d="M122.3929 54.0938
L121.8214 54.6652
" />
<path d="M121.8214 54.6652
L122.4405 54.6652
" />
<path d="M122.8214 53.7604
L122.8690 53.7128
" />
<path d="M122.8690 53.7128
L122.9643 53.6652
" />
<path d="M122.9643 53.6652
L123.2024 53.6652
" />
<path d="M123.2024 53.6652
L123.2976 53.7128
" />
<path d="M123.2976 53.7128
L123.3452 53.7604
" />
<path d="M123.3452 53.7604
L123.3929 53.8557
" />
<path d="M123.3929 53.8557
L123.3929 53.9509
" />
<path d="M123.3929 53.9509
L123.3452 54.0938
" />
<path d="M123.3452 54.0938
L122.7738 54.6652
" />
<path d="M122.7738 54.6652
L123.3929 54.6652
" />
</g></g>
<g style="fill:none; 
stroke:#000000; stroke-width:0.2540; stroke-opacity:1; 
stroke-linecap:round; stroke-linejoin:round;">
<text x="153.2500" y="84.1934"
textLength="3.8947" font-size="1.6933" lengthAdjust="spacingAndGlyphs"
text-anchor="middle" opacity="0" stroke-opacity="0">J31</text>
<g class="stroked-text"><desc>J31</desc>
<path d="M152.2219 82.8627
L152.2219 83.7698
" />
<path d="M152.2219 83.7698
L152.1614 83.9513
" />
<path d="M152.1614 83.9513
L152.0405 84.0722
" />
<path d="M152.0405 84.0722
L151.8590 84.1327
" />
<path d="M151.8590 84.1327
L151.7381 84.1327
" />
<path d="M152.7057 82.8627
L153.4919 82.8627
" />
<path d="M153.4919 82.8627
L153.0686 83.3465
" />
<path d="M153.0686 83.3465
L153.2500 83.3465
" />
<path d="M153.2500 83.3465
L153.3710 83.4070
" />
<path d="M153.3710 83.4070
L153.4314 83.4674
" />
<path d="M153.4314 83.4674
L153.4919 83.5884
" />
<path d="M153.4919 83.5884
L153.4919 83.8908
" />
<path d="M153.4919 83.8908
L153.4314 84.0117
" />
<path d="M153.4314 84.0117
L153.3710 84.0722
" />
<path d="M153.3710 84.0722
L153.2500 84.1327
" />
<path d="M153.2500 84.1327
L152.8871 84.1327
" />
<path d="M152.8871 84.1327
L152.7662 84.0722
" />
<path d="M152.7662 84.0722
L152.7057 84.0117
" />
<path d="M154.7014 84.1327
L153.9757 84.1327
" />
<path d="M154.3386 84.1327
L154.3386 82.8627
" />
<path d="M154.3386 82.8627
L154.2176 83.0441
" />
<path d="M154.2176 83.0441
L154.0967 83.1651
" />
<path d="M154.0967 83.1651
L153.9757 83.2255
" />
</g></g>
<g style="fill:none; 
stroke:#000000; stroke-width:0.1500; stroke-opacity:1; 
stroke-linecap:round; stroke-linejoin:round;">
<text x="129.7500" y="114.8084"
textLength="2.9167" font-size="1.3333" lengthAdjust="spacingAndGlyphs"
text-anchor="middle" opacity="0" stroke-opacity="0">J12</text>
<g class="stroked-text"><desc>J12</desc>
<path d="M128.9405 113.7632
L128.9405 114.4775
" />
<path d="M128.9405 114.4775
L128.8929 114.6203
" />
<path d="M128.8929 114.6203
L128.7976 114.7156
" />
<path d="M128.7976 114.7156
L128.6548 114.7632
" />
<path d="M128.6548 114.7632
L128.5595 114.7632
" />
<path d="M129.9405 114.7632
L129.3690 114.7632
" />
<path d="M129.6548 114.7632
L129.6548 113.7632
" />
<path d="M129.6548 113.7632
L129.5595 113.9060
" />
<path d="M129.5595 113.9060
L129.4643 114.0013
" />
<path d="M129.4643 114.0013
L129.3690 114.0489
" />
<path d="M130.3214 113.8584
L130.3690 113.8108
" />
<path d="M130.3690 113.8108
L130.4643 113.7632
" />
<path d="M130.4643 113.7632
L130.7024 113.7632
" />
<path d="M130.7024 113.7632
L130.7976 113.8108
" />
<path d="M130.7976 113.8108
L130.8452 113.8584
" />
<path d="M130.8452 113.8584
L130.8929 113.9537
" />
<path d="M130.8929 113.9537
L130.8929 114.0489
" />
<path d="M130.8929 114.0489
L130.8452 114.1918
" />
<path d="M130.8452 114.1918
L130.2738 114.7632
" />
<path d="M130.2738 114.7632
L130.8929 114.7632
" />
</g><text x="116.0000" y="72.2500"
textLength="2.9167" font-size="1.3333" lengthAdjust="spacingAndGlyphs"
text-anchor="middle" opacity="0" stroke-opacity="0">J23</text>
<g class="stroked-text"><desc>J23</desc>
<path d="M115.1905 71.2048
L115.1905 71.9191
" />
<path d="M115.1905 71.9191
L115.1429 72.0620
" />
<path d="M115.1429 72.0620
L115.0476 72.1572
" />
<path d="M115.0476 72.1572
L114.9048 72.2048
" />
<path d="M114.9048 72.2048
L114.8095 72.2048
" />
<path d="M115.6190 71.3001
L115.6667 71.2524
" />
<path d="M115.6667 71.2524
L115.7619 71.2048
" />
<path d="M115.7619 71.2048
L116.0000 71.2048
" />
<path d="M116.0000 71.2048
L116.0952 71.2524
" />
<path d="M116.0952 71.2524
L116.1429 71.3001
" />
<path d="M116.1429 71.3001
L116.1905 71.3953
" />
<path d="M116.1905 71.3953
L116.1905 71.4905
" />
<path d="M116.1905 71.4905
L116.1429 71.6334
" />
<path d="M116.1429 71.6334
L115.5714 72.2048
" />
<path d="M115.5714 72.2048
L116.1905 72.2048
" />
<path d="M116.5238 71.2048
L117.1429 71.2048
" />
<path d="M117.1429 71.2048
L116.8095 71.5858
" />
<path d="M116.8095 71.5858
L116.9524 71.5858
" />
<path d="M116.9524 71.5858
L117.0476 71.6334
" />
<path d="M117.0476 71.6334
L117.0952 71.6810
" />
<path d="M117.0952 71.6810
L117.1429 71.7762
" />
<path d="M117.1429 71.7762
L117.1429 72.0143
" />
<path d="M117.1429 72.0143
L117.0952 72.1096
" />
<path d="M117.0952 72.1096
L117.0476 72.1572
" />
<path d="M117.0476 72.1572
L116.9524 72.2048
" />
<path d="M116.9524 72.2048
L116.6667 72.2048
" />
<path d="M116.6667 72.2048
L116.5714 72.1572
" />
<path d="M116.5714 72.1572
L116.5238 72.1096
" />
</g><g transform="rotate(-90.000000 114.2500 62.1084)">
<text x="114.2500" y="62.8584"
textLength="2.0071" font-size="2.0000" lengthAdjust="spacingAndGlyphs"
text-anchor="middle" opacity="0" stroke-opacity="0">+</text>
</g>
<g class="stroked-text"><desc>+</desc>
<path d="M114.3647 62.6798
L114.3647 61.5369
" />
<path d="M114.9361 62.1084
L113.7933 62.1084
" />
</g><g transform="rotate(-90.000000 114.2500 74.4084)">
<text x="114.2500" y="75.1584"
textLength="2.0071" font-size="2.0000" lengthAdjust="spacingAndGlyphs"
text-anchor="middle" opacity="0" stroke-opacity="0">-</text>
</g>
<g class="stroked-text"><desc>-</desc>
<path d="M114.3647 74.9798
L114.3647 73.8369
" />
</g><text x="115.2500" y="54.7104"
textLength="2.9167" font-size="1.3333" lengthAdjust="spacingAndGlyphs"
text-anchor="middle" opacity="0" stroke-opacity="0">J20</text>
<g class="stroked-text"><desc>J20</desc>
<path d="M114.4405 53.6652
L114.4405 54.3795
" />
<path d="M114.4405 54.3795
L114.3929 54.5223
" />
<path d="M114.3929 54.5223
L114.2976 54.6176
" />
<path d="M114.2976 54.6176
L114.1548 54.6652
" />
<path d="M114.1548 54.6652
L114.0595 54.6652
" />
<path d="M114.8690 53.7604
L114.9167 53.7128
" />
<path d="M114.9167 53.7128
L115.0119 53.6652
" />
<path d="M115.0119 53.6652
L115.2500 53.6652
" />
<path d="M115.2500 53.6652
L115.3452 53.7128
" />
<path d="M115.3452 53.7128
L115.3929 53.7604
" />
<path d="M115.3929 53.7604
L115.4405 53.8557
" />
<path d="M115.4405 53.8557
L115.4405 53.9509
" />
<path d="M115.4405 53.9509
L115.3929 54.0938
" />
<path d="M115.3929 54.0938
L114.8214 54.6652
" />
<path d="M114.8214 54.6652
L115.4405 54.6652
" />
<path d="M116.0595 53.6652
L116.1548 53.6652
" />
<path d="M116.1548 53.6652
L116.2500 53.7128
" />
<path d="M116.2500 53.7128
L116.2976 53.7604
" />
<path d="M116.2976 53.7604
L116.3452 53.8557
" />
<path d="M116.3452 53.8557
L116.3929 54.0461
" />
<path d="M116.3929 54.0461
L116.3929 54.2842
" />
<path d="M116.3929 54.2842
L116.3452 54.4747
" />
<path d="M116.3452 54.4747
L116.2976 54.5699
" />
<path d="M116.2976 54.5699
L116.2500 54.6176
" />
<path d="M116.2500 54.6176
L116.1548 54.6652
" />
<path d="M116.1548 54.6652
L116.0595 54.6652
" />
<path d="M116.0595 54.6652
L115.9643 54.6176
" />
<path d="M115.9643 54.6176
L115.9167 54.5699
" />
<path d="M115.9167 54.5699
L115.8690 54.4747
" />
<path d="M115.8690 54.4747
L115.8214 54.2842
" />
<path d="M115.8214 54.2842
L115.8214 54.0461
" />
<path d="M115.8214 54.0461
L115.8690 53.8557
" />
<path d="M115.8690 53.8557
L115.9167 53.7604
" />
<path d="M115.9167 53.7604
L115.9643 53.7128
" />
<path d="M115.9643 53.7128
L116.0595 53.6652
" />
</g><text x="127.0687" y="147.3771"
textLength="1.9643" font-size="1.3333" lengthAdjust="spacingAndGlyphs"
text-anchor="middle" opacity="0" stroke-opacity="0">J3</text>
<g class="stroked-text"><desc>J3</desc>
<path d="M126.7354 146.3319
L126.7354 147.0462
" />
<path d="M126.7354 147.0462
L126.6878 147.1891
" />
<path d="M126.6878 147.1891
L126.5926 147.2843
" />
<path d="M126.5926 147.2843
L126.4497 147.3319
" />
<path d="M126.4497 147.3319
L126.3545 147.3319
" />
<path d="M127.1164 146.3319
L127.7354 146.3319
" />
<path d="M127.7354 146.3319
L127.4021 146.7129
" />
<path d="M127.4021 146.7129
L127.5449 146.7129
" />
<path d="M127.5449 146.7129
L127.6402 146.7605
" />
<path d="M127.6402 146.7605
L127.6878 146.8081
" />
<path d="M127.6878 146.8081
L127.7354 146.9034
" />
<path d="M127.7354 146.9034
L127.7354 147.1415
" />
<path d="M127.7354 147.1415
L127.6878 147.2367
" />
<path d="M127.6878 147.2367
L127.6402 147.2843
" />
<path d="M127.6402 147.2843
L127.5449 147.3319
" />
<path d="M127.5449 147.3319
L127.2592 147.3319
" />
<path d="M127.2592 147.3319
L127.1640 147.2843
" />
<path d="M127.1640 147.2843
L127.1164 147.2367
" />
</g><text x="108.7500" y="101.9104"
textLength="2.9167" font-size="1.3333" lengthAdjust="spacingAndGlyphs"
text-anchor="middle" opacity="0" stroke-opacity="0">J15</text>
<g class="stroked-text"><desc>J15</desc>
<path d="M107.9405 100.8652
L107.9405 101.5795
" />
<path d="M107.9405 101.5795
L107.8929 101.7223
" />
<path d="M107.8929 101.7223
L107.7976 101.8176
" />
<path d="M107.7976 101.8176
L107.6548 101.8652
" />
<path d="M107.6548 101.8652
L107.5595 101.8652
" />
<path d="M108.9405 101.8652
L108.3690 101.8652
" />
<path d="M108.6548 101.8652
L108.6548 100.8652
" />
<path d="M108.6548 100.8652
L108.5595 101.0080
" />
<path d="M108.5595 101.0080
L108.4643 101.1033
" />
<path d="M108.4643 101.1033
L108.3690 101.1509
" />
<path d="M109.8452 100.8652
L109.3690 100.8652
" />
<path d="M109.3690 100.8652
L109.3214 101.3414
" />
<path d="M109.3214 101.3414
L109.3690 101.2938
" />
<path d="M109.3690 101.2938
L109.4643 101.2461
" />
<path d="M109.4643 101.2461
L109.7024 101.2461
" />
<path d="M109.7024 101.2461
L109.7976 101.2938
" />
<path d="M109.7976 101.2938
L109.8452 101.3414
" />
<path d="M109.8452 101.3414
L109.8929 101.4366
" />
<path d="M109.8929 101.4366
L109.8929 101.6747
" />
<path d="M109.8929 101.6747
L109.8452 101.7699
" />
<path d="M109.8452 101.7699
L109.7976 101.8176
" />
<path d="M109.7976 101.8176
L109.7024 101.8652
" />
<path d="M109.7024 101.8652
L109.4643 101.8652
" />
<path d="M109.4643 101.8652
L109.3690 101.8176
" />
<path d="M109.3690 101.8176
L109.3214 101.7699
" />
</g></g>
<g style="fill:none; 
stroke:#000000; stroke-width:0.2540; stroke-opacity:1; 
stroke-linecap:round; stroke-linejoin:round;">
<text x="153.2500" y="104.6934"
textLength="3.8947" font-size="1.6933" lengthAdjust="spacingAndGlyphs"
text-anchor="middle" opacity="0" stroke-opacity="0">J35</text>
<g class="stroked-text"><desc>J35</desc>
<path d="M152.2219 103.3627
L152.2219 104.2698
" />
<path d="M152.2219 104.2698
L152.1614 104.4513
" />
<path d="M152.1614 104.4513
L152.0405 104.5722
" />
<path d="M152.0405 104.5722
L151.8590 104.6327
" />
<path d="M151.8590 104.6327
L151.7381 104.6327
" />
<path d="M152.7057 103.3627
L153.4919 103.3627
" />
<path d="M153.4919 103.3627
L153.0686 103.8465
" />
<path d="M153.0686 103.8465
L153.2500 103.8465
" />
<path d="M153.2500 103.8465
L153.3710 103.9070
" />
<path d="M153.3710 103.9070
L153.4314 103.9674
" />
<path d="M153.4314 103.9674
L153.4919 104.0884
" />
<path d="M153.4919 104.0884
L153.4919 104.3908
" />
<path d="M153.4919 104.3908
L153.4314 104.5117
" />
<path d="M153.4314 104.5117
L153.3710 104.5722
" />
<path d="M153.3710 104.5722
L153.2500 104.6327
" />
<path d="M153.2500 104.6327
L152.8871 104.6327
" />
<path d="M152.8871 104.6327
L152.7662 104.5722
" />
<path d="M152.7662 104.5722
L152.7057 104.5117
" />
<path d="M154.6410 103.3627
L154.0362 103.3627
" />
<path d="M154.0362 103.3627
L153.9757 103.9674
" />
<path d="M153.9757 103.9674
L154.0362 103.9070
" />
<path d="M154.0362 103.9070
L154.1571 103.8465
" />
<path d="M154.1571 103.8465
L154.4595 103.8465
" />
<path d="M154.4595 103.8465
L154.5805 103.9070
" />
<path d="M154.5805 103.9070
L154.6410 103.9674
" />
<path d="M154.6410 103.9674
L154.7014 104.0884
" />
<path d="M154.7014 104.0884
L154.7014 104.3908
" />
<path d="M154.7014 104.3908
L154.6410 104.5117
" />
<path d="M154.6410 104.5117
L154.5805 104.5722
" />
<path d="M154.5805 104.5722
L154.4595 104.6327
" />
<path d="M154.4595 104.6327
L154.1571 104.6327
" />
<path d="M154.1571 104.6327
L154.0362 104.5722
" />
<path d="M154.0362 104.5722
L153.9757 104.5117
" />
</g><text x="153.2500" y="94.4434"
textLength="3.8947" font-size="1.6933" lengthAdjust="spacingAndGlyphs"
text-anchor="middle" opacity="0" stroke-opacity="0">J32</text>
<g class="stroked-text"><desc>J32</desc>
<path d="M152.2219 93.1127
L152.2219 94.0198
" />
<path d="M152.2219 94.0198
L152.1614 94.2013
" />
<path d="M152.1614 94.2013
L152.0405 94.3222
" />
<path d="M152.0405 94.3222
L151.8590 94.3827
" />
<path d="M151.8590 94.3827
L151.7381 94.3827
" />
<path d="M152.7057 93.1127
L153.4919 93.1127
" />
<path d="M153.4919 93.1127
L153.0686 93.5965
" />
<path d="M153.0686 93.5965
L153.2500 93.5965
" />
<path d="M153.2500 93.5965
L153.3710 93.6570
" />
<path d="M153.3710 93.6570
L153.4314 93.7174
" />
<path d="M153.4314 93.7174
L153.4919 93.8384
" />
<path d="M153.4919 93.8384
L153.4919 94.1408
" />
<path d="M153.4919 94.1408
L153.4314 94.2617
" />
<path d="M153.4314 94.2617
L153.3710 94.3222
" />
<path d="M153.3710 94.3222
L153.2500 94.3827
" />
<path d="M153.2500 94.3827
L152.8871 94.3827
" />
<path d="M152.8871 94.3827
L152.7662 94.3222
" />
<path d="M152.7662 94.3222
L152.7057 94.2617
" />
<path d="M153.9757 93.2336
L154.0362 93.1732
" />
<path d="M154.0362 93.1732
L154.1571 93.1127
" />
<path d="M154.1571 93.1127
L154.4595 93.1127
" />
<path d="M154.4595 93.1127
L154.5805 93.1732
" />
<path d="M154.5805 93.1732
L154.6410 93.2336
" />
<path d="M154.6410 93.2336
L154.7014 93.3546
" />
<path d="M154.7014 93.3546
L154.7014 93.4755
" />
<path d="M154.7014 93.4755
L154.6410 93.6570
" />
<path d="M154.6410 93.6570
L153.9152 94.3827
" />
<path d="M153.9152 94.3827
L154.7014 94.3827
" />
</g></g>
<g style="fill:none; 
stroke:#000000; stroke-width:0.1500; stroke-opacity:1; 
stroke-linecap:round; stroke-linejoin:round;">
<text x="137.2500" y="145.8500"
textLength="2.9167" font-size="1.3333" lengthAdjust="spacingAndGlyphs"
text-anchor="middle" opacity="0" stroke-opacity="0">J19</text>
<g class="stroked-text"><desc>J19</desc>
<path d="M136.4405 144.8048
L136.4405 145.5191
" />
<path d="M136.4405 145.5191
L136.3929 145.6620
" />
<path d="M136.3929 145.6620
L136.2976 145.7572
" />
<path d="M136.2976 145.7572
L136.1548 145.8048
" />
<path d="M136.1548 145.8048
L136.0595 145.8048
" />
<path d="M137.4405 145.8048
L136.8690 145.8048
" />
<path d="M137.1548 145.8048
L137.1548 144.8048
" />
<path d="M137.1548 144.8048
L137.0595 144.9477
" />
<path d="M137.0595 144.9477
L136.9643 145.0429
" />
<path d="M136.9643 145.0429
L136.8690 145.0905
" />
<path d="M137.9167 145.8048
L138.1071 145.8048
" />
<path d="M138.1071 145.8048
L138.2024 145.7572
" />
<path d="M138.2024 145.7572
L138.2500 145.7096
" />
<path d="M138.2500 145.7096
L138.3452 145.5667
" />
<path d="M138.3452 145.5667
L138.3929 145.3762
" />
<path d="M138.3929 145.3762
L138.3929 144.9953
" />
<path d="M138.3929 144.9953
L138.3452 144.9001
" />
<path d="M138.3452 144.9001
L138.2976 144.8524
" />
<path d="M138.2976 144.8524
L138.2024 144.8048
" />
<path d="M138.2024 144.8048
L138.0119 144.8048
" />
<path d="M138.0119 144.8048
L137.9167 144.8524
" />
<path d="M137.9167 144.8524
L137.8690 144.9001
" />
<path d="M137.8690 144.9001
L137.8214 144.9953
" />
<path d="M137.8214 144.9953
L137.8214 145.2334
" />
<path d="M137.8214 145.2334
L137.8690 145.3286
" />
<path d="M137.8690 145.3286
L137.9167 145.3762
" />
<path d="M137.9167 145.3762
L138.0119 145.4239
" />
<path d="M138.0119 145.4239
L138.2024 145.4239
" />
<path d="M138.2024 145.4239
L138.2976 145.3762
" />
<path d="M138.2976 145.3762
L138.3452 145.3286
" />
<path d="M138.3452 145.3286
L138.3929 145.2334
" />
</g></g>
<g style="fill:none; 
stroke:#000000; stroke-width:0.2540; stroke-opacity:1; 
stroke-linecap:round; stroke-linejoin:round;">
<text x="153.2500" y="124.9434"
textLength="3.8947" font-size="1.6933" lengthAdjust="spacingAndGlyphs"
text-anchor="middle" opacity="0" stroke-opacity="0">J33</text>
<g class="stroked-text"><desc>J33</desc>
<path d="M152.2219 123.6127
L152.2219 124.5198
" />
<path d="M152.2219 124.5198
L152.1614 124.7013
" />
<path d="M152.1614 124.7013
L152.0405 124.8222
" />
<path d="M152.0405 124.8222
L151.8590 124.8827
" />
<path d="M151.8590 124.8827
L151.7381 124.8827
" />
<path d="M152.7057 123.6127
L153.4919 123.6127
" />
<path d="M153.4919 123.6127
L153.0686 124.0965
" />
<path d="M153.0686 124.0965
L153.2500 124.0965
" />
<path d="M153.2500 124.0965
L153.3710 124.1570
" />
<path d="M153.3710 124.1570
L153.4314 124.2174
" />
<path d="M153.4314 124.2174
L153.4919 124.3384
" />
<path d="M153.4919 124.3384
L153.4919 124.6408
" />
<path d="M153.4919 124.6408
L153.4314 124.7617
" />
<path d="M153.4314 124.7617
L153.3710 124.8222
" />
<path d="M153.3710 124.8222
L153.2500 124.8827
" />
<path d="M153.2500 124.8827
L152.8871 124.8827
" />
<path d="M152.8871 124.8827
L152.7662 124.8222
" />
<path d="M152.7662 124.8222
L152.7057 124.7617
" />
<path d="M153.9152 123.6127
L154.7014 123.6127
" />
<path d="M154.7014 123.6127
L154.2781 124.0965
" />
<path d="M154.2781 124.0965
L154.4595 124.0965
" />
<path d="M154.4595 124.0965
L154.5805 124.1570
" />
<path d="M154.5805 124.1570
L154.6410 124.2174
" />
<path d="M154.6410 124.2174
L154.7014 124.3384
" />
<path d="M154.7014 124.3384
L154.7014 124.6408
" />
<path d="M154.7014 124.6408
L154.6410 124.7617
" />
<path d="M154.6410 124.7617
L154.5805 124.8222
" />
<path d="M154.5805 124.8222
L154.4595 124.8827
" />
<path d="M154.4595 124.8827
L154.0967 124.8827
" />
<path d="M154.0967 124.8827
L153.9757 124.8222
" />
<path d="M153.9757 124.8222
L153.9152 124.7617
" />
</g></g>
<g style="fill:none; 
stroke:#000000; stroke-width:0.1500; stroke-opacity:1; 
stroke-linecap:round; stroke-linejoin:round;">
<text x="123.5000" y="130.4416"
textLength="2.9167" font-size="1.3333" lengthAdjust="spacingAndGlyphs"
text-anchor="middle" opacity="0" stroke-opacity="0">J11</text>
<g class="stroked-text"><desc>J11</desc>
<path d="M122.6905 129.3965
L122.6905 130.1107
" />
<path d="M122.6905 130.1107
L122.6429 130.2536
" />
<path d="M122.6429 130.2536
L122.5476 130.3488
" />
<path d="M122.5476 130.3488
L122.4048 130.3965
" />
<path d="M122.4048 130.3965
L122.3095 130.3965
" />
<path d="M123.6905 130.3965
L123.1190 130.3965
" />
<path d="M123.4048 130.3965
L123.4048 129.3965
" />
<path d="M123.4048 129.3965
L123.3095 129.5393
" />
<path d="M123.3095 129.5393
L123.2143 129.6346
" />
<path d="M123.2143 129.6346
L123.1190 129.6822
" />
<path d="M124.6429 130.3965
L124.0714 130.3965
" />
<path d="M124.3571 130.3965
L124.3571 129.3965
" />
<path d="M124.3571 129.3965
L124.2619 129.5393
" />
<path d="M124.2619 129.5393
L124.1667 129.6346
" />
<path d="M124.1667 129.6346
L124.0714 129.6822
" />
</g><text x="134.5000" y="54.6084"
textLength="2.9167" font-size="1.3333" lengthAdjust="spacingAndGlyphs"
text-anchor="middle" opacity="0" stroke-opacity="0">J10</text>
<g class="stroked-text"><desc>J10</desc>
<path d="M133.6905 53.5632
L133.6905 54.2775
" />
<path d="M133.6905 54.2775
L133.6429 54.4203
" />
<path d="M133.6429 54.4203
L133.5476 54.5156
" />
<path d="M133.5476 54.5156
L133.4048 54.5632
" />
<path d="M133.4048 54.5632
L133.3095 54.5632
" />
<path d="M134.6905 54.5632
L134.1190 54.5632
" />
<path d="M134.4048 54.5632
L134.4048 53.5632
" />
<path d="M134.4048 53.5632
L134.3095 53.7060
" />
<path d="M134.3095 53.7060
L134.2143 53.8013
" />
<path d="M134.2143 53.8013
L134.1190 53.8489
" />
<path d="M135.3095 53.5632
L135.4048 53.5632
" />
<path d="M135.4048 53.5632
L135.5000 53.6108
" />
<path d="M135.5000 53.6108
L135.5476 53.6584
" />
<path d="M135.5476 53.6584
L135.5952 53.7537
" />
<path d="M135.5952 53.7537
L135.6429 53.9441
" />
<path d="M135.6429 53.9441
L135.6429 54.1822
" />
<path d="M135.6429 54.1822
L135.5952 54.3727
" />
<path d="M135.5952 54.3727
L135.5476 54.4679
" />
<path d="M135.5476 54.4679
L135.5000 54.5156
" />
<path d="M135.5000 54.5156
L135.4048 54.5632
" />
<path d="M135.4048 54.5632
L135.3095 54.5632
" />
<path d="M135.3095 54.5632
L135.2143 54.5156
" />
<path d="M135.2143 54.5156
L135.1667 54.4679
" />
<path d="M135.1667 54.4679
L135.1190 54.3727
" />
<path d="M135.1190 54.3727
L135.0714 54.1822
" />
<path d="M135.0714 54.1822
L135.0714 53.9441
" />
<path d="M135.0714 53.9441
L135.1190 53.7537
" />
<path d="M135.1190 53.7537
L135.1667 53.6584
" />
<path d="M135.1667 53.6584
L135.2143 53.6108
" />
<path d="M135.2143 53.6108
L135.3095 53.5632
" />
</g><text x="137.2500" y="124.7104"
textLength="1.9643" font-size="1.3333" lengthAdjust="spacingAndGlyphs"
text-anchor="middle" opacity="0" stroke-opacity="0">J9</text>
<g class="stroked-text"><desc>J9</desc>
<path d="M136.9167 123.6652
L136.9167 124.3795
" />
<path d="M136.9167 124.3795
L136.8690 124.5223
" />
<path d="M136.8690 124.5223
L136.7738 124.6176
" />
<path d="M136.7738 124.6176
L136.6310 124.6652
" />
<path d="M136.6310 124.6652
L136.5357 124.6652
" />
<path d="M137.4405 124.6652
L137.6310 124.6652
" />
<path d="M137.6310 124.6652
L137.7262 124.6176
" />
<path d="M137.7262 124.6176
L137.7738 124.5699
" />
<path d="M137.7738 124.5699
L137.8690 124.4271
" />
<path d="M137.8690 124.4271
L137.9167 124.2366
" />
<path d="M137.9167 124.2366
L137.9167 123.8557
" />
<path d="M137.9167 123.8557
L137.8690 123.7604
" />
<path d="M137.8690 123.7604
L137.8214 123.7128
" />
<path d="M137.8214 123.7128
L137.7262 123.6652
" />
<path d="M137.7262 123.6652
L137.5357 123.6652
" />
<path d="M137.5357 123.6652
L137.4405 123.7128
" />
<path d="M137.4405 123.7128
L137.3929 123.7604
" />
<path d="M137.3929 123.7604
L137.3452 123.8557
" />
<path d="M137.3452 123.8557
L137.3452 124.0938
" />
<path d="M137.3452 124.0938
L137.3929 124.1890
" />
<path d="M137.3929 124.1890
L137.4405 124.2366
" />
<path d="M137.4405 124.2366
L137.5357 124.2842
" />
<path d="M137.5357 124.2842
L137.7262 124.2842
" />
<path d="M137.7262 124.2842
L137.8214 124.2366
" />
<path d="M137.8214 124.2366
L137.8690 124.1890
" />
<path d="M137.8690 124.1890
L137.9167 124.0938
" />
</g><text x="108.7500" y="77.6604"
textLength="1.9643" font-size="1.3333" lengthAdjust="spacingAndGlyphs"
text-anchor="middle" opacity="0" stroke-opacity="0">J4</text>
<g class="stroked-text"><desc>J4</desc>
<path d="M108.4167 76.6152
L108.4167 77.3295
" />
<path d="M108.4167 77.3295
L108.3690 77.4723
" />
<path d="M108.3690 77.4723
L108.2738 77.5676
" />
<path d="M108.2738 77.5676
L108.1310 77.6152
" />
<path d="M108.1310 77.6152
L108.0357 77.6152
" />
<path d="M109.3214 76.9485
L109.3214 77.6152
" />
<path d="M109.0833 76.5676
L108.8452 77.2818
" />
<path d="M108.8452 77.2818
L109.4643 77.2818
" />
</g></g>
<g style="fill:none; 
stroke:#000000; stroke-width:0.2540; stroke-opacity:1; 
stroke-linecap:round; stroke-linejoin:round;">
<text x="144.0000" y="114.6934"
textLength="3.8947" font-size="1.6933" lengthAdjust="spacingAndGlyphs"
text-anchor="middle" opacity="0" stroke-opacity="0">J29</text>
<g class="stroked-text"><desc>J29</desc>
<path d="M142.9719 113.3627
L142.9719 114.2698
" />
<path d="M142.9719 114.2698
L142.9114 114.4513
" />
<path d="M142.9114 114.4513
L142.7905 114.5722
" />
<path d="M142.7905 114.5722
L142.6090 114.6327
" />
<path d="M142.6090 114.6327
L142.4881 114.6327
" />
<path d="M143.5162 113.4836
L143.5767 113.4232
" />
<path d="M143.5767 113.4232
L143.6976 113.3627
" />
<path d="M143.6976 113.3627
L144.0000 113.3627
" />
<path d="M144.0000 113.3627
L144.1210 113.4232
" />
<path d="M144.1210 113.4232
L144.1814 113.4836
" />
<path d="M144.1814 113.4836
L144.2419 113.6046
" />
<path d="M144.2419 113.6046
L144.2419 113.7255
" />
<path d="M144.2419 113.7255
L144.1814 113.9070
" />
<path d="M144.1814 113.9070
L143.4557 114.6327
" />
<path d="M143.4557 114.6327
L144.2419 114.6327
" />
<path d="M144.8467 114.6327
L145.0886 114.6327
" />
<path d="M145.0886 114.6327
L145.2095 114.5722
" />
<path d="M145.2095 114.5722
L145.2700 114.5117
" />
<path d="M145.2700 114.5117
L145.3910 114.3303
" />
<path d="M145.3910 114.3303
L145.4514 114.0884
" />
<path d="M145.4514 114.0884
L145.4514 113.6046
" />
<path d="M145.4514 113.6046
L145.3910 113.4836
" />
<path d="M145.3910 113.4836
L145.3305 113.4232
" />
<path d="M145.3305 113.4232
L145.2095 113.3627
" />
<path d="M145.2095 113.3627
L144.9676 113.3627
" />
<path d="M144.9676 113.3627
L144.8467 113.4232
" />
<path d="M144.8467 113.4232
L144.7862 113.4836
" />
<path d="M144.7862 113.4836
L144.7257 113.6046
" />
<path d="M144.7257 113.6046
L144.7257 113.9070
" />
<path d="M144.7257 113.9070
L144.7862 114.0279
" />
<path d="M144.7862 114.0279
L144.8467 114.0884
" />
<path d="M144.8467 114.0884
L144.9676 114.1489
" />
<path d="M144.9676 114.1489
L145.2095 114.1489
" />
<path d="M145.2095 114.1489
L145.3305 114.0884
" />
<path d="M145.3305 114.0884
L145.3910 114.0279
" />
<path d="M145.3910 114.0279
L145.4514 113.9070
" />
</g></g>
<g style="fill:none; 
stroke:#000000; stroke-width:0.1500; stroke-opacity:1; 
stroke-linecap:round; stroke-linejoin:round;">
<text x="121.5000" y="124.2500"
textLength="2.9167" font-size="1.3333" lengthAdjust="spacingAndGlyphs"
text-anchor="middle" opacity="0" stroke-opacity="0">J17</text>
<g class="stroked-text"><desc>J17</desc>
<path d="M120.6905 123.2048
L120.6905 123.9191
" />
<path d="M120.6905 123.9191
L120.6429 124.0620
" />
<path d="M120.6429 124.0620
L120.5476 124.1572
" />
<path d="M120.5476 124.1572
L120.4048 124.2048
" />
<path d="M120.4048 124.2048
L120.3095 124.2048
" />
<path d="M121.6905 124.2048
L121.1190 124.2048
" />
<path d="M121.4048 124.2048
L121.4048 123.2048
" />
<path d="M121.4048 123.2048
L121.3095 123.3477
" />
<path d="M121.3095 123.3477
L121.2143 123.4429
" />
<path d="M121.2143 123.4429
L121.1190 123.4905
" />
<path d="M122.0238 123.2048
L122.6905 123.2048
" />
<path d="M122.6905 123.2048
L122.2619 124.2048
" />
</g><text x="141.5000" y="79.7500"
textLength="2.9167" font-size="1.3333" lengthAdjust="spacingAndGlyphs"
text-anchor="middle" opacity="0" stroke-opacity="0">J24</text>
<g class="stroked-text"><desc>J24</desc>
<path d="M140.6905 78.7048
L140.6905 79.4191
" />
<path d="M140.6905 79.4191
L140.6429 79.5620
" />
<path d="M140.6429 79.5620
L140.5476 79.6572
" />
<path d="M140.5476 79.6572
L140.4048 79.7048
" />
<path d="M140.4048 79.7048
L140.3095 79.7048
" />
<path d="M141.1190 78.8001
L141.1667 78.7524
" />
<path d="M141.1667 78.7524
L141.2619 78.7048
" />
<path d="M141.2619 78.7048
L141.5000 78.7048
" />
<path d="M141.5000 78.7048
L141.5952 78.7524
" />
<path d="M141.5952 78.7524
L141.6429 78.8001
" />
<path d="M141.6429 78.8001
L141.6905 78.8953
" />
<path d="M141.6905 78.8953
L141.6905 78.9905
" />
<path d="M141.6905 78.9905
L141.6429 79.1334
" />
<path d="M141.6429 79.1334
L141.0714 79.7048
" />
<path d="M141.0714 79.7048
L141.6905 79.7048
" />
<path d="M142.5476 79.0382
L142.5476 79.7048
" />
<path d="M142.3095 78.6572
L142.0714 79.3715
" />
<path d="M142.0714 79.3715
L142.6905 79.3715
" />
</g></g>
<g style="fill:none; 
stroke:#000000; stroke-width:0.2540; stroke-opacity:1; 
stroke-linecap:round; stroke-linejoin:round;">
<text x="133.7500" y="93.1934"
textLength="2.9875" font-size="1.6933" lengthAdjust="spacingAndGlyphs"
text-anchor="middle" opacity="0" stroke-opacity="0">K2</text>
<g class="stroked-text"><desc>K2</desc>
<path d="M132.8126 93.1327
L132.8126 91.8627
" />
<path d="M133.5383 93.1327
L132.9940 92.4070
" />
<path d="M133.5383 91.8627
L132.8126 92.5884
" />
<path d="M134.0221 91.9836
L134.0826 91.9232
" />
<path d="M134.0826 91.9232
L134.2036 91.8627
" />
<path d="M134.2036 91.8627
L134.5060 91.8627
" />
<path d="M134.5060 91.8627
L134.6269 91.9232
" />
<path d="M134.6269 91.9232
L134.6874 91.9836
" />
<path d="M134.6874 91.9836
L134.7479 92.1046
" />
<path d="M134.7479 92.1046
L134.7479 92.2255
" />
<path d="M134.7479 92.2255
L134.6874 92.4070
" />
<path d="M134.6874 92.4070
L133.9617 93.1327
" />
<path d="M133.9617 93.1327
L134.7479 93.1327
" />
</g><text x="153.2500" y="114.6934"
textLength="3.8947" font-size="1.6933" lengthAdjust="spacingAndGlyphs"
text-anchor="middle" opacity="0" stroke-opacity="0">J34</text>
<g class="stroked-text"><desc>J34</desc>
<path d="M152.2219 113.3627
L152.2219 114.2698
" />
<path d="M152.2219 114.2698
L152.1614 114.4513
" />
<path d="M152.1614 114.4513
L152.0405 114.5722
" />
<path d="M152.0405 114.5722
L151.8590 114.6327
" />
<path d="M151.8590 114.6327
L151.7381 114.6327
" />
<path d="M152.7057 113.3627
L153.4919 113.3627
" />
<path d="M153.4919 113.3627
L153.0686 113.8465
" />
<path d="M153.0686 113.8465
L153.2500 113.8465
" />
<path d="M153.2500 113.8465
L153.3710 113.9070
" />
<path d="M153.3710 113.9070
L153.4314 113.9674
" />
<path d="M153.4314 113.9674
L153.4919 114.0884
" />
<path d="M153.4919 114.0884
L153.4919 114.3908
" />
<path d="M153.4919 114.3908
L153.4314 114.5117
" />
<path d="M153.4314 114.5117
L153.3710 114.5722
" />
<path d="M153.3710 114.5722
L153.2500 114.6327
" />
<path d="M153.2500 114.6327
L152.8871 114.6327
" />
<path d="M152.8871 114.6327
L152.7662 114.5722
" />
<path d="M152.7662 114.5722
L152.7057 114.5117
" />
<path d="M154.5805 113.7860
L154.5805 114.6327
" />
<path d="M154.2781 113.3022
L153.9757 114.2093
" />
<path d="M153.9757 114.2093
L154.7619 114.2093
" />
</g></g>
<g style="fill:none; 
stroke:#000000; stroke-width:0.1500; stroke-opacity:1; 
stroke-linecap:round; stroke-linejoin:round;">
<text x="108.7500" y="89.6604"
textLength="2.9167" font-size="1.3333" lengthAdjust="spacingAndGlyphs"
text-anchor="middle" opacity="0" stroke-opacity="0">J13</text>
<g class="stroked-text"><desc>J13</desc>
<path d="M107.9405 88.6152
L107.9405 89.3295
" />
<path d="M107.9405 89.3295
L107.8929 89.4723
" />
<path d="M107.8929 89.4723
L107.7976 89.5676
" />
<path d="M107.7976 89.5676
L107.6548 89.6152
" />
<path d="M107.6548 89.6152
L107.5595 89.6152
" />
<path d="M108.9405 89.6152
L108.3690 89.6152
" />
<path d="M108.6548 89.6152
L108.6548 88.6152
" />
<path d="M108.6548 88.6152
L108.5595 88.7580
" />
<path d="M108.5595 88.7580
L108.4643 88.8533
" />
<path d="M108.4643 88.8533
L108.3690 88.9009
" />
<path d="M109.2738 88.6152
L109.8929 88.6152
" />
<path d="M109.8929 88.6152
L109.5595 88.9961
" />
<path d="M109.5595 88.9961
L109.7024 88.9961
" />
<path d="M109.7024 88.9961
L109.7976 89.0438
" />
<path d="M109.7976 89.0438
L109.8452 89.0914
" />
<path d="M109.8452 89.0914
L109.8929 89.1866
" />
<path d="M109.8929 89.1866
L109.8929 89.4247
" />
<path d="M109.8929 89.4247
L109.8452 89.5199
" />
<path d="M109.8452 89.5199
L109.7976 89.5676
" />
<path d="M109.7976 89.5676
L109.7024 89.6152
" />
<path d="M109.7024 89.6152
L109.4167 89.6152
" />
<path d="M109.4167 89.6152
L109.3214 89.5676
" />
<path d="M109.3214 89.5676
L109.2738 89.5199
" />
</g><text x="108.7500" y="96.1604"
textLength="1.9643" font-size="1.3333" lengthAdjust="spacingAndGlyphs"
text-anchor="middle" opacity="0" stroke-opacity="0">J5</text>
<g class="stroked-text"><desc>J5</desc>
<path d="M108.4167 95.1152
L108.4167 95.8295
" />
<path d="M108.4167 95.8295
L108.3690 95.9723
" />
<path d="M108.3690 95.9723
L108.2738 96.0676
" />
<path d="M108.2738 96.0676
L108.1310 96.1152
" />
<path d="M108.1310 96.1152
L108.0357 96.1152
" />
<path d="M109.3690 95.1152
L108.8929 95.1152
" />
<path d="M108.8929 95.1152
L108.8452 95.5914
" />
<path d="M108.8452 95.5914
L108.8929 95.5438
" />
<path d="M108.8929 95.5438
L108.9881 95.4961
" />
<path d="M108.9881 95.4961
L109.2262 95.4961
" />
<path d="M109.2262 95.4961
L109.3214 95.5438
" />
<path d="M109.3214 95.5438
L109.3690 95.5914
" />
<path d="M109.3690 95.5914
L109.4167 95.6866
" />
<path d="M109.4167 95.6866
L109.4167 95.9247
" />
<path d="M109.4167 95.9247
L109.3690 96.0199
" />
<path d="M109.3690 96.0199
L109.3214 96.0676
" />
<path d="M109.3214 96.0676
L109.2262 96.1152
" />
<path d="M109.2262 96.1152
L108.9881 96.1152
" />
<path d="M108.9881 96.1152
L108.8929 96.0676
" />
<path d="M108.8929 96.0676
L108.8452 96.0199
" />
</g><g transform="rotate(-90.000000 166.1700 61.2500)">
<text x="166.1700" y="61.7500"
textLength="2.9643" font-size="1.3333" lengthAdjust="spacingAndGlyphs"
text-anchor="middle" opacity="0" stroke-opacity="0">JP2</text>
</g>
<g class="stroked-text"><desc>JP2</desc>
<path d="M165.6248 62.0833
L166.3391 62.0833
" />
<path d="M166.3391 62.0833
L166.4820 62.1310
" />
<path d="M166.4820 62.1310
L166.5772 62.2262
" />
<path d="M166.5772 62.2262
L166.6248 62.3690
" />
<path d="M166.6248 62.3690
L166.6248 62.4643
" />
<path d="M166.6248 61.6071
L165.6248 61.6071
" />
<path d="M165.6248 61.6071
L165.6248 61.2262
" />
<path d="M165.6248 61.2262
L165.6724 61.1310
" />
<path d="M165.6724 61.1310
L165.7201 61.0833
" />
<path d="M165.7201 61.0833
L165.8153 61.0357
" />
<path d="M165.8153 61.0357
L165.9582 61.0357
" />
<path d="M165.9582 61.0357
L166.0534 61.0833
" />
<path d="M166.0534 61.0833
L166.1010 61.1310
" />
<path d="M166.1010 61.1310
L166.1486 61.2262
" />
<path d="M166.1486 61.2262
L166.1486 61.6071
" />
<path d="M165.7201 60.6548
L165.6724 60.6071
" />
<path d="M165.6724 60.6071
L165.6248 60.5119
" />
<path d="M165.6248 60.5119
L165.6248 60.2738
" />
<path d="M165.6248 60.2738
L165.6724 60.1786
" />
<path d="M165.6724 60.1786
L165.7201 60.1310
" />
<path d="M165.7201 60.1310
L165.8153 60.0833
" />
<path d="M165.8153 60.0833
L165.9105 60.0833
" />
<path d="M165.9105 60.0833
L166.0534 60.1310
" />
<path d="M166.0534 60.1310
L166.6248 60.7024
" />
<path d="M166.6248 60.7024
L166.6248 60.0833
" />
</g></g>
<g style="fill:none; 
stroke:#000000; stroke-width:0.2540; stroke-opacity:1; 
stroke-linecap:round; stroke-linejoin:round;">
<text x="144.0000" y="94.4434"
textLength="3.8947" font-size="1.6933" lengthAdjust="spacingAndGlyphs"
text-anchor="middle" opacity="0" stroke-opacity="0">J27</text>
<g class="stroked-text"><desc>J27</desc>
<path d="M142.9719 93.1127
L142.9719 94.0198
" />
<path d="M142.9719 94.0198
L142.9114 94.2013
" />
<path d="M142.9114 94.2013
L142.7905 94.3222
" />
<path d="M142.7905 94.3222
L142.6090 94.3827
" />
<path d="M142.6090 94.3827
L142.4881 94.3827
" />
<path d="M143.5162 93.2336
L143.5767 93.1732
" />
<path d="M143.5767 93.1732
L143.6976 93.1127
" />
<path d="M143.6976 93.1127
L144.0000 93.1127
" />
<path d="M144.0000 93.1127
L144.1210 93.1732
" />
<path d="M144.1210 93.1732
L144.1814 93.2336
" />
<path d="M144.1814 93.2336
L144.2419 93.3546
" />
<path d="M144.2419 93.3546
L144.2419 93.4755
" />
<path d="M144.2419 93.4755
L144.1814 93.6570
" />
<path d="M144.1814 93.6570
L143.4557 94.3827
" />
<path d="M143.4557 94.3827
L144.2419 94.3827
" />
<path d="M144.6652 93.1127
L145.5119 93.1127
" />
<path d="M145.5119 93.1127
L144.9676 94.3827
" />
</g><text x="144.0000" y="84.1934"
textLength="3.8947" font-size="1.6933" lengthAdjust="spacingAndGlyphs"
text-anchor="middle" opacity="0" stroke-opacity="0">J26</text>
<g class="stroked-text"><desc>J26</desc>
<path d="M142.9719 82.8627
L142.9719 83.7698
" />
<path d="M142.9719 83.7698
L142.9114 83.9513
" />
<path d="M142.9114 83.9513
L142.7905 84.0722
" />
<path d="M142.7905 84.0722
L142.6090 84.1327
" />
<path d="M142.6090 84.1327
L142.4881 84.1327
" />
<path d="M143.5162 82.9836
L143.5767 82.9232
" />
<path d="M143.5767 82.9232
L143.6976 82.8627
" />
<path d="M143.6976 82.8627
L144.0000 82.8627
" />
<path d="M144.0000 82.8627
L144.1210 82.9232
" />
<path d="M144.1210 82.9232
L144.1814 82.9836
" />
<path d="M144.1814 82.9836
L144.2419 83.1046
" />
<path d="M144.2419 83.1046
L144.2419 83.2255
" />
<path d="M144.2419 83.2255
L144.1814 83.4070
" />
<path d="M144.1814 83.4070
L143.4557 84.1327
" />
<path d="M143.4557 84.1327
L144.2419 84.1327
" />
<path d="M145.3305 82.8627
L145.0886 82.8627
" />
<path d="M145.0886 82.8627
L144.9676 82.9232
" />
<path d="M144.9676 82.9232
L144.9071 82.9836
" />
<path d="M144.9071 82.9836
L144.7862 83.1651
" />
<path d="M144.7862 83.1651
L144.7257 83.4070
" />
<path d="M144.7257 83.4070
L144.7257 83.8908
" />
<path d="M144.7257 83.8908
L144.7862 84.0117
" />
<path d="M144.7862 84.0117
L144.8467 84.0722
" />
<path d="M144.8467 84.0722
L144.9676 84.1327
" />
<path d="M144.9676 84.1327
L145.2095 84.1327
" />
<path d="M145.2095 84.1327
L145.3305 84.0722
" />
<path d="M145.3305 84.0722
L145.3910 84.0117
" />
<path d="M145.3910 84.0117
L145.4514 83.8908
" />
<path d="M145.4514 83.8908
L145.4514 83.5884
" />
<path d="M145.4514 83.5884
L145.3910 83.4674
" />
<path d="M145.3910 83.4674
L145.3305 83.4070
" />
<path d="M145.3305 83.4070
L145.2095 83.3465
" />
<path d="M145.2095 83.3465
L144.9676 83.3465
" />
<path d="M144.9676 83.3465
L144.8467 83.4070
" />
<path d="M144.8467 83.4070
L144.7862 83.4674
" />
<path d="M144.7862 83.4674
L144.7257 83.5884
" />
</g><text x="144.0000" y="104.6934"
textLength="3.8947" font-size="1.6933" lengthAdjust="spacingAndGlyphs"
text-anchor="middle" opacity="0" stroke-opacity="0">J30</text>
<g class="stroked-text"><desc>J30</desc>
<path d="M142.9719 103.3627
L142.9719 104.2698
" />
<path d="M142.9719 104.2698
L142.9114 104.4513
" />
<path d="M142.9114 104.4513
L142.7905 104.5722
" />
<path d="M142.7905 104.5722
L142.6090 104.6327
" />
<path d="M142.6090 104.6327
L142.4881 104.6327
" />
<path d="M143.4557 103.3627
L144.2419 103.3627
" />
<path d="M144.2419 103.3627
L143.8186 103.8465
" />
<path d="M143.8186 103.8465
L144.0000 103.8465
" />
<path d="M144.0000 103.8465
L144.1210 103.9070
" />
<path d="M144.1210 103.9070
L144.1814 103.9674
" />
<path d="M144.1814 103.9674
L144.2419 104.0884
" />
<path d="M144.2419 104.0884
L144.2419 104.3908
" />
<path d="M144.2419 104.3908
L144.1814 104.5117
" />
<path d="M144.1814 104.5117
L144.1210 104.5722
" />
<path d="M144.1210 104.5722
L144.0000 104.6327
" />
<path d="M144.0000 104.6327
L143.6371 104.6327
" />
<path d="M143.6371 104.6327
L143.5162 104.5722
" />
<path d="M143.5162 104.5722
L143.4557 104.5117
" />
<path d="M145.0281 103.3627
L145.1490 103.3627
" />
<path d="M145.1490 103.3627
L145.2700 103.4232
" />
<path d="M145.2700 103.4232
L145.3305 103.4836
" />
<path d="M145.3305 103.4836
L145.3910 103.6046
" />
<path d="M145.3910 103.6046
L145.4514 103.8465
" />
<path d="M145.4514 103.8465
L145.4514 104.1489
" />
<path d="M145.4514 104.1489
L145.3910 104.3908
" />
<path d="M145.3910 104.3908
L145.3305 104.5117
" />
<path d="M145.3305 104.5117
L145.2700 104.5722
" />
<path d="M145.2700 104.5722
L145.1490 104.6327
" />
<path d="M145.1490 104.6327
L145.0281 104.6327
" />
<path d="M145.0281 104.6327
L144.9071 104.5722
" />
<path d="M144.9071 104.5722
L144.8467 104.5117
" />
<path d="M144.8467 104.5117
L144.7862 104.3908
" />
<path d="M144.7862 104.3908
L144.7257 104.1489
" />
<path d="M144.7257 104.1489
L144.7257 103.8465
" />
<path d="M144.7257 103.8465
L144.7862 103.6046
" />
<path d="M144.7862 103.6046
L144.8467 103.4836
" />
<path d="M144.8467 103.4836
L144.9071 103.4232
" />
<path d="M144.9071 103.4232
L145.0281 103.3627
" />
</g></g>
<g style="fill:none; 
stroke:#000000; stroke-width:0.1500; stroke-opacity:1; 
stroke-linecap:round; stroke-linejoin:round;">
<text x="137.2100" y="114.5229"
textLength="2.9167" font-size="1.3333" lengthAdjust="spacingAndGlyphs"
text-anchor="middle" opacity="0" stroke-opacity="0">J18</text>
<g class="stroked-text"><desc>J18</desc>
<path d="M136.4005 113.4777
L136.4005 114.1920
" />
<path d="M136.4005 114.1920
L136.3529 114.3348
" />
<path d="M136.3529 114.3348
L136.2576 114.4301
" />
<path d="M136.2576 114.4301
L136.1148 114.4777
" />
<path d="M136.1148 114.4777
L136.0195 114.4777
" />
<path d="M137.4005 114.4777
L136.8290 114.4777
" />
<path d="M137.1148 114.4777
L137.1148 113.4777
" />
<path d="M137.1148 113.4777
L137.0195 113.6205
" />
<path d="M137.0195 113.6205
L136.9243 113.7158
" />
<path d="M136.9243 113.7158
L136.8290 113.7634
" />
<path d="M137.9719 113.9063
L137.8767 113.8586
" />
<path d="M137.8767 113.8586
L137.8290 113.8110
" />
<path d="M137.8290 113.8110
L137.7814 113.7158
" />
<path d="M137.7814 113.7158
L137.7814 113.6682
" />
<path d="M137.7814 113.6682
L137.8290 113.5729
" />
<path d="M137.8290 113.5729
L137.8767 113.5253
" />
<path d="M137.8767 113.5253
L137.9719 113.4777
" />
<path d="M137.9719 113.4777
L138.1624 113.4777
" />
<path d="M138.1624 113.4777
L138.2576 113.5253
" />
<path d="M138.2576 113.5253
L138.3052 113.5729
" />
<path d="M138.3052 113.5729
L138.3529 113.6682
" />
<path d="M138.3529 113.6682
L138.3529 113.7158
" />
<path d="M138.3529 113.7158
L138.3052 113.8110
" />
<path d="M138.3052 113.8110
L138.2576 113.8586
" />
<path d="M138.2576 113.8586
L138.1624 113.9063
" />
<path d="M138.1624 113.9063
L137.9719 113.9063
" />
<path d="M137.9719 113.9063
L137.8767 113.9539
" />
<path d="M137.8767 113.9539
L137.8290 114.0015
" />
<path d="M137.8290 114.0015
L137.7814 114.0967
" />
<path d="M137.7814 114.0967
L137.7814 114.2872
" />
<path d="M137.7814 114.2872
L137.8290 114.3824
" />
<path d="M137.8290 114.3824
L137.8767 114.4301
" />
<path d="M137.8767 114.4301
L137.9719 114.4777
" />
<path d="M137.9719 114.4777
L138.1624 114.4777
" />
<path d="M138.1624 114.4777
L138.2576 114.4301
" />
<path d="M138.2576 114.4301
L138.3052 114.3824
" />
<path d="M138.3052 114.3824
L138.3529 114.2872
" />
<path d="M138.3529 114.2872
L138.3529 114.0967
" />
<path d="M138.3529 114.0967
L138.3052 114.0015
" />
<path d="M138.3052 114.0015
L138.2576 113.9539
" />
<path d="M138.2576 113.9539
L138.1624 113.9063
" />
</g><text x="141.6766" y="53.0084"
textLength="2.2024" font-size="1.3333" lengthAdjust="spacingAndGlyphs"
text-anchor="middle" opacity="0" stroke-opacity="0">K1</text>
<g class="stroked-text"><desc>K1</desc>
<path d="M140.9385 52.9632
L140.9385 51.9632
" />
<path d="M141.5099 52.9632
L141.0814 52.3918
" />
<path d="M141.5099 51.9632
L140.9385 52.5346
" />
<path d="M142.4623 52.9632
L141.8909 52.9632
" />
<path d="M142.1766 52.9632
L142.1766 51.9632
" />
<path d="M142.1766 51.9632
L142.0814 52.1060
" />
<path d="M142.0814 52.1060
L141.9861 52.2013
" />
<path d="M141.9861 52.2013
L141.8909 52.2489
" />
</g><text x="161.0000" y="131.5000"
textLength="3.0595" font-size="1.3333" lengthAdjust="spacingAndGlyphs"
text-anchor="middle" opacity="0" stroke-opacity="0">RV1</text>
<g class="stroked-text"><desc>RV1</desc>
<path d="M160.4048 131.4548
L160.0714 130.9786
" />
<path d="M159.8333 131.4548
L159.8333 130.4548
" />
<path d="M159.8333 130.4548
L160.2143 130.4548
" />
<path d="M160.2143 130.4548
L160.3095 130.5024
" />
<path d="M160.3095 130.5024
L160.3571 130.5501
" />
<path d="M160.3571 130.5501
L160.4048 130.6453
" />
<path d="M160.4048 130.6453
L160.4048 130.7882
" />
<path d="M160.4048 130.7882
L160.3571 130.8834
" />
<path d="M160.3571 130.8834
L160.3095 130.9310
" />
<path d="M160.3095 130.9310
L160.2143 130.9786
" />
<path d="M160.2143 130.9786
L159.8333 130.9786
" />
<path d="M160.6905 130.4548
L161.0238 131.4548
" />
<path d="M161.0238 131.4548
L161.3571 130.4548
" />
<path d="M162.2143 131.4548
L161.6429 131.4548
" />
<path d="M161.9286 131.4548
L161.9286 130.4548
" />
<path d="M161.9286 130.4548
L161.8333 130.5977
" />
<path d="M161.8333 130.5977
L161.7381 130.6929
" />
<path d="M161.7381 130.6929
L161.6429 130.7405
" />
</g></g>
<g style="fill:none; 
stroke:#000000; stroke-width:0.2540; stroke-opacity:1; 
stroke-linecap:round; stroke-linejoin:round;">
<text x="134.0000" y="111.4434"
textLength="2.9875" font-size="1.6933" lengthAdjust="spacingAndGlyphs"
text-anchor="middle" opacity="0" stroke-opacity="0">K3</text>
<g class="stroked-text"><desc>K3</desc>
<path d="M133.0626 111.3827
L133.0626 110.1127
" />
<path d="M133.7883 111.3827
L133.2440 110.6570
" />
<path d="M133.7883 110.1127
L133.0626 110.8384
" />
<path d="M134.2117 110.1127
L134.9979 110.1127
" />
<path d="M134.9979 110.1127
L134.5745 110.5965
" />
<path d="M134.5745 110.5965
L134.7560 110.5965
" />
<path d="M134.7560 110.5965
L134.8769 110.6570
" />
<path d="M134.8769 110.6570
L134.9374 110.7174
" />
<path d="M134.9374 110.7174
L134.9979 110.8384
" />
<path d="M134.9979 110.8384
L134.9979 111.1408
" />
<path d="M134.9979 111.1408
L134.9374 111.2617
" />
<path d="M134.9374 111.2617
L134.8769 111.3222
" />
<path d="M134.8769 111.3222
L134.7560 111.3827
" />
<path d="M134.7560 111.3827
L134.3931 111.3827
" />
<path d="M134.3931 111.3827
L134.2721 111.3222
" />
<path d="M134.2721 111.3222
L134.2117 111.2617
" />
</g></g>
<g style="fill:none; 
stroke:#000000; stroke-width:0.1500; stroke-opacity:1; 
stroke-linecap:round; stroke-linejoin:round;">
<text x="119.0000" y="61.1084"
textLength="2.9167" font-size="1.3333" lengthAdjust="spacingAndGlyphs"
text-anchor="middle" opacity="0" stroke-opacity="0">J25</text>
<g class="stroked-text"><desc>J25</desc>
<path d="M118.1905 60.0632
L118.1905 60.7775
" />
<path d="M118.1905 60.7775
L118.1429 60.9203
" />
<path d="M118.1429 60.9203
L118.0476 61.0156
" />
<path d="M118.0476 61.0156
L117.9048 61.0632
" />
<path d="M117.9048 61.0632
L117.8095 61.0632
" />
<path d="M118.6190 60.1584
L118.6667 60.1108
" />
<path d="M118.6667 60.1108
L118.7619 60.0632
" />
<path d="M118.7619 60.0632
L119.0000 60.0632
" />
<path d="M119.0000 60.0632
L119.0952 60.1108
" />
<path d="M119.0952 60.1108
L119.1429 60.1584
" />
<path d="M119.1429 60.1584
L119.1905 60.2537
" />
<path d="M119.1905 60.2537
L119.1905 60.3489
" />
<path d="M119.1905 60.3489
L119.1429 60.4918
" />
<path d="M119.1429 60.4918
L118.5714 61.0632
" />
<path d="M118.5714 61.0632
L119.1905 61.0632
" />
<path d="M120.0952 60.0632
L119.6190 60.0632
" />
<path d="M119.6190 60.0632
L119.5714 60.5394
" />
<path d="M119.5714 60.5394
L119.6190 60.4918
" />
<path d="M119.6190 60.4918
L119.7143 60.4441
" />
<path d="M119.7143 60.4441
L119.9524 60.4441
" />
<path d="M119.9524 60.4441
L120.0476 60.4918
" />
<path d="M120.0476 60.4918
L120.0952 60.5394
" />
<path d="M120.0952 60.5394
L120.1429 60.6346
" />
<path d="M120.1429 60.6346
L120.1429 60.8727
" />
<path d="M120.1429 60.8727
L120.0952 60.9679
" />
<path d="M120.0952 60.9679
L120.0476 61.0156
" />
<path d="M120.0476 61.0156
L119.9524 61.0632
" />
<path d="M119.9524 61.0632
L119.7143 61.0632
" />
<path d="M119.7143 61.0632
L119.6190 61.0156
" />
<path d="M119.6190 61.0156
L119.5714 60.9679
" />
</g><g transform="rotate(-90.000000 170.6200 61.2500)">
<text x="170.6200" y="61.7500"
textLength="2.9643" font-size="1.3333" lengthAdjust="spacingAndGlyphs"
text-anchor="middle" opacity="0" stroke-opacity="0">JP1</text>
</g>
<g class="stroked-text"><desc>JP1</desc>
<path d="M170.0748 62.0833
L170.7891 62.0833
" />
<path d="M170.7891 62.0833
L170.9320 62.1310
" />
<path d="M170.9320 62.1310
L171.0272 62.2262
" />
<path d="M171.0272 62.2262
L171.0748 62.3690
" />
<path d="M171.0748 62.3690
L171.0748 62.4643
" />
<path d="M171.0748 61.6071
L170.0748 61.6071
" />
<path d="M170.0748 61.6071
L170.0748 61.2262
" />
<path d="M170.0748 61.2262
L170.1224 61.1310
" />
<path d="M170.1224 61.1310
L170.1701 61.0833
" />
<path d="M170.1701 61.0833
L170.2653 61.0357
" />
<path d="M170.2653 61.0357
L170.4082 61.0357
" />
<path d="M170.4082 61.0357
L170.5034 61.0833
" />
<path d="M170.5034 61.0833
L170.5510 61.1310
" />
<path d="M170.5510 61.1310
L170.5986 61.2262
" />
<path d="M170.5986 61.2262
L170.5986 61.6071
" />
<path d="M171.0748 60.0833
L171.0748 60.6548
" />
<path d="M171.0748 60.3690
L170.0748 60.3690
" />
<path d="M170.0748 60.3690
L170.2177 60.4643
" />
<path d="M170.2177 60.4643
L170.3129 60.5595
" />
<path d="M170.3129 60.5595
L170.3605 60.6548
" />
</g><text x="108.7500" y="83.6604"
textLength="2.9167" font-size="1.3333" lengthAdjust="spacingAndGlyphs"
text-anchor="middle" opacity="0" stroke-opacity="0">J14</text>
<g class="stroked-text"><desc>J14</desc>
<path d="M107.9405 82.6152
L107.9405 83.3295
" />
<path d="M107.9405 83.3295
L107.8929 83.4723
" />
<path d="M107.8929 83.4723
L107.7976 83.5676
" />
<path d="M107.7976 83.5676
L107.6548 83.6152
" />
<path d="M107.6548 83.6152
L107.5595 83.6152
" />
<path d="M108.9405 83.6152
L108.3690 83.6152
" />
<path d="M108.6548 83.6152
L108.6548 82.6152
" />
<path d="M108.6548 82.6152
L108.5595 82.7580
" />
<path d="M108.5595 82.7580
L108.4643 82.8533
" />
<path d="M108.4643 82.8533
L108.3690 82.9009
" />
<path d="M109.7976 82.9485
L109.7976 83.6152
" />
<path d="M109.5595 82.5676
L109.3214 83.2818
" />
<path d="M109.3214 83.2818
L109.9405 83.2818
" />
</g><text x="139.0000" y="131.5000"
textLength="2.9167" font-size="1.3333" lengthAdjust="spacingAndGlyphs"
text-anchor="middle" opacity="0" stroke-opacity="0">J16</text>
<g class="stroked-text"><desc>J16</desc>
<path d="M138.1905 130.4548
L138.1905 131.1691
" />
<path d="M138.1905 131.1691
L138.1429 131.3120
" />
<path d="M138.1429 131.3120
L138.0476 131.4072
" />
<path d="M138.0476 131.4072
L137.9048 131.4548
" />
<path d="M137.9048 131.4548
L137.8095 131.4548
" />
<path d="M139.1905 131.4548
L138.6190 131.4548
" />
<path d="M138.9048 131.4548
L138.9048 130.4548
" />
<path d="M138.9048 130.4548
L138.8095 130.5977
" />
<path d="M138.8095 130.5977
L138.7143 130.6929
" />
<path d="M138.7143 130.6929
L138.6190 130.7405
" />
<path d="M140.0476 130.4548
L139.8571 130.4548
" />
<path d="M139.8571 130.4548
L139.7619 130.5024
" />
<path d="M139.7619 130.5024
L139.7143 130.5501
" />
<path d="M139.7143 130.5501
L139.6190 130.6929
" />
<path d="M139.6190 130.6929
L139.5714 130.8834
" />
<path d="M139.5714 130.8834
L139.5714 131.2643
" />
<path d="M139.5714 131.2643
L139.6190 131.3596
" />
<path d="M139.6190 131.3596
L139.6667 131.4072
" />
<path d="M139.6667 131.4072
L139.7619 131.4548
" />
<path d="M139.7619 131.4548
L139.9524 131.4548
" />
<path d="M139.9524 131.4548
L140.0476 131.4072
" />
<path d="M140.0476 131.4072
L140.0952 131.3596
" />
<path d="M140.0952 131.3596
L140.1429 131.2643
" />
<path d="M140.1429 131.2643
L140.1429 131.0262
" />
<path d="M140.1429 131.0262
L140.0952 130.9310
" />
<path d="M140.0952 130.9310
L140.0476 130.8834
" />
<path d="M140.0476 130.8834
L139.9524 130.8358
" />
<path d="M139.9524 130.8358
L139.7619 130.8358
" />
<path d="M139.7619 130.8358
L139.6667 130.8834
" />
<path d="M139.6667 130.8834
L139.6190 130.9310
" />
<path d="M139.6190 130.9310
L139.5714 131.0262
" />
</g></g>
<g style="fill:none; 
stroke:#000000; stroke-width:0.2540; stroke-opacity:1; 
stroke-linecap:round; stroke-linejoin:round;">
<text x="144.0000" y="124.9434"
textLength="3.8947" font-size="1.6933" lengthAdjust="spacingAndGlyphs"
text-anchor="middle" opacity="0" stroke-opacity="0">J28</text>
<g class="stroked-text"><desc>J28</desc>
<path d="M142.9719 123.6127
L142.9719 124.5198
" />
<path d="M142.9719 124.5198
L142.9114 124.7013
" />
<path d="M142.9114 124.7013
L142.7905 124.8222
" />
<path d="M142.7905 124.8222
L142.6090 124.8827
" />
<path d="M142.6090 124.8827
L142.4881 124.8827
" />
<path d="M143.5162 123.7336
L143.5767 123.6732
" />
<path d="M143.5767 123.6732
L143.6976 123.6127
" />
<path d="M143.6976 123.6127
L144.0000 123.6127
" />
<path d="M144.0000 123.6127
L144.1210 123.6732
" />
<path d="M144.1210 123.6732
L144.1814 123.7336
" />
<path d="M144.1814 123.7336
L144.2419 123.8546
" />
<path d="M144.2419 123.8546
L144.2419 123.9755
" />
<path d="M144.2419 123.9755
L144.1814 124.1570
" />
<path d="M144.1814 124.1570
L143.4557 124.8827
" />
<path d="M143.4557 124.8827
L144.2419 124.8827
" />
<path d="M144.9676 124.1570
L144.8467 124.0965
" />
<path d="M144.8467 124.0965
L144.7862 124.0360
" />
<path d="M144.7862 124.0360
L144.7257 123.9151
" />
<path d="M144.7257 123.9151
L144.7257 123.8546
" />
<path d="M144.7257 123.8546
L144.7862 123.7336
" />
<path d="M144.7862 123.7336
L144.8467 123.6732
" />
<path d="M144.8467 123.6732
L144.9676 123.6127
" />
<path d="M144.9676 123.6127
L145.2095 123.6127
" />
<path d="M145.2095 123.6127
L145.3305 123.6732
" />
<path d="M145.3305 123.6732
L145.3910 123.7336
" />
<path d="M145.3910 123.7336
L145.4514 123.8546
" />
<path d="M145.4514 123.8546
L145.4514 123.9151
" />
<path d="M145.4514 123.9151
L145.3910 124.0360
" />
<path d="M145.3910 124.0360
L145.3305 124.0965
" />
<path d="M145.3305 124.0965
L145.2095 124.1570
" />
<path d="M145.2095 124.1570
L144.9676 124.1570
" />
<path d="M144.9676 124.1570
L144.8467 124.2174
" />
<path d="M144.8467 124.2174
L144.7862 124.2779
" />
<path d="M144.7862 124.2779
L144.7257 124.3989
" />
<path d="M144.7257 124.3989
L144.7257 124.6408
" />
<path d="M144.7257 124.6408
L144.7862 124.7617
" />
<path d="M144.7862 124.7617
L144.8467 124.8222
" />
<path d="M144.8467 124.8222
L144.9676 124.8827
" />
<path d="M144.9676 124.8827
L145.2095 124.8827
" />
<path d="M145.2095 124.8827
L145.3305 124.8222
" />
<path d="M145.3305 124.8222
L145.3910 124.7617
" />
<path d="M145.3910 124.7617
L145.4514 124.6408
" />
<path d="M145.4514 124.6408
L145.4514 124.3989
" />
<path d="M145.4514 124.3989
L145.3910 124.2779
" />
<path d="M145.3910 124.2779
L145.3305 124.2174
" />
<path d="M145.3305 124.2174
L145.2095 124.1570
" />
</g></g>
<g style="fill:none; 
stroke:#000000; stroke-width:0.1500; stroke-opacity:1; 
stroke-linecap:round; stroke-linejoin:round;">
<text x="118.7500" y="54.7104"
textLength="2.9167" font-size="1.3333" lengthAdjust="spacingAndGlyphs"
text-anchor="middle" opacity="0" stroke-opacity="0">J21</text>
<g class="stroked-text"><desc>J21</desc>
<path d="M117.9405 53.6652
L117.9405 54.3795
" />
<path d="M117.9405 54.3795
L117.8929 54.5223
" />
<path d="M117.8929 54.5223
L117.7976 54.6176
" />
<path d="M117.7976 54.6176
L117.6548 54.6652
" />
<path d="M117.6548 54.6652
L117.5595 54.6652
" />
<path d="M118.3690 53.7604
L118.4167 53.7128
" />
<path d="M118.4167 53.7128
L118.5119 53.6652
" />
<path d="M118.5119 53.6652
L118.7500 53.6652
" />
<path d="M118.7500 53.6652
L118.8452 53.7128
" />
<path d="M118.8452 53.7128
L118.8929 53.7604
" />
<path d="M118.8929 53.7604
L118.9405 53.8557
" />
<path d="M118.9405 53.8557
L118.9405 53.9509
" />
<path d="M118.9405 53.9509
L118.8929 54.0938
" />
<path d="M118.8929 54.0938
L118.3214 54.6652
" />
<path d="M118.3214 54.6652
L118.9405 54.6652
" />
<path d="M119.8929 54.6652
L119.3214 54.6652
" />
<path d="M119.6071 54.6652
L119.6071 53.6652
" />
<path d="M119.6071 53.6652
L119.5119 53.8080
" />
<path d="M119.5119 53.8080
L119.4167 53.9033
" />
<path d="M119.4167 53.9033
L119.3214 53.9509
" />
</g><text x="121.5000" y="113.0000"
textLength="1.9643" font-size="1.3333" lengthAdjust="spacingAndGlyphs"
text-anchor="middle" opacity="0" stroke-opacity="0">J7</text>
<g class="stroked-text"><desc>J7</desc>
<path d="M121.1667 111.9548
L121.1667 112.6691
" />
<path d="M121.1667 112.6691
L121.1190 112.8120
" />
<path d="M121.1190 112.8120
L121.0238 112.9072
" />
<path d="M121.0238 112.9072
L120.8810 112.9548
" />
<path d="M120.8810 112.9548
L120.7857 112.9548
" />
<path d="M121.5476 111.9548
L122.2143 111.9548
" />
<path d="M122.2143 111.9548
L121.7857 112.9548
" />
</g><path style="fill:none; 
stroke:#000000; stroke-width:0.1200; stroke-opacity:1; 
stroke-linecap:round; stroke-linejoin:round;fill:none"
d="M 162.9050,127.8650
177.1450,127.8650
177.1450,67.6250
162.9050,67.6250
Z" /> 
</g>
<g style="fill:none; 
stroke:#000000; stroke-width:0.1200; stroke-opacity:1; 
stroke-linecap:round; stroke-linejoin:round;">
<path d="M170.0250 129.3250
L170.0250 127.8650
" />
<path d="M170.0250 66.1650
L170.0250 67.6250
" />
<circle cx="137.2100" cy="95.7959" r="1.4500" /> 
<circle cx="122.2500" cy="56.3584" r="1.4500" /> 
</g>
<g style="fill:none; 
stroke:#000000; stroke-width:0.2000; stroke-opacity:1; 
stroke-linecap:round; stroke-linejoin:round;">
<path d="M152.0100 86.6084
L154.4100 86.6084
" />
<path d="M152.0100 84.6084
L154.4100 84.6084
" />
</g>
<g style="fill:none; 
stroke:#000000; stroke-width:0.1200; stroke-opacity:1; 
stroke-linecap:round; stroke-linejoin:round;">
<circle cx="129.7500" cy="116.5584" r="1.4500" /> 
<path d="M109.6000 75.8684 A4.1100 4.1100 0.0 0 0 113.1230 73.8752" />
<path d="M113.5304 63.0567 A4.1100 4.1100 0.0 0 0 109.6000 60.1484" />
<path d="M113.7100 69.2984
L113.7100 65.5584
" />
<path d="M104.2500 75.8684
L109.6000 75.8684
" />
<path d="M104.2500 75.8684
L104.2500 60.1484
" />
<path d="M104.2500 60.1484
L109.6000 60.1484
" />
<circle cx="115.2500" cy="56.3584" r="1.4500" /> 
<circle cx="127.0000" cy="144.5000" r="1.4500" /> 
<circle cx="108.7500" cy="103.5584" r="1.4500" /> 
</g>
<g style="fill:none; 
stroke:#000000; stroke-width:0.2000; stroke-opacity:1; 
stroke-linecap:round; stroke-linejoin:round;">
<path d="M152.0100 106.9834
L154.4100 106.9834
" />
<path d="M152.0100 104.9834
L154.4100 104.9834
" />
<path d="M152.0100 96.7959
L154.4100 96.7959
" />
<path d="M152.0100 94.7959
L154.4100 94.7959
" />
</g>
<g style="fill:none; 
stroke:#000000; stroke-width:0.1200; stroke-opacity:1; 
stroke-linecap:round; stroke-linejoin:round;">
<circle cx="140.5000" cy="144.5000" r="1.4500" /> 
</g>
<g style="fill:none; 
stroke:#000000; stroke-width:0.2000; stroke-opacity:1; 
stroke-linecap:round; stroke-linejoin:round;">
<path d="M152.0500 127.3584
L154.4500 127.3584
" />
<path d="M152.0500 125.3584
L154.4500 125.3584
" />
</g>
<g style="fill:none; 
stroke:#000000; stroke-width:0.1200; stroke-opacity:1; 
stroke-linecap:round; stroke-linejoin:round;">
<circle cx="123.5000" cy="132.2500" r="1.4500" /> 
<circle cx="137.5000" cy="54.1084" r="1.4500" /> 
<circle cx="137.2500" cy="126.3584" r="1.4500" /> 
<circle cx="108.7500" cy="79.3084" r="1.4500" /> 
</g>
<g style="fill:none; 
stroke:#000000; stroke-width:0.2000; stroke-opacity:1; 
stroke-linecap:round; stroke-linejoin:round;">
<path d="M142.7600 117.1709
L145.1600 117.1709
" />
<path d="M142.7600 115.1709
L145.1600 115.1709
" />
</g>
<g style="fill:none; 
stroke:#000000; stroke-width:0.1200; stroke-opacity:1; 
stroke-linecap:round; stroke-linejoin:round;">
<circle cx="121.5000" cy="126.1084" r="1.4500" /> 
</g>
<g style="fill:none; 
stroke:#000000; stroke-width:0.2000; stroke-opacity:1; 
stroke-linecap:round; stroke-linejoin:round;">
<path d="M111.6500 85.3084 A0.0500 0.0500 0.0 0 0 111.7500 85.3084" />
<path d="M111.6500 85.3084 A0.0500 0.0500 0.0 0 0 111.7500 85.3084" />
<path d="M111.7500 85.3084 A0.0500 0.0500 0.0 0 0 111.6500 85.3084" />
</g>
<g style="fill:none; 
stroke:#000000; stroke-width:0.1000; stroke-opacity:1; 
stroke-linecap:round; stroke-linejoin:round;">
<path d="M132.4000 93.2084
L112.9000 93.2084
" />
<path d="M132.4000 77.4084
L132.4000 93.2084
" />
<path d="M112.9000 93.2084
L112.9000 77.4084
" />
<path d="M112.9000 77.4084
L132.4000 77.4084
" />
</g>
<g style="fill:#000000; fill-opacity:1.0000; stroke:none;">
<circle cx="111.7500" cy="85.3084" r="0.1000" /> 
<circle cx="111.6500" cy="85.3084" r="0.1000" /> 
<circle cx="111.6500" cy="85.3084" r="0.1000" /> 
</g>
<g style="fill:none; 
stroke:#000000; stroke-width:0.2000; stroke-opacity:1; 
stroke-linecap:round; stroke-linejoin:round;">
<path d="M152.0100 117.1709
L154.4100 117.1709
" />
<path d="M152.0100 115.1709
L154.4100 115.1709
" />
</g>
<g style="fill:none; 
stroke:#000000; stroke-width:0.1200; stroke-opacity:1; 
stroke-linecap:round; stroke-linejoin:round;">
<circle cx="108.7500" cy="91.3084" r="1.4500" /> 
<circle cx="108.7500" cy="97.8084" r="1.4500" /> 
<path d="M165.1700 59.8700
L165.1700 61.2500
" />
<path d="M163.7900 59.8700
L165.1700 59.8700
" />
<path d="M162.5200 62.6300
L159.8700 62.6300
" />
<path d="M162.5200 59.8700
L162.5200 62.6300
" />
<path d="M162.5200 59.8700
L159.8700 59.8700
" />
<path d="M159.8700 59.8700
L159.8700 62.6300
" />
</g>
<g style="fill:none; 
stroke:#000000; stroke-width:0.2000; stroke-opacity:1; 
stroke-linecap:round; stroke-linejoin:round;">
<path d="M142.7600 96.7959
L145.1600 96.7959
" />
<path d="M142.7600 94.7959
L145.1600 94.7959
" />
<path d="M142.7600 86.6084
L145.1600 86.6084
" />
<path d="M142.7600 84.6084
L145.1600 84.6084
" />
<path d="M142.7600 106.9834
L145.1600 106.9834
" />
<path d="M142.7600 104.9834
L145.1600 104.9834
" />
</g>
<g style="fill:none; 
stroke:#000000; stroke-width:0.1200; stroke-opacity:1; 
stroke-linecap:round; stroke-linejoin:round;">
<circle cx="137.2100" cy="116.1709" r="1.4500" /> 
<circle cx="151.1000" cy="64.2684" r="0.1270" /> 
<path d="M156.5900 81.1184 A0.8700 0.8700 0.0 0 0 157.4600 80.2484" />
<path d="M157.4600 54.3684 A0.8700 0.8700 0.0 0 0 156.5900 53.4984" />
<path d="M144.6400 80.2484 A0.8700 0.8700 0.0 0 0 145.5100 81.1184" />
<path d="M144.6400 76.4684 A0.6500 0.6500 0.0 0 0 143.9900 75.8184" />
<path d="M138.9900 55.9984 A0.6500 0.6500 0.0 0 0 139.6400 55.3484" />
<path d="M140.5100 53.4984 A0.8700 0.8700 0.0 0 0 139.6400 54.3684" />
<path d="M135.3520 66.8084 A0.6350 0.6350 0.0 1 0 135.3523 67.5700" />
<path d="M135.3520 66.0464 A0.6350 0.6350 0.0 1 0 135.3523 66.8080" />
<path d="M134.8440 65.0304 A0.6350 0.6350 0.0 1 0 135.3518 66.0466" />
<path d="M135.3518 67.5701 A0.6350 0.6350 0.0 1 0 134.8440 68.5864" />
<path d="M125.4400 74.9484 A0.8700 0.8700 0.0 0 0 126.3100 75.8184" />
<path d="M126.3100 55.9984 A0.8700 0.8700 0.0 0 0 125.4400 56.8684" />
<path d="M157.4600 54.3684
L157.4600 80.2484
" />
<path d="M154.8500 68.5864
L154.8500 73.4124
" />
<path d="M153.3860 69.3484
L153.3860 67.8244
" />
<path d="M153.3860 69.3484
L152.3700 68.5864
" />
<path d="M153.3860 68.5864
L154.8500 68.5864
" />
<path d="M152.3700 68.5864
L153.3860 67.8244
" />
<path d="M151.1000 64.2684
L152.3192 68.8404
" />
<path d="M151.1000 64.2684
L151.1000 57.9084
" />
<path d="M151.1000 57.9084
L147.0360 57.9084
" />
<path d="M149.8300 68.5864
L148.8140 67.8244
" />
<path d="M148.8140 69.3484
L149.8300 68.5864
" />
<path d="M148.8140 67.8244
L148.8140 69.3484
" />
<path d="M147.2500 73.4124
L147.2500 68.5864
" />
<path d="M147.2500 68.5864
L148.8140 68.5864
" />
<path d="M145.5100 81.1184
L156.5900 81.1184
" />
<path d="M144.6400 76.4684
L144.6400 80.2484
" />
<path d="M140.5100 53.4984
L156.5900 53.4984
" />
<path d="M139.6400 54.3684
L139.6400 55.3484
" />
<path d="M134.8440 71.9138
L134.8440 68.5864
" />
<path d="M134.8440 71.9138
L133.5740 71.9138
" />
<path d="M134.8440 65.0304
L134.8440 61.7030
" />
<path d="M133.5740 61.7030
L134.8440 61.7030
" />
<path d="M129.5100 57.9084
L142.4640 57.9084
" />
<path d="M129.5100 57.9084
L129.5100 64.5224
" />
<path d="M126.3100 75.8184
L143.9900 75.8184
" />
<path d="M126.3100 55.9984
L138.9900 55.9984
" />
<path d="M125.4400 56.8684
L125.4400 74.9484
" />
<circle cx="154.5000" cy="137.7500" r="7.6100" /> 
</g>
<g style="fill:none; 
stroke:#000000; stroke-width:0.2000; stroke-opacity:1; 
stroke-linecap:round; stroke-linejoin:round;">
<path d="M111.6500 103.5584 A0.0500 0.0500 0.0 0 0 111.7500 103.5584" />
<path d="M111.6500 103.5584 A0.0500 0.0500 0.0 0 0 111.7500 103.5584" />
<path d="M111.7500 103.5584 A0.0500 0.0500 0.0 0 0 111.6500 103.5584" />
</g>
<g style="fill:none; 
stroke:#000000; stroke-width:0.1000; stroke-opacity:1; 
stroke-linecap:round; stroke-linejoin:round;">
<path d="M132.4000 111.4584
L112.9000 111.4584
" />
<path d="M132.4000 95.6584
L132.4000 111.4584
" />
<path d="M112.9000 111.4584
L112.9000 95.6584
" />
<path d="M112.9000 95.6584
L132.4000 95.6584
" />
</g>
<g style="fill:#000000; fill-opacity:1.0000; stroke:none;">
<circle cx="111.7500" cy="103.5584" r="0.1000" /> 
<circle cx="111.6500" cy="103.5584" r="0.1000" /> 
<circle cx="111.6500" cy="103.5584" r="0.1000" /> 
</g>
<g style="fill:none; 
stroke:#000000; stroke-width:0.1200; stroke-opacity:1; 
stroke-linecap:round; stroke-linejoin:round;">
<path d="M176.9200 62.6300
L176.9200 59.8700
" />
<path d="M174.2700 62.6300
L176.9200 62.6300
" />
<path d="M174.2700 62.6300
L174.2700 59.8700
" />
<path d="M174.2700 59.8700
L176.9200 59.8700
" />
<path d="M173.0000 62.6300
L171.6200 62.6300
" />
<path d="M171.6200 62.6300
L171.6200 61.2500
" />
<circle cx="108.7500" cy="85.3084" r="1.4500" /> 
<circle cx="142.0000" cy="132.5000" r="1.4500" /> 
</g>
<g style="fill:none; 
stroke:#000000; stroke-width:0.2000; stroke-opacity:1; 
stroke-linecap:round; stroke-linejoin:round;">
<path d="M142.8000 127.3584
L145.2000 127.3584
" />
<path d="M142.8000 125.3584
L145.2000 125.3584
" />
</g>
<g style="fill:none; 
stroke:#000000; stroke-width:0.1200; stroke-opacity:1; 
stroke-linecap:round; stroke-linejoin:round;">
<circle cx="118.7500" cy="56.3584" r="1.4500" /> 
<circle cx="121.5000" cy="114.7084" r="1.4500" /> 
<path style="fill:none; 
stroke:#000000; stroke-width:0.2000; stroke-opacity:1; 
stroke-linecap:round; stroke-linejoin:round;fill:none"
d="M 179.0000,149.8084
104.0000,149.8084
104.0000,49.8084
179.0000,49.8084
Z" /> 
</g> 
</svg>
