<?xml version="1.0" encoding="UTF-8" standalone="no"?>
<svg
   version="1.1"
   width="75.199997mm"
   height="100.2mm"
   viewBox="0 0 75.199998 100.2"
   id="svg139"
   sodipodi:docname="dragstar-infotainment-B_Mask.svg"
   inkscape:version="1.4 (86a8ad7, 2024-10-11)"
   inkscape:export-filename="dragstar-infotainment-B_Mask.png"
   inkscape:export-xdpi="1200"
   inkscape:export-ydpi="1200"
   xmlns:inkscape="http://www.inkscape.org/namespaces/inkscape"
   xmlns:sodipodi="http://sodipodi.sourceforge.net/DTD/sodipodi-0.dtd"
   xmlns="http://www.w3.org/2000/svg"
   xmlns:svg="http://www.w3.org/2000/svg"
   xmlns:rdf="http://www.w3.org/1999/02/22-rdf-syntax-ns#"
   xmlns:cc="http://creativecommons.org/ns#"
   xmlns:dc="http://purl.org/dc/elements/1.1/">
  <defs
     id="defs139" />
  <sodipodi:namedview
     id="namedview139"
     pagecolor="#ffffff"
     bordercolor="#999999"
     borderopacity="1"
     inkscape:showpageshadow="0"
     inkscape:pageopacity="0"
     inkscape:pagecheckerboard="0"
     inkscape:deskcolor="#d1d1d1"
     inkscape:document-units="mm"
     inkscape:zoom="0.44851636"
     inkscape:cx="170.56234"
     inkscape:cy="198.432"
     inkscape:window-width="1059"
     inkscape:window-height="600"
     inkscape:window-x="1946"
     inkscape:window-y="26"
     inkscape:window-maximized="0"
     inkscape:current-layer="svg139"
     inkscape:export-bgcolor="#ffffffff" />
  <title
     id="title1">SVG Image created as dragstar-infotainment-B_Mask.svg date 2025/06/24 01:19:38 </title>
  <desc
     id="desc1">Image generated by PCBNEW </desc>
  <g
     style="fill:#000000;fill-opacity:1;stroke:#000000;stroke-linecap:round;stroke-linejoin:round;stroke-opacity:1"
     id="g1"
     transform="translate(-103.7212,-49.7084)" />
  <g
     style="fill:#000000;fill-opacity:1;stroke:none"
     id="g2"
     transform="translate(-103.7212,-49.7084)">
    <circle
       cx="137.25"
       cy="126.3584"
       r="1.25"
       id="circle1" />
  </g>
  <g
     style="fill:#000000;fill-opacity:1;stroke:none"
     id="g3"
     transform="translate(-103.7212,-49.7084)">
    <circle
       cx="108.75"
       cy="79.308403"
       r="1.25"
       id="circle2" />
  </g>
  <g
     style="fill:#000000;fill-opacity:1;stroke:none"
     id="g4"
     transform="translate(-103.7212,-49.7084)">
    <circle
       cx="141.42"
       cy="116.1709"
       r="1.1"
       id="circle3" />
  </g>
  <g
     style="fill:#000000;fill-opacity:1;stroke:none"
     id="g5"
     transform="translate(-103.7212,-49.7084)">
    <circle
       cx="146.5"
       cy="116.1709"
       r="1.1"
       id="circle4" />
  </g>
  <g
     style="fill:#000000;fill-opacity:1;stroke:none"
     id="g6"
     transform="translate(-103.7212,-49.7084)">
    <circle
       cx="121.5"
       cy="126.1084"
       r="1.25"
       id="circle5" />
  </g>
  <g
     style="fill:#000000;fill-opacity:1;stroke:none"
     id="g7"
     transform="translate(-103.7212,-49.7084)">
    <circle
       cx="136.75"
       cy="79.5"
       r="2.8"
       id="circle6" />
  </g>
  <g
     style="fill:#000000;fill-opacity:1;stroke:none"
     id="g8"
     transform="translate(-103.7212,-49.7084)">
    <circle
       cx="116.55"
       cy="79.308403"
       r="0.60000002"
       id="circle7" />
  </g>
  <g
     style="fill:#000000;fill-opacity:1;stroke:none"
     id="g9"
     transform="translate(-103.7212,-49.7084)">
    <circle
       cx="116.55"
       cy="91.308403"
       r="0.60000002"
       id="circle8" />
  </g>
  <g
     style="fill:#000000;fill-opacity:1;stroke:none"
     id="g10"
     transform="translate(-103.7212,-49.7084)">
    <circle
       cx="114.55"
       cy="85.308403"
       r="0.82499999"
       id="circle9" />
  </g>
  <g
     style="fill:#000000;fill-opacity:1;stroke:none"
     id="g11"
     transform="translate(-103.7212,-49.7084)">
    <circle
       cx="128.75"
       cy="91.308403"
       r="0.89999998"
       id="circle10" />
  </g>
  <g
     style="fill:#000000;fill-opacity:1;stroke:none"
     id="g12"
     transform="translate(-103.7212,-49.7084)">
    <circle
       cx="128.75"
       cy="79.308403"
       r="0.89999998"
       id="circle11" />
  </g>
  <g
     style="fill:#000000;fill-opacity:1;stroke:none"
     id="g13"
     transform="translate(-103.7212,-49.7084)">
    <circle
       cx="150.67"
       cy="116.1709"
       r="1.1"
       id="circle12" />
  </g>
  <g
     style="fill:#000000;fill-opacity:1;stroke:none"
     id="g14"
     transform="translate(-103.7212,-49.7084)">
    <circle
       cx="155.75"
       cy="116.1709"
       r="1.1"
       id="circle13" />
  </g>
  <g
     style="fill:#000000;fill-opacity:1;stroke:none"
     id="g15"
     transform="translate(-103.7212,-49.7084)">
    <circle
       cx="108.75"
       cy="91.308403"
       r="1.25"
       id="circle14" />
  </g>
  <g
     style="fill:#000000;fill-opacity:1;stroke:none"
     id="g16"
     transform="translate(-103.7212,-49.7084)">
    <circle
       cx="108.75"
       cy="97.808403"
       r="1.25"
       id="circle15" />
    <path
       style="fill:#000000;fill-opacity:1;fill-rule:evenodd;stroke:none"
       d="m 162.94,60.4 h 1.7 v 1.7 h -1.7 z"
       id="path15" />
  </g>
  <g
     style="fill:#000000;fill-opacity:1;stroke:none"
     id="g17"
     transform="translate(-103.7212,-49.7084)">
    <circle
       cx="161.25"
       cy="61.25"
       r="0.85000002"
       id="circle16" />
  </g>
  <g
     style="fill:#000000;fill-opacity:1;stroke:none"
     id="g18"
     transform="translate(-103.7212,-49.7084)">
    <circle
       cx="141.42"
       cy="95.795898"
       r="1.1"
       id="circle17" />
  </g>
  <g
     style="fill:#000000;fill-opacity:1;stroke:none"
     id="g19"
     transform="translate(-103.7212,-49.7084)">
    <circle
       cx="146.5"
       cy="95.795898"
       r="1.1"
       id="circle18" />
  </g>
  <g
     style="fill:#000000;fill-opacity:1;stroke:none"
     id="g20"
     transform="translate(-103.7212,-49.7084)">
    <circle
       cx="141.42"
       cy="85.608398"
       r="1.1"
       id="circle19" />
  </g>
  <g
     style="fill:#000000;fill-opacity:1;stroke:none"
     id="g21"
     transform="translate(-103.7212,-49.7084)">
    <circle
       cx="146.5"
       cy="85.608398"
       r="1.1"
       id="circle20" />
  </g>
  <g
     style="fill:#000000;fill-opacity:1;stroke:none"
     id="g22"
     transform="translate(-103.7212,-49.7084)">
    <circle
       cx="141.42"
       cy="105.9834"
       r="1.1"
       id="circle21" />
  </g>
  <g
     style="fill:#000000;fill-opacity:1;stroke:none"
     id="g23"
     transform="translate(-103.7212,-49.7084)">
    <circle
       cx="146.5"
       cy="105.9834"
       r="1.1"
       id="circle22" />
  </g>
  <g
     style="fill:#000000;fill-opacity:1;stroke:none"
     id="g24"
     transform="translate(-103.7212,-49.7084)">
    <circle
       cx="137.21001"
       cy="116.1709"
       r="1.25"
       id="circle23" />
  </g>
  <g
     style="fill:#000000;fill-opacity:1;stroke:none"
     id="g25"
     transform="translate(-103.7212,-49.7084)">
    <circle
       cx="129.50999"
       cy="66.808403"
       r="1.5"
       id="circle24" />
  </g>
  <g
     style="fill:#000000;fill-opacity:1;stroke:none"
     id="g26"
     transform="translate(-103.7212,-49.7084)">
    <circle
       cx="144.71001"
       cy="57.908401"
       r="1.5"
       id="circle25" />
  </g>
  <g
     style="fill:#000000;fill-opacity:1;stroke:none"
     id="g27"
     transform="translate(-103.7212,-49.7084)">
    <circle
       cx="154.85001"
       cy="75.708397"
       r="1.5"
       id="circle26" />
  </g>
  <g
     style="fill:#000000;fill-opacity:1;stroke:none"
     id="g28"
     transform="translate(-103.7212,-49.7084)">
    <circle
       cx="147.25"
       cy="75.708397"
       r="1.5"
       id="circle27" />
    <path
       style="fill:#000000;fill-opacity:1;fill-rule:evenodd;stroke:none"
       d="m 133.05,62.2084 -0.0114,0.1062 -0.0498,0.1334 -0.0852,0.1139 -0.114,0.0853 -0.1333,0.0497 -0.1063,0.0115 h -1 l -0.1063,-0.0115 -0.1333,-0.0497 -0.114,-0.0853 -0.0852,-0.1139 -0.0498,-0.1334 -0.0114,-0.1062 v -1 l 0.0114,-0.1063 0.0498,-0.1334 0.0852,-0.1139 0.114,-0.0853 0.1333,-0.0497 0.1063,-0.0114 h 1 l 0.1063,0.0114 0.1333,0.0497 0.114,0.0853 0.0852,0.1139 0.0498,0.1334 0.0114,0.1063 z"
       id="path27" />
  </g>
  <g
     style="fill:#000000;fill-opacity:1;stroke:none"
     id="g29"
     transform="translate(-103.7212,-49.7084)">
    <circle
       cx="132.05"
       cy="71.908401"
       r="1"
       id="circle28" />
  </g>
  <g
     style="fill:#000000;fill-opacity:1;stroke:none"
     id="g30"
     transform="translate(-103.7212,-49.7084)">
    <circle
       cx="162.8"
       cy="147.80251"
       r="1.17"
       id="circle29" />
  </g>
  <g
     style="fill:#000000;fill-opacity:1;stroke:none"
     id="g31"
     transform="translate(-103.7212,-49.7084)">
    <circle
       cx="157.8"
       cy="135.30251"
       r="1.17"
       id="circle30" />
  </g>
  <g
     style="fill:#000000;fill-opacity:1;stroke:none"
     id="g32"
     transform="translate(-103.7212,-49.7084)">
    <circle
       cx="152.8"
       cy="147.80251"
       r="1.17"
       id="circle31" />
  </g>
  <g
     style="fill:#000000;fill-opacity:1;stroke:none"
     id="g33"
     transform="translate(-103.7212,-49.7084)">
    <circle
       cx="116.55"
       cy="97.558403"
       r="0.60000002"
       id="circle32" />
  </g>
  <g
     style="fill:#000000;fill-opacity:1;stroke:none"
     id="g34"
     transform="translate(-103.7212,-49.7084)">
    <circle
       cx="116.55"
       cy="109.5584"
       r="0.60000002"
       id="circle33" />
  </g>
  <g
     style="fill:#000000;fill-opacity:1;stroke:none"
     id="g35"
     transform="translate(-103.7212,-49.7084)">
    <circle
       cx="114.55"
       cy="103.5584"
       r="0.82499999"
       id="circle34" />
  </g>
  <g
     style="fill:#000000;fill-opacity:1;stroke:none"
     id="g36"
     transform="translate(-103.7212,-49.7084)">
    <circle
       cx="128.75"
       cy="109.5584"
       r="0.89999998"
       id="circle35" />
  </g>
  <g
     style="fill:#000000;fill-opacity:1;stroke:none"
     id="g37"
     transform="translate(-103.7212,-49.7084)">
    <circle
       cx="128.75"
       cy="97.558403"
       r="0.89999998"
       id="circle36" />
  </g>
  <g
     style="fill:#000000;fill-opacity:1;stroke:none"
     id="g38"
     transform="translate(-103.7212,-49.7084)">
    <circle
       cx="119"
       cy="64.408401"
       r="2.8"
       id="circle37" />
    <path
       style="fill:#000000;fill-opacity:1;fill-rule:evenodd;stroke:none"
       d="m 173.85,62.1 h -1.7 v -1.7 h 1.7 z"
       id="path37" />
  </g>
  <g
     style="fill:#000000;fill-opacity:1;stroke:none"
     id="g39"
     transform="translate(-103.7212,-49.7084)">
    <circle
       cx="175.53999"
       cy="61.25"
       r="0.85000002"
       id="circle38" />
  </g>
  <g
     style="fill:#000000;fill-opacity:1;stroke:none"
     id="g40"
     transform="translate(-103.7212,-49.7084)">
    <circle
       cx="108.75"
       cy="85.308403"
       r="1.25"
       id="circle39" />
  </g>
  <g
     style="fill:#000000;fill-opacity:1;stroke:none"
     id="g41"
     transform="translate(-103.7212,-49.7084)">
    <circle
       cx="148.05"
       cy="147.55251"
       r="1.25"
       id="circle40" />
  </g>
  <g
     style="fill:#000000;fill-opacity:1;stroke:none"
     id="g42"
     transform="translate(-103.7212,-49.7084)">
    <circle
       cx="141.46001"
       cy="126.3584"
       r="1.1"
       id="circle41" />
  </g>
  <g
     style="fill:#000000;fill-opacity:1;stroke:none"
     id="g43"
     transform="translate(-103.7212,-49.7084)">
    <circle
       cx="146.53999"
       cy="126.3584"
       r="1.1"
       id="circle42" />
  </g>
  <g
     style="fill:#000000;fill-opacity:1;stroke:none"
     id="g44"
     transform="translate(-103.7212,-49.7084)">
    <circle
       cx="118.75"
       cy="56.358398"
       r="1.25"
       id="circle43" />
  </g>
  <g
     style="fill:#000000;fill-opacity:1;stroke:none"
     id="g45"
     transform="translate(-103.7212,-49.7084)">
    <circle
       cx="109"
       cy="54.808399"
       r="2.8"
       id="circle44" />
  </g>
  <g
     style="fill:#000000;fill-opacity:1;stroke:none"
     id="g46"
     transform="translate(-103.7212,-49.7084)">
    <circle
       cx="137.5"
       cy="54.108398"
       r="1.25"
       id="circle45" />
  </g>
  <g
     style="fill:#000000;fill-opacity:1;stroke:none"
     id="g47"
     transform="translate(-103.7212,-49.7084)">
    <circle
       cx="109"
       cy="144.8084"
       r="2.8"
       id="circle46" />
  </g>
  <g
     style="fill:#000000;fill-opacity:1;stroke:none"
     id="g48"
     transform="translate(-103.7212,-49.7084)">
    <circle
       cx="121.5"
       cy="114.7084"
       r="1.25"
       id="circle47" />
  </g>
  <g
     style="fill:#000000;fill-opacity:1;stroke:none"
     id="g49"
     transform="translate(-103.7212,-49.7084)">
    <circle
       cx="174"
       cy="144.8084"
       r="2.8"
       id="circle48" />
  </g>
  <g
     style="fill:#000000;fill-opacity:1;stroke:none"
     id="g50"
     transform="translate(-103.7212,-49.7084)">
    <circle
       cx="170.02499"
       cy="130.765"
       r="1.2"
       id="circle49" />
  </g>
  <g
     style="fill:#000000;fill-opacity:1;stroke:none"
     id="g51"
     transform="translate(-103.7212,-49.7084)">
    <circle
       cx="170.02499"
       cy="64.724998"
       r="1.2"
       id="circle50" />
  </g>
  <g
     style="fill:#000000;fill-opacity:1;stroke:none"
     id="g52"
     transform="translate(-103.7212,-49.7084)">
    <circle
       cx="137.21001"
       cy="95.795898"
       r="1.25"
       id="circle51" />
  </g>
  <g
     style="fill:#000000;fill-opacity:1;stroke:none"
     id="g53"
     transform="translate(-103.7212,-49.7084)">
    <circle
       cx="122.25"
       cy="56.358398"
       r="1.25"
       id="circle52" />
  </g>
  <g
     style="fill:#000000;fill-opacity:1;stroke:none"
     id="g54"
     transform="translate(-103.7212,-49.7084)">
    <circle
       cx="150.67"
       cy="85.608398"
       r="1.1"
       id="circle53" />
  </g>
  <g
     style="fill:#000000;fill-opacity:1;stroke:none"
     id="g55"
     transform="translate(-103.7212,-49.7084)">
    <circle
       cx="155.75"
       cy="85.608398"
       r="1.1"
       id="circle54" />
  </g>
  <g
     style="fill:#000000;fill-opacity:1;stroke:none"
     id="g57"
     transform="translate(-103.7212,-49.7084)">
    <circle
       cx="129.75"
       cy="116.5584"
       r="1.25"
       id="circle55" />
    <path
       style="fill:#000000;fill-opacity:1;fill-rule:evenodd;stroke:none"
       d="m 106.75,75.2084 h -2 v -0.9 h 2 z"
       id="path55" />
    <path
       style="fill:#000000;fill-opacity:1;fill-rule:evenodd;stroke:none"
       d="m 106.75,61.7084 h -2 v -0.9 h 2 z"
       id="path56" />
    <path
       style="fill:#000000;fill-opacity:1;fill-rule:evenodd;stroke:none"
       d="m 110.725,73.6584 -0.2,-0.0197 -0.1923,-0.0584 -0.1772,-0.0947 -0.1553,-0.1275 -0.1275,-0.1553 -0.0947,-0.1772 -0.0583,-0.1923 -0.0197,-0.1999 v -2.05 l 0.0197,-0.2 0.0583,-0.1923 0.0947,-0.1772 0.1275,-0.1553 0.1553,-0.1275 0.1772,-0.0947 0.1923,-0.0583 0.2,-0.0197 h 2.05 l 0.2,0.0197 0.1923,0.0583 0.1772,0.0947 0.1553,0.1275 0.1275,0.1553 0.0947,0.1772 0.0583,0.1923 0.0197,0.2 v 2.05 l -0.0197,0.1999 -0.0583,0.1923 -0.0947,0.1772 -0.1275,0.1553 -0.1553,0.1275 -0.1772,0.0947 -0.1923,0.0584 -0.2,0.0197 z"
       id="path57" />
  </g>
  <g
     style="fill:#000000;fill-opacity:1;stroke:none"
     id="g58"
     transform="translate(-103.7212,-49.7084)">
    <circle
       cx="111.75"
       cy="64.408401"
       r="2.05"
       id="circle57" />
  </g>
  <g
     style="fill:#000000;fill-opacity:1;stroke:none"
     id="g59"
     transform="translate(-103.7212,-49.7084)">
    <circle
       cx="115.25"
       cy="56.358398"
       r="1.25"
       id="circle58" />
  </g>
  <g
     style="fill:#000000;fill-opacity:1;stroke:none"
     id="g60"
     transform="translate(-103.7212,-49.7084)">
    <circle
       cx="174"
       cy="54.808399"
       r="2.8"
       id="circle59" />
  </g>
  <g
     style="fill:#000000;fill-opacity:1;stroke:none"
     id="g61"
     transform="translate(-103.7212,-49.7084)">
    <circle
       cx="136.4375"
       cy="135.5229"
       r="1.25"
       id="circle60" />
  </g>
  <g
     style="fill:#000000;fill-opacity:1;stroke:none"
     id="g62"
     transform="translate(-103.7212,-49.7084)">
    <circle
       cx="108.75"
       cy="103.5584"
       r="1.25"
       id="circle61" />
  </g>
  <g
     style="fill:#000000;fill-opacity:1;stroke:none"
     id="g63"
     transform="translate(-103.7212,-49.7084)">
    <circle
       cx="150.67"
       cy="105.9834"
       r="1.1"
       id="circle62" />
  </g>
  <g
     style="fill:#000000;fill-opacity:1;stroke:none"
     id="g64"
     transform="translate(-103.7212,-49.7084)">
    <circle
       cx="155.75"
       cy="105.9834"
       r="1.1"
       id="circle63" />
  </g>
  <g
     style="fill:#000000;fill-opacity:1;stroke:none"
     id="g65"
     transform="translate(-103.7212,-49.7084)">
    <circle
       cx="150.67"
       cy="95.795898"
       r="1.1"
       id="circle64" />
  </g>
  <g
     style="fill:#000000;fill-opacity:1;stroke:none"
     id="g66"
     transform="translate(-103.7212,-49.7084)">
    <circle
       cx="155.75"
       cy="95.795898"
       r="1.1"
       id="circle65" />
  </g>
  <g
     style="fill:#000000;fill-opacity:1;stroke:none"
     id="g67"
     transform="translate(-103.7212,-49.7084)">
    <circle
       cx="142.1875"
       cy="135.5229"
       r="1.25"
       id="circle66" />
  </g>
  <g
     style="fill:#000000;fill-opacity:1;stroke:none"
     id="g68"
     transform="translate(-103.7212,-49.7084)">
    <circle
       cx="150.71001"
       cy="126.3584"
       r="1.1"
       id="circle67" />
  </g>
  <g
     style="fill:#000000;fill-opacity:1;stroke:none"
     id="g69"
     transform="translate(-103.7212,-49.7084)">
    <circle
       cx="155.78999"
       cy="126.3584"
       r="1.1"
       id="circle68" />
  </g>
  <g
     style="fill:#000000;fill-opacity:1;stroke:none"
     id="g70"
     transform="translate(-103.7212,-49.7084)">
    <circle
       cx="123.5"
       cy="132.25"
       r="1.25"
       id="circle69" />
  </g>
  <g
     style="fill:#000000;fill-opacity:1;stroke:none"
     id="g71"
     transform="translate(-103.7212,-49.7084)">
    <circle
       cx="166.77499"
       cy="130.765"
       r="1.2"
       id="circle70" />
  </g>
  <g
     style="fill:#000000;fill-opacity:1;stroke:none"
     id="g76"
     transform="translate(-103.7212,-49.7084)">
    <circle
       cx="166.77499"
       cy="64.724998"
       r="1.2"
       id="circle71" />
    <path
       style="fill:#000000;fill-opacity:1;fill-rule:evenodd;stroke:none"
       d="m 118.1,107.8084 -0.0957,-0.0191 -0.0811,-0.0542 -0.0542,-0.0811 -0.019,-0.0956 v -3 l 0.019,-0.0957 0.0542,-0.0811 0.0811,-0.0542 0.0957,-0.019 h 1.3 l 0.0957,0.019 0.0811,0.0542 0.0542,0.0811 0.019,0.0957 v 3 l -0.019,0.0956 -0.0542,0.0811 -0.0811,0.0542 -0.0957,0.0191 z"
       id="path71" />
    <path
       style="fill:#000000;fill-opacity:1;fill-rule:evenodd;stroke:none"
       d="m 118.1,102.8084 -0.0957,-0.0191 -0.0811,-0.0542 -0.0542,-0.0811 -0.019,-0.0956 v -3 l 0.019,-0.0957 0.0542,-0.0811 0.0811,-0.0542 0.0957,-0.019 h 1.3 l 0.0957,0.019 0.0811,0.0542 0.0542,0.0811 0.019,0.0957 v 3 l -0.019,0.0956 -0.0542,0.0811 -0.0811,0.0542 -0.0957,0.0191 z"
       id="path72" />
    <path
       style="fill:#000000;fill-opacity:1;fill-rule:evenodd;stroke:none"
       d="m 118.1,89.3084 -0.0957,-0.0191 -0.0811,-0.0542 -0.0542,-0.0811 -0.019,-0.0956 v -3 l 0.019,-0.0957 0.0542,-0.0811 0.0811,-0.0542 0.0957,-0.019 h 1.3 l 0.0957,0.019 0.0811,0.0542 0.0542,0.0811 0.019,0.0957 v 3 l -0.019,0.0956 -0.0542,0.0811 -0.0811,0.0542 -0.0957,0.0191 z"
       id="path73" />
    <path
       style="fill:#000000;fill-opacity:1;fill-rule:evenodd;stroke:none"
       d="m 118.1,84.3084 -0.0957,-0.0191 -0.0811,-0.0542 -0.0542,-0.0811 -0.019,-0.0956 v -3 l 0.019,-0.0957 0.0542,-0.0811 0.0811,-0.0542 0.0957,-0.019 h 1.3 l 0.0957,0.019 0.0811,0.0542 0.0542,0.0811 0.019,0.0957 v 3 l -0.019,0.0956 -0.0542,0.0811 -0.0811,0.0542 -0.0957,0.0191 z"
       id="path74" />
    <path
       style="fill:#000000;fill-opacity:1;fill-rule:evenodd;stroke:none"
       d="m 125.5,132.4084 0.019,-0.0957 0.0542,-0.0811 0.0811,-0.0542 0.0957,-0.019 h 3 l 0.0957,0.019 0.0811,0.0542 0.0542,0.0811 0.019,0.0957 v 1.3 l -0.019,0.0956 -0.0542,0.0811 -0.0811,0.0542 -0.0957,0.0191 h -3 l -0.0957,-0.0191 -0.0811,-0.0542 -0.0542,-0.0811 -0.019,-0.0956 z"
       id="path75" />
    <path
       style="fill:#000000;fill-opacity:1;fill-rule:evenodd;stroke:none"
       d="m 130.5,132.4084 0.019,-0.0957 0.0542,-0.0811 0.0811,-0.0542 0.0957,-0.019 h 3 l 0.0957,0.019 0.0811,0.0542 0.0542,0.0811 0.019,0.0957 v 1.3 l -0.019,0.0956 -0.0542,0.0811 -0.0811,0.0542 -0.0957,0.0191 h -3 l -0.0957,-0.0191 -0.0811,-0.0542 -0.0542,-0.0811 -0.019,-0.0956 z"
       id="path76" />
  </g>
  <g
     style="fill:#000000;fill-opacity:1;stroke:none"
     id="g139"
     transform="translate(-103.7212,-49.7084)">
    <circle
       cx="121.5"
       cy="137.4084"
       r="1.25"
       id="circle76" />
    <path
       style="fill:#000000;fill-opacity:1;fill-rule:evenodd;stroke:none"
       d="m 125.5,119.6084 0.019,-0.0957 0.0542,-0.0811 0.0811,-0.0542 0.0957,-0.019 h 3 l 0.0957,0.019 0.0811,0.0542 0.0542,0.0811 0.019,0.0957 v 1.3 l -0.019,0.0956 -0.0542,0.0811 -0.0811,0.0542 -0.0957,0.0191 h -3 l -0.0957,-0.0191 -0.0811,-0.0542 -0.0542,-0.0811 -0.019,-0.0956 z"
       id="path77" />
    <path
       style="fill:#000000;fill-opacity:1;fill-rule:evenodd;stroke:none"
       d="m 130.5,119.6084 0.019,-0.0957 0.0542,-0.0811 0.0811,-0.0542 0.0957,-0.019 h 3 l 0.0957,0.019 0.0811,0.0542 0.0542,0.0811 0.019,0.0957 v 1.3 l -0.019,0.0956 -0.0542,0.0811 -0.0811,0.0542 -0.0957,0.0191 h -3 l -0.0957,-0.0191 -0.0811,-0.0542 -0.0542,-0.0811 -0.019,-0.0956 z"
       id="path78" />
    <path
       style="fill:#000000;fill-opacity:1;fill-rule:evenodd;stroke:none"
       d="m 120.05,78.6834 0.019,-0.0957 0.0542,-0.0811 0.0811,-0.0542 0.0957,-0.019 h 0.8 l 0.0957,0.019 0.0811,0.0542 0.0542,0.0811 0.019,0.0957 v 1.25 l -0.019,0.0956 -0.0542,0.0811 -0.0811,0.0542 -0.0957,0.0191 h -0.8 l -0.0957,-0.0191 -0.0811,-0.0542 -0.0542,-0.0811 -0.019,-0.0956 z"
       id="path79" />
    <path
       style="fill:#000000;fill-opacity:1;fill-rule:evenodd;stroke:none"
       d="m 123.15,78.6834 0.019,-0.0957 0.0542,-0.0811 0.0811,-0.0542 0.0957,-0.019 h 0.8 l 0.0957,0.019 0.0811,0.0542 0.0542,0.0811 0.019,0.0957 v 1.25 l -0.019,0.0956 -0.0542,0.0811 -0.0811,0.0542 -0.0957,0.0191 h -0.8 l -0.0957,-0.0191 -0.0811,-0.0542 -0.0542,-0.0811 -0.019,-0.0956 z"
       id="path80" />
    <path
       style="fill:#000000;fill-opacity:1;fill-rule:evenodd;stroke:none"
       d="m 124.2375,99.9584 -0.0114,0.0574 -0.0325,0.0486 -0.0487,0.0325 -0.0574,0.0115 h -1.175 l -0.0574,-0.0115 -0.0487,-0.0325 -0.0325,-0.0486 -0.0114,-0.0574 v -0.3 l 0.0114,-0.0574 0.0325,-0.0487 0.0487,-0.0325 0.0574,-0.0114 h 1.175 l 0.0574,0.0114 0.0487,0.0325 0.0325,0.0487 0.0114,0.0574 z"
       id="path81" />
    <path
       style="fill:#000000;fill-opacity:1;fill-rule:evenodd;stroke:none"
       d="m 124.2375,101.8584 -0.0114,0.0574 -0.0325,0.0486 -0.0487,0.0325 -0.0574,0.0115 h -1.175 l -0.0574,-0.0115 -0.0487,-0.0325 -0.0325,-0.0486 -0.0114,-0.0574 v -0.3 l 0.0114,-0.0574 0.0325,-0.0487 0.0487,-0.0325 0.0574,-0.0114 h 1.175 l 0.0574,0.0114 0.0487,0.0325 0.0325,0.0487 0.0114,0.0574 z"
       id="path82" />
    <path
       style="fill:#000000;fill-opacity:1;fill-rule:evenodd;stroke:none"
       d="m 122.3625,100.9084 -0.0114,0.0574 -0.0325,0.0486 -0.0487,0.0325 -0.0574,0.0115 h -1.175 l -0.0574,-0.0115 -0.0487,-0.0325 -0.0325,-0.0486 -0.0114,-0.0574 v -0.3 l 0.0114,-0.0574 0.0325,-0.0487 0.0487,-0.0325 0.0574,-0.0114 h 1.175 l 0.0574,0.0114 0.0487,0.0325 0.0325,0.0487 0.0114,0.0574 z"
       id="path83" />
    <path
       style="fill:#000000;fill-opacity:1;fill-rule:evenodd;stroke:none"
       d="m 126.65,130.7584 -0.0957,-0.0191 -0.0811,-0.0542 -0.0542,-0.0811 -0.019,-0.0956 v -3 l 0.019,-0.0957 0.0542,-0.0811 0.0811,-0.0542 0.0957,-0.019 h 1.3 l 0.0957,0.019 0.0811,0.0542 0.0542,0.0811 0.019,0.0957 v 3 l -0.019,0.0956 -0.0542,0.0811 -0.0811,0.0542 -0.0957,0.0191 z"
       id="path84" />
    <path
       style="fill:#000000;fill-opacity:1;fill-rule:evenodd;stroke:none"
       d="m 126.65,125.7584 -0.0957,-0.0191 -0.0811,-0.0542 -0.0542,-0.0811 -0.019,-0.0956 v -3 l 0.019,-0.0957 0.0542,-0.0811 0.0811,-0.0542 0.0957,-0.019 h 1.3 l 0.0957,0.019 0.0811,0.0542 0.0542,0.0811 0.019,0.0957 v 3 l -0.019,0.0956 -0.0542,0.0811 -0.0811,0.0542 -0.0957,0.0191 z"
       id="path85" />
    <path
       style="fill:#000000;fill-opacity:1;fill-rule:evenodd;stroke:none"
       d="m 141.2625,140.35 0.0114,-0.0574 0.0325,-0.0487 0.0487,-0.0325 0.0574,-0.0114 h 1.175 l 0.0574,0.0114 0.0487,0.0325 0.0325,0.0487 0.0114,0.0574 v 0.3 l -0.0114,0.0574 -0.0325,0.0487 -0.0487,0.0325 -0.0574,0.0114 h -1.175 l -0.0574,-0.0114 -0.0487,-0.0325 -0.0325,-0.0487 -0.0114,-0.0574 z"
       id="path86" />
    <path
       style="fill:#000000;fill-opacity:1;fill-rule:evenodd;stroke:none"
       d="m 141.2625,138.45 0.0114,-0.0574 0.0325,-0.0487 0.0487,-0.0325 0.0574,-0.0114 h 1.175 l 0.0574,0.0114 0.0487,0.0325 0.0325,0.0487 0.0114,0.0574 v 0.3 l -0.0114,0.0574 -0.0325,0.0487 -0.0487,0.0325 -0.0574,0.0114 h -1.175 l -0.0574,-0.0114 -0.0487,-0.0325 -0.0325,-0.0487 -0.0114,-0.0574 z"
       id="path87" />
    <path
       style="fill:#000000;fill-opacity:1;fill-rule:evenodd;stroke:none"
       d="m 143.1375,139.4 0.0114,-0.0574 0.0325,-0.0487 0.0487,-0.0325 0.0574,-0.0114 h 1.175 l 0.0574,0.0114 0.0487,0.0325 0.0325,0.0487 0.0114,0.0574 v 0.3 l -0.0114,0.0574 -0.0325,0.0487 -0.0487,0.0325 -0.0574,0.0114 h -1.175 l -0.0574,-0.0114 -0.0487,-0.0325 -0.0325,-0.0487 -0.0114,-0.0574 z"
       id="path88" />
    <path
       style="fill:#000000;fill-opacity:1;fill-rule:evenodd;stroke:none"
       d="m 160.2,140.125 -0.019,0.0957 -0.0542,0.0811 -0.0811,0.0542 -0.0957,0.019 h -0.8 l -0.0957,-0.019 -0.0811,-0.0542 -0.0542,-0.0811 -0.019,-0.0957 v -1.25 l 0.019,-0.0957 0.0542,-0.0811 0.0811,-0.0542 0.0957,-0.019 h 0.8 l 0.0957,0.019 0.0811,0.0542 0.0542,0.0811 0.019,0.0957 z"
       id="path89" />
    <path
       style="fill:#000000;fill-opacity:1;fill-rule:evenodd;stroke:none"
       d="m 157.1,140.125 -0.019,0.0957 -0.0542,0.0811 -0.0811,0.0542 -0.0957,0.019 h -0.8 l -0.0957,-0.019 -0.0811,-0.0542 -0.0542,-0.0811 -0.019,-0.0957 v -1.25 l 0.019,-0.0957 0.0542,-0.0811 0.0811,-0.0542 0.0957,-0.019 h 0.8 l 0.0957,0.019 0.0811,0.0542 0.0542,0.0811 0.019,0.0957 z"
       id="path90" />
    <path
       style="fill:#000000;fill-opacity:1;fill-rule:evenodd;stroke:none"
       d="m 110.65,116.7084 -0.019,0.0956 -0.0542,0.0811 -0.0811,0.0542 -0.0957,0.0191 h -2.8 l -0.0957,-0.0191 -0.0811,-0.0542 -0.0542,-0.0811 -0.019,-0.0956 v -4 l 0.019,-0.0957 0.0542,-0.0811 0.0811,-0.0542 0.0957,-0.019 h 2.8 l 0.0957,0.019 0.0811,0.0542 0.0542,0.0811 0.019,0.0957 z"
       id="path91" />
    <path
       style="fill:#000000;fill-opacity:1;fill-rule:evenodd;stroke:none"
       d="m 110.65,125.5084 -0.019,0.0956 -0.0542,0.0811 -0.0811,0.0542 -0.0957,0.0191 h -2.8 l -0.0957,-0.0191 -0.0811,-0.0542 -0.0542,-0.0811 -0.019,-0.0956 v -4 l 0.019,-0.0957 0.0542,-0.0811 0.0811,-0.0542 0.0957,-0.019 h 2.8 l 0.0957,0.019 0.0811,0.0542 0.0542,0.0811 0.019,0.0957 z"
       id="path92" />
    <path
       style="fill:#000000;fill-opacity:1;fill-rule:evenodd;stroke:none"
       d="m 137.1,65.65 0.019,-0.0957 0.0542,-0.0811 0.0811,-0.0542 0.0957,-0.019 h 2.8 l 0.0957,0.019 0.0811,0.0542 0.0542,0.0811 0.019,0.0957 v 1.2 l -0.019,0.0957 -0.0542,0.0811 -0.0811,0.0542 -0.0957,0.019 h -2.8 L 137.2543,67.081 137.1732,67.0268 137.119,66.9457 137.1,66.85 Z"
       id="path93" />
    <path
       style="fill:#000000;fill-opacity:1;fill-rule:evenodd;stroke:none"
       d="m 142.6,65.65 0.019,-0.0957 0.0542,-0.0811 0.0811,-0.0542 0.0957,-0.019 h 2.8 l 0.0957,0.019 0.0811,0.0542 0.0542,0.0811 0.019,0.0957 v 1.2 l -0.019,0.0957 -0.0542,0.0811 -0.0811,0.0542 -0.0957,0.019 h -2.8 L 142.7543,67.081 142.6732,67.0268 142.619,66.9457 142.6,66.85 Z"
       id="path94" />
    <path
       style="fill:#000000;fill-opacity:1;fill-rule:evenodd;stroke:none"
       d="m 107.35,135.4084 0.019,-0.0957 0.0542,-0.0811 0.0811,-0.0542 0.0957,-0.019 h 2.8 l 0.0957,0.019 0.0811,0.0542 0.0542,0.0811 0.019,0.0957 v 4 l -0.019,0.0956 -0.0542,0.0811 -0.0811,0.0542 -0.0957,0.0191 h -2.8 l -0.0957,-0.0191 -0.0811,-0.0542 -0.0542,-0.0811 -0.019,-0.0956 z"
       id="path95" />
    <path
       style="fill:#000000;fill-opacity:1;fill-rule:evenodd;stroke:none"
       d="m 107.35,126.6084 0.019,-0.0957 0.0542,-0.0811 0.0811,-0.0542 0.0957,-0.019 h 2.8 l 0.0957,0.019 0.0811,0.0542 0.0542,0.0811 0.019,0.0957 v 4 l -0.019,0.0956 -0.0542,0.0811 -0.0811,0.0542 -0.0957,0.0191 h -2.8 l -0.0957,-0.0191 -0.0811,-0.0542 -0.0542,-0.0811 -0.019,-0.0956 z"
       id="path96" />
    <path
       style="fill:#000000;fill-opacity:1;fill-rule:evenodd;stroke:none"
       d="m 156.125,145.65 -0.0957,-0.019 -0.0811,-0.0542 -0.0542,-0.0811 -0.019,-0.0957 v -0.8 l 0.019,-0.0957 0.0542,-0.0811 0.0811,-0.0542 0.0957,-0.019 h 1.25 l 0.0957,0.019 0.0811,0.0542 0.0542,0.0811 0.019,0.0957 v 0.8 l -0.019,0.0957 -0.0542,0.0811 -0.0811,0.0542 -0.0957,0.019 z"
       id="path97" />
    <path
       style="fill:#000000;fill-opacity:1;fill-rule:evenodd;stroke:none"
       d="m 156.125,142.55 -0.0957,-0.019 -0.0811,-0.0542 -0.0542,-0.0811 -0.019,-0.0957 v -0.8 l 0.019,-0.0957 0.0542,-0.0811 0.0811,-0.0542 0.0957,-0.019 h 1.25 l 0.0957,0.019 0.0811,0.0542 0.0542,0.0811 0.019,0.0957 v 0.8 l -0.019,0.0957 -0.0542,0.0811 -0.0811,0.0542 -0.0957,0.019 z"
       id="path98" />
    <path
       style="fill:#000000;fill-opacity:1;fill-rule:evenodd;stroke:none"
       d="m 135.6875,138.3979 0.019,-0.0957 0.0542,-0.0811 0.0811,-0.0542 0.0957,-0.019 h 0.8 l 0.0957,0.019 0.0811,0.0542 0.0542,0.0811 0.019,0.0957 v 1.25 l -0.019,0.0957 -0.0542,0.0811 -0.0811,0.0542 -0.0957,0.019 h -0.8 l -0.0957,-0.019 -0.0811,-0.0542 -0.0542,-0.0811 -0.019,-0.0957 z"
       id="path99" />
    <path
       style="fill:#000000;fill-opacity:1;fill-rule:evenodd;stroke:none"
       d="m 138.7875,138.3979 0.019,-0.0957 0.0542,-0.0811 0.0811,-0.0542 0.0957,-0.019 h 0.8 l 0.0957,0.019 0.0811,0.0542 0.0542,0.0811 0.019,0.0957 v 1.25 l -0.019,0.0957 -0.0542,0.0811 -0.0811,0.0542 -0.0957,0.019 h -0.8 l -0.0957,-0.019 -0.0811,-0.0542 -0.0542,-0.0811 -0.019,-0.0957 z"
       id="path100" />
    <path
       style="fill:#000000;fill-opacity:1;fill-rule:evenodd;stroke:none"
       d="m 155.175,143.4 -0.0114,0.0574 -0.0325,0.0487 -0.0487,0.0325 -0.0574,0.0114 h -1.175 l -0.0574,-0.0114 -0.0487,-0.0325 -0.0325,-0.0487 L 153.7,143.4 v -0.3 l 0.0114,-0.0574 0.0325,-0.0487 0.0487,-0.0325 0.0574,-0.0114 h 1.175 l 0.0574,0.0114 0.0487,0.0325 0.0325,0.0487 0.0114,0.0574 z"
       id="path101" />
    <path
       style="fill:#000000;fill-opacity:1;fill-rule:evenodd;stroke:none"
       d="m 155.175,145.3 -0.0114,0.0574 -0.0325,0.0487 -0.0487,0.0325 -0.0574,0.0114 h -1.175 l -0.0574,-0.0114 -0.0487,-0.0325 -0.0325,-0.0487 L 153.7,145.3 V 145 l 0.0114,-0.0574 0.0325,-0.0487 0.0487,-0.0325 0.0574,-0.0114 h 1.175 l 0.0574,0.0114 0.0487,0.0325 0.0325,0.0487 0.0114,0.0574 z"
       id="path102" />
    <path
       style="fill:#000000;fill-opacity:1;fill-rule:evenodd;stroke:none"
       d="m 153.3,144.35 -0.0114,0.0574 -0.0325,0.0487 -0.0487,0.0325 -0.0574,0.0114 h -1.175 l -0.0574,-0.0114 -0.0487,-0.0325 -0.0325,-0.0487 -0.0114,-0.0574 v -0.3 l 0.0114,-0.0574 0.0325,-0.0487 0.0487,-0.0325 0.0574,-0.0114 h 1.175 l 0.0574,0.0114 0.0487,0.0325 0.0325,0.0487 0.0114,0.0574 z"
       id="path103" />
    <path
       style="fill:#000000;fill-opacity:1;fill-rule:evenodd;stroke:none"
       d="m 141.5,64.625 -0.019,0.0957 -0.0542,0.0811 -0.0811,0.0542 -0.0957,0.019 h -0.8 l -0.0957,-0.019 -0.0811,-0.0542 -0.0542,-0.0811 -0.019,-0.0957 v -1.25 l 0.019,-0.0957 0.0542,-0.0811 0.0811,-0.0542 0.0957,-0.019 h 0.8 l 0.0957,0.019 0.0811,0.0542 0.0542,0.0811 0.019,0.0957 z"
       id="path104" />
    <path
       style="fill:#000000;fill-opacity:1;fill-rule:evenodd;stroke:none"
       d="m 138.4,64.625 -0.019,0.0957 -0.0542,0.0811 -0.0811,0.0542 -0.0957,0.019 h -0.8 l -0.0957,-0.019 -0.0811,-0.0542 -0.0542,-0.0811 -0.019,-0.0957 v -1.25 l 0.019,-0.0957 0.0542,-0.0811 0.0811,-0.0542 0.0957,-0.019 h 0.8 l 0.0957,0.019 0.0811,0.0542 0.0542,0.0811 0.019,0.0957 z"
       id="path105" />
    <path
       style="fill:#000000;fill-opacity:1;fill-rule:evenodd;stroke:none"
       d="m 126.6,78.4084 0.0957,0.019 0.0811,0.0542 0.0542,0.0811 0.019,0.0957 v 2.8 l -0.019,0.0956 -0.0542,0.0811 -0.0811,0.0542 -0.0957,0.0191 h -1.2 l -0.0957,-0.0191 -0.0811,-0.0542 -0.0542,-0.0811 -0.019,-0.0956 v -2.8 l 0.019,-0.0957 0.0542,-0.0811 0.0811,-0.0542 0.0957,-0.019 z"
       id="path106" />
    <path
       style="fill:#000000;fill-opacity:1;fill-rule:evenodd;stroke:none"
       d="m 126.6,83.9084 0.0957,0.019 0.0811,0.0542 0.0542,0.0811 0.019,0.0957 v 2.8 l -0.019,0.0956 -0.0542,0.0811 -0.0811,0.0542 -0.0957,0.0191 h -1.2 l -0.0957,-0.0191 -0.0811,-0.0542 -0.0542,-0.0811 -0.019,-0.0956 v -2.8 l 0.019,-0.0957 0.0542,-0.0811 0.0811,-0.0542 0.0957,-0.019 z"
       id="path107" />
    <path
       style="fill:#000000;fill-opacity:1;fill-rule:evenodd;stroke:none"
       d="m 156.5,146.575 0.019,-0.0957 0.0542,-0.0811 0.0811,-0.0542 0.0957,-0.019 h 0.8 l 0.0957,0.019 0.0811,0.0542 0.0542,0.0811 0.019,0.0957 v 1.25 l -0.019,0.0957 -0.0542,0.0811 -0.0811,0.0542 -0.0957,0.019 h -0.8 l -0.0957,-0.019 -0.0811,-0.0542 -0.0542,-0.0811 -0.019,-0.0957 z"
       id="path108" />
    <path
       style="fill:#000000;fill-opacity:1;fill-rule:evenodd;stroke:none"
       d="m 159.6,146.575 0.019,-0.0957 0.0542,-0.0811 0.0811,-0.0542 0.0957,-0.019 h 0.8 l 0.0957,0.019 0.0811,0.0542 0.0542,0.0811 0.019,0.0957 v 1.25 l -0.019,0.0957 -0.0542,0.0811 -0.0811,0.0542 -0.0957,0.019 h -0.8 l -0.0957,-0.019 -0.0811,-0.0542 -0.0542,-0.0811 -0.019,-0.0957 z"
       id="path109" />
    <path
       style="fill:#000000;fill-opacity:1;fill-rule:evenodd;stroke:none"
       d="m 135.7875,142.65 0.019,-0.0957 0.0542,-0.0811 0.0811,-0.0542 0.0957,-0.019 h 2.8 l 0.0957,0.019 0.0811,0.0542 0.0542,0.0811 0.019,0.0957 v 1.2 l -0.019,0.0957 -0.0542,0.0811 -0.0811,0.0542 -0.0957,0.019 h -2.8 l -0.0957,-0.019 -0.0811,-0.0542 -0.0542,-0.0811 -0.019,-0.0957 z"
       id="path110" />
    <path
       style="fill:#000000;fill-opacity:1;fill-rule:evenodd;stroke:none"
       d="m 141.2875,142.65 0.019,-0.0957 0.0542,-0.0811 0.0811,-0.0542 0.0957,-0.019 h 2.8 l 0.0957,0.019 0.0811,0.0542 0.0542,0.0811 0.019,0.0957 v 1.2 l -0.019,0.0957 -0.0542,0.0811 -0.0811,0.0542 -0.0957,0.019 h -2.8 l -0.0957,-0.019 -0.0811,-0.0542 -0.0542,-0.0811 -0.019,-0.0957 z"
       id="path111" />
    <path
       style="fill:#000000;fill-opacity:1;fill-rule:evenodd;stroke:none"
       d="m 166.15,137.1525 0.0957,0.019 0.0811,0.0542 0.0542,0.0811 0.019,0.0957 v 2.8 l -0.019,0.0957 -0.0542,0.0811 -0.0811,0.0542 -0.0957,0.019 h -1.2 l -0.0957,-0.019 -0.0811,-0.0542 -0.0542,-0.0811 -0.019,-0.0957 v -2.8 l 0.019,-0.0957 0.0542,-0.0811 0.0811,-0.0542 0.0957,-0.019 z"
       id="path112" />
    <path
       style="fill:#000000;fill-opacity:1;fill-rule:evenodd;stroke:none"
       d="m 166.15,142.6525 0.0957,0.019 0.0811,0.0542 0.0542,0.0811 0.019,0.0957 v 2.8 l -0.019,0.0957 -0.0542,0.0811 -0.0811,0.0542 -0.0957,0.019 h -1.2 l -0.0957,-0.019 -0.0811,-0.0542 -0.0542,-0.0811 -0.019,-0.0957 v -2.8 l 0.019,-0.0957 0.0542,-0.0811 0.0811,-0.0542 0.0957,-0.019 z"
       id="path113" />
    <path
       style="fill:#000000;fill-opacity:1;fill-rule:evenodd;stroke:none"
       d="m 158.625,145.65 -0.0957,-0.019 -0.0811,-0.0542 -0.0542,-0.0811 -0.019,-0.0957 v -0.8 l 0.019,-0.0957 0.0542,-0.0811 0.0811,-0.0542 0.0957,-0.019 h 1.25 l 0.0957,0.019 0.0811,0.0542 0.0542,0.0811 0.019,0.0957 v 0.8 l -0.019,0.0957 -0.0542,0.0811 -0.0811,0.0542 -0.0957,0.019 z"
       id="path114" />
    <path
       style="fill:#000000;fill-opacity:1;fill-rule:evenodd;stroke:none"
       d="m 158.625,142.55 -0.0957,-0.019 -0.0811,-0.0542 -0.0542,-0.0811 -0.019,-0.0957 v -0.8 l 0.019,-0.0957 0.0542,-0.0811 0.0811,-0.0542 0.0957,-0.019 h 1.25 l 0.0957,0.019 0.0811,0.0542 0.0542,0.0811 0.019,0.0957 v 0.8 l -0.019,0.0957 -0.0542,0.0811 -0.0811,0.0542 -0.0957,0.019 z"
       id="path115" />
    <path
       style="fill:#000000;fill-opacity:1;fill-rule:evenodd;stroke:none"
       d="m 114.1,135.4084 0.019,-0.0957 0.0542,-0.0811 0.0811,-0.0542 0.0957,-0.019 h 2.8 l 0.0957,0.019 0.0811,0.0542 0.0542,0.0811 0.019,0.0957 v 4 l -0.019,0.0956 -0.0542,0.0811 -0.0811,0.0542 -0.0957,0.0191 h -2.8 l -0.0957,-0.0191 -0.0811,-0.0542 -0.0542,-0.0811 -0.019,-0.0956 z"
       id="path116" />
    <path
       style="fill:#000000;fill-opacity:1;fill-rule:evenodd;stroke:none"
       d="m 114.1,126.6084 0.019,-0.0957 0.0542,-0.0811 0.0811,-0.0542 0.0957,-0.019 h 2.8 l 0.0957,0.019 0.0811,0.0542 0.0542,0.0811 0.019,0.0957 v 4 l -0.019,0.0956 -0.0542,0.0811 -0.0811,0.0542 -0.0957,0.0191 h -2.8 l -0.0957,-0.0191 -0.0811,-0.0542 -0.0542,-0.0811 -0.019,-0.0956 z"
       id="path117" />
    <path
       style="fill:#000000;fill-opacity:1;fill-rule:evenodd;stroke:none"
       d="m 135.65,62.7084 0.0957,0.019 0.0811,0.0542 0.0542,0.0811 0.019,0.0957 v 3 l -0.019,0.0956 -0.0542,0.0811 -0.0811,0.0542 -0.0957,0.0191 h -1.3 l -0.0957,-0.0191 -0.0811,-0.0542 -0.0542,-0.0811 -0.019,-0.0956 v -3 l 0.019,-0.0957 0.0542,-0.0811 0.0811,-0.0542 0.0957,-0.019 z"
       id="path118" />
    <path
       style="fill:#000000;fill-opacity:1;fill-rule:evenodd;stroke:none"
       d="m 135.65,67.7084 0.0957,0.019 0.0811,0.0542 0.0542,0.0811 0.019,0.0957 v 3 l -0.019,0.0956 -0.0542,0.0811 -0.0811,0.0542 -0.0957,0.0191 h -1.3 l -0.0957,-0.0191 -0.0811,-0.0542 -0.0542,-0.0811 -0.019,-0.0956 v -3 l 0.019,-0.0957 0.0542,-0.0811 0.0811,-0.0542 0.0957,-0.019 z"
       id="path119" />
    <path
       style="fill:#000000;fill-opacity:1;fill-rule:evenodd;stroke:none"
       d="m 169.05,148.4275 -0.019,0.0957 -0.0542,0.0811 -0.0811,0.0542 -0.0957,0.019 H 168 l -0.0957,-0.019 -0.0811,-0.0542 -0.0542,-0.0811 -0.019,-0.0957 v -1.25 l 0.019,-0.0957 0.0542,-0.0811 0.0811,-0.0542 0.0957,-0.019 h 0.8 l 0.0957,0.019 0.0811,0.0542 0.0542,0.0811 0.019,0.0957 z"
       id="path120" />
    <path
       style="fill:#000000;fill-opacity:1;fill-rule:evenodd;stroke:none"
       d="m 165.95,148.4275 -0.019,0.0957 -0.0542,0.0811 -0.0811,0.0542 -0.0957,0.019 h -0.8 l -0.0957,-0.019 -0.0811,-0.0542 -0.0542,-0.0811 -0.019,-0.0957 v -1.25 l 0.019,-0.0957 0.0542,-0.0811 0.0811,-0.0542 0.0957,-0.019 h 0.8 l 0.0957,0.019 0.0811,0.0542 0.0542,0.0811 0.019,0.0957 z"
       id="path121" />
    <path
       style="fill:#000000;fill-opacity:1;fill-rule:evenodd;stroke:none"
       d="m 126.35,96.9084 0.0957,0.019 0.0811,0.0542 0.0542,0.0811 0.019,0.0957 v 2.8 l -0.019,0.0956 -0.0542,0.0811 -0.0811,0.0542 -0.0957,0.0191 h -1.2 l -0.0957,-0.0191 -0.0811,-0.0542 -0.0542,-0.0811 -0.019,-0.0956 v -2.8 l 0.019,-0.0957 0.0542,-0.0811 0.0811,-0.0542 0.0957,-0.019 z"
       id="path122" />
    <path
       style="fill:#000000;fill-opacity:1;fill-rule:evenodd;stroke:none"
       d="m 126.35,102.4084 0.0957,0.019 0.0811,0.0542 0.0542,0.0811 0.019,0.0957 v 2.8 l -0.019,0.0956 -0.0542,0.0811 -0.0811,0.0542 -0.0957,0.0191 h -1.2 l -0.0957,-0.0191 -0.0811,-0.0542 -0.0542,-0.0811 -0.019,-0.0956 v -2.8 l 0.019,-0.0957 0.0542,-0.0811 0.0811,-0.0542 0.0957,-0.019 z"
       id="path123" />
    <path
       style="fill:#000000;fill-opacity:1;fill-rule:evenodd;stroke:none"
       d="m 119.8,97.1834 0.019,-0.0957 0.0542,-0.0811 0.0811,-0.0542 0.0957,-0.019 h 0.8 l 0.0957,0.019 0.0811,0.0542 0.0542,0.0811 0.019,0.0957 v 1.25 l -0.019,0.0956 -0.0542,0.0811 -0.0811,0.0542 -0.0957,0.0191 h -0.8 l -0.0957,-0.0191 -0.0811,-0.0542 -0.0542,-0.0811 -0.019,-0.0956 z"
       id="path124" />
    <path
       style="fill:#000000;fill-opacity:1;fill-rule:evenodd;stroke:none"
       d="m 122.9,97.1834 0.019,-0.0957 0.0542,-0.0811 0.0811,-0.0542 0.0957,-0.019 h 0.8 l 0.0957,0.019 0.0811,0.0542 0.0542,0.0811 0.019,0.0957 v 1.25 l -0.019,0.0956 -0.0542,0.0811 -0.0811,0.0542 -0.0957,0.0191 h -0.8 l -0.0957,-0.0191 -0.0811,-0.0542 -0.0542,-0.0811 -0.019,-0.0956 z"
       id="path125" />
    <path
       style="fill:#000000;fill-opacity:1;fill-rule:evenodd;stroke:none"
       d="m 162.95,144.5375 -0.0574,-0.0114 -0.0487,-0.0325 -0.0325,-0.0487 -0.0114,-0.0574 v -1.175 l 0.0114,-0.0574 0.0325,-0.0487 0.0487,-0.0325 0.0574,-0.0114 h 0.3 l 0.0574,0.0114 0.0487,0.0325 0.0325,0.0487 0.0114,0.0574 v 1.175 l -0.0114,0.0574 -0.0325,0.0487 -0.0487,0.0325 -0.0574,0.0114 z"
       id="path126" />
    <path
       style="fill:#000000;fill-opacity:1;fill-rule:evenodd;stroke:none"
       d="m 161.05,144.5375 -0.0574,-0.0114 -0.0487,-0.0325 -0.0325,-0.0487 -0.0114,-0.0574 v -1.175 l 0.0114,-0.0574 0.0325,-0.0487 0.0487,-0.0325 0.0574,-0.0114 h 0.3 l 0.0574,0.0114 0.0487,0.0325 0.0325,0.0487 0.0114,0.0574 v 1.175 l -0.0114,0.0574 -0.0325,0.0487 -0.0487,0.0325 -0.0574,0.0114 z"
       id="path127" />
    <path
       style="fill:#000000;fill-opacity:1;fill-rule:evenodd;stroke:none"
       d="m 162,142.6625 -0.0574,-0.0114 -0.0487,-0.0325 -0.0325,-0.0487 -0.0114,-0.0574 v -1.175 l 0.0114,-0.0574 0.0325,-0.0487 0.0487,-0.0325 0.0574,-0.0114 h 0.3 l 0.0574,0.0114 0.0487,0.0325 0.0325,0.0487 0.0114,0.0574 v 1.175 l -0.0114,0.0574 -0.0325,0.0487 -0.0487,0.0325 -0.0574,0.0114 z"
       id="path128" />
    <path
       style="fill:#000000;fill-opacity:1;fill-rule:evenodd;stroke:none"
       d="m 131.2,130.7584 -0.0957,-0.0191 -0.0811,-0.0542 -0.0542,-0.0811 -0.019,-0.0956 v -3 l 0.019,-0.0957 0.0542,-0.0811 0.0811,-0.0542 0.0957,-0.019 h 1.3 l 0.0957,0.019 0.0811,0.0542 0.0542,0.0811 0.019,0.0957 v 3 l -0.019,0.0956 -0.0542,0.0811 -0.0811,0.0542 -0.0957,0.0191 z"
       id="path129" />
    <path
       style="fill:#000000;fill-opacity:1;fill-rule:evenodd;stroke:none"
       d="m 131.2,125.7584 -0.0957,-0.0191 -0.0811,-0.0542 -0.0542,-0.0811 -0.019,-0.0956 v -3 l 0.019,-0.0957 0.0542,-0.0811 0.0811,-0.0542 0.0957,-0.019 h 1.3 l 0.0957,0.019 0.0811,0.0542 0.0542,0.0811 0.019,0.0957 v 3 l -0.019,0.0956 -0.0542,0.0811 -0.0811,0.0542 -0.0957,0.0191 z"
       id="path130" />
    <path
       style="fill:#000000;fill-opacity:1;fill-rule:evenodd;stroke:none"
       d="m 117.4,116.7084 -0.019,0.0956 -0.0542,0.0811 -0.0811,0.0542 -0.0957,0.0191 h -2.8 l -0.0957,-0.0191 -0.0811,-0.0542 -0.0542,-0.0811 -0.019,-0.0956 v -4 l 0.019,-0.0957 0.0542,-0.0811 0.0811,-0.0542 0.0957,-0.019 h 2.8 l 0.0957,0.019 0.0811,0.0542 0.0542,0.0811 0.019,0.0957 z"
       id="path131" />
    <path
       style="fill:#000000;fill-opacity:1;fill-rule:evenodd;stroke:none"
       d="m 117.4,125.5084 -0.019,0.0956 -0.0542,0.0811 -0.0811,0.0542 -0.0957,0.0191 h -2.8 l -0.0957,-0.0191 -0.0811,-0.0542 -0.0542,-0.0811 -0.019,-0.0956 v -4 l 0.019,-0.0957 0.0542,-0.0811 0.0811,-0.0542 0.0957,-0.019 h 2.8 l 0.0957,0.019 0.0811,0.0542 0.0542,0.0811 0.019,0.0957 z"
       id="path132" />
    <path
       style="fill:#000000;fill-opacity:1;fill-rule:evenodd;stroke:none"
       d="m 124.425,81.5084 -0.0114,0.0574 -0.0325,0.0486 -0.0487,0.0325 -0.0574,0.0115 H 123.1 l -0.0574,-0.0115 -0.0487,-0.0325 -0.0325,-0.0486 -0.0114,-0.0574 v -0.3 l 0.0114,-0.0574 0.0325,-0.0487 0.0487,-0.0325 0.0574,-0.0114 h 1.175 l 0.0574,0.0114 0.0487,0.0325 0.0325,0.0487 0.0114,0.0574 z"
       id="path133" />
    <path
       style="fill:#000000;fill-opacity:1;fill-rule:evenodd;stroke:none"
       d="m 124.425,83.4084 -0.0114,0.0574 -0.0325,0.0486 -0.0487,0.0325 -0.0574,0.0115 H 123.1 l -0.0574,-0.0115 -0.0487,-0.0325 -0.0325,-0.0486 -0.0114,-0.0574 v -0.3 l 0.0114,-0.0574 0.0325,-0.0487 0.0487,-0.0325 0.0574,-0.0114 h 1.175 l 0.0574,0.0114 0.0487,0.0325 0.0325,0.0487 0.0114,0.0574 z"
       id="path134" />
    <path
       style="fill:#000000;fill-opacity:1;fill-rule:evenodd;stroke:none"
       d="m 122.55,82.4584 -0.0114,0.0574 -0.0325,0.0486 -0.0487,0.0325 -0.0574,0.0115 h -1.175 l -0.0574,-0.0115 -0.0487,-0.0325 -0.0325,-0.0486 -0.0114,-0.0574 v -0.3 l 0.0114,-0.0574 0.0325,-0.0487 0.0487,-0.0325 0.0574,-0.0114 h 1.175 l 0.0574,0.0114 0.0487,0.0325 0.0325,0.0487 0.0114,0.0574 z"
       id="path135" />
    <path
       style="fill:#000000;fill-opacity:1;fill-rule:evenodd;stroke:none"
       d="m 140.4875,68.8584 -0.0114,0.0574 -0.0325,0.0486 -0.0487,0.0325 -0.0574,0.0115 h -1.175 l -0.0574,-0.0115 -0.0487,-0.0325 -0.0325,-0.0486 -0.0114,-0.0574 v -0.3 l 0.0114,-0.0574 0.0325,-0.0487 0.0487,-0.0325 0.0574,-0.0114 h 1.175 l 0.0574,0.0114 0.0487,0.0325 0.0325,0.0487 0.0114,0.0574 z"
       id="path136" />
    <path
       style="fill:#000000;fill-opacity:1;fill-rule:evenodd;stroke:none"
       d="m 140.4875,70.7584 -0.0114,0.0574 -0.0325,0.0486 -0.0487,0.0325 -0.0574,0.0115 h -1.175 l -0.0574,-0.0115 -0.0487,-0.0325 -0.0325,-0.0486 -0.0114,-0.0574 v -0.3 l 0.0114,-0.0574 0.0325,-0.0487 0.0487,-0.0325 0.0574,-0.0114 h 1.175 l 0.0574,0.0114 0.0487,0.0325 0.0325,0.0487 0.0114,0.0574 z"
       id="path137" />
    <path
       style="fill:#000000;fill-opacity:1;fill-rule:evenodd;stroke:none"
       d="m 138.6125,69.8084 -0.0114,0.0574 -0.0325,0.0486 -0.0487,0.0325 -0.0574,0.0115 h -1.175 l -0.0574,-0.0115 -0.0487,-0.0325 -0.0325,-0.0486 -0.0114,-0.0574 v -0.3 l 0.0114,-0.0574 0.0325,-0.0487 0.0487,-0.0325 0.0574,-0.0114 h 1.175 l 0.0574,0.0114 0.0487,0.0325 0.0325,0.0487 0.0114,0.0574 z"
       id="path138" />
    <path
       style="fill:none;stroke:#000000;stroke-width:0.2;stroke-linecap:round;stroke-linejoin:round;stroke-opacity:1"
       d="m 178.8212,149.8084 h -75 v -100 h 75 z"
       id="path139" />
  </g>
  <metadata
     id="metadata139">
    <rdf:RDF>
      <cc:Work
         rdf:about="">
        <dc:title>SVG Image created as dragstar-infotainment-B_Mask.svg date 2025/06/24 01:19:38 </dc:title>
      </cc:Work>
    </rdf:RDF>
  </metadata>
</svg>
