<?xml version="1.0" encoding="UTF-8" standalone="no"?>
<svg
   version="1.1"
   width="75.199997mm"
   height="100.2mm"
   viewBox="0 0 75.199998 100.2"
   id="svg133"
   sodipodi:docname="dragstar-infotainment-F_Cu.svg"
   inkscape:export-filename="dragstar-infotainment-F_Cu.png"
   inkscape:export-xdpi="1200"
   inkscape:export-ydpi="1200"
   inkscape:version="1.4 (86a8ad7, 2024-10-11)"
   xmlns:inkscape="http://www.inkscape.org/namespaces/inkscape"
   xmlns:sodipodi="http://sodipodi.sourceforge.net/DTD/sodipodi-0.dtd"
   xmlns="http://www.w3.org/2000/svg"
   xmlns:svg="http://www.w3.org/2000/svg"
   xmlns:rdf="http://www.w3.org/1999/02/22-rdf-syntax-ns#"
   xmlns:cc="http://creativecommons.org/ns#"
   xmlns:dc="http://purl.org/dc/elements/1.1/">
  <defs
     id="defs133" />
  <sodipodi:namedview
     id="namedview133"
     pagecolor="#ffffff"
     bordercolor="#999999"
     borderopacity="1"
     inkscape:showpageshadow="0"
     inkscape:pageopacity="0"
     inkscape:pagecheckerboard="0"
     inkscape:deskcolor="#d1d1d1"
     inkscape:document-units="mm"
     inkscape:export-bgcolor="#ffffffff"
     inkscape:zoom="0.44851636"
     inkscape:cx="168.33277"
     inkscape:cy="-326.63245"
     inkscape:window-width="1920"
     inkscape:window-height="1017"
     inkscape:window-x="-8"
     inkscape:window-y="-8"
     inkscape:window-maximized="1"
     inkscape:current-layer="svg133" />
  <title
     id="title1">SVG Image created as dragstar-infotainment-F_Cu.svg date 2025/06/24 01:19:38 </title>
  <desc
     id="desc1">Image generated by PCBNEW </desc>
  <g
     style="fill:#000000;fill-opacity:1;stroke:#000000;stroke-linecap:round;stroke-linejoin:round;stroke-opacity:1"
     id="g1"
     transform="translate(-103.7212,-49.7084)" />
  <g
     style="fill:#000000;fill-opacity:1;stroke:none"
     id="g2"
     transform="translate(-103.7212,-49.7084)">
    <circle
       cx="137.25"
       cy="126.3584"
       r="1.25"
       id="circle1" />
  </g>
  <g
     style="fill:#000000;fill-opacity:1;stroke:none"
     id="g3"
     transform="translate(-103.7212,-49.7084)">
    <circle
       cx="108.75"
       cy="79.308403"
       r="1.25"
       id="circle2" />
  </g>
  <g
     style="fill:#000000;fill-opacity:1;stroke:none"
     id="g4"
     transform="translate(-103.7212,-49.7084)">
    <circle
       cx="141.42"
       cy="116.1709"
       r="1.1"
       id="circle3" />
  </g>
  <g
     style="fill:#000000;fill-opacity:1;stroke:none"
     id="g5"
     transform="translate(-103.7212,-49.7084)">
    <circle
       cx="146.5"
       cy="116.1709"
       r="1.1"
       id="circle4" />
  </g>
  <g
     style="fill:#000000;fill-opacity:1;stroke:none"
     id="g6"
     transform="translate(-103.7212,-49.7084)">
    <circle
       cx="121.5"
       cy="126.1084"
       r="1.25"
       id="circle5" />
  </g>
  <g
     style="fill:#000000;fill-opacity:1;stroke:none"
     id="g7"
     transform="translate(-103.7212,-49.7084)">
    <circle
       cx="136.75"
       cy="79.5"
       r="2.8"
       id="circle6" />
  </g>
  <g
     style="fill:#000000;fill-opacity:1;stroke:none"
     id="g8"
     transform="translate(-103.7212,-49.7084)">
    <circle
       cx="116.55"
       cy="79.308403"
       r="0.60000002"
       id="circle7" />
  </g>
  <g
     style="fill:#000000;fill-opacity:1;stroke:none"
     id="g9"
     transform="translate(-103.7212,-49.7084)">
    <circle
       cx="116.55"
       cy="91.308403"
       r="0.60000002"
       id="circle8" />
  </g>
  <g
     style="fill:#000000;fill-opacity:1;stroke:none"
     id="g10"
     transform="translate(-103.7212,-49.7084)">
    <circle
       cx="114.55"
       cy="85.308403"
       r="0.82499999"
       id="circle9" />
  </g>
  <g
     style="fill:#000000;fill-opacity:1;stroke:none"
     id="g11"
     transform="translate(-103.7212,-49.7084)">
    <circle
       cx="128.75"
       cy="91.308403"
       r="0.89999998"
       id="circle10" />
  </g>
  <g
     style="fill:#000000;fill-opacity:1;stroke:none"
     id="g12"
     transform="translate(-103.7212,-49.7084)">
    <circle
       cx="128.75"
       cy="79.308403"
       r="0.89999998"
       id="circle11" />
  </g>
  <g
     style="fill:#000000;fill-opacity:1;stroke:none"
     id="g13"
     transform="translate(-103.7212,-49.7084)">
    <circle
       cx="150.67"
       cy="116.1709"
       r="1.1"
       id="circle12" />
  </g>
  <g
     style="fill:#000000;fill-opacity:1;stroke:none"
     id="g14"
     transform="translate(-103.7212,-49.7084)">
    <circle
       cx="155.75"
       cy="116.1709"
       r="1.1"
       id="circle13" />
  </g>
  <g
     style="fill:#000000;fill-opacity:1;stroke:none"
     id="g15"
     transform="translate(-103.7212,-49.7084)">
    <circle
       cx="108.75"
       cy="91.308403"
       r="1.25"
       id="circle14" />
  </g>
  <g
     style="fill:#000000;fill-opacity:1;stroke:none"
     id="g16"
     transform="translate(-103.7212,-49.7084)">
    <circle
       cx="108.75"
       cy="97.808403"
       r="1.25"
       id="circle15" />
    <path
       style="fill:#000000;fill-opacity:1;fill-rule:evenodd;stroke:none"
       d="m 162.94,60.4 h 1.7 v 1.7 h -1.7 z"
       id="path15" />
  </g>
  <g
     style="fill:#000000;fill-opacity:1;stroke:none"
     id="g17"
     transform="translate(-103.7212,-49.7084)">
    <circle
       cx="161.25"
       cy="61.25"
       r="0.85000002"
       id="circle16" />
  </g>
  <g
     style="fill:#000000;fill-opacity:1;stroke:none"
     id="g18"
     transform="translate(-103.7212,-49.7084)">
    <circle
       cx="141.42"
       cy="95.795898"
       r="1.1"
       id="circle17" />
  </g>
  <g
     style="fill:#000000;fill-opacity:1;stroke:none"
     id="g19"
     transform="translate(-103.7212,-49.7084)">
    <circle
       cx="146.5"
       cy="95.795898"
       r="1.1"
       id="circle18" />
  </g>
  <g
     style="fill:#000000;fill-opacity:1;stroke:none"
     id="g20"
     transform="translate(-103.7212,-49.7084)">
    <circle
       cx="141.42"
       cy="85.608398"
       r="1.1"
       id="circle19" />
  </g>
  <g
     style="fill:#000000;fill-opacity:1;stroke:none"
     id="g21"
     transform="translate(-103.7212,-49.7084)">
    <circle
       cx="146.5"
       cy="85.608398"
       r="1.1"
       id="circle20" />
  </g>
  <g
     style="fill:#000000;fill-opacity:1;stroke:none"
     id="g22"
     transform="translate(-103.7212,-49.7084)">
    <circle
       cx="141.42"
       cy="105.9834"
       r="1.1"
       id="circle21" />
  </g>
  <g
     style="fill:#000000;fill-opacity:1;stroke:none"
     id="g23"
     transform="translate(-103.7212,-49.7084)">
    <circle
       cx="146.5"
       cy="105.9834"
       r="1.1"
       id="circle22" />
  </g>
  <g
     style="fill:#000000;fill-opacity:1;stroke:none"
     id="g24"
     transform="translate(-103.7212,-49.7084)">
    <circle
       cx="137.21001"
       cy="116.1709"
       r="1.25"
       id="circle23" />
  </g>
  <g
     style="fill:#000000;fill-opacity:1;stroke:none"
     id="g25"
     transform="translate(-103.7212,-49.7084)">
    <circle
       cx="129.50999"
       cy="66.808403"
       r="1.5"
       id="circle24" />
  </g>
  <g
     style="fill:#000000;fill-opacity:1;stroke:none"
     id="g26"
     transform="translate(-103.7212,-49.7084)">
    <circle
       cx="144.71001"
       cy="57.908401"
       r="1.5"
       id="circle25" />
  </g>
  <g
     style="fill:#000000;fill-opacity:1;stroke:none"
     id="g27"
     transform="translate(-103.7212,-49.7084)">
    <circle
       cx="154.85001"
       cy="75.708397"
       r="1.5"
       id="circle26" />
  </g>
  <g
     style="fill:#000000;fill-opacity:1;stroke:none"
     id="g28"
     transform="translate(-103.7212,-49.7084)">
    <circle
       cx="147.25"
       cy="75.708397"
       r="1.5"
       id="circle27" />
    <path
       style="fill:#000000;fill-opacity:1;fill-rule:evenodd;stroke:none"
       d="m 133.05,62.2084 -0.0114,0.1062 -0.0498,0.1334 -0.0852,0.1139 -0.114,0.0853 -0.1333,0.0497 -0.1063,0.0115 h -1 l -0.1063,-0.0115 -0.1333,-0.0497 -0.114,-0.0853 -0.0852,-0.1139 -0.0498,-0.1334 -0.0114,-0.1062 v -1 l 0.0114,-0.1063 0.0498,-0.1334 0.0852,-0.1139 0.114,-0.0853 0.1333,-0.0497 0.1063,-0.0114 h 1 l 0.1063,0.0114 0.1333,0.0497 0.114,0.0853 0.0852,0.1139 0.0498,0.1334 0.0114,0.1063 z"
       id="path27" />
  </g>
  <g
     style="fill:#000000;fill-opacity:1;stroke:none"
     id="g29"
     transform="translate(-103.7212,-49.7084)">
    <circle
       cx="132.05"
       cy="71.908401"
       r="1"
       id="circle28" />
  </g>
  <g
     style="fill:#000000;fill-opacity:1;stroke:none"
     id="g30"
     transform="translate(-103.7212,-49.7084)">
    <circle
       cx="162.8"
       cy="147.80251"
       r="1.17"
       id="circle29" />
  </g>
  <g
     style="fill:#000000;fill-opacity:1;stroke:none"
     id="g31"
     transform="translate(-103.7212,-49.7084)">
    <circle
       cx="157.8"
       cy="135.30251"
       r="1.17"
       id="circle30" />
  </g>
  <g
     style="fill:#000000;fill-opacity:1;stroke:none"
     id="g32"
     transform="translate(-103.7212,-49.7084)">
    <circle
       cx="152.8"
       cy="147.80251"
       r="1.17"
       id="circle31" />
  </g>
  <g
     style="fill:#000000;fill-opacity:1;stroke:none"
     id="g33"
     transform="translate(-103.7212,-49.7084)">
    <circle
       cx="116.55"
       cy="97.558403"
       r="0.60000002"
       id="circle32" />
  </g>
  <g
     style="fill:#000000;fill-opacity:1;stroke:none"
     id="g34"
     transform="translate(-103.7212,-49.7084)">
    <circle
       cx="116.55"
       cy="109.5584"
       r="0.60000002"
       id="circle33" />
  </g>
  <g
     style="fill:#000000;fill-opacity:1;stroke:none"
     id="g35"
     transform="translate(-103.7212,-49.7084)">
    <circle
       cx="114.55"
       cy="103.5584"
       r="0.82499999"
       id="circle34" />
  </g>
  <g
     style="fill:#000000;fill-opacity:1;stroke:none"
     id="g36"
     transform="translate(-103.7212,-49.7084)">
    <circle
       cx="128.75"
       cy="109.5584"
       r="0.89999998"
       id="circle35" />
  </g>
  <g
     style="fill:#000000;fill-opacity:1;stroke:none"
     id="g37"
     transform="translate(-103.7212,-49.7084)">
    <circle
       cx="128.75"
       cy="97.558403"
       r="0.89999998"
       id="circle36" />
  </g>
  <g
     style="fill:#000000;fill-opacity:1;stroke:none"
     id="g38"
     transform="translate(-103.7212,-49.7084)">
    <circle
       cx="119"
       cy="64.408401"
       r="2.8"
       id="circle37" />
    <path
       style="fill:#000000;fill-opacity:1;fill-rule:evenodd;stroke:none"
       d="m 173.85,62.1 h -1.7 v -1.7 h 1.7 z"
       id="path37" />
  </g>
  <g
     style="fill:#000000;fill-opacity:1;stroke:none"
     id="g39"
     transform="translate(-103.7212,-49.7084)">
    <circle
       cx="175.53999"
       cy="61.25"
       r="0.85000002"
       id="circle38" />
  </g>
  <g
     style="fill:#000000;fill-opacity:1;stroke:none"
     id="g40"
     transform="translate(-103.7212,-49.7084)">
    <circle
       cx="108.75"
       cy="85.308403"
       r="1.25"
       id="circle39" />
  </g>
  <g
     style="fill:#000000;fill-opacity:1;stroke:none"
     id="g41"
     transform="translate(-103.7212,-49.7084)">
    <circle
       cx="148.05"
       cy="147.55251"
       r="1.25"
       id="circle40" />
  </g>
  <g
     style="fill:#000000;fill-opacity:1;stroke:none"
     id="g42"
     transform="translate(-103.7212,-49.7084)">
    <circle
       cx="141.46001"
       cy="126.3584"
       r="1.1"
       id="circle41" />
  </g>
  <g
     style="fill:#000000;fill-opacity:1;stroke:none"
     id="g43"
     transform="translate(-103.7212,-49.7084)">
    <circle
       cx="146.53999"
       cy="126.3584"
       r="1.1"
       id="circle42" />
  </g>
  <g
     style="fill:#000000;fill-opacity:1;stroke:none"
     id="g44"
     transform="translate(-103.7212,-49.7084)">
    <circle
       cx="118.75"
       cy="56.358398"
       r="1.25"
       id="circle43" />
  </g>
  <g
     style="fill:#000000;fill-opacity:1;stroke:none"
     id="g45"
     transform="translate(-103.7212,-49.7084)">
    <circle
       cx="109"
       cy="54.808399"
       r="2.8"
       id="circle44" />
  </g>
  <g
     style="fill:#000000;fill-opacity:1;stroke:none"
     id="g46"
     transform="translate(-103.7212,-49.7084)">
    <circle
       cx="137.5"
       cy="54.108398"
       r="1.25"
       id="circle45" />
  </g>
  <g
     style="fill:#000000;fill-opacity:1;stroke:none"
     id="g47"
     transform="translate(-103.7212,-49.7084)">
    <circle
       cx="109"
       cy="144.8084"
       r="2.8"
       id="circle46" />
  </g>
  <g
     style="fill:#000000;fill-opacity:1;stroke:none"
     id="g48"
     transform="translate(-103.7212,-49.7084)">
    <circle
       cx="121.5"
       cy="114.7084"
       r="1.25"
       id="circle47" />
  </g>
  <g
     style="fill:#000000;fill-opacity:1;stroke:none"
     id="g49"
     transform="translate(-103.7212,-49.7084)">
    <circle
       cx="174"
       cy="144.8084"
       r="2.8"
       id="circle48" />
  </g>
  <g
     style="fill:#000000;fill-opacity:1;stroke:none"
     id="g50"
     transform="translate(-103.7212,-49.7084)">
    <circle
       cx="170.02499"
       cy="130.765"
       r="1.2"
       id="circle49" />
  </g>
  <g
     style="fill:#000000;fill-opacity:1;stroke:none"
     id="g51"
     transform="translate(-103.7212,-49.7084)">
    <circle
       cx="170.02499"
       cy="64.724998"
       r="1.2"
       id="circle50" />
  </g>
  <g
     style="fill:#000000;fill-opacity:1;stroke:none"
     id="g52"
     transform="translate(-103.7212,-49.7084)">
    <circle
       cx="137.21001"
       cy="95.795898"
       r="1.25"
       id="circle51" />
  </g>
  <g
     style="fill:#000000;fill-opacity:1;stroke:none"
     id="g53"
     transform="translate(-103.7212,-49.7084)">
    <circle
       cx="122.25"
       cy="56.358398"
       r="1.25"
       id="circle52" />
  </g>
  <g
     style="fill:#000000;fill-opacity:1;stroke:none"
     id="g54"
     transform="translate(-103.7212,-49.7084)">
    <circle
       cx="150.67"
       cy="85.608398"
       r="1.1"
       id="circle53" />
  </g>
  <g
     style="fill:#000000;fill-opacity:1;stroke:none"
     id="g55"
     transform="translate(-103.7212,-49.7084)">
    <circle
       cx="155.75"
       cy="85.608398"
       r="1.1"
       id="circle54" />
  </g>
  <g
     style="fill:#000000;fill-opacity:1;stroke:none"
     id="g57"
     transform="translate(-103.7212,-49.7084)">
    <circle
       cx="129.75"
       cy="116.5584"
       r="1.25"
       id="circle55" />
    <path
       style="fill:#000000;fill-opacity:1;fill-rule:evenodd;stroke:none"
       d="m 106.75,75.2084 h -2 v -0.9 h 2 z"
       id="path55" />
    <path
       style="fill:#000000;fill-opacity:1;fill-rule:evenodd;stroke:none"
       d="m 106.75,61.7084 h -2 v -0.9 h 2 z"
       id="path56" />
    <path
       style="fill:#000000;fill-opacity:1;fill-rule:evenodd;stroke:none"
       d="m 110.725,73.6584 -0.2,-0.0197 -0.1923,-0.0584 -0.1772,-0.0947 -0.1553,-0.1275 -0.1275,-0.1553 -0.0947,-0.1772 -0.0583,-0.1923 -0.0197,-0.1999 v -2.05 l 0.0197,-0.2 0.0583,-0.1923 0.0947,-0.1772 0.1275,-0.1553 0.1553,-0.1275 0.1772,-0.0947 0.1923,-0.0583 0.2,-0.0197 h 2.05 l 0.2,0.0197 0.1923,0.0583 0.1772,0.0947 0.1553,0.1275 0.1275,0.1553 0.0947,0.1772 0.0583,0.1923 0.0197,0.2 v 2.05 l -0.0197,0.1999 -0.0583,0.1923 -0.0947,0.1772 -0.1275,0.1553 -0.1553,0.1275 -0.1772,0.0947 -0.1923,0.0584 -0.2,0.0197 z"
       id="path57" />
  </g>
  <g
     style="fill:#000000;fill-opacity:1;stroke:none"
     id="g58"
     transform="translate(-103.7212,-49.7084)">
    <circle
       cx="111.75"
       cy="64.408401"
       r="2.05"
       id="circle57" />
  </g>
  <g
     style="fill:#000000;fill-opacity:1;stroke:none"
     id="g59"
     transform="translate(-103.7212,-49.7084)">
    <circle
       cx="115.25"
       cy="56.358398"
       r="1.25"
       id="circle58" />
  </g>
  <g
     style="fill:#000000;fill-opacity:1;stroke:none"
     id="g60"
     transform="translate(-103.7212,-49.7084)">
    <circle
       cx="174"
       cy="54.808399"
       r="2.8"
       id="circle59" />
  </g>
  <g
     style="fill:#000000;fill-opacity:1;stroke:none"
     id="g61"
     transform="translate(-103.7212,-49.7084)">
    <circle
       cx="136.4375"
       cy="135.5229"
       r="1.25"
       id="circle60" />
  </g>
  <g
     style="fill:#000000;fill-opacity:1;stroke:none"
     id="g62"
     transform="translate(-103.7212,-49.7084)">
    <circle
       cx="108.75"
       cy="103.5584"
       r="1.25"
       id="circle61" />
  </g>
  <g
     style="fill:#000000;fill-opacity:1;stroke:none"
     id="g63"
     transform="translate(-103.7212,-49.7084)">
    <circle
       cx="150.67"
       cy="105.9834"
       r="1.1"
       id="circle62" />
  </g>
  <g
     style="fill:#000000;fill-opacity:1;stroke:none"
     id="g64"
     transform="translate(-103.7212,-49.7084)">
    <circle
       cx="155.75"
       cy="105.9834"
       r="1.1"
       id="circle63" />
  </g>
  <g
     style="fill:#000000;fill-opacity:1;stroke:none"
     id="g65"
     transform="translate(-103.7212,-49.7084)">
    <circle
       cx="150.67"
       cy="95.795898"
       r="1.1"
       id="circle64" />
  </g>
  <g
     style="fill:#000000;fill-opacity:1;stroke:none"
     id="g66"
     transform="translate(-103.7212,-49.7084)">
    <circle
       cx="155.75"
       cy="95.795898"
       r="1.1"
       id="circle65" />
  </g>
  <g
     style="fill:#000000;fill-opacity:1;stroke:none"
     id="g67"
     transform="translate(-103.7212,-49.7084)">
    <circle
       cx="142.1875"
       cy="135.5229"
       r="1.25"
       id="circle66" />
  </g>
  <g
     style="fill:#000000;fill-opacity:1;stroke:none"
     id="g68"
     transform="translate(-103.7212,-49.7084)">
    <circle
       cx="150.71001"
       cy="126.3584"
       r="1.1"
       id="circle67" />
  </g>
  <g
     style="fill:#000000;fill-opacity:1;stroke:none"
     id="g69"
     transform="translate(-103.7212,-49.7084)">
    <circle
       cx="155.78999"
       cy="126.3584"
       r="1.1"
       id="circle68" />
  </g>
  <g
     style="fill:#000000;fill-opacity:1;stroke:none"
     id="g70"
     transform="translate(-103.7212,-49.7084)">
    <circle
       cx="123.5"
       cy="132.25"
       r="1.25"
       id="circle69" />
  </g>
  <g
     style="fill:#000000;fill-opacity:1;stroke:none"
     id="g71"
     transform="translate(-103.7212,-49.7084)">
    <circle
       cx="166.77499"
       cy="130.765"
       r="1.2"
       id="circle70" />
  </g>
  <g
     style="fill:#000000;fill-opacity:1;stroke:none"
     id="g72"
     transform="translate(-103.7212,-49.7084)">
    <circle
       cx="166.77499"
       cy="64.724998"
       r="1.2"
       id="circle71" />
  </g>
  <g
     style="fill:#000000;fill-opacity:1;stroke:none"
     id="g73"
     transform="translate(-103.7212,-49.7084)">
    <circle
       cx="121.5"
       cy="137.4084"
       r="1.25"
       id="circle72" />
  </g>
  <g
     style="fill:none;stroke:#000000;stroke-width:5;stroke-linecap:round;stroke-linejoin:round;stroke-opacity:1"
     id="g74"
     transform="translate(-103.7212,-49.7084)">
    <path
       d="m 114.55,103.5584 h -5.8"
       id="path73" />
    <path
       d="m 114.55,85.3084 h -5.8"
       id="path74" />
  </g>
  <g
     style="fill:none;stroke:#000000;stroke-width:0.75;stroke-linecap:round;stroke-linejoin:round;stroke-opacity:1"
     id="g77"
     transform="translate(-103.7212,-49.7084)">
    <path
       d="m 118,108.1084 -1.45,1.45"
       id="path75" />
    <path
       d="m 116.55,91.3084 1.45,1.45"
       id="path76" />
    <path
       d="m 118,92.7584 v 15.35"
       id="path77" />
  </g>
  <g
     style="fill:none;stroke:#000000;stroke-width:3;stroke-linecap:round;stroke-linejoin:round;stroke-opacity:1"
     id="g78"
     transform="translate(-103.7212,-49.7084)">
    <path
       d="m 150.67,85.6084 1.58,1.58"
       id="path78" />
  </g>
  <g
     style="fill:none;stroke:#000000;stroke-width:5;stroke-linecap:round;stroke-linejoin:round;stroke-opacity:1"
     id="g79"
     transform="translate(-103.7212,-49.7084)">
    <path
       d="m 155.75,85.6084 v -1.4"
       id="path79" />
  </g>
  <g
     style="fill:none;stroke:#000000;stroke-width:3;stroke-linecap:round;stroke-linejoin:round;stroke-opacity:1"
     id="g80"
     transform="translate(-103.7212,-49.7084)">
    <path
       d="m 152.25,87.1884 v 7.0275"
       id="path80" />
  </g>
  <g
     style="fill:none;stroke:#000000;stroke-width:5;stroke-linecap:round;stroke-linejoin:round;stroke-opacity:1"
     id="g81"
     transform="translate(-103.7212,-49.7084)">
    <path
       d="m 155.75,95.7959 h -4.08"
       id="path81" />
  </g>
  <g
     style="fill:none;stroke:#000000;stroke-width:3;stroke-linecap:round;stroke-linejoin:round;stroke-opacity:1"
     id="g83"
     transform="translate(-103.7212,-49.7084)">
    <path
       d="m 150.67,79.1284 -3.42,-3.42"
       id="path82" />
    <path
       d="m 150.67,85.6084 v -6.48"
       id="path83" />
  </g>
  <g
     style="fill:none;stroke:#000000;stroke-width:5;stroke-linecap:round;stroke-linejoin:round;stroke-opacity:1"
     id="g84"
     transform="translate(-103.7212,-49.7084)">
    <path
       d="M 155.75,85.6084 V 95.7959"
       id="path84" />
  </g>
  <g
     style="fill:none;stroke:#000000;stroke-width:3;stroke-linecap:round;stroke-linejoin:round;stroke-opacity:1"
     id="g85"
     transform="translate(-103.7212,-49.7084)">
    <path
       d="m 152.25,94.2159 -1.58,1.58"
       id="path85" />
  </g>
  <g
     style="fill:none;stroke:#000000;stroke-width:5;stroke-linecap:round;stroke-linejoin:round;stroke-opacity:1"
     id="g87"
     transform="translate(-103.7212,-49.7084)">
    <path
       d="m 155.75,84.2084 -8.5,-8.5"
       id="path86" />
    <path
       d="m 155.75,85.6084 h -4.08"
       id="path87" />
  </g>
  <g
     style="fill:none;stroke:#000000;stroke-width:3;stroke-linecap:round;stroke-linejoin:round;stroke-opacity:1"
     id="g89"
     transform="translate(-103.7212,-49.7084)">
    <path
       d="M 150.67,85.6084 V 95.7959"
       id="path88" />
    <path
       d="m 152.5,116.1709 v 9.3575"
       id="path89" />
  </g>
  <g
     style="fill:none;stroke:#000000;stroke-width:5;stroke-linecap:round;stroke-linejoin:round;stroke-opacity:1"
     id="g90"
     transform="translate(-103.7212,-49.7084)">
    <path
       d="m 155.79,126.3584 h -4.12"
       id="path90" />
  </g>
  <g
     style="fill:none;stroke:#000000;stroke-width:3;stroke-linecap:round;stroke-linejoin:round;stroke-opacity:1"
     id="g92"
     transform="translate(-103.7212,-49.7084)">
    <path
       d="m 152.5,116.1709 v -9.3575"
       id="path91" />
    <path
       d="m 150.67,126.3184 0.04,0.04"
       id="path92" />
  </g>
  <g
     style="fill:none;stroke:#000000;stroke-width:7.5;stroke-linecap:round;stroke-linejoin:round;stroke-opacity:1"
     id="g93"
     transform="translate(-103.7212,-49.7084)">
    <path
       d="m 135.81,66.8084 8.9,-8.9"
       id="path93" />
  </g>
  <g
     style="fill:none;stroke:#000000;stroke-width:3;stroke-linecap:round;stroke-linejoin:round;stroke-opacity:1"
     id="g95"
     transform="translate(-103.7212,-49.7084)">
    <path
       d="m 150.67,116.1709 h 1.83"
       id="path94" />
    <path
       d="m 150.67,105.9834 v 20.335"
       id="path95" />
  </g>
  <g
     style="fill:none;stroke:#000000;stroke-width:7.5;stroke-linecap:round;stroke-linejoin:round;stroke-opacity:1"
     id="g96"
     transform="translate(-103.7212,-49.7084)">
    <path
       d="m 169,80.077 v 22.8439"
       id="path96" />
  </g>
  <g
     style="fill:none;stroke:#000000;stroke-width:3;stroke-linecap:round;stroke-linejoin:round;stroke-opacity:1"
     id="g98"
     transform="translate(-103.7212,-49.7084)">
    <path
       d="m 152.5,116.1709 h 3.25"
       id="path97" />
    <path
       d="m 152.5,106.8134 -0.83,-0.83"
       id="path98" />
  </g>
  <g
     style="fill:none;stroke:#000000;stroke-width:5;stroke-linecap:round;stroke-linejoin:round;stroke-opacity:1"
     id="g99"
     transform="translate(-103.7212,-49.7084)">
    <path
       d="m 155.75,105.9834 v 20.335"
       id="path99" />
  </g>
  <g
     style="fill:none;stroke:#000000;stroke-width:3;stroke-linecap:round;stroke-linejoin:round;stroke-opacity:1"
     id="g100"
     transform="translate(-103.7212,-49.7084)">
    <path
       d="m 152.5,125.5284 -0.83,0.83"
       id="path100" />
  </g>
  <g
     style="fill:none;stroke:#000000;stroke-width:7.5;stroke-linecap:round;stroke-linejoin:round;stroke-opacity:1"
     id="g101"
     transform="translate(-103.7212,-49.7084)">
    <path
       d="M 146.8313,57.9084 169,80.077"
       id="path101" />
  </g>
  <g
     style="fill:none;stroke:#000000;stroke-width:5;stroke-linecap:round;stroke-linejoin:round;stroke-opacity:1"
     id="g102"
     transform="translate(-103.7212,-49.7084)">
    <path
       d="m 155.75,105.9834 h -4.08"
       id="path102" />
  </g>
  <g
     style="fill:none;stroke:#000000;stroke-width:7.5;stroke-linecap:round;stroke-linejoin:round;stroke-opacity:1"
     id="g105"
     transform="translate(-103.7212,-49.7084)">
    <path
       d="m 169,102.9209 -13.25,13.25"
       id="path103" />
    <path
       d="m 144.71,57.9084 h 2.1213"
       id="path104" />
    <path
       d="m 129.51,66.8084 h 6.3"
       id="path105" />
  </g>
  <g
     style="fill:none;stroke:#000000;stroke-width:5;stroke-linecap:round;stroke-linejoin:round;stroke-opacity:1"
     id="g106"
     transform="translate(-103.7212,-49.7084)">
    <path
       d="m 155.75,126.3184 0.04,0.04"
       id="path106" />
  </g>
  <g
     style="fill:none;stroke:#000000;stroke-width:8;stroke-linecap:round;stroke-linejoin:round;stroke-opacity:1"
     id="g117"
     transform="translate(-103.7212,-49.7084)">
    <path
       d="m 137.25,126.3584 h 7.72"
       id="path107" />
    <path
       d="m 123.65,84.4084 5.1,-5.1"
       id="path108" />
    <path
       d="M 135.8009,105.9834 123.65,93.8324"
       id="path109" />
    <path
       d="m 141.42,105.9834 h -5.6191"
       id="path110" />
    <path
       d="m 123.65,93.8324 v -9.424"
       id="path111" />
    <path
       d="m 141.42,105.9834 h 3.55"
       id="path112" />
    <path
       d="m 137.21,95.7959 h 7.76"
       id="path113" />
    <path
       d="m 137.21,116.1709 h 7.76"
       id="path114" />
    <path
       d="m 142.55,85.6084 h 2.42"
       id="path115" />
    <path
       d="m 141.42,85.6084 -4.469,-4.469"
       id="path116" />
    <path
       d="M 136.951,81.1394 V 79.5"
       id="path117" />
  </g>
  <g
     style="fill:none;stroke:#000000;stroke-width:3;stroke-linecap:round;stroke-linejoin:round;stroke-opacity:1"
     id="g133"
     transform="translate(-103.7212,-49.7084)">
    <path
       d="m 165.4806,132.0594 h -30.592"
       id="path118" />
    <path
       d="m 166.775,130.765 -1.2944,1.2944"
       id="path119" />
    <path
       d="m 121.5,118.6708 v -3.9624"
       id="path120" />
    <path
       d="M 134.8886,132.0594 121.5,118.6708"
       id="path121" />
    <path
       d="M 163.3169,138.75 H 125.9333"
       id="path122" />
    <path
       d="m 125.9333,138.75 -1.3417,-1.3416"
       id="path123" />
    <path
       d="M 124.5916,137.4084 H 121.5"
       id="path124" />
    <path
       d="m 170.025,132.0419 -6.7081,6.7081"
       id="path125" />
    <path
       d="m 170.025,130.765 v 1.2769"
       id="path126" />
    <path
       d="m 170.025,64.725 2.964,-2.964"
       id="path127" />
    <path
       d="M 172.989,61.761 V 61.25"
       id="path128" />
    <path
       d="M 163.801,61.751 V 61.25"
       id="path129" />
    <path
       d="m 166.775,64.725 -2.974,-2.974"
       id="path130" />
    <path
       style="fill:#000000;fill-opacity:1;fill-rule:evenodd;stroke:none"
       d="m 132.6999,81.1298 0.0424,0.0556 0.008,0.0443 v 0.116 l 0.018,0.1831 0.0178,0.1807 v 0 l 0.005,0.0469 v 1e-4 l 0.0805,0.4047 v 0 l 0.1198,0.395 0.1579,0.3813 v 0 l 0.1946,0.3639 v 1e-4 l 0.2293,0.3431 v 0 l 0.2618,0.3191 0.2942,0.2942 h 1e-4 l 4.4665,4.4666 v 0 0 l 0.319,0.2618 0.3432,0.2293 v 0 0 l 0.364,0.1945 v 0 1e-4 l 0.3813,0.1579 0.3949,0.1198 v 0 0 h 1e-4 l 0.4047,0.0805 0.4107,0.0405 v 0 h 0.4128 v 0 l 0.3464,-0.0342 h 0.0244 l 0.3464,0.0342 v 0 h 2.8328 v 0 l 0.4107,-0.0405 0.0788,-0.0157 0.3259,-0.0648 h 1e-4 v 0 0 l 0.3949,-0.1198 0.3813,-0.1579 0.364,-0.1946 0.3432,-0.2293 0.319,-0.2618 0.2918,-0.2919 0.2618,-0.319 0.2293,-0.3431 0.1589,-0.2973 0.049,-0.0499 0.0681,-0.0154 0.0657,0.0238 0.0424,0.0555 0.008,0.0444 v 6.341 l -0.0197,0.0671 -0.0528,0.0457 -0.0691,0.0099 -0.0636,-0.029 -0.0282,-0.0352 -0.1589,-0.2973 v 0 0 l -0.2293,-0.3432 -0.2618,-0.319 v 0 0 l -0.2918,-0.2919 -0.319,-0.2618 v 0 0 l -0.3432,-0.2293 v 0 0 l -0.364,-0.1945 v 0 l -0.3813,-0.158 -0.3949,-0.1198 h -1e-4 l -0.4047,-0.0805 -0.3094,-0.0305 -0.1013,-0.0099 h -8.1728 l -0.0936,0.0092 -0.3171,0.0312 -0.4047,0.0805 h -1e-4 l -0.3949,0.1198 -0.3813,0.158 v 0 l -0.364,0.1945 v 0 l -0.3431,0.2293 h -1e-4 l -0.319,0.2618 -0.2918,0.2919 -0.2618,0.319 v 0 l -0.2293,0.3432 v 0 l -0.1946,0.3639 v 0 l -0.1579,0.3813 -0.1198,0.395 v 0 l -0.0805,0.4048 -0.0405,0.4107 v 0.4127 l 0.0405,0.4107 0.0805,0.4048 v 0 0 0 l 0.0948,0.3126 0.003,0.01 6e-4,0.0699 -0.0372,0.0591 -0.0633,0.0296 -0.0692,-0.0093 -0.0372,-0.0256 -4.344,-4.344 -0.0335,-0.0613 0.005,-0.0697 0.0419,-0.0559 0.0655,-0.0244 0.009,-3e-4 h 0.0945 l 0.2176,-0.0345 0.2096,-0.0681 0.1964,-0.1001 0.0637,-0.0463 v 0 l -0.5864,-0.5864 0.0205,-0.0055 0.1368,-0.079 0.1117,-0.1117 0.079,-0.1368 0.006,-0.0206 0.5865,0.5865 v 0 l 0.0463,-0.0638 0.1,-0.1963 0.0681,-0.2096 0.0345,-0.2177 v -0.2203 l -0.0345,-0.2177 -0.0681,-0.2095 -0.1,-0.1964 -0.0463,-0.0638 v 0 l -0.5865,0.5865 -0.006,-0.0205 -0.079,-0.1368 -0.1117,-0.1118 -0.1368,-0.0789 -0.0205,-0.0056 0.5864,-0.5864 -0.0637,-0.0463 -0.1964,-0.1001 -0.2096,-0.0681 -0.2176,-0.0344 h -0.2204 l -0.2176,0.0344 -0.2096,0.0681 -0.1818,0.0927 -0.0687,0.0129 -0.0647,-0.0263 -0.0403,-0.0571 -0.007,-0.04 v -3.7935 l 0.0197,-0.067 0.0166,-0.0207 3.9793,-3.9792 v -1e-4 l 0.2618,-0.319 0.2293,-0.3431 0.1599,-0.2992 0.049,-0.0499 0.0681,-0.0154 z"
       id="path131" />
    <path
       style="fill:#000000;fill-opacity:1;fill-rule:evenodd;stroke:none"
       d="m 178.516,50.078 0.0457,0.0529 0.0112,0.0515 -8e-4,47.4548 -8e-4,51.7972 -0.0197,0.067 -0.0528,0.0458 -0.0515,0.0112 h -74.252 l -0.0671,-0.0197 -0.0457,-0.0528 -0.0113,-0.0515 v -4.7882 H 105.7 v 0.3243 l 0.0318,0.3226 v 1e-4 l 0.0632,0.3179 v 1e-4 l 0.0942,0.3102 0.124,0.2996 v 0 l 0.1529,0.2859 v 1e-4 l 0.1801,0.2695 v 0 l 0.1497,0.1824 v 0 l 1.2098,-1.2098 0.0739,0.1016 0.1781,0.1781 0.1016,0.0738 -1.2099,1.2099 v 0 l 0.1824,0.1496 v 0 l 0.2696,0.1802 v 0 l 0.286,0.1528 v 0 l 0.2995,0.1241 0.3103,0.0941 v 0 l 0.318,0.0633 v 0 l 0.3227,0.0318 h 0.3242 l 0.3227,-0.0318 v 0 l 0.318,-0.0633 v 0 l 0.3103,-0.0941 0.2995,-0.1241 v 0 l 0.286,-0.1528 v 0 l 0.2696,-0.1802 v 0 l 0.029,-0.0238 h 35.6023 v 0.2284 l 0.0357,0.2255 0.0706,0.2171 0.1036,0.2034 0.1342,0.1847 0.1615,0.1615 0.1847,0.1342 0.0961,0.049 0.1073,0.0546 v 0 0 l 0.1164,0.0378 0.1007,0.0328 0.2255,0.0357 v 0 h 0.2284 l 0.2255,-0.0357 0.2171,-0.0706 0.2034,-0.1036 0.1847,-0.1342 0.1615,-0.1615 0.1342,-0.1847 0.1036,-0.2034 0.0706,-0.2171 0.0154,-0.0971 0.0159,-0.1005 h 1.9334 v 0.2158 l 0.0315,0.1989 0.002,0.0141 0.0667,0.2052 0.0979,0.1922 0.1268,0.1745 0.1526,0.1526 0.1745,0.1268 0.1922,0.0979 0.2052,0.0667 0.0799,0.0126 0.1331,0.0211 v 0 h 0.2158 l 0.1183,-0.0187 0.0947,-0.015 0.2052,-0.0667 0.1922,-0.0979 0.1745,-0.1268 0.1526,-0.1526 0.1268,-0.1745 0.0979,-0.1922 0.0667,-0.2052 0.0174,-0.1101 0.0163,-0.1029 v -0.2158 h 7.259 v 0.2158 l 0.0315,0.1989 0.002,0.0141 0.0667,0.2052 0.0979,0.1922 0.1268,0.1745 0.1526,0.1526 0.1745,0.1268 0.1922,0.0979 0.2052,0.0667 0.0799,0.0126 0.1331,0.0211 v 0 h 0.2158 l 0.1183,-0.0187 0.0947,-0.015 0.2052,-0.0667 0.1922,-0.0979 0.1745,-0.1268 0.1526,-0.1526 0.1268,-0.1745 0.0979,-0.1922 0.0667,-0.2052 0.0174,-0.1101 0.0163,-0.1029 v -0.2158 l -0.0337,-0.213 v 0 0 l -0.0667,-0.2052 -0.0979,-0.1922 -0.1268,-0.1745 -0.1526,-0.1526 -0.1745,-0.1268 -0.1922,-0.0979 -0.2052,-0.0667 v 0 0 l -0.213,-0.0337 v 0 h -0.2158 v 0 l -0.213,0.0337 -0.2052,0.0667 -0.1922,0.0979 -0.0996,0.0724 -0.0749,0.0544 v 0 0 l -0.1526,0.1526 v 0 0 l -0.0357,0.0492 -0.0911,0.1253 -0.0979,0.1922 v 0 0 l -0.0333,0.1026 -0.0334,0.1026 -0.0337,0.213 h -7.259 l -0.0337,-0.213 v 0 0 l -0.0667,-0.2052 -0.0979,-0.1922 -0.1268,-0.1745 -0.1526,-0.1526 -0.1745,-0.1268 -0.1922,-0.0979 -0.2052,-0.0667 v 0 0 l -0.213,-0.0337 v 0 h -0.2158 v 0 l -0.213,0.0337 -0.2052,0.0667 -0.1922,0.0979 -0.0996,0.0724 -0.0749,0.0544 v 0 0 l -0.1526,0.1526 v 0 0 l -0.0357,0.0492 -0.0911,0.1253 -0.0979,0.1922 v 0 0 l -0.0333,0.1026 -0.0334,0.1026 -0.0337,0.213 h -1.9334 l 0.004,-0.0241 v -1e-4 l 6e-4,-0.004 v -0.2284 l -0.0357,-0.2255 -0.0706,-0.2171 -0.1036,-0.2034 -0.0255,-0.0352 -0.1087,-0.1495 -0.1615,-0.1615 -0.1847,-0.1342 -0.0408,-0.0208 -0.1626,-0.0828 -0.2171,-0.0706 -0.2255,-0.0357 v 0 h -0.2284 v 0 l -0.2255,0.0357 -0.2171,0.0706 -0.2034,0.1036 -0.1847,0.1342 -0.1615,0.1615 -0.1342,0.1847 -0.1036,0.2034 -0.0706,0.2171 -0.0357,0.2255 H 110.997 l 0.1227,-0.1007 0.0307,-0.0251 v 0 l -1.2099,-1.2099 0.1016,-0.0738 0.1781,-0.1781 0.0739,-0.1016 1.2098,1.2098 v 0 l 0.1497,-0.1824 v 0 l 0.1801,-0.2695 v -1e-4 l 0.1529,-0.2859 v 0 l 0.124,-0.2996 0.0942,-0.3102 v -10e-5 l 0.0632,-0.3179 v -1e-4 l 0.0318,-0.3226 v -0.3243 h 58.4 v 0.3243 l 0.0318,0.3226 v 1e-4 l 0.0632,0.3179 v 10e-5 l 0.0942,0.3102 0.124,0.2996 v 0 l 0.1529,0.2859 v 1e-4 l 0.1801,0.2695 v 0 l 0.1497,0.1824 v 0 l 1.2098,-1.2098 0.0739,0.1016 0.1781,0.1781 0.1016,0.0738 -1.2099,1.2099 v 0 l 0.1824,0.1496 v 0 l 0.2696,0.1802 v 0 l 0.286,0.1528 v 0 l 0.2995,0.1241 0.3103,0.0941 v 0 l 0.318,0.0633 v 0 l 0.3227,0.0318 h 0.3242 l 0.3227,-0.0318 v 0 l 0.318,-0.0633 v 0 l 0.3103,-0.0941 0.2995,-0.1241 v 0 l 0.286,-0.1528 v 0 l 0.2696,-0.1802 v 0 l 0.1824,-0.1496 v 0 l -1.2099,-1.2099 0.1016,-0.0738 0.1781,-0.1781 0.0739,-0.1016 1.2098,1.2098 v 0 l 0.1497,-0.1824 v 0 l 0.1801,-0.2695 v -1e-4 l 0.1529,-0.2859 v 0 l 0.124,-0.2996 0.0942,-0.3102 v -10e-5 l 0.0632,-0.3179 v -1e-4 l 0.0318,-0.3226 v -0.3243 l -0.0318,-0.3226 v 0 l -0.0632,-0.318 v 0 l -0.0942,-0.3103 -0.124,-0.2996 v 0 l -0.1529,-0.2859 v 0 l -0.1801,-0.2696 v 0 l -0.1497,-0.1824 v 0 l -1.2098,1.2099 -0.0739,-0.1017 -0.1781,-0.178 -0.1016,-0.0739 1.2099,-1.2098 v 0 l -0.1824,-0.1497 v 0 l -0.2696,-0.1801 v -1e-4 l -0.286,-0.1528 v 0 l -0.2995,-0.1241 -0.3103,-0.0941 v 0 l -0.318,-0.0633 v 0 l -0.3227,-0.0317 h -0.3242 l -0.3227,0.0317 v 0 l -0.318,0.0633 v 0 l -0.3103,0.0941 -0.2995,0.1241 v 0 l -0.286,0.1528 v 1e-4 l -0.2696,0.1801 v 0 l -0.1824,0.1497 v 0 l 1.2099,1.2098 -0.1016,0.0739 -0.1781,0.178 -0.0739,0.1017 -1.2098,-1.2099 v 0 l -0.1497,0.1824 v 0 l -0.1801,0.2696 v 0 l -0.1529,0.2859 v 0 l -0.124,0.2996 -0.0942,0.3103 v 0 l -0.0632,0.318 v 0 l -0.0318,0.3226 h -58.4 l -0.0318,-0.3226 v 0 l -0.0632,-0.318 v 0 l -0.0942,-0.3103 -0.124,-0.2996 v 0 l -0.1529,-0.2859 v 0 l -0.1801,-0.2696 v 0 l -0.1497,-0.1824 v 0 l -1.2099,1.2099 -0.0738,-0.1017 -0.1781,-0.178 -0.1016,-0.0739 1.2099,-1.2098 v 0 l -0.1824,-0.1497 v 0 l -0.2696,-0.1801 v -1e-4 l -0.286,-0.1528 v 0 l -0.2995,-0.1241 -0.3103,-0.0941 v 0 l -0.318,-0.0633 v 0 l -0.3227,-0.0317 h -0.3242 l -0.3227,0.0317 v 0 l -0.318,0.0633 v 0 l -0.3103,0.0941 -0.2995,0.1241 v 0 l -0.286,0.1528 v 1e-4 l -0.2696,0.1801 v 0 l -0.1824,0.1497 v 0 l 1.2099,1.2098 -0.1016,0.0739 -0.1781,0.178 -0.0739,0.1017 -1.2098,-1.2099 v 0 l -0.1497,0.1824 v 0 l -0.1801,0.2696 v 0 l -0.1529,0.2859 v 0 l -0.124,0.2996 -0.0942,0.3103 v 0 l -0.0632,0.318 v 0 l -0.0318,0.3226 h -1.6288 v -12.5104 h 17.9783 v 0.2284 l 0.0357,0.2255 0.0706,0.2171 0.0926,0.1819 0.011,0.0215 0.1342,0.1847 0.1615,0.1615 0.1847,0.1342 0.0961,0.0489 0.1073,0.0547 v 0 0 l 0.1164,0.0378 0.1007,0.0328 0.2255,0.0357 v 0 h 0.2284 l 0.2255,-0.0357 0.2171,-0.0706 0.2034,-0.1036 0.1847,-0.1342 0.1615,-0.1615 0.1342,-0.1847 0.1036,-0.2034 0.0706,-0.2171 0.0341,-0.2153 0.002,-0.0102 v -0.2284 l -0.0357,-0.2255 -0.0706,-0.2171 -0.1036,-0.2034 -0.1342,-0.1847 -0.1615,-0.1615 -0.1847,-0.1342 -0.2034,-0.1036 -0.2171,-0.0706 -0.2255,-0.0357 v 0 h -0.2284 v 0 l -0.2255,0.0357 -0.2171,0.0706 -0.2034,0.1036 -0.1847,0.1342 -0.1615,0.1615 -0.1342,0.1847 -0.1036,0.2034 -0.0706,0.2171 -0.0357,0.2255 h -17.9783 v -6.1416 h 15.9783 v 0.2283 l 0.0357,0.2255 0.0706,0.2172 0.1036,0.2034 0.1342,0.1847 0.1615,0.1614 0.1847,0.1342 0.0961,0.049 0.1073,0.0547 v 0 0 l 0.0825,0.0268 0.1346,0.0437 0.2255,0.0358 v 0 h 0.2284 l 0.2255,-0.0358 0.01,-0.003 0.2076,-0.0674 0.2034,-0.1037 0.1847,-0.1342 0.1615,-0.1614 0.1342,-0.1847 0.1036,-0.2034 0.0706,-0.2172 0.0357,-0.2255 v -0.2283 l -0.0357,-0.2255 -0.0706,-0.2171 -0.1036,-0.2035 -0.1342,-0.1847 -0.1615,-0.1614 -0.1847,-0.1342 -0.2034,-0.1037 -0.2171,-0.0705 -0.2255,-0.0357 v 0 h -0.2284 v 0 l -0.2255,0.0357 -0.2171,0.0705 -0.2034,0.1037 -0.1847,0.1342 -0.1615,0.1614 -0.1342,0.1847 -0.1036,0.2035 -0.0706,0.2171 -0.0357,0.2255 h -15.9783 v -22.5875 h 1.9783 v 0.3033 l 0.034,0.3014 v 0 l 0.0675,0.2957 v 0 l 0.1001,0.2863 0.1316,0.2733 v 0 l 0.1614,0.2568 0.1891,0.2372 0.2145,0.2144 0.2371,0.1892 0.2569,0.1613 0.2732,0.1316 0.2151,0.0753 0.0712,0.0249 v 0 l 0.2957,0.0675 v 0 h 1e-4 l 0.2009,0.0226 0.1004,0.0114 v 0 0 h 6.1034 v 0 l 0.154,-0.0174 0.1473,-0.0166 h 1e-4 v 0 l 0.2957,-0.0675 0.2863,-0.1002 0.2732,-0.1316 0.2569,-0.1613 0.2371,-0.1892 0.2145,-0.2144 0.1891,-0.2372 0.1614,-0.2568 0.1316,-0.2733 0.1001,-0.2863 0.0306,-0.1339 0.0341,-0.0609 0.0617,-0.0329 0.0696,0.006 0.0555,0.0424 0.0238,0.0657 2e-4,0.008 v 3.6178 l -0.0197,0.0671 -0.0166,0.0206 -0.8153,0.8152 -0.0613,0.0335 -0.0263,0.003 h -0.0141 l -0.1547,0.0307 v 0 l -0.1457,0.0604 v 0 l -0.1311,0.0876 v 0 l -0.1115,0.1115 v 0 l -0.0876,0.1311 v 0 l -0.0603,0.1457 v 0 l -0.0308,0.1546 v 0.1577 l 0.0308,0.1547 v 0 l 0.0603,0.1456 v 0 l 0.0876,0.1312 v 0 l 0.1115,0.1114 v 1e-4 l 0.1311,0.0876 v 0 l 0.1457,0.0603 v 0 l 0.1547,0.0308 v 0 0 h 0.1576 v 0 l 0.1547,-0.0308 0.1457,-0.0603 0.1311,-0.0876 0.1115,-0.1115 0.0876,-0.1312 0.005,-0.0107 0.0558,-0.1349 v 0 l 0.0308,-0.1547 v -0.0141 l 0.0197,-0.067 0.0166,-0.0207 0.0873,-0.0872 h 9.8759 v 0.2203 l 0.0345,0.2177 0.0681,0.2096 0.1,0.1963 0.0463,0.0638 0.5865,-0.5865 0.006,0.0206 0.079,0.1368 0.1117,0.1117 0.1368,0.079 0.0205,0.005 -0.5864,0.5864 v 0 l 0.0637,0.0464 0.1964,0.1 0.2096,0.0681 0.2176,0.0345 h 0.2204 l 0.2176,-0.0345 0.2096,-0.0681 0.1964,-0.1001 0.0637,-0.0463 v 0 l -0.5864,-0.5864 0.0205,-0.005 0.1368,-0.079 0.1117,-0.1117 0.079,-0.1368 0.006,-0.0206 0.5865,0.5865 v 0 l 0.0463,-0.0638 0.1,-0.1963 0.0681,-0.2096 0.0345,-0.2177 v -0.2203 l -0.0345,-0.2177 -0.0681,-0.2095 -0.1,-0.1964 -0.0463,-0.0638 v 0 l -0.5865,0.5865 -0.006,-0.0205 -0.079,-0.1368 -0.1117,-0.1118 -0.1368,-0.0789 -0.0205,-0.006 0.5864,-0.5864 -0.0637,-0.0463 -0.1964,-0.1001 -0.2096,-0.0681 -0.2176,-0.0344 h -0.2204 l -0.2176,0.0344 -0.2096,0.0681 -0.1964,0.1001 -0.0637,0.0463 v 0 l 0.5864,0.5864 -0.0205,0.006 -0.1368,0.0789 -0.1117,0.1118 -0.079,0.1368 -0.006,0.0205 -0.5865,-0.5865 v 0 l -0.0463,0.0638 -0.1,0.1964 -0.0681,0.2095 -0.0345,0.2177 h -9.8759 l 0.0925,-0.0926 0.4191,-0.419 0.4748,-0.4749 0.0758,-0.1312 0.0392,-0.1464 v -0.1515 -15.35 l -0.0392,-0.1464 -0.0758,-0.1312 -0.1071,-0.1072 -0.9666,-0.9665 -0.0335,-0.0613 -0.003,-0.0264 v -0.0141 0 l -0.0142,-0.0716 -0.0166,-0.083 -0.039,-0.0944 -0.0213,-0.0513 v 0 l -0.0876,-0.1311 v 0 l -0.1115,-0.1115 v 0 l -0.1311,-0.0876 v 0 l -0.1457,-0.0604 v 0 l -0.1547,-0.0307 v 0 h -0.1576 v 0 l -0.1547,0.0307 v 0 l -0.1457,0.0604 v 0 l -0.1311,0.0876 v 0 l -0.1115,0.1115 v 0 l -0.0876,0.1311 v 0 l -0.0603,0.1457 v 0 l -0.0308,0.1546 v 0.1577 l 0.0308,0.1547 v 0 l 0.0603,0.1456 v 0 l 0.0876,0.1312 v 0 l 0.1115,0.1114 v 1e-4 l 0.1311,0.0876 v 0 l 0.1227,0.0508 0.023,0.0095 0.1547,0.0308 v 0 0 h 0.0141 l 0.067,0.0196 0.0206,0.0167 0.8153,0.8152 0.0335,0.0613 0.003,0.0264 v 3.9694 l -0.0197,0.067 -0.0528,0.0458 -0.0691,0.0099 -0.0636,-0.029 -0.0219,-0.0248 -0.0256,-0.0383 v 0 l -0.1115,-0.1115 v 0 l -0.1311,-0.0876 v 0 l -0.1457,-0.0604 v 0 L 116.63,96.7585 v 0 h -0.1576 v 0 l -0.1547,0.0307 v 0 l -0.1457,0.0604 v 0 l -0.1311,0.0876 v 0 l -0.1115,0.1115 v 0 l -0.0876,0.1311 v 0 l -0.0603,0.1457 v 0 l -0.0308,0.1546 v 0.1577 l 0.0308,0.1547 v 0 l 0.0603,0.1456 v 0 l 0.0876,0.1312 v 0 l 0.1115,0.1114 v 1e-4 l 0.1311,0.0876 v 0 l 0.0806,0.0333 0.0651,0.027 0.1547,0.0308 v 0 0 h 0.1576 v 0 l 0.1547,-0.0308 0.1457,-0.0603 0.1311,-0.0876 0.1115,-0.1115 0.0256,-0.0384 0.0536,-0.0448 0.0693,-0.0087 0.0631,0.0302 0.0367,0.0594 0.004,0.0328 v 4.8167 l -0.0197,0.067 -0.0528,0.0458 -0.0691,0.01 -0.0636,-0.029 -0.0378,-0.0588 -0.002,-0.007 -0.0306,-0.1339 v 0 l -0.0714,-0.2042 -0.0287,-0.0821 -0.1316,-0.2733 -0.1614,-0.2568 -0.1891,-0.2371 -0.2145,-0.2145 -0.2371,-0.1891 -0.2569,-0.1614 v 0 l -0.2732,-0.1316 -0.2863,-0.1002 v 0 l -0.2282,-0.0521 -0.0675,-0.0154 v 0 h -1e-4 l -0.3013,-0.0339 v 0 h -6.1034 v 0 l -0.3013,0.0339 h -1e-4 l -0.2957,0.0675 v 0 l -0.2863,0.1002 -0.2732,0.1316 -0.2569,0.1614 -0.2371,0.1891 -0.2145,0.2145 -0.1891,0.2371 -0.1614,0.2568 -0.1316,0.2733 -0.1001,0.2863 v 0 l -0.0675,0.2957 v 0 l -0.034,0.3014 h -1.9783 v -5.7125 h 3.2283 v 0.2283 l 0.0357,0.2255 0.0706,0.2172 0.0668,0.1312 0.0368,0.0722 0.1342,0.1847 0.1615,0.1614 0.1847,0.1342 0.0961,0.049 0.1073,0.0547 v 0 0 l 0.0653,0.0212 0.1518,0.0493 0.2255,0.0358 v 0 h 0.2284 l 0.2255,-0.0358 0.2171,-0.0705 0.2034,-0.1037 0.1847,-0.1342 0.1615,-0.1614 0.1342,-0.1847 0.1036,-0.2034 0.0706,-0.2172 0.0126,-0.0793 0.0231,-0.1462 v -0.2283 l -0.0357,-0.2255 -0.035,-0.1077 -0.0356,-0.1094 v 0 0 l -0.0715,-0.1404 -0.0321,-0.0631 -0.1342,-0.1847 -0.1615,-0.1614 -0.1847,-0.1342 -0.0454,-0.0232 -0.158,-0.0805 -0.2171,-0.0705 -0.2255,-0.0357 v 0 h -0.2284 v 0 l -0.2255,0.0357 -0.2171,0.0705 -0.2034,0.1037 -0.1847,0.1342 -0.1615,0.1614 -0.1342,0.1847 -0.1036,0.2035 -0.0706,0.2171 -0.0357,0.2255 h -3.2283 v -6.5 h 3.2283 v 0.2283 l 0.0357,0.2255 0.0706,0.2172 0.0657,0.1289 0.0379,0.0745 0.1342,0.1847 0.1615,0.1614 0.1847,0.1342 0.0961,0.049 0.1073,0.0547 v 0 0 l 0.0923,0.03 0.1248,0.0405 0.2255,0.0358 v 0 h 0.2284 l 0.2255,-0.0358 0.2171,-0.0705 0.2034,-0.1037 0.1847,-0.1342 0.1615,-0.1614 0.1342,-0.1847 0.1036,-0.2034 0.0706,-0.2172 0.002,-0.0122 0.0338,-0.2133 v -0.2283 l -0.0357,-0.2255 -0.0555,-0.1706 -0.0151,-0.0465 v 0 0 l -0.0547,-0.1074 -0.0489,-0.0961 -0.1342,-0.1847 -0.1615,-0.1614 -0.1847,-0.1342 -0.0681,-0.0347 -0.1353,-0.069 -0.2171,-0.0705 -0.2255,-0.0357 v 0 h -0.2284 v 0 l -0.2255,0.0357 -0.2171,0.0705 -0.2034,0.1037 -0.1847,0.1342 -0.1615,0.1614 -0.1342,0.1847 -0.1036,0.2035 -0.0706,0.2171 -0.0357,0.2255 h -3.2283 v -6.0375 h 1.9783 V 85.46 l 0.034,0.3014 v 0 l 0.0675,0.2957 v 0 l 0.1001,0.2863 0.1316,0.2733 v 0 l 0.1614,0.2568 0.1891,0.2372 0.2145,0.2144 0.2371,0.1892 0.2569,0.1613 0.2732,0.1316 0.2151,0.0753 0.0712,0.0249 v 0 l 0.2957,0.0675 v 0 h 10e-5 l 0.2009,0.0226 0.1004,0.0114 v 0 0 h 6.1034 v 0 l 0.154,-0.0174 0.1473,-0.0166 h 1e-4 v 0 l 0.2957,-0.0675 0.2863,-0.1002 0.2732,-0.1316 0.2569,-0.1613 0.2371,-0.1892 0.2145,-0.2144 0.1891,-0.2372 0.1614,-0.2568 0.1316,-0.2733 0.1001,-0.2863 0.0675,-0.2957 0.034,-0.3014 v -0.3033 l -0.034,-0.3014 -0.0675,-0.2957 -0.1001,-0.2863 v 0 l -0.01,-0.0205 v 0 l -0.0245,-0.0508 h 2.435 v 0.4158 0 9.0054 1e-4 0.4155 l 0.0335,0.3402 0.007,0.0705 v 0 l 0.0805,0.4048 v 0 l 0.1198,0.3949 0.1579,0.3813 v 0 l 0.1946,0.364 v 0 l 0.2293,0.3432 v 0 l 0.2618,0.319 0.2942,0.2942 1e-4,10e-5 12.1485,12.1485 v 0 0 l 0.2884,0.2367 0.0306,0.0251 0.3432,0.2293 v 0 0 l 0.3639,0.1945 v 0 1e-4 l 0.3813,0.1579 0.395,0.1198 v 0 0 0 l 0.3388,0.0674 0.066,0.0131 0.0184,0.002 0.0184,0.002 v 0 l 0.3739,0.0369 v 0 h 0.4158 v 0 h 9.166 v 0 l 0.4107,-0.0405 0.0788,-0.0157 0.3259,-0.0648 h 1e-4 v 0 0 l 0.3949,-0.1198 0.3813,-0.1579 0.364,-0.1946 0.3432,-0.2293 0.319,-0.2618 0.2918,-0.2919 0.2618,-0.319 0.2293,-0.3431 0.1589,-0.2973 0.049,-0.0499 0.0681,-0.0154 0.0657,0.0238 0.0424,0.0555 0.008,0.0444 v 6.341 l -0.0197,0.0671 -0.0528,0.0457 -0.0691,0.01 -0.0636,-0.029 -0.0282,-0.0352 -0.1589,-0.2973 v 0 0 l -0.2293,-0.3432 -0.2618,-0.319 v 0 0 l -0.2918,-0.2919 -0.319,-0.2618 v 0 0 l -0.3432,-0.2293 v 0 0 l -0.364,-0.1945 v 0 l -0.3813,-0.158 -0.3949,-0.1198 h -1e-4 l -0.4047,-0.0805 -0.3094,-0.0305 -0.1013,-0.01 h -8.1728 l -0.0936,0.009 -0.3171,0.0312 -0.4047,0.0805 h -1e-4 l -0.3949,0.1198 -0.3813,0.158 v 0 l -0.364,0.1945 v 0 l -0.3431,0.2293 h -1e-4 l -0.319,0.2618 -0.2918,0.2919 -0.2618,0.319 v 0 l -0.2293,0.3432 v 0 l -0.1946,0.3639 v 0 l -0.1579,0.3813 -0.1198,0.395 v 0 l -0.0805,0.4048 -0.0405,0.4107 v 0.4127 l 0.0405,0.4107 0.0805,0.4048 v 0 0 0 l 0.1198,0.395 0.1304,0.3149 0.0275,0.0664 v 0 l 0.1946,0.3639 v 1e-4 l 0.2293,0.3431 v 0 l 0.2618,0.3191 0.2918,0.2918 v 0 0 l 0.319,0.2618 0.3432,0.2293 v 0 0 l 0.364,0.1945 v 0 10e-5 l 0.3813,0.1579 0.3949,0.1198 v 0 0 h 1e-4 l 0.4047,0.0805 0.4107,0.0405 v 0 h 8.1728 v 0 l 0.4107,-0.0405 0.0788,-0.0157 0.3259,-0.0648 h 1e-4 v 0 0 l 0.3949,-0.1198 0.3813,-0.1579 0.364,-0.1946 0.3432,-0.2293 0.319,-0.2618 0.0684,-0.0684 0.2234,-0.2234 0.1747,-0.213 0.0871,-0.1061 0.2293,-0.3431 0.1589,-0.2973 0.049,-0.0499 0.0681,-0.0154 0.0657,0.0238 0.0424,0.0555 0.008,0.0444 v 6.341 l -0.0197,0.0671 -0.0528,0.0457 -0.0691,0.01 -0.0636,-0.029 -0.0282,-0.0352 -0.1589,-0.2973 v 0 0 l -0.2293,-0.3432 -0.2618,-0.319 v 0 0 l -0.2918,-0.2919 -0.319,-0.2618 v 0 0 l -0.3432,-0.2293 v 0 0 l -0.364,-0.1945 v 0 l -0.3813,-0.158 -0.3949,-0.1198 h -1e-4 l -0.4047,-0.0805 -0.3094,-0.0305 -0.1013,-0.01 h -8.1328 l -0.0936,0.009 -0.3171,0.0312 -0.4047,0.0805 h -1e-4 l -0.3949,0.1198 -0.3813,0.158 v 0 l -0.364,0.1945 v 0 l -0.3431,0.2293 h -1e-4 l -0.319,0.2618 -0.2918,0.2919 -0.2618,0.319 v 0 l -0.2293,0.3432 v 0 l -0.1946,0.3639 v 0 l -0.1579,0.3813 -0.1198,0.395 v 0 l -0.0805,0.4048 -0.0405,0.4107 v 0.4127 l 0.0405,0.4107 0.0805,0.4048 v 0 l 0.0984,0.3246 7e-4,0.0699 -0.0373,0.0591 -0.0633,0.0296 -0.0692,-0.009 -0.0372,-0.0256 -9.8258,-9.8258 -0.0335,-0.0613 -0.003,-0.0263 v -1.4709 h 5.099 v 0.2283 l 0.0357,0.2255 0.0706,0.2172 0.1036,0.2034 0.1342,0.1847 0.1615,0.1614 0.1847,0.1342 0.0961,0.049 0.1073,0.0547 v 0 0 l 0.1164,0.0378 0.1007,0.0327 0.2255,0.0358 v 0 h 0.2284 l 0.2255,-0.0358 0.009,-0.003 0.2085,-0.0678 0.2034,-0.1037 0.1847,-0.1342 0.1615,-0.1614 0.1342,-0.1847 0.1036,-0.2034 0.0706,-0.2172 0.0174,-0.1101 0.0183,-0.1154 v -0.2283 l -0.0357,-0.2255 -0.0706,-0.2171 -0.1036,-0.2035 -0.1342,-0.1847 -0.1615,-0.1614 -0.1847,-0.1342 -0.2034,-0.1037 -0.2171,-0.0705 -0.2255,-0.0357 v 0 h -0.2284 v 0 l -0.2255,0.0357 -0.2171,0.0705 -0.2034,0.1037 -0.1847,0.1342 -0.1615,0.1614 -0.1342,0.1847 -0.1036,0.2035 -0.0706,0.2171 -0.0357,0.2255 h -5.099 v -1.8473 0 l -0.0291,-0.221 -0.0577,-0.2153 -0.0853,-0.206 -0.1115,-0.193 -0.1357,-0.1769 v 0 l -0.1576,-0.1576 v 0 l -0.1768,-0.1357 v 0 0 l -0.1931,-0.1114 v 0 l -0.2059,-0.0853 v 0 0 l -0.2153,-0.0577 v 0 0 l -0.221,-0.0291 v 0 0 h -0.223 v 0 0 l -0.221,0.0291 v 0 0 l -0.2153,0.0577 v 0 l -0.2059,0.0853 v 0 l -0.1931,0.1114 v 0 l -0.1768,0.1357 v 0 l -0.1576,0.1576 v 0 l -0.1357,0.1769 v 0 l -0.1115,0.193 v 0 l -0.0853,0.206 v 0 l -0.0569,0.2122 -8e-4,0.003 v 0 l -0.0291,0.221 v 0 3.9586 0 0.2267 1e-4 l 0.028,0.2128 10e-4,0.008 v 1e-4 l 0.0145,0.0539 0.0432,0.1614 v 0 l 0.0853,0.2059 v 0 l 0.1115,0.1931 v 0 0 l 0.1357,0.1768 v 0 l 0.1607,0.1607 v 1e-4 l 13.2254,13.2253 v 1e-4 l 0.16,0.16 v 0 0 l 0.0206,0.0158 v 0 l 0.1392,0.1068 0.0171,0.0131 v 0 l 0.193,0.1115 v 0 0 l 0.103,0.0426 0.103,0.0427 v 0 0 l 0.2153,0.0577 0.221,0.0291 H 135 157.3298 l 0.0671,0.0196 0.0457,0.0529 0.01,0.0691 -0.0291,0.0636 -0.0554,0.0367 -0.0942,0.0306 v 0 l -0.1922,0.0979 -0.0665,0.0484 -0.108,0.0784 v 0 0 l -0.1526,0.1526 v 0 0 l -0.0544,0.0749 -0.0724,0.0996 -0.0979,0.1922 -0.0667,0.2052 -0.0337,0.213 v 0.2158 l 0.0337,0.213 v 0 l 0.0667,0.2052 0.0979,0.1922 0.1268,0.1745 0.1526,0.1526 0.1745,0.1268 0.1922,0.0979 0.2052,0.0667 0.0799,0.0126 0.1331,0.0211 v 0 h 0.2158 l 0.1183,-0.0187 0.0947,-0.015 0.2052,-0.0667 0.1922,-0.0979 0.1745,-0.1268 0.1526,-0.1526 0.1268,-0.1745 0.0979,-0.1922 0.0667,-0.2052 0.015,-0.0947 0.0187,-0.1183 v -0.2158 l -0.0337,-0.213 v 0 l -0.0667,-0.2052 -0.0979,-0.1922 -0.1268,-0.1745 -0.1526,-0.1526 -0.1745,-0.1268 -0.1922,-0.0979 -0.0942,-0.0306 -0.0577,-0.0394 -0.0272,-0.0644 0.0119,-0.0688 0.0473,-0.0515 0.064,-0.0178 h 7.099 v 0 h 0.2229 l 0.003,-5e-4 h 0.008 l 0.0299,0.009 0.0304,0.007 0.003,0.003 0.004,0.001 0.0205,0.0236 0.0218,0.0221 9e-4,0.004 0.003,0.003 0.004,0.0308 0.006,0.0305 -0.001,0.004 5e-4,0.004 -0.0128,0.0284 -0.0111,0.0291 -0.005,0.005 -5e-4,9e-4 -8e-4,6e-4 -0.005,0.006 -3.0421,3.0421 -0.0613,0.0335 -0.0263,0.003 h -19.6583 l -0.0671,-0.0197 -0.0457,-0.0528 -0.01,-0.0691 0.029,-0.0636 0.0375,-0.0293 0.1011,-0.0515 0.1847,-0.1342 0.1615,-0.1615 0.1342,-0.1847 0.1036,-0.2034 0.0706,-0.2172 0.0199,-0.1255 0.0158,-0.1 v -0.2283 l -0.0357,-0.2255 -0.0706,-0.2171 -0.1036,-0.2034 -0.1297,-0.1785 -0.004,-0.006 -0.1615,-0.1614 -0.1847,-0.1342 -0.0494,-0.0252 -0.154,-0.0784 -0.2171,-0.0706 -0.2255,-0.0357 v 0 h -0.2284 v 0 l -0.2255,0.0357 -0.2171,0.0706 -0.2034,0.1036 -0.1847,0.1342 -0.1615,0.1614 -0.1342,0.1848 -0.1036,0.2034 -0.0706,0.2171 -0.0357,0.2255 v 0.2283 l 0.0357,0.2255 0.0706,0.2172 0.0589,0.1156 0.0447,0.0878 0.1342,0.1847 0.1615,0.1615 0.1847,0.1342 0.1011,0.0515 0.0508,0.048 0.0168,0.0678 -0.0225,0.0661 -0.0547,0.0435 -0.0467,0.009 h -4.3192 l -0.0671,-0.0197 -0.0457,-0.0528 -0.01,-0.0691 0.029,-0.0636 0.0375,-0.0293 0.1011,-0.0515 0.1847,-0.1342 0.1615,-0.1615 0.1342,-0.1847 0.1036,-0.2034 0.0706,-0.2172 0.0199,-0.1255 0.0158,-0.1 v -0.2283 l -0.0357,-0.2255 -0.0706,-0.2171 -0.1036,-0.2034 -0.1297,-0.1785 -0.004,-0.006 -0.1615,-0.1614 -0.1847,-0.1342 -0.0494,-0.0252 -0.154,-0.0784 -0.2171,-0.0706 -0.2255,-0.0357 v 0 h -0.2284 v 0 l -0.2255,0.0357 -0.2171,0.0706 -0.2034,0.1036 -0.1847,0.1342 -0.1615,0.1614 -0.1342,0.1848 -0.1036,0.2034 -0.0706,0.2171 -0.0357,0.2255 v 0.2283 l 0.0357,0.2255 0.0706,0.2172 0.0589,0.1156 0.0447,0.0878 0.1342,0.1847 0.1615,0.1615 0.1847,0.1342 0.1011,0.0515 0.0508,0.048 0.0168,0.0678 -0.0225,0.0661 -0.0547,0.0435 -0.0467,0.009 H 126.69 l -0.067,-0.0197 -0.0207,-0.0166 -0.7253,-0.7253 v -1e-4 l -0.1607,-0.1607 v 0 l -0.1769,-0.1357 v 0 0 l -0.193,-0.1114 v 0 l -0.206,-0.0853 v 0 0 l -0.2153,-0.0577 -0.0491,-0.006 -0.1719,-0.0226 v 0 h -0.2229 -0.004 v 0 h -3.0878 v 0 0 l -0.221,0.0291 v 0 0 l -0.2153,0.0577 v 0 l -0.2059,0.0853 v 0 l -0.1931,0.1114 v 0 l -0.1768,0.1357 v 0 l -0.1576,0.1576 v 0 l -0.1357,0.1769 v 0 l -0.1115,0.193 v 0 l -0.0853,0.206 v 0 l -0.0454,0.1692 -0.0123,0.0461 v 0 l -0.0291,0.221 v 0 0.2229 0 l 0.0291,0.221 v 0 0 0 l 0.0577,0.2153 v 1e-4 l 0.0853,0.2059 v 0 l 0.1115,0.193 v 0 0 l 0.1357,0.1769 v 0 l 0.1576,0.1576 v 0 l 0.1768,0.1357 0.1931,0.1115 0.2059,0.0853 0.2153,0.0577 0.221,0.0291 h 2.4474 l 0.067,0.0196 0.0207,0.0167 0.726,0.726 v 0 l 0.16,0.16 v 0 l 0.1769,0.1357 0.193,0.1115 0.206,0.0853 0.2153,0.0577 0.221,0.0291 v 0 h 0.2229 37.1569 v 0 h 0.004 0.2229 1e-4 l 0.221,-0.0291 0.2153,-0.0577 0.2059,-0.0853 0.1931,-0.1115 0.1768,-0.1357 0.1576,-0.1576 0.005,-0.005 v -1e-4 l 6.5397,-6.5397 h 1e-4 l 0.1629,-0.163 v 0 l 0.1357,-0.1768 0.1115,-0.1931 0.0853,-0.2059 0.0577,-0.2153 0.0268,-0.2036 0.002,-0.0174 v -0.223 -0.004 0 -1.2731 0 l -0.0291,-0.221 -0.0577,-0.2153 -0.0853,-0.2059 -0.1115,-0.1931 -0.1357,-0.1768 v 0 l -0.1576,-0.1576 v 0 l -0.1768,-0.1357 v 0 0 l -0.1931,-0.1115 v 0 l -0.2059,-0.0853 v 0 0 l -0.2153,-0.0577 v 0 0 l -0.221,-0.0291 v 0 0 h -0.223 v 0 0 l -0.221,0.0291 v 0 0 0 l -0.2153,0.0577 v 0 l -0.2059,0.0853 v 0 l -0.1931,0.1115 v 0 l -0.1768,0.1357 v 0 l -0.1576,0.1576 v 0 l -0.1357,0.1768 v 0 l -0.1007,0.1744 -0.0506,0.0482 -0.0686,0.0132 -0.0649,-0.0259 -0.0307,-0.0355 -0.0324,-0.0562 -0.0683,-0.1182 -0.1357,-0.1768 v 0 0 l -0.1576,-0.1576 v 0 l -0.1768,-0.1357 v 0 0 l -0.1931,-0.1115 v 0 0 0 l -0.2059,-0.0853 v 0 l -0.2153,-0.0577 v 0 0 l -0.0492,-0.007 -0.1718,-0.0226 v 0 h -0.223 v 0 l -0.1964,0.0259 -0.0246,0.003 v 0 0 l -0.2153,0.0577 v 0 0 l -0.0757,0.0313 -0.1302,0.054 v 0 l -0.1931,0.1114 v 1e-4 l -0.1768,0.1357 v 0 l -0.8388,0.8387 -0.0613,0.0335 -0.0264,0.003 h -17.8335 l -0.0671,-0.0197 -0.0457,-0.0528 -0.01,-0.0692 0.0291,-0.0635 0.0352,-0.0282 0.2137,-0.1142 0.0855,-0.0457 0.3432,-0.2293 0.319,-0.2618 0.2918,-0.2919 0.2618,-0.319 0.2293,-0.3431 0.1946,-0.364 0.1579,-0.3813 0.072,-0.2374 0.0383,-0.0584 0.0638,-0.0285 0.0691,0.0106 0.0524,0.0462 0.007,0.0123 0.0706,0.1467 v 0 l 0.1614,0.2568 0.1891,0.2372 0.2145,0.2144 0.2371,0.1892 0.2569,0.1613 0.2732,0.1316 0.2151,0.0753 0.0712,0.0249 v 0 l 0.2957,0.0675 v 0 h 1e-4 l 0.2009,0.0226 0.1004,0.0114 v 0 0 h 4.4234 v 0 l 0.154,-0.0174 0.1473,-0.0166 h 1e-4 v 0 l 0.2957,-0.0675 0.2863,-0.1002 v 0 0 l 0.2732,-0.1316 v 0 0 l 0.2569,-0.1613 0.2371,-0.1892 0.2145,-0.2144 0.1891,-0.2372 0.1614,-0.2568 0.0519,-0.1078 0.0797,-0.1655 v 0 0 l 0.1001,-0.2863 0.0675,-0.2957 0.034,-0.3014 v -0.3033 l -0.034,-0.3014 -0.003,-0.0128 -0.003,-0.0276 v -6.7563 l 0.0197,-0.0671 0.0166,-0.0206 13.4439,-13.4438 v 0 l 0.1482,-0.1807 0.098,-0.1194 0.1097,-0.1641 0.1059,-0.1586 0.183,-0.3423 0.1486,-0.3586 0.1126,-0.3715 0.0758,-0.3807 0.038,-0.3863 V 102.7268 79.883 l -0.038,-0.3863 -0.0296,-0.1486 -0.0462,-0.2321 v 0 0 0 l -0.1126,-0.3714 -0.1486,-0.3587 -0.0952,-0.178 -0.0878,-0.1643 -0.2156,-0.3227 -0.2462,-0.3 v -1e-4 0 L 155.6536,61.1438 H 159.9 v 0.2124 l 0.0332,0.2099 v 0 l 0.0657,0.2021 0.0965,0.1893 0.0393,0.0542 0.6323,-0.6323 0.0171,0.0636 0.0658,0.114 0.0931,0.0931 0.114,0.0658 0.0636,0.0171 -0.6323,0.6323 v 0 l 0.0541,0.0393 0.1894,0.0965 0.2021,0.0657 0.2099,0.0332 h 0.2124 l 0.2099,-0.0332 v 0 l 0.2021,-0.0657 0.1894,-0.0965 0.083,-0.0603 0.0658,-0.0235 0.0681,0.0158 0.0486,0.0501 0.005,0.0105 0.04,0.0965 0.005,0.011 0.1115,0.1931 v 0 0 l 0.1357,0.1768 v 0 l 0.1607,0.1607 v 1e-4 l 2.9709,2.9708 v 0 l 0.1768,0.1357 0.1931,0.1115 0.2059,0.0853 0.2153,0.0577 0.221,0.0291 h 1e-4 0.2228 1e-4 l 0.221,-0.0291 0.2153,-0.0577 0.2059,-0.0853 0.1931,-0.1115 0.1768,-0.1357 0.1576,-0.1576 0.1357,-0.1768 0.1007,-0.1744 0.0506,-0.0482 0.0686,-0.0132 0.0649,0.0259 0.0307,0.0355 0.1007,0.1744 v 0 0 l 0.1357,0.1768 v 0 l 0.1576,0.1576 v 0 l 0.1768,0.1357 0.1931,0.1115 0.2059,0.0853 0.2153,0.0577 0.221,0.0291 h 1e-4 0.2228 1e-4 l 0.221,-0.0291 0.2153,-0.0577 0.2059,-0.0853 0.1931,-0.1115 0.1768,-0.1357 2.9586,-2.9586 h 1e-4 l 0.1629,-0.163 v 0 l 0.1357,-0.1768 0.1115,-0.1931 0.0108,-0.026 0.0369,-0.0892 0.0439,-0.0544 0.0663,-0.0221 0.0677,0.0173 0.01,0.0063 0.0798,0.058 0.1894,0.0965 0.2021,0.0657 0.2099,0.0332 h 0.2124 l 0.2099,-0.0332 v 0 l 0.2021,-0.0657 0.1894,-0.0965 0.0541,-0.0393 v 0 l -0.6323,-0.6323 0.0636,-0.0171 0.114,-0.0658 0.0931,-0.0931 0.0658,-0.114 0.0171,-0.0636 0.6323,0.6323 v 0 l 0.0393,-0.0541 0.0965,-0.1894 0.0657,-0.2021 v 0 l 0.0332,-0.2099 v -0.2124 l -0.0332,-0.2099 v 0 l -0.0657,-0.2021 -0.0965,-0.1894 -0.0393,-0.0541 v 0 l -0.6323,0.6323 -0.0171,-0.0636 -0.0658,-0.114 -0.0931,-0.0931 -0.114,-0.0658 -0.0636,-0.0171 0.6323,-0.6323 -0.0542,-0.0393 -0.1893,-0.0965 -0.2021,-0.0657 -0.2099,-0.0332 h -0.2124 l -0.2099,0.0332 v 0 l -0.2021,0.0657 -0.1894,0.0965 -0.0541,0.0393 v 0 l 0.6323,0.6323 -0.0636,0.0171 -0.114,0.0658 -0.0931,0.0931 -0.0658,0.114 -0.0171,0.0636 -0.4623,-0.4623 -0.0269,-0.0402 -0.0504,-0.1218 v 0 l -0.1115,-0.1931 -0.1357,-0.1768 v 0 l -0.1576,-0.1576 v 0 l -0.1768,-0.1357 v 0 0 l -0.1931,-0.1115 v 0 l -0.2059,-0.0853 v 0 0 l -0.2153,-0.0577 v 0 0 l -0.221,-0.0291 v 0 0 h -0.223 v 0 0 l -0.221,0.0291 v 0 0 l -0.2153,0.0577 v 0 l -0.2059,0.0853 v 0 l -0.1931,0.1115 v 0 l -0.1768,0.1357 v 0 l -0.1576,0.1576 v 0 l -0.1357,0.1768 v 0 l -0.1115,0.1931 v 0 l -0.0853,0.2059 v 0 l -0.0577,0.2153 v 0 l -0.0112,0.085 -0.0283,0.0639 -0.007,0.0076 -2.5274,2.5274 v 0 l -0.1357,0.1768 v 0 l -0.1007,0.1744 -0.0506,0.0482 -0.0686,0.0132 -0.0649,-0.026 -0.0307,-0.0354 -0.0432,-0.0749 -0.0575,-0.0995 -0.0727,-0.0948 -0.063,-0.082 v 0 l -2.5389,-2.5389 -0.0335,-0.0614 -0.002,-0.0101 -0.007,-0.0571 -0.002,-0.0164 -0.0577,-0.2153 -0.0853,-0.2059 -0.1115,-0.1931 -0.1357,-0.1768 v 0 l -0.1576,-0.1576 v 0 l -0.1768,-0.1357 v 0 0 l -0.1931,-0.1115 v 0 L 164.35,59.6363 v 0 0 l -0.2153,-0.0577 v 0 0 l -0.221,-0.0291 v 0 0 h -0.223 v 0 0 l -0.221,0.0291 v 0 0 l -0.2153,0.0577 v 0 l -0.2059,0.0853 v 0 l -0.1931,0.1115 v 0 l -0.1768,0.1357 v 0 l -0.1576,0.1576 v 0 l -0.1357,0.1768 v 0 l -0.1115,0.1931 v 0 l -0.0505,0.1218 -0.0268,0.0402 -0.4623,0.4623 -0.0171,-0.0636 -0.0658,-0.114 -0.0931,-0.0931 -0.114,-0.0658 -0.0636,-0.0171 0.6323,-0.6323 -0.0542,-0.0393 -0.1893,-0.0965 -0.2021,-0.0657 -0.2099,-0.0332 h -0.2124 l -0.2099,0.0332 v 0 l -0.2021,0.0657 -0.1894,0.0965 -0.0541,0.0393 v 0 l 0.6323,0.6323 -0.0636,0.0171 -0.114,0.0658 -0.0931,0.0931 -0.0658,0.114 -0.0171,0.0636 -0.6323,-0.6323 v 0 l -0.0393,0.0541 -0.0965,0.1894 -0.0657,0.2021 v 0 L 159.9,61.1438 h -4.2464 l -6.1661,-6.1661 -0.2908,-0.2386 v 0 l -0.009,-0.0076 -0.1276,-0.0853 H 170.7 v 0.3243 l 0.0318,0.3226 v 10e-5 l 0.0632,0.3179 v 10e-5 l 0.0942,0.3102 0.124,0.2996 v 0 l 0.1529,0.2859 v 10e-5 l 0.1801,0.2695 v 0 l 0.1497,0.1824 v 0 l 1.2098,-1.2098 0.0739,0.1016 0.1781,0.1781 0.1016,0.0738 -1.2099,1.2099 v 0 l 0.1824,0.1496 v 0 l 0.2696,0.1802 v 0 l 0.286,0.1528 v 0 l 0.2995,0.1241 0.3103,0.0941 v 0 l 0.318,0.0633 v 0 l 0.3227,0.0318 h 0.3242 l 0.3227,-0.0318 v 0 l 0.318,-0.0633 v 0 l 0.3103,-0.0941 0.2995,-0.1241 v 0 l 0.286,-0.1528 v 0 l 0.2696,-0.1802 v 0 l 0.1824,-0.1496 v 0 l -1.2099,-1.2099 0.1016,-0.0738 0.1781,-0.1781 0.0739,-0.1016 1.2098,1.2098 v 0 l 0.1497,-0.1824 v 0 l 0.1801,-0.2695 v -10e-5 l 0.1529,-0.2859 v 0 l 0.124,-0.2996 0.0942,-0.3102 v -10e-5 l 0.0632,-0.3179 v -10e-5 L 177.3,54.9705 v -0.3243 l -0.0318,-0.3226 v 0 l -0.0632,-0.318 v 0 l -0.0942,-0.3103 -0.124,-0.2996 v 0 l -0.1529,-0.2859 v 0 l -0.1801,-0.2696 v 0 l -0.1497,-0.1824 v 0 l -1.2098,1.2099 -0.0739,-0.1017 -0.1781,-0.178 -0.1016,-0.0739 1.2099,-1.2098 v 0 l -0.1824,-0.1497 v 0 l -0.2696,-0.1801 v -10e-5 l -0.286,-0.1528 v 0 l -0.2995,-0.1241 -0.3103,-0.0941 v 0 l -0.318,-0.0633 v 0 l -0.3227,-0.0317 h -0.3242 l -0.3227,0.0317 v 0 l -0.318,0.0633 v 0 l -0.3103,0.0941 -0.2995,0.1241 v 0 l -0.286,0.1528 v 10e-5 l -0.2696,0.1801 v 0 l -0.1824,0.1497 v 0 l 1.2099,1.2098 -0.1016,0.0739 -0.1781,0.178 -0.0739,0.1017 -1.2098,-1.2099 v 0 l -0.1497,0.1824 v 0 l -0.1801,0.2696 v 0 l -0.1529,0.2859 v 0 l -0.124,0.2996 -0.0942,0.3103 v 0 l -0.0632,0.318 v 0 L 170.7,54.6462 h -21.6401 l -0.1952,-0.1304 v 0 0 l -0.3423,-0.1829 v -1e-4 0 l -0.105,-0.0435 -0.2536,-0.105 -0.3714,-0.1127 h -10e-5 l -0.3806,-0.0757 -0.0173,-0.0017 v 0 l -0.369,-0.0363 h -2.5095 l -0.005,5e-4 -0.0294,0.0029 v 0 l -0.3517,0.0346 -0.3806,0.0757 v 0 l -0.3715,0.1127 -0.3586,0.1485 v 1e-4 l -0.3423,0.1829 v 0 l -0.1935,0.1293 -0.1292,0.0864 v 0 l -0.1353,0.111 -0.1648,0.1352 -7.8438,7.8438 -0.0614,0.0335 -0.0263,0.0029 h -0.9318 l -0.067,-0.0197 -0.0458,-0.0528 -0.01,-0.0692 0.029,-0.0635 0.006,-0.0065 0.003,-0.0026 v 0 -10e-5 l 0.088,-0.1455 0.0506,-0.1624 0.006,-0.0706 v -1.1133 l -0.006,-0.0705 -0.0506,-0.1624 -0.088,-0.1456 v 0 0 l -0.1203,-0.1203 -0.0553,-0.0334 -0.0903,-0.0546 -0.1624,-0.0506 v 0 0 l -0.0494,-0.0045 -0.0212,-0.0019 h -1.1132 l -0.0193,0.0017 -0.0513,0.0047 -0.1624,0.0506 -0.1456,0.088 -0.1203,0.1203 -0.088,0.1456 -0.0506,0.1624 -0.005,0.0564 -6e-4,0.0062 -7e-4,0.0079 v 1.1133 l 0.006,0.0706 v 0 0 l 0.0477,0.1531 0.003,0.0093 0.088,0.1456 0.003,0.0026 0.001,0.0024 7e-4,9e-4 -2e-4,10e-5 0.0316,0.0579 -0.005,0.0697 -0.0419,0.0559 -0.0655,0.0244 -0.009,4e-4 h -1.5936 l -0.0871,0.0085 -0.2991,0.0295 h -1e-4 l -0.3806,0.0757 v 0 l -0.3715,0.1127 -0.3586,0.1485 v 0 l -0.3423,0.183 v 0 l -0.3227,0.2157 h -1e-4 l -0.3,0.2462 -0.2745,0.2745 -0.2462,0.3 v 0 l -0.2156,0.3227 -1e-4,1e-4 -0.1829,0.3423 v 0 l -0.1486,0.3586 -0.1126,0.3714 v 0 l -0.0758,0.3807 v 0 l -0.0294,0.2992 -0.009,0.0871 v 0.3881 l 0.004,0.0362 0.0344,0.3501 v 0 l 0.0758,0.3807 v 0 l 0.1126,0.3715 0.1486,0.3586 v 0 l 0.1829,0.3423 h 1e-4 l 0.2156,0.3227 v 0 l 0.2462,0.3001 0.2745,0.2744 v 0 0 l 0.3001,0.2463 0.3227,0.2156 v 0 0 l 0.3423,0.183 v 0 0 l 0.3586,0.1485 0.3714,0.1127 h 1e-4 v 0 0 l 0.2387,0.0475 0.1419,0.0282 0.3863,0.0381 h 1.8922 l 0.067,0.0196 0.0458,0.0529 0.01,0.0691 -0.029,0.0636 -0.0208,0.0191 -0.0131,0.0095 -0.1336,0.1336 v 0 0 l -0.0477,0.0656 -0.0634,0.0873 -0.0857,0.1683 -0.0584,0.1797 -0.0296,0.1867 v 0.1889 l 0.0296,0.1867 0.0584,0.1797 0.0604,0.1186 0.0253,0.0498 0.1111,0.1528 0.1336,0.1337 0.1529,0.111 0.0795,0.0406 0.0889,0.0452 v 0 0 l 0.0963,0.0313 0.0834,0.0271 0.1866,0.0296 v 0 h 0.189 l 0.1866,-0.0296 0.1797,-0.0584 0.1684,-0.0858 0.1529,-0.111 0.1336,-0.1337 0.1111,-0.1528 0.0857,-0.1684 0.0584,-0.1797 0.01,-0.0629 0.0196,-0.1238 v -0.1889 l -0.0296,-0.1867 -0.0584,-0.1797 -0.0857,-0.1683 -0.1111,-0.1529 -0.1336,-0.1336 -0.0131,-0.0095 -0.0427,-0.0554 -0.006,-0.0696 0.0326,-0.0618 0.0608,-0.0343 0.0281,-0.0032 h 3.1122 v 0 0 l 0.3863,-0.0381 0.1884,-0.0375 0.1922,-0.0382 v 0 0 h 10e-5 l 0.3714,-0.1127 0.3586,-0.1485 0.3423,-0.183 0.3227,-0.2156 0.3001,-0.2463 7.2168,-7.2168 0.0613,-0.0335 0.0697,0.005 0.0443,0.0285 19.1549,19.1549 0.0335,0.0613 0.003,0.0264 v 19.4683 l -0.0197,0.0671 -0.0166,0.0206 -6.351,6.351 -0.0613,0.0335 -0.0697,-0.005 -0.056,-0.0418 -0.0244,-0.0655 -3e-4,-0.009 v -1.7524 0 l -0.034,-0.3014 v 0 0 l -0.0675,-0.2957 -0.1001,-0.2863 -0.1316,-0.2733 -0.1614,-0.2568 -0.1891,-0.2371 -0.2145,-0.2145 -0.2371,-0.1891 -0.2569,-0.1614 v 0 l -0.2732,-0.1316 -0.2863,-0.1002 v 0 l -0.2282,-0.0521 -0.0675,-0.0154 v 0 h -1e-4 l -0.3013,-0.0339 v 0 h -4.3834 v 0 l -0.3013,0.0339 h -10e-5 l -0.2957,0.0675 v 0 l -0.2863,0.1002 -0.2732,0.1316 -0.2569,0.1614 -0.2371,0.1891 -0.2145,0.2145 -0.1891,0.2371 -0.1614,0.2568 -0.0706,0.1467 -0.0468,0.0519 -0.0674,0.0183 -0.0667,-0.0211 -0.0446,-0.0537 -0.005,-0.0132 -0.072,-0.2374 -0.1579,-0.3812 -0.0309,-0.0578 -0.1637,-0.3062 v 0 0 l -0.2293,-0.3432 -0.2618,-0.319 v 0 0 l -0.2918,-0.2919 -0.319,-0.2618 v 0 0 l -0.3432,-0.2293 v 0 0 l -0.364,-0.1945 v 0 l -0.3813,-0.158 -0.3949,-0.1198 h -10e-5 l -0.4047,-0.0805 -0.3094,-0.0305 -0.1013,-0.01 v 0 h -7.5842 l -0.067,-0.0197 -0.0207,-0.0167 -1.7626,-1.7626 -0.0335,-0.0613 0.005,-0.0697 0.0418,-0.056 0.0655,-0.0244 0.0448,0.005 0.3226,0.0979 v 0 0 h 1e-4 l 0.4047,0.0805 0.4107,0.0405 v 0 h 8.1728 v 0 l 0.4107,-0.0405 0.0788,-0.0157 0.3259,-0.0648 h 10e-5 v 0 0 l 0.3949,-0.1198 0.3813,-0.1579 0.364,-0.1946 0.3432,-0.2293 0.319,-0.2618 0.2918,-0.2919 0.2618,-0.319 0.2293,-0.3431 0.1946,-0.364 0.1579,-0.3813 0.072,-0.2374 0.0383,-0.0584 0.0638,-0.0285 0.0691,0.0106 0.0524,0.0462 0.007,0.0123 0.0706,0.1467 0.0227,0.036 0.1387,0.2208 0.1891,0.2372 0.2145,0.2144 0.2371,0.1892 0.2569,0.1613 0.2732,0.1316 0.1833,0.0642 0.103,0.036 v 0 l 0.2957,0.0675 v 0 h 1e-4 l 0.2009,0.0226 0.1004,0.0114 v 0 0 h 4.3834 v 0 l 0.154,-0.0174 0.1473,-0.0166 h 1e-4 v 0 l 0.2957,-0.0675 0.2863,-0.1002 0.2732,-0.1316 0.2569,-0.1613 0.2371,-0.1892 0.2145,-0.2144 0.1891,-0.2372 0.1614,-0.2568 0.1316,-0.2733 0.1001,-0.2863 0.0675,-0.2957 0.034,-0.3014 v -10.4908 -1.4 l -0.028,-0.2489 -0.006,-0.0525 v 0 0 l -0.0675,-0.2957 -0.0255,-0.0731 -0.0746,-0.2132 -0.1316,-0.2733 -0.1614,-0.2568 -0.1891,-0.2371 -2.5231,-2.5231 -2.555,-2.555 -1.7507,-1.7507 h 1.912 v 0.2622 l 0.0342,0.2599 v 0 l 0.0679,0.2532 0.1003,0.2422 v 0 l 0.1311,0.2271 v 0 l 0.0866,0.1128 0.8641,-0.864 0.007,0.0166 0.0876,0.131 0.1114,0.1115 0.1311,0.0875 0.0166,0.0069 -0.8641,0.8641 v 0 l 0.1129,0.0866 v 0 l 0.227,0.1311 v 0 l 0.2422,0.1003 0.2533,0.0678 v 0 l 0.2599,0.0343 v 0 h 0.2622 v 0 l 0.2599,-0.0343 v 0 l 0.2533,-0.0678 0.2422,-0.1003 v 0 l 0.227,-0.1311 v 0 l 0.1129,-0.0866 v 0 l -0.8641,-0.8641 0.0166,-0.0069 0.1311,-0.0875 0.1114,-0.1115 0.0876,-0.131 0.007,-0.0166 0.8641,0.864 v 0 l 0.0866,-0.1128 v 0 l 0.1311,-0.2271 v 0 l 0.1003,-0.2422 0.0679,-0.2532 v 0 l 0.0342,-0.2599 v -10e-5 -0.2621 0 l -0.0342,-0.2599 v -1e-4 l -0.0679,-0.2532 -0.1003,-0.2422 v 0 l -0.1311,-0.2271 v 0 l -0.0866,-0.1128 v 0 l -0.8641,0.8641 -0.007,-0.0167 -0.0876,-0.131 -0.1114,-0.1114 -0.1311,-0.0876 -0.0166,-0.0069 0.8641,-0.8641 -0.1129,-0.0865 v 0 l -0.227,-0.1311 v 0 l -0.2422,-0.1004 -0.2533,-0.0678 v 0 l -0.2599,-0.0342 h -0.2622 l -0.2599,0.0342 v 0 l -0.2533,0.0678 -0.2422,0.1004 v 0 l -0.227,0.1311 -0.1129,0.0865 v 0 l 0.8641,0.8641 -0.0166,0.0069 -0.1311,0.0876 -0.1114,0.1114 -0.0876,0.131 -0.007,0.0167 -0.8641,-0.8641 v 0 l -0.0866,0.1128 -0.1311,0.2271 v 0 l -0.1003,0.2422 -0.0679,0.2532 v 1e-4 l -0.0342,0.2599 h -1.912 l -1.8857,-1.8857 -0.0602,-0.048 -0.1769,-0.1411 -0.2569,-0.1614 v 0 l -0.2732,-0.1316 -0.2863,-0.1002 v 0 l -0.2957,-0.0675 -0.3014,-0.0339 v 0 h -0.3034 v 0 l -0.3014,0.0339 v 0 l -0.2957,0.0675 v 0 l -0.2863,0.1002 -0.2732,0.1316 -0.2569,0.1614 -0.2371,0.1891 -0.2145,0.2145 -0.1891,0.2371 -0.1614,0.2568 -0.1316,0.2733 -0.1001,0.2863 v 0 l -0.0675,0.2957 v 0 l -0.034,0.3014 V 75.86 l 0.034,0.3014 v 0 l 0.0675,0.2957 v 0 l 0.1001,0.2863 0.1316,0.2733 v 0 l 0.1614,0.2568 0.0808,0.1014 0.108,0.1353 3e-4,5e-4 1.8638,1.8638 1.8362,1.8361 0.0335,0.0613 0.003,0.0264 v 2.3868 l -0.0197,0.0671 -0.0528,0.0457 -0.0691,0.0099 -0.0636,-0.029 -0.0282,-0.0352 -0.1589,-0.2973 v 0 0 l -0.2293,-0.3432 -0.2618,-0.319 v 0 0 l -0.2918,-0.2919 -0.319,-0.2618 v 0 0 l -0.3432,-0.2293 v 0 0 l -0.364,-0.1945 v 0 l -0.3813,-0.158 -0.3949,-0.1198 h -1e-4 l -0.4047,-0.0805 -0.3094,-0.0305 -0.1013,-0.0099 v 0 h -1.9651 l -0.0671,-0.0197 -0.0206,-0.0167 -1.9358,-1.9357 -0.0335,-0.0613 -0.003,-0.0264 v -0.0545 l -0.006,-0.0641 -0.0342,-0.3466 -0.0261,-0.1313 -0.0544,-0.2734 v -1e-4 0 0 l -0.1198,-0.3949 -0.1579,-0.3813 -0.1022,-0.1912 -0.0924,-0.1728 v 0 0 l -0.2293,-0.3432 -0.2618,-0.319 v 0 0 l -0.2918,-0.2918 -0.319,-0.2618 v 0 0 l -0.3432,-0.2293 v 0 0 l -0.364,-0.1946 v 0 l -0.3813,-0.1579 -0.3949,-0.1198 h -1e-4 l -0.4047,-0.0805 -0.3094,-0.0305 -0.1013,-0.01 h -0.4128 l -0.0936,0.0092 -0.3171,0.0313 -0.4047,0.0805 h -1e-4 l -0.3949,0.1198 -0.3813,0.1579 v 0 l -0.364,0.1946 v 0 l -0.3431,0.2293 h -1e-4 l -0.319,0.2618 -0.2918,0.2918 -0.2618,0.319 v 1e-4 l -0.2293,0.3431 v 0 l -0.1946,0.364 v 0 l -0.1543,0.3725 -0.0438,0.0544 -0.0663,0.022 -0.0677,-0.0172 -0.0476,-0.0512 -0.008,-0.0195 -0.052,-0.1714 -0.1579,-0.3812 -0.0478,-0.0894 -0.1468,-0.2746 v 0 0 l -0.2293,-0.3432 -0.2618,-0.319 v 0 0 l -0.2918,-0.2919 -0.319,-0.2618 v 0 0 l -0.3432,-0.2293 v 0 0 l -0.364,-0.1945 v 0 l -0.3813,-0.158 -0.3949,-0.1198 h -1e-4 l -0.4047,-0.0805 v 0 l -0.3106,-0.0306 -0.1001,-0.0098 h -0.4128 l -0.0926,0.0091 -0.3181,0.0313 v 0 l -0.4047,0.0805 h -1e-4 l -0.3949,0.1198 -0.3813,0.158 v 0 l -0.364,0.1945 v 0 l -0.3431,0.2293 h -10e-5 l -0.319,0.2618 -5.1,5.1 -0.2918,0.2919 -0.2618,0.319 v 0 l -0.1386,0.2074 v 0 l -0.0907,0.1358 v 0 l -0.1946,0.3639 v 0 l -0.1579,0.3813 -0.1198,0.395 v 0 l -0.0805,0.4048 v 0 l -0.0405,0.4107 h -2.435 L 116.9173,84 l -0.127,-0.2021 -0.0344,-0.0547 -0.1891,-0.2371 -0.2145,-0.2145 -0.2371,-0.1891 -0.2569,-0.1614 v 0 l -0.2732,-0.1316 -0.2863,-0.1002 v 0 l -0.2282,-0.0521 -0.0675,-0.0154 v 0 h -1e-4 l -0.3013,-0.0339 v 0 h -6.1034 v 0 l -0.3013,0.0339 h -1e-4 l -0.2957,0.0675 v 0 l -0.2863,0.1002 -0.2732,0.1316 -0.2569,0.1614 -0.2371,0.1891 -0.2145,0.2145 -0.1891,0.2371 -0.1614,0.2568 -0.1316,0.2733 -0.1001,0.2863 v 0 l -0.0675,0.2957 v 0 l -0.034,0.3014 h -1.9783 v -5.9625 h 3.2283 v 0.2283 l 0.0357,0.2255 0.0706,0.2172 0.0777,0.1526 0.0259,0.0508 0.1342,0.1847 0.1615,0.1614 0.1847,0.1342 0.082,0.0419 0.1214,0.0618 v 0 0 l 0.1164,0.0378 0.1007,0.0327 0.2255,0.0358 v 0 h 0.2284 l 0.2255,-0.0358 0.2171,-0.0705 0.2034,-0.1037 0.1847,-0.1342 0.1615,-0.1614 0.1342,-0.1847 0.1036,-0.2034 0.0706,-0.2172 0.0168,-0.1061 0.0189,-0.1194 v -0.193 h 5.549 v 0.1577 l 0.0308,0.1547 v 0 l 0.0603,0.1456 v 0 l 0.0876,0.1312 v 0 l 0.1115,0.1114 v 1e-4 l 0.1311,0.0876 v 0 l 0.1227,0.0508 0.023,0.0095 0.1547,0.0308 v 0 0 h 0.1576 v 0 l 0.1547,-0.0308 0.1457,-0.0603 0.1311,-0.0876 0.1115,-0.1115 0.0876,-0.1312 0.0603,-0.1456 0.0308,-0.1547 v -0.1577 0 0 l -0.007,-0.0353 -0.0238,-0.1193 v 0 l -0.0603,-0.1457 v 0 l -0.0876,-0.1311 v 0 l -0.1115,-0.1115 v 0 l -0.1311,-0.0876 v 0 l -0.1457,-0.0604 v 0 l -0.1547,-0.0307 v 0 h -0.1576 v 0 l -0.1547,0.0307 v 0 l -0.1457,0.0604 v 0 l -0.1311,0.0876 v 0 l -0.1115,0.1115 v 0 l -0.0876,0.1311 v 0 l -0.0603,0.1457 v 0 l -0.0308,0.1546 h -5.549 v -0.0353 l -0.0357,-0.2255 -0.0706,-0.2171 -0.0547,-0.1074 -0.0489,-0.0961 -0.1342,-0.1847 -0.1615,-0.1614 -0.1847,-0.1342 -0.0474,-0.0242 -0.156,-0.0795 -0.2171,-0.0705 -0.2255,-0.0357 v 0 h -0.2284 v 0 l -0.2255,0.0357 -0.2171,0.0705 -0.2034,0.1037 -0.1847,0.1342 -0.1615,0.1614 -0.1342,0.1847 -0.1036,0.2035 -0.0706,0.2171 -0.0357,0.2255 h -3.2283 v -4.9056 h 0.4783 v 0.9395 l 0.0116,0.0585 v 0 l 0.0443,0.0663 0.0664,0.0443 v 0 l 0.0584,0.0117 v 0 h 1e-4 2.0395 v 0 l 0.0148,-0.003 0.0436,-0.0087 v 0 0 l 0.0664,-0.0443 0.0443,-0.0663 v 0 0 l 0.0115,-0.0578 1e-4,-7e-4 v -0.9395 0 0 l -0.0116,-0.0585 v 0 l -0.0443,-0.0663 -0.0664,-0.0443 v 0 l -0.0584,-0.0116 h -1e-4 -2.0394 -1e-4 l -0.0584,0.0116 v 0 l -0.0664,0.0443 -0.0443,0.0663 v 0 l -0.0116,0.0585 h -0.4783 V 70.5131 H 109.2 v 0.8453 h 1.2228 L 110.4,71.5021 v 0.2125 l 0.0228,0.1438 H 109.2 v 0.8452 l 0.0102,0.1447 v 0 l 0.0541,0.2402 v 0 l 0.0919,0.2284 0.1274,0.2108 v 0 l 0.1596,0.1875 0.1875,0.1595 v 0 l 0.2107,0.1274 0.2284,0.0919 v 0 l 0.2402,0.0541 v 0 l 0.1447,0.0103 v 0 H 111.5 v -1.2228 l 0.1438,0.0228 h 0.2124 L 112,72.9356 v 1.2228 h 0.8453 v 0 l 0.1447,-0.0103 v 0 l 0.2402,-0.0541 v 0 l 0.2284,-0.0919 0.2107,-0.1274 v 0 l 0.1875,-0.1595 0.1596,-0.1875 v 0 l 0.1274,-0.2108 0.0919,-0.2284 v 0 l 0.0541,-0.2402 v 0 L 114.3,72.7036 v 0 -0.8452 h -1.2228 L 113.1,71.7146 v -0.2125 l -0.0228,-0.1437 H 114.3 v -0.8453 0 l -0.0102,-0.1447 v 0 l -0.0541,-0.2402 v 0 l -0.0919,-0.2284 -0.1274,-0.2107 v 0 l -0.1596,-0.1876 -0.1875,-0.1595 v 0 l -0.2107,-0.1274 -0.2284,-0.0919 v 0 L 112.99,69.0686 v 0 l -0.1447,-0.0102 H 112 v 1.2227 l -0.1438,-0.0227 h -0.2124 L 111.5,70.2811 v -1.2227 h -0.8453 l -0.1447,0.0102 v 0 l -0.2402,0.0541 v 0 l -0.2284,0.0919 -0.2107,0.1274 v 0 l -0.1875,0.1595 -0.1596,0.1876 v 0 l -0.1274,0.2107 -0.0919,0.2284 v 0 l -0.0541,0.2402 v 0 L 109.2,70.5131 h -5.1288 v -6.2523 h 5.4283 v 0.2951 l 0.0288,0.219 0.01,0.0735 0.017,0.0634 0.0594,0.2215 v 0 l 0.1129,0.2726 v 0 l 0.1475,0.2555 0.1796,0.234 v 0 l 0.2086,0.2086 v 0 l 0.234,0.1796 0.2555,0.1475 v 0 0 l 0.2725,0.1129 0.285,0.0764 0.2925,0.0385 v 0 h 0.295 v 0 l 0.2925,-0.0385 0.285,-0.0764 0.2725,-0.1129 0.2555,-0.1475 0.234,-0.1796 0.2086,-0.2086 0.1796,-0.234 0.1475,-0.2555 0.1129,-0.2726 0.0764,-0.2849 0.0385,-0.2925 v -0.295 l -0.003,-0.021 v 0 h 2.0018 v 0.337 l 0.0377,0.3348 v 1e-4 l 0.075,0.3285 v 0 l 0.1113,0.3181 0.1463,0.3036 v 0 l 0.1793,0.2854 0.2101,0.2635 0.2383,0.2383 0.2635,0.2101 0.2853,0.1793 0.3036,0.1462 0.2389,0.0836 0.0792,0.0277 v 0 l 0.3286,0.075 0.3349,0.0378 v 0 0 h 0.337 v 0 l 0.3349,-0.0378 0.3286,-0.075 0.3181,-0.1113 0.3036,-0.1462 0.2853,-0.1793 0.2635,-0.2101 0.2383,-0.2383 0.2101,-0.2635 0.1793,-0.2854 0.1463,-0.3036 0.1113,-0.3181 0.075,-0.3285 0.0377,-0.3349 v -0.337 l -0.0377,-0.3349 -0.075,-0.3286 -0.1113,-0.3181 -0.1463,-0.3036 -0.1793,-0.2854 -0.2101,-0.2635 -0.2383,-0.2383 -0.2635,-0.2101 -0.2718,-0.1708 -0.0135,-0.0085 -0.3036,-0.1462 -0.3181,-0.1113 v 0 l -0.3286,-0.075 v 0 l -0.3349,-0.0377 v 0 h -0.337 v 0 l -0.3349,0.0377 v 0 l -0.3286,0.075 v 0 l -0.3181,0.1113 -0.3036,0.1462 -0.2853,0.1793 -0.2635,0.2101 -0.2383,0.2383 -0.2101,0.2635 -0.1793,0.2854 -0.1463,0.3036 -0.1113,0.3181 v 0 l -0.075,0.3286 v 0 l -0.0377,0.3349 h -2.0018 l -0.0115,-0.0877 -0.0242,-0.1838 -0.0764,-0.285 -0.1129,-0.2725 -0.1475,-0.2555 -0.0826,-0.1078 -0.097,-0.1263 v 0 l -0.2086,-0.2086 v 0 l -0.234,-0.1796 -0.2555,-0.1475 v 0 l -0.2725,-0.1129 v 0 0 l -0.285,-0.0763 -0.0489,-0.0065 -0.2436,-0.032 v 0 h -0.295 v 0 l -0.2784,0.0366 -0.0141,0.0019 -0.256,0.0686 -0.029,0.0077 v 0 l -0.2725,0.1129 v 0 l -0.2555,0.1475 -0.234,0.1796 v 0 l -0.2086,0.2086 v 0 l -0.1796,0.2341 -0.1475,0.2555 v 0 l -0.1129,0.2725 v 0 l -0.0764,0.285 v 0 l -0.0385,0.2924 h -5.4283 v -3.4722 h 0.4783 v 0.9395 l 0.0116,0.0585 v 0 l 0.0443,0.0663 0.0664,0.0443 v 0 l 0.0584,0.0117 v 0 h 1e-4 2.0395 v 0 l 0.0148,-0.003 0.0436,-0.0087 v 0 0 l 0.0664,-0.0443 0.0443,-0.0663 v 0 0 l 0.0116,-0.0585 v 0 -0.9395 0 l -0.0116,-0.0585 v 0 l -0.0443,-0.0663 -0.0664,-0.0443 v 0 l -0.0584,-0.0116 h -1e-4 -2.0394 -1e-4 l -0.0584,0.0116 v 0 l -0.0664,0.0443 -0.0443,0.0663 v 0 l -0.0116,0.0585 h -0.4783 V 54.6462 H 105.7 v 0.3243 l 0.0318,0.3226 v 10e-5 l 0.0632,0.3179 v 10e-5 l 0.0942,0.3102 0.124,0.2996 v 0 l 0.1529,0.2859 v 10e-5 l 0.1801,0.2695 v 0 l 0.1497,0.1824 v 0 l 1.2098,-1.2098 0.0739,0.1016 0.1781,0.1781 0.1016,0.0738 -1.2099,1.2099 v 0 l 0.1824,0.1496 v 0 l 0.2696,0.1802 v 0 l 0.286,0.1528 v 0 l 0.2995,0.1241 0.3103,0.0941 v 0 l 0.318,0.0633 v 0 l 0.3227,0.0318 h 0.3242 l 0.3227,-0.0318 v 0 l 0.318,-0.0633 v 0 l 0.3103,-0.0941 0.2995,-0.1241 v 0 l 0.286,-0.1528 v 0 l 0.0499,-0.0334 v 0 l 0.2197,-0.1468 v 0 l 0.1824,-0.1496 v 0 l -1.2099,-1.2099 0.1016,-0.0738 0.1781,-0.1781 0.0739,-0.1016 1.2098,1.2098 v 0 l 0.1497,-0.1824 v 0 l 0.1801,-0.2695 v -10e-5 l 0.1407,-0.2632 H 113.5 v 0.2294 0 l 0.0299,0.2274 0.0594,0.2216 0.0878,0.2119 v 0 l 0.1147,0.1987 v 0 l 0.0566,0.0737 0.837,-0.837 0.005,0.0206 0.079,0.1368 0.1117,0.1117 0.1368,0.079 0.0205,0.0055 -0.837,0.837 v 0 l 0.0738,0.0566 0.1986,0.1147 v 0 l 0.212,0.0877 0.2216,0.0594 0.2274,0.03 v 0 h 0.2294 v 0 l 0.2274,-0.03 0.2216,-0.0594 0.212,-0.0877 v 0 l 0.1986,-0.1147 v 0 l 0.0738,-0.0566 -0.837,-0.837 0.0205,-0.0055 0.1368,-0.079 0.1117,-0.1117 0.079,-0.1368 0.005,-0.0206 0.837,0.837 0.0566,-0.0737 v 0 l 0.1147,-0.1987 v 0 l 0.0625,-0.151 0.0439,-0.0544 0.0663,-0.022 0.0677,0.0172 0.0476,0.0512 0.004,0.008 0.0625,0.151 v 0 l 0.1147,0.1987 v 0 l 0.0566,0.0737 0.837,-0.837 0.005,0.0206 0.079,0.1368 0.1117,0.1117 0.1368,0.079 0.0205,0.0055 -0.837,0.837 v 0 l 0.0738,0.0566 0.1986,0.1147 v 0 l 0.212,0.0877 0.2216,0.0594 0.2274,0.03 v 0 h 0.2294 v 0 l 0.2274,-0.03 0.2216,-0.0594 0.212,-0.0877 v 0 l 0.1986,-0.1147 v 0 l 0.0738,-0.0566 -0.837,-0.837 0.0205,-0.0055 0.1368,-0.079 0.1117,-0.1117 0.079,-0.1368 0.005,-0.0206 0.837,0.837 0.0566,-0.0737 v 0 l 0.1147,-0.1987 v 0 l 0.0625,-0.151 0.0439,-0.0544 0.0663,-0.022 0.0677,0.0172 0.0476,0.0512 0.004,0.008 0.0625,0.151 v 0 l 0.1147,0.1987 v 0 l 0.0566,0.0737 0.837,-0.837 0.005,0.0206 0.079,0.1368 0.1117,0.1117 0.1368,0.079 0.0205,0.0055 -0.837,0.837 v 0 l 0.0738,0.0566 0.1986,0.1147 v 0 l 0.212,0.0877 0.2216,0.0594 0.2274,0.03 v 0 h 0.2294 v 0 l 0.2274,-0.03 0.2216,-0.0594 0.212,-0.0877 v 0 l 0.1986,-0.1147 v 0 l 0.0738,-0.0566 -0.837,-0.837 0.0205,-0.0055 0.1368,-0.079 0.1117,-0.1117 0.079,-0.1368 0.005,-0.0206 0.837,0.837 0.0566,-0.0737 v 0 l 0.1147,-0.1987 v 0 l 0.0878,-0.2119 0.0594,-0.2216 L 124,56.4731 v 0 -0.2294 0 l -0.0299,-0.2275 -0.0594,-0.2216 -0.0878,-0.2119 v 0 l -0.1147,-0.1987 -0.0566,-0.0737 v 0 l -0.837,0.837 -0.005,-0.0205 -0.079,-0.1368 -0.1117,-0.1118 -0.1368,-0.0789 -0.0205,-0.0056 0.837,-0.837 v 0 l -0.0738,-0.0565 v 0 l -0.1986,-0.1147 v 0 l -0.212,-0.0878 -0.2216,-0.0594 -0.2274,-0.0299 v 0 h -0.2294 v 0 l -0.2274,0.0299 -0.2216,0.0594 -0.212,0.0878 v 0 l -0.1986,0.1147 v 0 l -0.0738,0.0565 0.837,0.837 -0.0205,0.0056 -0.1368,0.0789 -0.1117,0.1118 -0.079,0.1368 -0.005,0.0205 -0.837,-0.837 -0.0566,0.0737 v 0 l -0.1147,0.1987 v 0 l -0.0625,0.151 -0.0439,0.0544 -0.0663,0.0221 -0.0677,-0.0173 -0.0476,-0.0512 -0.004,-0.008 -0.0625,-0.151 v 0 l -0.1147,-0.1987 -0.0566,-0.0737 v 0 l -0.837,0.837 -0.005,-0.0205 -0.079,-0.1368 -0.1117,-0.1118 -0.1368,-0.0789 -0.0205,-0.0056 0.837,-0.837 v 0 l -0.0738,-0.0565 v 0 l -0.1986,-0.1147 v 0 l -0.212,-0.0878 -0.2216,-0.0594 -0.2274,-0.0299 v 0 h -0.2294 v 0 l -0.2274,0.0299 -0.2216,0.0594 -0.212,0.0878 v 0 l -0.1986,0.1147 v 0 l -0.0738,0.0565 0.837,0.837 -0.0205,0.0056 -0.1368,0.0789 -0.1117,0.1118 -0.079,0.1368 -0.005,0.0205 -0.837,-0.837 -0.0566,0.0737 v 0 l -0.1147,0.1987 v 0 l -0.0625,0.151 -0.0439,0.0544 -0.0663,0.0221 -0.0677,-0.0173 -0.0476,-0.0512 -0.004,-0.008 -0.0625,-0.151 v 0 l -0.1147,-0.1987 -0.0566,-0.0737 v 0 l -0.837,0.837 -0.005,-0.0205 -0.079,-0.1368 -0.1117,-0.1118 -0.1368,-0.0789 -0.0205,-0.0056 0.837,-0.837 v 0 l -0.0738,-0.0565 v 0 l -0.1986,-0.1147 v 0 l -0.212,-0.0878 -0.2216,-0.0594 -0.2274,-0.0299 v 0 h -0.2294 v 0 l -0.2274,0.0299 -0.2216,0.0594 -0.212,0.0878 v 0 l -0.1986,0.1147 v 0 l -0.0738,0.0565 0.837,0.837 -0.0205,0.0056 -0.1368,0.0789 -0.1117,0.1118 -0.079,0.1368 -0.005,0.0205 -0.837,-0.837 -0.0566,0.0737 v 0 l -0.1147,0.1987 v 0 l -0.0878,0.2119 -0.0594,0.2216 -0.0299,0.2275 v 0 h -1.5254 l 0.0122,-0.0227 v 0 l 0.0119,-0.0288 v -10e-5 l 0.1121,-0.2707 0.0942,-0.3102 v -10e-5 l 0.0632,-0.3179 v -10e-5 l 0.0296,-0.3006 v 0 l 0.002,-0.022 v -0.3243 l -0.0318,-0.3226 v 0 l -0.0617,-0.3101 v 0 l -0.002,-0.0079 -0.004,-0.0114 h 23.848 v 0.2283 l 0.0357,0.2255 0.0706,0.2172 0.0903,0.1773 0.0133,0.0261 0.1342,0.1847 0.1615,0.1614 0.1847,0.1342 0.0688,0.0351 0.1346,0.0686 v 0 0 l 0.1164,0.0378 0.1007,0.0327 0.2255,0.0358 v 0 h 0.2284 l 0.2255,-0.0358 0.2171,-0.0705 0.2034,-0.1037 0.1847,-0.1342 0.1615,-0.1614 0.1342,-0.1847 0.1036,-0.2034 0.0706,-0.2172 0.002,-0.0143 0.0334,-0.2112 v -0.2283 l -0.0357,-0.2255 -0.0706,-0.2171 -0.0794,-0.1559 -0.0242,-0.0476 -0.1342,-0.1847 -0.1615,-0.1614 -0.1847,-0.1342 -0.0541,-0.0276 -0.1493,-0.0761 -0.2171,-0.0705 -0.2255,-0.0357 v 0 h -0.2284 v 0 l -0.2255,0.0357 -0.2171,0.0705 -0.2034,0.1037 -0.1847,0.1342 -0.1615,0.1614 -0.1342,0.1847 -0.1036,0.2035 -0.0706,0.2171 -0.0357,0.2255 h -23.848 l -0.0907,-0.2989 -0.124,-0.2996 v 0 l -0.1529,-0.2859 v 0 l -0.1801,-0.2696 v 0 l -0.1497,-0.1824 v 0 l -1.2099,1.2099 -0.0738,-0.1017 -0.1781,-0.178 -0.1016,-0.0739 1.2099,-1.2098 v 0 l -0.1824,-0.1497 v 0 l -0.2696,-0.1801 v -10e-5 l -0.286,-0.1528 v 0 l -0.2995,-0.1241 -0.3103,-0.0941 v 0 l -0.318,-0.0633 v 0 l -0.3227,-0.0317 h -0.3242 l -0.3227,0.0317 v 0 l -0.318,0.0633 v 0 l -0.3103,0.0941 -0.2995,0.1241 v 0 l -0.286,0.1528 v 10e-5 l -0.2696,0.1801 v 0 l -0.1824,0.1497 v 0 l 1.2099,1.2098 -0.1016,0.0739 -0.1781,0.178 -0.0739,0.1017 -1.2098,-1.2099 v 0 l -0.1497,0.1824 v 0 l -0.1801,0.2696 v 0 l -0.1529,0.2859 v 0 l -0.124,0.2996 -0.0942,0.3103 v 0 l -0.0632,0.318 v 0 L 105.7,54.6462 h -1.6288 v -4.4638 l 0.0197,-0.0671 0.0528,-0.0457 0.0516,-0.0112 h 74.2536 z"
       id="path132" />
    <path
       style="fill:none;stroke:#000000;stroke-width:0.2;stroke-linecap:round;stroke-linejoin:round;stroke-opacity:1"
       d="m 178.8212,149.8084 h -75 v -100 h 75 z"
       id="path133" />
  </g>
  <metadata
     id="metadata133">
    <rdf:RDF>
      <cc:Work
         rdf:about="">
        <dc:title>SVG Image created as dragstar-infotainment-F_Cu.svg date 2025/06/24 01:19:38 </dc:title>
      </cc:Work>
    </rdf:RDF>
  </metadata>
</svg>
