<?xml version="1.0" encoding="UTF-8" standalone="no"?>
<svg
   version="1.1"
   width="75.199997mm"
   height="100.2mm"
   viewBox="0 0 75.199998 100.2"
   id="svg73"
   sodipodi:docname="dragstar-infotainment-F_Mask.svg"
   inkscape:export-filename="dragstar-infotainment-F_Mask.png"
   inkscape:export-xdpi="1200"
   inkscape:export-ydpi="1200"
   inkscape:version="1.4 (86a8ad7, 2024-10-11)"
   xmlns:inkscape="http://www.inkscape.org/namespaces/inkscape"
   xmlns:sodipodi="http://sodipodi.sourceforge.net/DTD/sodipodi-0.dtd"
   xmlns="http://www.w3.org/2000/svg"
   xmlns:svg="http://www.w3.org/2000/svg"
   xmlns:rdf="http://www.w3.org/1999/02/22-rdf-syntax-ns#"
   xmlns:cc="http://creativecommons.org/ns#"
   xmlns:dc="http://purl.org/dc/elements/1.1/">
  <defs
     id="defs73" />
  <sodipodi:namedview
     id="namedview73"
     pagecolor="#ffffff"
     bordercolor="#999999"
     borderopacity="1"
     inkscape:showpageshadow="0"
     inkscape:pageopacity="0"
     inkscape:pagecheckerboard="0"
     inkscape:deskcolor="#d1d1d1"
     inkscape:document-units="mm"
     inkscape:export-bgcolor="#ffffffff"
     inkscape:zoom="0.44851636"
     inkscape:cx="168.33277"
     inkscape:cy="208.46508"
     inkscape:window-width="1920"
     inkscape:window-height="1017"
     inkscape:window-x="-8"
     inkscape:window-y="-8"
     inkscape:window-maximized="1"
     inkscape:current-layer="svg73" />
  <title
     id="title1">SVG Image created as dragstar-infotainment-F_Mask.svg date 2025/06/24 01:19:38 </title>
  <desc
     id="desc1">Image generated by PCBNEW </desc>
  <g
     style="fill:#000000;fill-opacity:1;stroke:#000000;stroke-linecap:round;stroke-linejoin:round;stroke-opacity:1"
     id="g1"
     transform="translate(-103.7212,-49.7084)" />
  <g
     style="fill:#000000;fill-opacity:1;stroke:none"
     id="g2"
     transform="translate(-103.7212,-49.7084)">
    <circle
       cx="137.25"
       cy="126.3584"
       r="1.25"
       id="circle1" />
  </g>
  <g
     style="fill:#000000;fill-opacity:1;stroke:none"
     id="g3"
     transform="translate(-103.7212,-49.7084)">
    <circle
       cx="108.75"
       cy="79.308403"
       r="1.25"
       id="circle2" />
  </g>
  <g
     style="fill:#000000;fill-opacity:1;stroke:none"
     id="g4"
     transform="translate(-103.7212,-49.7084)">
    <circle
       cx="141.42"
       cy="116.1709"
       r="1.1"
       id="circle3" />
  </g>
  <g
     style="fill:#000000;fill-opacity:1;stroke:none"
     id="g5"
     transform="translate(-103.7212,-49.7084)">
    <circle
       cx="146.5"
       cy="116.1709"
       r="1.1"
       id="circle4" />
  </g>
  <g
     style="fill:#000000;fill-opacity:1;stroke:none"
     id="g6"
     transform="translate(-103.7212,-49.7084)">
    <circle
       cx="121.5"
       cy="126.1084"
       r="1.25"
       id="circle5" />
  </g>
  <g
     style="fill:#000000;fill-opacity:1;stroke:none"
     id="g7"
     transform="translate(-103.7212,-49.7084)">
    <circle
       cx="136.75"
       cy="79.5"
       r="2.8"
       id="circle6" />
  </g>
  <g
     style="fill:#000000;fill-opacity:1;stroke:none"
     id="g8"
     transform="translate(-103.7212,-49.7084)">
    <circle
       cx="116.55"
       cy="79.308403"
       r="0.60000002"
       id="circle7" />
  </g>
  <g
     style="fill:#000000;fill-opacity:1;stroke:none"
     id="g9"
     transform="translate(-103.7212,-49.7084)">
    <circle
       cx="116.55"
       cy="91.308403"
       r="0.60000002"
       id="circle8" />
  </g>
  <g
     style="fill:#000000;fill-opacity:1;stroke:none"
     id="g10"
     transform="translate(-103.7212,-49.7084)">
    <circle
       cx="114.55"
       cy="85.308403"
       r="0.82499999"
       id="circle9" />
  </g>
  <g
     style="fill:#000000;fill-opacity:1;stroke:none"
     id="g11"
     transform="translate(-103.7212,-49.7084)">
    <circle
       cx="128.75"
       cy="91.308403"
       r="0.89999998"
       id="circle10" />
  </g>
  <g
     style="fill:#000000;fill-opacity:1;stroke:none"
     id="g12"
     transform="translate(-103.7212,-49.7084)">
    <circle
       cx="128.75"
       cy="79.308403"
       r="0.89999998"
       id="circle11" />
  </g>
  <g
     style="fill:#000000;fill-opacity:1;stroke:none"
     id="g13"
     transform="translate(-103.7212,-49.7084)">
    <circle
       cx="150.67"
       cy="116.1709"
       r="1.1"
       id="circle12" />
  </g>
  <g
     style="fill:#000000;fill-opacity:1;stroke:none"
     id="g14"
     transform="translate(-103.7212,-49.7084)">
    <circle
       cx="155.75"
       cy="116.1709"
       r="1.1"
       id="circle13" />
  </g>
  <g
     style="fill:#000000;fill-opacity:1;stroke:none"
     id="g15"
     transform="translate(-103.7212,-49.7084)">
    <circle
       cx="108.75"
       cy="91.308403"
       r="1.25"
       id="circle14" />
  </g>
  <g
     style="fill:#000000;fill-opacity:1;stroke:none"
     id="g16"
     transform="translate(-103.7212,-49.7084)">
    <circle
       cx="108.75"
       cy="97.808403"
       r="1.25"
       id="circle15" />
    <path
       style="fill:#000000;fill-opacity:1;fill-rule:evenodd;stroke:none"
       d="m 162.94,60.4 h 1.7 v 1.7 h -1.7 z"
       id="path15" />
  </g>
  <g
     style="fill:#000000;fill-opacity:1;stroke:none"
     id="g17"
     transform="translate(-103.7212,-49.7084)">
    <circle
       cx="161.25"
       cy="61.25"
       r="0.85000002"
       id="circle16" />
  </g>
  <g
     style="fill:#000000;fill-opacity:1;stroke:none"
     id="g18"
     transform="translate(-103.7212,-49.7084)">
    <circle
       cx="141.42"
       cy="95.795898"
       r="1.1"
       id="circle17" />
  </g>
  <g
     style="fill:#000000;fill-opacity:1;stroke:none"
     id="g19"
     transform="translate(-103.7212,-49.7084)">
    <circle
       cx="146.5"
       cy="95.795898"
       r="1.1"
       id="circle18" />
  </g>
  <g
     style="fill:#000000;fill-opacity:1;stroke:none"
     id="g20"
     transform="translate(-103.7212,-49.7084)">
    <circle
       cx="141.42"
       cy="85.608398"
       r="1.1"
       id="circle19" />
  </g>
  <g
     style="fill:#000000;fill-opacity:1;stroke:none"
     id="g21"
     transform="translate(-103.7212,-49.7084)">
    <circle
       cx="146.5"
       cy="85.608398"
       r="1.1"
       id="circle20" />
  </g>
  <g
     style="fill:#000000;fill-opacity:1;stroke:none"
     id="g22"
     transform="translate(-103.7212,-49.7084)">
    <circle
       cx="141.42"
       cy="105.9834"
       r="1.1"
       id="circle21" />
  </g>
  <g
     style="fill:#000000;fill-opacity:1;stroke:none"
     id="g23"
     transform="translate(-103.7212,-49.7084)">
    <circle
       cx="146.5"
       cy="105.9834"
       r="1.1"
       id="circle22" />
  </g>
  <g
     style="fill:#000000;fill-opacity:1;stroke:none"
     id="g24"
     transform="translate(-103.7212,-49.7084)">
    <circle
       cx="137.21001"
       cy="116.1709"
       r="1.25"
       id="circle23" />
  </g>
  <g
     style="fill:#000000;fill-opacity:1;stroke:none"
     id="g25"
     transform="translate(-103.7212,-49.7084)">
    <circle
       cx="129.50999"
       cy="66.808403"
       r="1.5"
       id="circle24" />
  </g>
  <g
     style="fill:#000000;fill-opacity:1;stroke:none"
     id="g26"
     transform="translate(-103.7212,-49.7084)">
    <circle
       cx="144.71001"
       cy="57.908401"
       r="1.5"
       id="circle25" />
  </g>
  <g
     style="fill:#000000;fill-opacity:1;stroke:none"
     id="g27"
     transform="translate(-103.7212,-49.7084)">
    <circle
       cx="154.85001"
       cy="75.708397"
       r="1.5"
       id="circle26" />
  </g>
  <g
     style="fill:#000000;fill-opacity:1;stroke:none"
     id="g28"
     transform="translate(-103.7212,-49.7084)">
    <circle
       cx="147.25"
       cy="75.708397"
       r="1.5"
       id="circle27" />
    <path
       style="fill:#000000;fill-opacity:1;fill-rule:evenodd;stroke:none"
       d="m 133.05,62.2084 -0.0114,0.1062 -0.0498,0.1334 -0.0852,0.1139 -0.114,0.0853 -0.1333,0.0497 -0.1063,0.0115 h -1 l -0.1063,-0.0115 -0.1333,-0.0497 -0.114,-0.0853 -0.0852,-0.1139 -0.0498,-0.1334 -0.0114,-0.1062 v -1 l 0.0114,-0.1063 0.0498,-0.1334 0.0852,-0.1139 0.114,-0.0853 0.1333,-0.0497 0.1063,-0.0114 h 1 l 0.1063,0.0114 0.1333,0.0497 0.114,0.0853 0.0852,0.1139 0.0498,0.1334 0.0114,0.1063 z"
       id="path27" />
  </g>
  <g
     style="fill:#000000;fill-opacity:1;stroke:none"
     id="g29"
     transform="translate(-103.7212,-49.7084)">
    <circle
       cx="132.05"
       cy="71.908401"
       r="1"
       id="circle28" />
  </g>
  <g
     style="fill:#000000;fill-opacity:1;stroke:none"
     id="g30"
     transform="translate(-103.7212,-49.7084)">
    <circle
       cx="162.8"
       cy="147.80251"
       r="1.17"
       id="circle29" />
  </g>
  <g
     style="fill:#000000;fill-opacity:1;stroke:none"
     id="g31"
     transform="translate(-103.7212,-49.7084)">
    <circle
       cx="157.8"
       cy="135.30251"
       r="1.17"
       id="circle30" />
  </g>
  <g
     style="fill:#000000;fill-opacity:1;stroke:none"
     id="g32"
     transform="translate(-103.7212,-49.7084)">
    <circle
       cx="152.8"
       cy="147.80251"
       r="1.17"
       id="circle31" />
  </g>
  <g
     style="fill:#000000;fill-opacity:1;stroke:none"
     id="g33"
     transform="translate(-103.7212,-49.7084)">
    <circle
       cx="116.55"
       cy="97.558403"
       r="0.60000002"
       id="circle32" />
  </g>
  <g
     style="fill:#000000;fill-opacity:1;stroke:none"
     id="g34"
     transform="translate(-103.7212,-49.7084)">
    <circle
       cx="116.55"
       cy="109.5584"
       r="0.60000002"
       id="circle33" />
  </g>
  <g
     style="fill:#000000;fill-opacity:1;stroke:none"
     id="g35"
     transform="translate(-103.7212,-49.7084)">
    <circle
       cx="114.55"
       cy="103.5584"
       r="0.82499999"
       id="circle34" />
  </g>
  <g
     style="fill:#000000;fill-opacity:1;stroke:none"
     id="g36"
     transform="translate(-103.7212,-49.7084)">
    <circle
       cx="128.75"
       cy="109.5584"
       r="0.89999998"
       id="circle35" />
  </g>
  <g
     style="fill:#000000;fill-opacity:1;stroke:none"
     id="g37"
     transform="translate(-103.7212,-49.7084)">
    <circle
       cx="128.75"
       cy="97.558403"
       r="0.89999998"
       id="circle36" />
  </g>
  <g
     style="fill:#000000;fill-opacity:1;stroke:none"
     id="g38"
     transform="translate(-103.7212,-49.7084)">
    <circle
       cx="119"
       cy="64.408401"
       r="2.8"
       id="circle37" />
    <path
       style="fill:#000000;fill-opacity:1;fill-rule:evenodd;stroke:none"
       d="m 173.85,62.1 h -1.7 v -1.7 h 1.7 z"
       id="path37" />
  </g>
  <g
     style="fill:#000000;fill-opacity:1;stroke:none"
     id="g39"
     transform="translate(-103.7212,-49.7084)">
    <circle
       cx="175.53999"
       cy="61.25"
       r="0.85000002"
       id="circle38" />
  </g>
  <g
     style="fill:#000000;fill-opacity:1;stroke:none"
     id="g40"
     transform="translate(-103.7212,-49.7084)">
    <circle
       cx="108.75"
       cy="85.308403"
       r="1.25"
       id="circle39" />
  </g>
  <g
     style="fill:#000000;fill-opacity:1;stroke:none"
     id="g41"
     transform="translate(-103.7212,-49.7084)">
    <circle
       cx="148.05"
       cy="147.55251"
       r="1.25"
       id="circle40" />
  </g>
  <g
     style="fill:#000000;fill-opacity:1;stroke:none"
     id="g42"
     transform="translate(-103.7212,-49.7084)">
    <circle
       cx="141.46001"
       cy="126.3584"
       r="1.1"
       id="circle41" />
  </g>
  <g
     style="fill:#000000;fill-opacity:1;stroke:none"
     id="g43"
     transform="translate(-103.7212,-49.7084)">
    <circle
       cx="146.53999"
       cy="126.3584"
       r="1.1"
       id="circle42" />
  </g>
  <g
     style="fill:#000000;fill-opacity:1;stroke:none"
     id="g44"
     transform="translate(-103.7212,-49.7084)">
    <circle
       cx="118.75"
       cy="56.358398"
       r="1.25"
       id="circle43" />
  </g>
  <g
     style="fill:#000000;fill-opacity:1;stroke:none"
     id="g45"
     transform="translate(-103.7212,-49.7084)">
    <circle
       cx="109"
       cy="54.808399"
       r="2.8"
       id="circle44" />
  </g>
  <g
     style="fill:#000000;fill-opacity:1;stroke:none"
     id="g46"
     transform="translate(-103.7212,-49.7084)">
    <circle
       cx="137.5"
       cy="54.108398"
       r="1.25"
       id="circle45" />
  </g>
  <g
     style="fill:#000000;fill-opacity:1;stroke:none"
     id="g47"
     transform="translate(-103.7212,-49.7084)">
    <circle
       cx="109"
       cy="144.8084"
       r="2.8"
       id="circle46" />
  </g>
  <g
     style="fill:#000000;fill-opacity:1;stroke:none"
     id="g48"
     transform="translate(-103.7212,-49.7084)">
    <circle
       cx="121.5"
       cy="114.7084"
       r="1.25"
       id="circle47" />
  </g>
  <g
     style="fill:#000000;fill-opacity:1;stroke:none"
     id="g49"
     transform="translate(-103.7212,-49.7084)">
    <circle
       cx="174"
       cy="144.8084"
       r="2.8"
       id="circle48" />
  </g>
  <g
     style="fill:#000000;fill-opacity:1;stroke:none"
     id="g50"
     transform="translate(-103.7212,-49.7084)">
    <circle
       cx="170.02499"
       cy="130.765"
       r="1.2"
       id="circle49" />
  </g>
  <g
     style="fill:#000000;fill-opacity:1;stroke:none"
     id="g51"
     transform="translate(-103.7212,-49.7084)">
    <circle
       cx="170.02499"
       cy="64.724998"
       r="1.2"
       id="circle50" />
  </g>
  <g
     style="fill:#000000;fill-opacity:1;stroke:none"
     id="g52"
     transform="translate(-103.7212,-49.7084)">
    <circle
       cx="137.21001"
       cy="95.795898"
       r="1.25"
       id="circle51" />
  </g>
  <g
     style="fill:#000000;fill-opacity:1;stroke:none"
     id="g53"
     transform="translate(-103.7212,-49.7084)">
    <circle
       cx="122.25"
       cy="56.358398"
       r="1.25"
       id="circle52" />
  </g>
  <g
     style="fill:#000000;fill-opacity:1;stroke:none"
     id="g54"
     transform="translate(-103.7212,-49.7084)">
    <circle
       cx="150.67"
       cy="85.608398"
       r="1.1"
       id="circle53" />
  </g>
  <g
     style="fill:#000000;fill-opacity:1;stroke:none"
     id="g55"
     transform="translate(-103.7212,-49.7084)">
    <circle
       cx="155.75"
       cy="85.608398"
       r="1.1"
       id="circle54" />
  </g>
  <g
     style="fill:#000000;fill-opacity:1;stroke:none"
     id="g57"
     transform="translate(-103.7212,-49.7084)">
    <circle
       cx="129.75"
       cy="116.5584"
       r="1.25"
       id="circle55" />
    <path
       style="fill:#000000;fill-opacity:1;fill-rule:evenodd;stroke:none"
       d="m 106.75,75.2084 h -2 v -0.9 h 2 z"
       id="path55" />
    <path
       style="fill:#000000;fill-opacity:1;fill-rule:evenodd;stroke:none"
       d="m 106.75,61.7084 h -2 v -0.9 h 2 z"
       id="path56" />
    <path
       style="fill:#000000;fill-opacity:1;fill-rule:evenodd;stroke:none"
       d="m 110.725,73.6584 -0.2,-0.0197 -0.1923,-0.0584 -0.1772,-0.0947 -0.1553,-0.1275 -0.1275,-0.1553 -0.0947,-0.1772 -0.0583,-0.1923 -0.0197,-0.1999 v -2.05 l 0.0197,-0.2 0.0583,-0.1923 0.0947,-0.1772 0.1275,-0.1553 0.1553,-0.1275 0.1772,-0.0947 0.1923,-0.0583 0.2,-0.0197 h 2.05 l 0.2,0.0197 0.1923,0.0583 0.1772,0.0947 0.1553,0.1275 0.1275,0.1553 0.0947,0.1772 0.0583,0.1923 0.0197,0.2 v 2.05 l -0.0197,0.1999 -0.0583,0.1923 -0.0947,0.1772 -0.1275,0.1553 -0.1553,0.1275 -0.1772,0.0947 -0.1923,0.0584 -0.2,0.0197 z"
       id="path57" />
  </g>
  <g
     style="fill:#000000;fill-opacity:1;stroke:none"
     id="g58"
     transform="translate(-103.7212,-49.7084)">
    <circle
       cx="111.75"
       cy="64.408401"
       r="2.05"
       id="circle57" />
  </g>
  <g
     style="fill:#000000;fill-opacity:1;stroke:none"
     id="g59"
     transform="translate(-103.7212,-49.7084)">
    <circle
       cx="115.25"
       cy="56.358398"
       r="1.25"
       id="circle58" />
  </g>
  <g
     style="fill:#000000;fill-opacity:1;stroke:none"
     id="g60"
     transform="translate(-103.7212,-49.7084)">
    <circle
       cx="174"
       cy="54.808399"
       r="2.8"
       id="circle59" />
  </g>
  <g
     style="fill:#000000;fill-opacity:1;stroke:none"
     id="g61"
     transform="translate(-103.7212,-49.7084)">
    <circle
       cx="136.4375"
       cy="135.5229"
       r="1.25"
       id="circle60" />
  </g>
  <g
     style="fill:#000000;fill-opacity:1;stroke:none"
     id="g62"
     transform="translate(-103.7212,-49.7084)">
    <circle
       cx="108.75"
       cy="103.5584"
       r="1.25"
       id="circle61" />
  </g>
  <g
     style="fill:#000000;fill-opacity:1;stroke:none"
     id="g63"
     transform="translate(-103.7212,-49.7084)">
    <circle
       cx="150.67"
       cy="105.9834"
       r="1.1"
       id="circle62" />
  </g>
  <g
     style="fill:#000000;fill-opacity:1;stroke:none"
     id="g64"
     transform="translate(-103.7212,-49.7084)">
    <circle
       cx="155.75"
       cy="105.9834"
       r="1.1"
       id="circle63" />
  </g>
  <g
     style="fill:#000000;fill-opacity:1;stroke:none"
     id="g65"
     transform="translate(-103.7212,-49.7084)">
    <circle
       cx="150.67"
       cy="95.795898"
       r="1.1"
       id="circle64" />
  </g>
  <g
     style="fill:#000000;fill-opacity:1;stroke:none"
     id="g66"
     transform="translate(-103.7212,-49.7084)">
    <circle
       cx="155.75"
       cy="95.795898"
       r="1.1"
       id="circle65" />
  </g>
  <g
     style="fill:#000000;fill-opacity:1;stroke:none"
     id="g67"
     transform="translate(-103.7212,-49.7084)">
    <circle
       cx="142.1875"
       cy="135.5229"
       r="1.25"
       id="circle66" />
  </g>
  <g
     style="fill:#000000;fill-opacity:1;stroke:none"
     id="g68"
     transform="translate(-103.7212,-49.7084)">
    <circle
       cx="150.71001"
       cy="126.3584"
       r="1.1"
       id="circle67" />
  </g>
  <g
     style="fill:#000000;fill-opacity:1;stroke:none"
     id="g69"
     transform="translate(-103.7212,-49.7084)">
    <circle
       cx="155.78999"
       cy="126.3584"
       r="1.1"
       id="circle68" />
  </g>
  <g
     style="fill:#000000;fill-opacity:1;stroke:none"
     id="g70"
     transform="translate(-103.7212,-49.7084)">
    <circle
       cx="123.5"
       cy="132.25"
       r="1.25"
       id="circle69" />
  </g>
  <g
     style="fill:#000000;fill-opacity:1;stroke:none"
     id="g71"
     transform="translate(-103.7212,-49.7084)">
    <circle
       cx="166.77499"
       cy="130.765"
       r="1.2"
       id="circle70" />
  </g>
  <g
     style="fill:#000000;fill-opacity:1;stroke:none"
     id="g72"
     transform="translate(-103.7212,-49.7084)">
    <circle
       cx="166.77499"
       cy="64.724998"
       r="1.2"
       id="circle71" />
  </g>
  <g
     style="fill:#000000;fill-opacity:1;stroke:none"
     id="g73"
     transform="translate(-103.7212,-49.7084)">
    <circle
       cx="121.5"
       cy="137.4084"
       r="1.25"
       id="circle72" />
    <path
       style="fill:none;stroke:#000000;stroke-width:0.2;stroke-linecap:round;stroke-linejoin:round;stroke-opacity:1"
       d="m 178.8212,149.8084 h -75 v -100 h 75 z"
       id="path72" />
  </g>
  <metadata
     id="metadata73">
    <rdf:RDF>
      <cc:Work
         rdf:about="">
        <dc:title>SVG Image created as dragstar-infotainment-F_Mask.svg date 2025/06/24 01:19:38 </dc:title>
      </cc:Work>
    </rdf:RDF>
  </metadata>
</svg>
