<?xml version="1.0" standalone="no"?>
 <!DOCTYPE svg PUBLIC "-//W3C//DTD SVG 1.1//EN" 
 "http://www.w3.org/Graphics/SVG/1.1/DTD/svg11.dtd"> 
<svg
  xmlns:svg="http://www.w3.org/2000/svg"
  xmlns="http://www.w3.org/2000/svg"
  xmlns:xlink="http://www.w3.org/1999/xlink"
  version="1.1"
  width="297.0022mm" height="210.0072mm" viewBox="0.0000 0.0000 297.0022 210.0072">
<title>SVG Image created as dragstar-infotainment-B_Mask.svg date 2025/06/24 19:32:59 </title>
  <desc>Image generated by PCBNEW </desc>
<g style="fill:#000000; fill-opacity:1.0000;stroke:#000000; stroke-opacity:1.0000;
stroke-linecap:round; stroke-linejoin:round;"
 transform="translate(0 0) scale(1 1)">
<path style="fill:#000000; fill-opacity:1.0000; stroke:none;fill-rule:evenodd;"
d="M 131.2000,125.7584
131.1043,125.7393
131.0232,125.6851
130.9690,125.6040
130.9500,125.5084
130.9500,122.5084
130.9690,122.4127
131.0232,122.3316
131.1043,122.2774
131.2000,122.2584
132.5000,122.2584
132.5957,122.2774
132.6768,122.3316
132.7310,122.4127
132.7500,122.5084
132.7500,125.5084
132.7310,125.6040
132.6768,125.6851
132.5957,125.7393
132.5000,125.7584
Z" /> 
<path style="fill:#000000; fill-opacity:1.0000; stroke:none;fill-rule:evenodd;"
d="M 131.2000,130.7584
131.1043,130.7393
131.0232,130.6851
130.9690,130.6040
130.9500,130.5084
130.9500,127.5084
130.9690,127.4127
131.0232,127.3316
131.1043,127.2774
131.2000,127.2584
132.5000,127.2584
132.5957,127.2774
132.6768,127.3316
132.7310,127.4127
132.7500,127.5084
132.7500,130.5084
132.7310,130.6040
132.6768,130.6851
132.5957,130.7393
132.5000,130.7584
Z" /> 
<path style="fill:#000000; fill-opacity:1.0000; stroke:none;fill-rule:evenodd;"
d="M 117.4000,125.5084
117.3810,125.6040
117.3268,125.6851
117.2457,125.7393
117.1500,125.7584
114.3500,125.7584
114.2543,125.7393
114.1732,125.6851
114.1190,125.6040
114.1000,125.5084
114.1000,121.5084
114.1190,121.4127
114.1732,121.3316
114.2543,121.2774
114.3500,121.2584
117.1500,121.2584
117.2457,121.2774
117.3268,121.3316
117.3810,121.4127
117.4000,121.5084
Z" /> 
<path style="fill:#000000; fill-opacity:1.0000; stroke:none;fill-rule:evenodd;"
d="M 117.4000,116.7084
117.3810,116.8040
117.3268,116.8851
117.2457,116.9393
117.1500,116.9584
114.3500,116.9584
114.2543,116.9393
114.1732,116.8851
114.1190,116.8040
114.1000,116.7084
114.1000,112.7084
114.1190,112.6127
114.1732,112.5316
114.2543,112.4774
114.3500,112.4584
117.1500,112.4584
117.2457,112.4774
117.3268,112.5316
117.3810,112.6127
117.4000,112.7084
Z" /> 
<path style="fill:#000000; fill-opacity:1.0000; stroke:none;fill-rule:evenodd;"
d="M 107.3500,126.6084
107.3690,126.5127
107.4232,126.4316
107.5043,126.3774
107.6000,126.3584
110.4000,126.3584
110.4957,126.3774
110.5768,126.4316
110.6310,126.5127
110.6500,126.6084
110.6500,130.6084
110.6310,130.7040
110.5768,130.7851
110.4957,130.8393
110.4000,130.8584
107.6000,130.8584
107.5043,130.8393
107.4232,130.7851
107.3690,130.7040
107.3500,130.6084
Z" /> 
<path style="fill:#000000; fill-opacity:1.0000; stroke:none;fill-rule:evenodd;"
d="M 107.3500,135.4084
107.3690,135.3127
107.4232,135.2316
107.5043,135.1774
107.6000,135.1584
110.4000,135.1584
110.4957,135.1774
110.5768,135.2316
110.6310,135.3127
110.6500,135.4084
110.6500,139.4084
110.6310,139.5040
110.5768,139.5851
110.4957,139.6393
110.4000,139.6584
107.6000,139.6584
107.5043,139.6393
107.4232,139.5851
107.3690,139.5040
107.3500,139.4084
Z" /> 
<path style="fill:#000000; fill-opacity:1.0000; stroke:none;fill-rule:evenodd;"
d="M 126.3500,102.4084
126.4457,102.4274
126.5268,102.4816
126.5810,102.5627
126.6000,102.6584
126.6000,105.4584
126.5810,105.5540
126.5268,105.6351
126.4457,105.6893
126.3500,105.7084
125.1500,105.7084
125.0543,105.6893
124.9732,105.6351
124.9190,105.5540
124.9000,105.4584
124.9000,102.6584
124.9190,102.5627
124.9732,102.4816
125.0543,102.4274
125.1500,102.4084
Z" /> 
<path style="fill:#000000; fill-opacity:1.0000; stroke:none;fill-rule:evenodd;"
d="M 126.3500,96.9084
126.4457,96.9274
126.5268,96.9816
126.5810,97.0627
126.6000,97.1584
126.6000,99.9584
126.5810,100.0540
126.5268,100.1351
126.4457,100.1893
126.3500,100.2084
125.1500,100.2084
125.0543,100.1893
124.9732,100.1351
124.9190,100.0540
124.9000,99.9584
124.9000,97.1584
124.9190,97.0627
124.9732,96.9816
125.0543,96.9274
125.1500,96.9084
Z" /> 
<path style="fill:#000000; fill-opacity:1.0000; stroke:none;fill-rule:evenodd;"
d="M 148.4000,135.1125
148.3426,135.1011
148.2939,135.0686
148.2614,135.0199
148.2500,134.9625
148.2500,133.7875
148.2614,133.7301
148.2939,133.6814
148.3426,133.6489
148.4000,133.6375
148.7000,133.6375
148.7574,133.6489
148.8061,133.6814
148.8386,133.7301
148.8500,133.7875
148.8500,134.9625
148.8386,135.0199
148.8061,135.0686
148.7574,135.1011
148.7000,135.1125
Z" /> 
<path style="fill:#000000; fill-opacity:1.0000; stroke:none;fill-rule:evenodd;"
d="M 147.4500,136.9875
147.3926,136.9761
147.3439,136.9436
147.3114,136.8949
147.3000,136.8375
147.3000,135.6625
147.3114,135.6051
147.3439,135.5564
147.3926,135.5239
147.4500,135.5125
147.7500,135.5125
147.8074,135.5239
147.8561,135.5564
147.8886,135.6051
147.9000,135.6625
147.9000,136.8375
147.8886,136.8949
147.8561,136.9436
147.8074,136.9761
147.7500,136.9875
Z" /> 
<path style="fill:#000000; fill-opacity:1.0000; stroke:none;fill-rule:evenodd;"
d="M 149.3500,136.9875
149.2926,136.9761
149.2439,136.9436
149.2114,136.8949
149.2000,136.8375
149.2000,135.6625
149.2114,135.6051
149.2439,135.5564
149.2926,135.5239
149.3500,135.5125
149.6500,135.5125
149.7074,135.5239
149.7561,135.5564
149.7886,135.6051
149.8000,135.6625
149.8000,136.8375
149.7886,136.8949
149.7561,136.9436
149.7074,136.9761
149.6500,136.9875
Z" /> 
<path style="fill:#000000; fill-opacity:1.0000; stroke:none;fill-rule:evenodd;"
d="M 138.6125,69.8084
138.6011,69.8658
138.5686,69.9144
138.5199,69.9469
138.4625,69.9584
137.2875,69.9584
137.2301,69.9469
137.1814,69.9144
137.1489,69.8658
137.1375,69.8084
137.1375,69.5084
137.1489,69.4510
137.1814,69.4023
137.2301,69.3698
137.2875,69.3584
138.4625,69.3584
138.5199,69.3698
138.5686,69.4023
138.6011,69.4510
138.6125,69.5084
Z" /> 
<path style="fill:#000000; fill-opacity:1.0000; stroke:none;fill-rule:evenodd;"
d="M 140.4875,70.7584
140.4761,70.8158
140.4436,70.8644
140.3949,70.8969
140.3375,70.9084
139.1625,70.9084
139.1051,70.8969
139.0564,70.8644
139.0239,70.8158
139.0125,70.7584
139.0125,70.4584
139.0239,70.4010
139.0564,70.3523
139.1051,70.3198
139.1625,70.3084
140.3375,70.3084
140.3949,70.3198
140.4436,70.3523
140.4761,70.4010
140.4875,70.4584
Z" /> 
<path style="fill:#000000; fill-opacity:1.0000; stroke:none;fill-rule:evenodd;"
d="M 140.4875,68.8584
140.4761,68.9158
140.4436,68.9644
140.3949,68.9969
140.3375,69.0084
139.1625,69.0084
139.1051,68.9969
139.0564,68.9644
139.0239,68.9158
139.0125,68.8584
139.0125,68.5584
139.0239,68.5010
139.0564,68.4523
139.1051,68.4198
139.1625,68.4084
140.3375,68.4084
140.3949,68.4198
140.4436,68.4523
140.4761,68.5010
140.4875,68.5584
Z" /> 
<path style="fill:#000000; fill-opacity:1.0000; stroke:none;fill-rule:evenodd;"
d="M 154.4000,137.4000
154.3043,137.3810
154.2232,137.3268
154.1690,137.2457
154.1500,137.1500
154.1500,134.3500
154.1690,134.2543
154.2232,134.1732
154.3043,134.1190
154.4000,134.1000
155.6000,134.1000
155.6957,134.1190
155.7768,134.1732
155.8310,134.2543
155.8500,134.3500
155.8500,137.1500
155.8310,137.2457
155.7768,137.3268
155.6957,137.3810
155.6000,137.4000
Z" /> 
<path style="fill:#000000; fill-opacity:1.0000; stroke:none;fill-rule:evenodd;"
d="M 154.4000,142.9000
154.3043,142.8810
154.2232,142.8268
154.1690,142.7457
154.1500,142.6500
154.1500,139.8500
154.1690,139.7543
154.2232,139.6732
154.3043,139.6190
154.4000,139.6000
155.6000,139.6000
155.6957,139.6190
155.7768,139.6732
155.8310,139.7543
155.8500,139.8500
155.8500,142.6500
155.8310,142.7457
155.7768,142.8268
155.6957,142.8810
155.6000,142.9000
Z" /> 
<path style="fill:#000000; fill-opacity:1.0000; stroke:none;fill-rule:evenodd;"
d="M 134.8500,143.9000
134.8690,143.8043
134.9232,143.7232
135.0043,143.6690
135.1000,143.6500
137.9000,143.6500
137.9957,143.6690
138.0768,143.7232
138.1310,143.8043
138.1500,143.9000
138.1500,145.1000
138.1310,145.1957
138.0768,145.2768
137.9957,145.3310
137.9000,145.3500
135.1000,145.3500
135.0043,145.3310
134.9232,145.2768
134.8690,145.1957
134.8500,145.1000
Z" /> 
<path style="fill:#000000; fill-opacity:1.0000; stroke:none;fill-rule:evenodd;"
d="M 129.3500,143.9000
129.3690,143.8043
129.4232,143.7232
129.5043,143.6690
129.6000,143.6500
132.4000,143.6500
132.4957,143.6690
132.5768,143.7232
132.6310,143.8043
132.6500,143.9000
132.6500,145.1000
132.6310,145.1957
132.5768,145.2768
132.4957,145.3310
132.4000,145.3500
129.6000,145.3500
129.5043,145.3310
129.4232,145.2768
129.3690,145.1957
129.3500,145.1000
Z" /> 
<path style="fill:#000000; fill-opacity:1.0000; stroke:none;fill-rule:evenodd;"
d="M 122.9000,97.1834
122.9190,97.0877
122.9732,97.0066
123.0543,96.9524
123.1500,96.9334
123.9500,96.9334
124.0457,96.9524
124.1268,97.0066
124.1810,97.0877
124.2000,97.1834
124.2000,98.4334
124.1810,98.5290
124.1268,98.6101
124.0457,98.6643
123.9500,98.6834
123.1500,98.6834
123.0543,98.6643
122.9732,98.6101
122.9190,98.5290
122.9000,98.4334
Z" /> 
<path style="fill:#000000; fill-opacity:1.0000; stroke:none;fill-rule:evenodd;"
d="M 119.8000,97.1834
119.8190,97.0877
119.8732,97.0066
119.9543,96.9524
120.0500,96.9334
120.8500,96.9334
120.9457,96.9524
121.0268,97.0066
121.0810,97.0877
121.1000,97.1834
121.1000,98.4334
121.0810,98.5290
121.0268,98.6101
120.9457,98.6643
120.8500,98.6834
120.0500,98.6834
119.9543,98.6643
119.8732,98.6101
119.8190,98.5290
119.8000,98.4334
Z" /> 
<path style="fill:#000000; fill-opacity:1.0000; stroke:none;fill-rule:evenodd;"
d="M 158.1250,134.7000
158.2207,134.7190
158.3018,134.7732
158.3560,134.8543
158.3750,134.9500
158.3750,135.7500
158.3560,135.8457
158.3018,135.9268
158.2207,135.9810
158.1250,136.0000
156.8750,136.0000
156.7793,135.9810
156.6982,135.9268
156.6440,135.8457
156.6250,135.7500
156.6250,134.9500
156.6440,134.8543
156.6982,134.7732
156.7793,134.7190
156.8750,134.7000
Z" /> 
<path style="fill:#000000; fill-opacity:1.0000; stroke:none;fill-rule:evenodd;"
d="M 158.1250,131.6000
158.2207,131.6190
158.3018,131.6732
158.3560,131.7543
158.3750,131.8500
158.3750,132.6500
158.3560,132.7457
158.3018,132.8268
158.2207,132.8810
158.1250,132.9000
156.8750,132.9000
156.7793,132.8810
156.6982,132.8268
156.6440,132.7457
156.6250,132.6500
156.6250,131.8500
156.6440,131.7543
156.6982,131.6732
156.7793,131.6190
156.8750,131.6000
Z" /> 
<path style="fill:#000000; fill-opacity:1.0000; stroke:none;fill-rule:evenodd;"
d="M 122.5500,82.4584
122.5386,82.5158
122.5061,82.5644
122.4574,82.5969
122.4000,82.6084
121.2250,82.6084
121.1676,82.5969
121.1189,82.5644
121.0864,82.5158
121.0750,82.4584
121.0750,82.1584
121.0864,82.1010
121.1189,82.0523
121.1676,82.0198
121.2250,82.0084
122.4000,82.0084
122.4574,82.0198
122.5061,82.0523
122.5386,82.1010
122.5500,82.1584
Z" /> 
<path style="fill:#000000; fill-opacity:1.0000; stroke:none;fill-rule:evenodd;"
d="M 124.4250,83.4084
124.4136,83.4658
124.3811,83.5144
124.3324,83.5469
124.2750,83.5584
123.1000,83.5584
123.0426,83.5469
122.9939,83.5144
122.9614,83.4658
122.9500,83.4084
122.9500,83.1084
122.9614,83.0510
122.9939,83.0023
123.0426,82.9698
123.1000,82.9584
124.2750,82.9584
124.3324,82.9698
124.3811,83.0023
124.4136,83.0510
124.4250,83.1084
Z" /> 
<path style="fill:#000000; fill-opacity:1.0000; stroke:none;fill-rule:evenodd;"
d="M 124.4250,81.5084
124.4136,81.5658
124.3811,81.6144
124.3324,81.6469
124.2750,81.6584
123.1000,81.6584
123.0426,81.6469
122.9939,81.6144
122.9614,81.5658
122.9500,81.5084
122.9500,81.2084
122.9614,81.1510
122.9939,81.1023
123.0426,81.0698
123.1000,81.0584
124.2750,81.0584
124.3324,81.0698
124.3811,81.1023
124.4136,81.1510
124.4250,81.2084
Z" /> 
</g>
<g style="fill:#000000; fill-opacity:1.0000; stroke:none;">
<circle cx="109.0000" cy="144.8084" r="2.8000" /> 
</g>
<g style="fill:#000000; fill-opacity:1.0000; stroke:none;">
<circle cx="109.0000" cy="54.8084" r="2.8000" /> 
</g>
<g style="fill:#000000; fill-opacity:1.0000; stroke:none;">
<circle cx="174.0000" cy="54.8084" r="2.8000" /> 
</g>
<g style="fill:#000000; fill-opacity:1.0000; stroke:none;">
<circle cx="174.0000" cy="144.8084" r="2.8000" /> 
</g>
<g style="fill:#000000; fill-opacity:1.0000; stroke:none;">
<circle cx="170.0250" cy="64.7250" r="1.2000" /> 
</g>
<g style="fill:#000000; fill-opacity:1.0000; stroke:none;">
<circle cx="170.0250" cy="130.7650" r="1.2000" /> 
</g>
<g style="fill:#000000; fill-opacity:1.0000; stroke:none;">
<circle cx="137.2100" cy="95.7959" r="1.2500" /> 
</g>
<g style="fill:#000000; fill-opacity:1.0000; stroke:none;">
<circle cx="122.2500" cy="56.3584" r="1.2500" /> 
</g>
<g style="fill:#000000; fill-opacity:1.0000; stroke:none;">
<circle cx="155.7500" cy="85.6084" r="1.1000" /> 
</g>
<g style="fill:#000000; fill-opacity:1.0000; stroke:none;">
<circle cx="150.6700" cy="85.6084" r="1.1000" /> 
</g>
<g style="fill:#000000; fill-opacity:1.0000; stroke:none;">
<circle cx="129.7500" cy="116.5584" r="1.2500" /> 
</g>
<g style="fill:#000000; fill-opacity:1.0000; stroke:none;">
<circle cx="111.7500" cy="64.4084" r="2.0500" /> 
<path style="fill:#000000; fill-opacity:1.0000; stroke:none;fill-rule:evenodd;"
d="M 110.7250,73.6584
110.5250,73.6387
110.3327,73.5803
110.1555,73.4856
110.0002,73.3581
109.8727,73.2028
109.7780,73.0256
109.7197,72.8333
109.7000,72.6334
109.7000,70.5834
109.7197,70.3834
109.7780,70.1911
109.8727,70.0139
110.0002,69.8586
110.1555,69.7311
110.3327,69.6364
110.5250,69.5781
110.7250,69.5584
112.7750,69.5584
112.9750,69.5781
113.1673,69.6364
113.3445,69.7311
113.4998,69.8586
113.6273,70.0139
113.7220,70.1911
113.7803,70.3834
113.8000,70.5834
113.8000,72.6334
113.7803,72.8333
113.7220,73.0256
113.6273,73.2028
113.4998,73.3581
113.3445,73.4856
113.1673,73.5803
112.9750,73.6387
112.7750,73.6584
Z" /> 
<path style="fill:#000000; fill-opacity:1.0000; stroke:none;fill-rule:evenodd;"
d="M 106.7500,61.7084
104.7500,61.7084
104.7500,60.8084
106.7500,60.8084
Z" /> 
<path style="fill:#000000; fill-opacity:1.0000; stroke:none;fill-rule:evenodd;"
d="M 106.7500,75.2084
104.7500,75.2084
104.7500,74.3084
106.7500,74.3084
Z" /> 
</g>
<g style="fill:#000000; fill-opacity:1.0000; stroke:none;">
<circle cx="115.2500" cy="56.3584" r="1.2500" /> 
</g>
<g style="fill:#000000; fill-opacity:1.0000; stroke:none;">
<circle cx="127.0000" cy="144.5000" r="1.2500" /> 
</g>
<g style="fill:#000000; fill-opacity:1.0000; stroke:none;">
<circle cx="108.7500" cy="103.5584" r="1.2500" /> 
</g>
<g style="fill:#000000; fill-opacity:1.0000; stroke:none;">
<circle cx="155.7500" cy="105.9834" r="1.1000" /> 
</g>
<g style="fill:#000000; fill-opacity:1.0000; stroke:none;">
<circle cx="150.6700" cy="105.9834" r="1.1000" /> 
</g>
<g style="fill:#000000; fill-opacity:1.0000; stroke:none;">
<circle cx="155.7500" cy="95.7959" r="1.1000" /> 
</g>
<g style="fill:#000000; fill-opacity:1.0000; stroke:none;">
<circle cx="150.6700" cy="95.7959" r="1.1000" /> 
</g>
<g style="fill:#000000; fill-opacity:1.0000; stroke:none;">
<circle cx="140.5000" cy="144.5000" r="1.2500" /> 
</g>
<g style="fill:#000000; fill-opacity:1.0000; stroke:none;">
<circle cx="155.7900" cy="126.3584" r="1.1000" /> 
</g>
<g style="fill:#000000; fill-opacity:1.0000; stroke:none;">
<circle cx="150.7100" cy="126.3584" r="1.1000" /> 
</g>
<g style="fill:#000000; fill-opacity:1.0000; stroke:none;">
<circle cx="123.5000" cy="132.2500" r="1.2500" /> 
</g>
<g style="fill:#000000; fill-opacity:1.0000; stroke:none;">
<circle cx="166.7750" cy="64.7250" r="1.2000" /> 
</g>
<g style="fill:#000000; fill-opacity:1.0000; stroke:none;">
<circle cx="166.7750" cy="130.7650" r="1.2000" /> 
<path style="fill:#000000; fill-opacity:1.0000; stroke:none;fill-rule:evenodd;"
d="M 118.1000,102.8084
118.0043,102.7893
117.9232,102.7351
117.8690,102.6540
117.8500,102.5584
117.8500,99.5584
117.8690,99.4627
117.9232,99.3816
118.0043,99.3274
118.1000,99.3084
119.4000,99.3084
119.4957,99.3274
119.5768,99.3816
119.6310,99.4627
119.6500,99.5584
119.6500,102.5584
119.6310,102.6540
119.5768,102.7351
119.4957,102.7893
119.4000,102.8084
Z" /> 
<path style="fill:#000000; fill-opacity:1.0000; stroke:none;fill-rule:evenodd;"
d="M 118.1000,107.8084
118.0043,107.7893
117.9232,107.7351
117.8690,107.6540
117.8500,107.5584
117.8500,104.5584
117.8690,104.4627
117.9232,104.3816
118.0043,104.3274
118.1000,104.3084
119.4000,104.3084
119.4957,104.3274
119.5768,104.3816
119.6310,104.4627
119.6500,104.5584
119.6500,107.5584
119.6310,107.6540
119.5768,107.7351
119.4957,107.7893
119.4000,107.8084
Z" /> 
<path style="fill:#000000; fill-opacity:1.0000; stroke:none;fill-rule:evenodd;"
d="M 118.1000,84.3084
118.0043,84.2893
117.9232,84.2351
117.8690,84.1540
117.8500,84.0584
117.8500,81.0584
117.8690,80.9627
117.9232,80.8816
118.0043,80.8274
118.1000,80.8084
119.4000,80.8084
119.4957,80.8274
119.5768,80.8816
119.6310,80.9627
119.6500,81.0584
119.6500,84.0584
119.6310,84.1540
119.5768,84.2351
119.4957,84.2893
119.4000,84.3084
Z" /> 
<path style="fill:#000000; fill-opacity:1.0000; stroke:none;fill-rule:evenodd;"
d="M 118.1000,89.3084
118.0043,89.2893
117.9232,89.2351
117.8690,89.1540
117.8500,89.0584
117.8500,86.0584
117.8690,85.9627
117.9232,85.8816
118.0043,85.8274
118.1000,85.8084
119.4000,85.8084
119.4957,85.8274
119.5768,85.8816
119.6310,85.9627
119.6500,86.0584
119.6500,89.0584
119.6310,89.1540
119.5768,89.2351
119.4957,89.2893
119.4000,89.3084
Z" /> 
<path style="fill:#000000; fill-opacity:1.0000; stroke:none;fill-rule:evenodd;"
d="M 130.5000,132.4084
130.5190,132.3127
130.5732,132.2316
130.6543,132.1774
130.7500,132.1584
133.7500,132.1584
133.8457,132.1774
133.9268,132.2316
133.9810,132.3127
134.0000,132.4084
134.0000,133.7084
133.9810,133.8040
133.9268,133.8851
133.8457,133.9393
133.7500,133.9584
130.7500,133.9584
130.6543,133.9393
130.5732,133.8851
130.5190,133.8040
130.5000,133.7084
Z" /> 
<path style="fill:#000000; fill-opacity:1.0000; stroke:none;fill-rule:evenodd;"
d="M 125.5000,132.4084
125.5190,132.3127
125.5732,132.2316
125.6543,132.1774
125.7500,132.1584
128.7500,132.1584
128.8457,132.1774
128.9268,132.2316
128.9810,132.3127
129.0000,132.4084
129.0000,133.7084
128.9810,133.8040
128.9268,133.8851
128.8457,133.9393
128.7500,133.9584
125.7500,133.9584
125.6543,133.9393
125.5732,133.8851
125.5190,133.8040
125.5000,133.7084
Z" /> 
</g>
<g style="fill:#000000; fill-opacity:1.0000; stroke:none;">
<circle cx="137.5000" cy="54.1084" r="1.2500" /> 
</g>
<g style="fill:#000000; fill-opacity:1.0000; stroke:none;">
<circle cx="137.2500" cy="126.3584" r="1.2500" /> 
</g>
<g style="fill:#000000; fill-opacity:1.0000; stroke:none;">
<circle cx="108.7500" cy="79.3084" r="1.2500" /> 
</g>
<g style="fill:#000000; fill-opacity:1.0000; stroke:none;">
<circle cx="146.5000" cy="116.1709" r="1.1000" /> 
</g>
<g style="fill:#000000; fill-opacity:1.0000; stroke:none;">
<circle cx="141.4200" cy="116.1709" r="1.1000" /> 
</g>
<g style="fill:#000000; fill-opacity:1.0000; stroke:none;">
<circle cx="121.5000" cy="126.1084" r="1.2500" /> 
</g>
<g style="fill:#000000; fill-opacity:1.0000; stroke:none;">
<circle cx="136.7500" cy="79.5000" r="2.8000" /> 
</g>
<g style="fill:#000000; fill-opacity:1.0000; stroke:none;">
<circle cx="128.7500" cy="79.3084" r="0.9000" /> 
</g>
<g style="fill:#000000; fill-opacity:1.0000; stroke:none;">
<circle cx="128.7500" cy="91.3084" r="0.9000" /> 
</g>
<g style="fill:#000000; fill-opacity:1.0000; stroke:none;">
<circle cx="114.5500" cy="85.3084" r="0.8250" /> 
</g>
<g style="fill:#000000; fill-opacity:1.0000; stroke:none;">
<circle cx="116.5500" cy="91.3084" r="0.6000" /> 
</g>
<g style="fill:#000000; fill-opacity:1.0000; stroke:none;">
<circle cx="116.5500" cy="79.3084" r="0.6000" /> 
</g>
<g style="fill:#000000; fill-opacity:1.0000; stroke:none;">
<circle cx="155.7500" cy="116.1709" r="1.1000" /> 
</g>
<g style="fill:#000000; fill-opacity:1.0000; stroke:none;">
<circle cx="150.6700" cy="116.1709" r="1.1000" /> 
</g>
<g style="fill:#000000; fill-opacity:1.0000; stroke:none;">
<circle cx="108.7500" cy="91.3084" r="1.2500" /> 
</g>
<g style="fill:#000000; fill-opacity:1.0000; stroke:none;">
<circle cx="108.7500" cy="97.8084" r="1.2500" /> 
</g>
<g style="fill:#000000; fill-opacity:1.0000; stroke:none;">
<circle cx="161.2500" cy="61.2500" r="0.8500" /> 
<path style="fill:#000000; fill-opacity:1.0000; stroke:none;fill-rule:evenodd;"
d="M 162.9400,60.4000
164.6400,60.4000
164.6400,62.1000
162.9400,62.1000
Z" /> 
</g>
<g style="fill:#000000; fill-opacity:1.0000; stroke:none;">
<circle cx="146.5000" cy="95.7959" r="1.1000" /> 
</g>
<g style="fill:#000000; fill-opacity:1.0000; stroke:none;">
<circle cx="141.4200" cy="95.7959" r="1.1000" /> 
</g>
<g style="fill:#000000; fill-opacity:1.0000; stroke:none;">
<circle cx="146.5000" cy="85.6084" r="1.1000" /> 
</g>
<g style="fill:#000000; fill-opacity:1.0000; stroke:none;">
<circle cx="141.4200" cy="85.6084" r="1.1000" /> 
</g>
<g style="fill:#000000; fill-opacity:1.0000; stroke:none;">
<circle cx="146.5000" cy="105.9834" r="1.1000" /> 
</g>
<g style="fill:#000000; fill-opacity:1.0000; stroke:none;">
<circle cx="141.4200" cy="105.9834" r="1.1000" /> 
</g>
<g style="fill:#000000; fill-opacity:1.0000; stroke:none;">
<circle cx="137.2100" cy="116.1709" r="1.2500" /> 
</g>
<g style="fill:#000000; fill-opacity:1.0000; stroke:none;">
<circle cx="132.0500" cy="71.9084" r="1.0000" /> 
<path style="fill:#000000; fill-opacity:1.0000; stroke:none;fill-rule:evenodd;"
d="M 133.0500,62.2084
133.0386,62.3146
132.9888,62.4480
132.9036,62.5619
132.7896,62.6472
132.6563,62.6969
132.5500,62.7084
131.5500,62.7084
131.4437,62.6969
131.3104,62.6472
131.1964,62.5619
131.1112,62.4480
131.0614,62.3146
131.0500,62.2084
131.0500,61.2084
131.0614,61.1021
131.1112,60.9687
131.1964,60.8548
131.3104,60.7695
131.4437,60.7198
131.5500,60.7084
132.5500,60.7084
132.6563,60.7198
132.7896,60.7695
132.9036,60.8548
132.9888,60.9687
133.0386,61.1021
133.0500,61.2084
Z" /> 
</g>
<g style="fill:#000000; fill-opacity:1.0000; stroke:none;">
<circle cx="147.2500" cy="75.7084" r="1.5000" /> 
</g>
<g style="fill:#000000; fill-opacity:1.0000; stroke:none;">
<circle cx="154.8500" cy="75.7084" r="1.5000" /> 
</g>
<g style="fill:#000000; fill-opacity:1.0000; stroke:none;">
<circle cx="144.7100" cy="57.9084" r="1.5000" /> 
</g>
<g style="fill:#000000; fill-opacity:1.0000; stroke:none;">
<circle cx="129.5100" cy="66.8084" r="1.5000" /> 
</g>
<g style="fill:#000000; fill-opacity:1.0000; stroke:none;">
<circle cx="147.0000" cy="132.7500" r="1.1700" /> 
</g>
<g style="fill:#000000; fill-opacity:1.0000; stroke:none;">
<circle cx="159.5000" cy="137.7500" r="1.1700" /> 
</g>
<g style="fill:#000000; fill-opacity:1.0000; stroke:none;">
<circle cx="147.0000" cy="142.7500" r="1.1700" /> 
</g>
<g style="fill:#000000; fill-opacity:1.0000; stroke:none;">
<circle cx="128.7500" cy="97.5584" r="0.9000" /> 
</g>
<g style="fill:#000000; fill-opacity:1.0000; stroke:none;">
<circle cx="128.7500" cy="109.5584" r="0.9000" /> 
</g>
<g style="fill:#000000; fill-opacity:1.0000; stroke:none;">
<circle cx="114.5500" cy="103.5584" r="0.8250" /> 
</g>
<g style="fill:#000000; fill-opacity:1.0000; stroke:none;">
<circle cx="116.5500" cy="109.5584" r="0.6000" /> 
</g>
<g style="fill:#000000; fill-opacity:1.0000; stroke:none;">
<circle cx="116.5500" cy="97.5584" r="0.6000" /> 
</g>
<g style="fill:#000000; fill-opacity:1.0000; stroke:none;">
<circle cx="119.0000" cy="64.4084" r="2.8000" /> 
</g>
<g style="fill:#000000; fill-opacity:1.0000; stroke:none;">
<circle cx="175.5400" cy="61.2500" r="0.8500" /> 
<path style="fill:#000000; fill-opacity:1.0000; stroke:none;fill-rule:evenodd;"
d="M 173.8500,62.1000
172.1500,62.1000
172.1500,60.4000
173.8500,60.4000
Z" /> 
</g>
<g style="fill:#000000; fill-opacity:1.0000; stroke:none;">
<circle cx="108.7500" cy="85.3084" r="1.2500" /> 
</g>
<g style="fill:#000000; fill-opacity:1.0000; stroke:none;">
<circle cx="142.0000" cy="132.5000" r="1.2500" /> 
</g>
<g style="fill:#000000; fill-opacity:1.0000; stroke:none;">
<circle cx="146.5400" cy="126.3584" r="1.1000" /> 
</g>
<g style="fill:#000000; fill-opacity:1.0000; stroke:none;">
<circle cx="141.4600" cy="126.3584" r="1.1000" /> 
</g>
<g style="fill:#000000; fill-opacity:1.0000; stroke:none;">
<circle cx="118.7500" cy="56.3584" r="1.2500" /> 
</g>
<g style="fill:#000000; fill-opacity:1.0000; stroke:none;">
<circle cx="121.5000" cy="137.4084" r="1.2500" /> 
<path style="fill:#000000; fill-opacity:1.0000; stroke:none;fill-rule:evenodd;"
d="M 142.6000,65.6500
142.6190,65.5543
142.6732,65.4732
142.7543,65.4190
142.8500,65.4000
145.6500,65.4000
145.7457,65.4190
145.8268,65.4732
145.8810,65.5543
145.9000,65.6500
145.9000,66.8500
145.8810,66.9457
145.8268,67.0268
145.7457,67.0810
145.6500,67.1000
142.8500,67.1000
142.7543,67.0810
142.6732,67.0268
142.6190,66.9457
142.6000,66.8500
Z" /> 
<path style="fill:#000000; fill-opacity:1.0000; stroke:none;fill-rule:evenodd;"
d="M 137.1000,65.6500
137.1190,65.5543
137.1732,65.4732
137.2543,65.4190
137.3500,65.4000
140.1500,65.4000
140.2457,65.4190
140.3268,65.4732
140.3810,65.5543
140.4000,65.6500
140.4000,66.8500
140.3810,66.9457
140.3268,67.0268
140.2457,67.0810
140.1500,67.1000
137.3500,67.1000
137.2543,67.0810
137.1732,67.0268
137.1190,66.9457
137.1000,66.8500
Z" /> 
<path style="fill:#000000; fill-opacity:1.0000; stroke:none;fill-rule:evenodd;"
d="M 130.5000,119.6084
130.5190,119.5127
130.5732,119.4316
130.6543,119.3774
130.7500,119.3584
133.7500,119.3584
133.8457,119.3774
133.9268,119.4316
133.9810,119.5127
134.0000,119.6084
134.0000,120.9084
133.9810,121.0040
133.9268,121.0851
133.8457,121.1393
133.7500,121.1584
130.7500,121.1584
130.6543,121.1393
130.5732,121.0851
130.5190,121.0040
130.5000,120.9084
Z" /> 
<path style="fill:#000000; fill-opacity:1.0000; stroke:none;fill-rule:evenodd;"
d="M 125.5000,119.6084
125.5190,119.5127
125.5732,119.4316
125.6543,119.3774
125.7500,119.3584
128.7500,119.3584
128.8457,119.3774
128.9268,119.4316
128.9810,119.5127
129.0000,119.6084
129.0000,120.9084
128.9810,121.0040
128.9268,121.0851
128.8457,121.1393
128.7500,121.1584
125.7500,121.1584
125.6543,121.1393
125.5732,121.0851
125.5190,121.0040
125.5000,120.9084
Z" /> 
<path style="fill:#000000; fill-opacity:1.0000; stroke:none;fill-rule:evenodd;"
d="M 123.1500,78.6834
123.1690,78.5877
123.2232,78.5066
123.3043,78.4524
123.4000,78.4334
124.2000,78.4334
124.2957,78.4524
124.3768,78.5066
124.4310,78.5877
124.4500,78.6834
124.4500,79.9334
124.4310,80.0290
124.3768,80.1101
124.2957,80.1643
124.2000,80.1834
123.4000,80.1834
123.3043,80.1643
123.2232,80.1101
123.1690,80.0290
123.1500,79.9334
Z" /> 
<path style="fill:#000000; fill-opacity:1.0000; stroke:none;fill-rule:evenodd;"
d="M 120.0500,78.6834
120.0690,78.5877
120.1232,78.5066
120.2043,78.4524
120.3000,78.4334
121.1000,78.4334
121.1957,78.4524
121.2768,78.5066
121.3310,78.5877
121.3500,78.6834
121.3500,79.9334
121.3310,80.0290
121.2768,80.1101
121.1957,80.1643
121.1000,80.1834
120.3000,80.1834
120.2043,80.1643
120.1232,80.1101
120.0690,80.0290
120.0500,79.9334
Z" /> 
<path style="fill:#000000; fill-opacity:1.0000; stroke:none;fill-rule:evenodd;"
d="M 122.3625,100.9084
122.3511,100.9658
122.3186,101.0144
122.2699,101.0469
122.2125,101.0584
121.0375,101.0584
120.9801,101.0469
120.9314,101.0144
120.8989,100.9658
120.8875,100.9084
120.8875,100.6084
120.8989,100.5510
120.9314,100.5023
120.9801,100.4698
121.0375,100.4584
122.2125,100.4584
122.2699,100.4698
122.3186,100.5023
122.3511,100.5510
122.3625,100.6084
Z" /> 
<path style="fill:#000000; fill-opacity:1.0000; stroke:none;fill-rule:evenodd;"
d="M 124.2375,101.8584
124.2261,101.9158
124.1936,101.9644
124.1449,101.9969
124.0875,102.0084
122.9125,102.0084
122.8551,101.9969
122.8064,101.9644
122.7739,101.9158
122.7625,101.8584
122.7625,101.5584
122.7739,101.5010
122.8064,101.4523
122.8551,101.4198
122.9125,101.4084
124.0875,101.4084
124.1449,101.4198
124.1936,101.4523
124.2261,101.5010
124.2375,101.5584
Z" /> 
<path style="fill:#000000; fill-opacity:1.0000; stroke:none;fill-rule:evenodd;"
d="M 124.2375,99.9584
124.2261,100.0158
124.1936,100.0644
124.1449,100.0969
124.0875,100.1084
122.9125,100.1084
122.8551,100.0969
122.8064,100.0644
122.7739,100.0158
122.7625,99.9584
122.7625,99.6584
122.7739,99.6010
122.8064,99.5523
122.8551,99.5198
122.9125,99.5084
124.0875,99.5084
124.1449,99.5198
124.1936,99.5523
124.2261,99.6010
124.2375,99.6584
Z" /> 
<path style="fill:#000000; fill-opacity:1.0000; stroke:none;fill-rule:evenodd;"
d="M 126.6500,125.7584
126.5543,125.7393
126.4732,125.6851
126.4190,125.6040
126.4000,125.5084
126.4000,122.5084
126.4190,122.4127
126.4732,122.3316
126.5543,122.2774
126.6500,122.2584
127.9500,122.2584
128.0457,122.2774
128.1268,122.3316
128.1810,122.4127
128.2000,122.5084
128.2000,125.5084
128.1810,125.6040
128.1268,125.6851
128.0457,125.7393
127.9500,125.7584
Z" /> 
<path style="fill:#000000; fill-opacity:1.0000; stroke:none;fill-rule:evenodd;"
d="M 126.6500,130.7584
126.5543,130.7393
126.4732,130.6851
126.4190,130.6040
126.4000,130.5084
126.4000,127.5084
126.4190,127.4127
126.4732,127.3316
126.5543,127.2774
126.6500,127.2584
127.9500,127.2584
128.0457,127.2774
128.1268,127.3316
128.1810,127.4127
128.2000,127.5084
128.2000,130.5084
128.1810,130.6040
128.1268,130.6851
128.0457,130.7393
127.9500,130.7584
Z" /> 
<path style="fill:#000000; fill-opacity:1.0000; stroke:none;fill-rule:evenodd;"
d="M 136.7000,140.6500
136.7114,140.5926
136.7439,140.5439
136.7926,140.5114
136.8500,140.5000
138.0250,140.5000
138.0824,140.5114
138.1311,140.5439
138.1636,140.5926
138.1750,140.6500
138.1750,140.9500
138.1636,141.0074
138.1311,141.0561
138.0824,141.0886
138.0250,141.1000
136.8500,141.1000
136.7926,141.0886
136.7439,141.0561
136.7114,141.0074
136.7000,140.9500
Z" /> 
<path style="fill:#000000; fill-opacity:1.0000; stroke:none;fill-rule:evenodd;"
d="M 134.8250,139.7000
134.8364,139.6426
134.8689,139.5939
134.9176,139.5614
134.9750,139.5500
136.1500,139.5500
136.2074,139.5614
136.2561,139.5939
136.2886,139.6426
136.3000,139.7000
136.3000,140.0000
136.2886,140.0574
136.2561,140.1061
136.2074,140.1386
136.1500,140.1500
134.9750,140.1500
134.9176,140.1386
134.8689,140.1061
134.8364,140.0574
134.8250,140.0000
Z" /> 
<path style="fill:#000000; fill-opacity:1.0000; stroke:none;fill-rule:evenodd;"
d="M 134.8250,141.6000
134.8364,141.5426
134.8689,141.4939
134.9176,141.4614
134.9750,141.4500
136.1500,141.4500
136.2074,141.4614
136.2561,141.4939
136.2886,141.5426
136.3000,141.6000
136.3000,141.9000
136.2886,141.9574
136.2561,142.0061
136.2074,142.0386
136.1500,142.0500
134.9750,142.0500
134.9176,142.0386
134.8689,142.0061
134.8364,141.9574
134.8250,141.9000
Z" /> 
<path style="fill:#000000; fill-opacity:1.0000; stroke:none;fill-rule:evenodd;"
d="M 151.3750,136.3000
151.2793,136.2810
151.1982,136.2268
151.1440,136.1457
151.1250,136.0500
151.1250,135.2500
151.1440,135.1543
151.1982,135.0732
151.2793,135.0190
151.3750,135.0000
152.6250,135.0000
152.7207,135.0190
152.8018,135.0732
152.8560,135.1543
152.8750,135.2500
152.8750,136.0500
152.8560,136.1457
152.8018,136.2268
152.7207,136.2810
152.6250,136.3000
Z" /> 
<path style="fill:#000000; fill-opacity:1.0000; stroke:none;fill-rule:evenodd;"
d="M 151.3750,139.4000
151.2793,139.3810
151.1982,139.3268
151.1440,139.2457
151.1250,139.1500
151.1250,138.3500
151.1440,138.2543
151.1982,138.1732
151.2793,138.1190
151.3750,138.1000
152.6250,138.1000
152.7207,138.1190
152.8018,138.1732
152.8560,138.2543
152.8750,138.3500
152.8750,139.1500
152.8560,139.2457
152.8018,139.3268
152.7207,139.3810
152.6250,139.4000
Z" /> 
<path style="fill:#000000; fill-opacity:1.0000; stroke:none;fill-rule:evenodd;"
d="M 110.6500,125.5084
110.6310,125.6040
110.5768,125.6851
110.4957,125.7393
110.4000,125.7584
107.6000,125.7584
107.5043,125.7393
107.4232,125.6851
107.3690,125.6040
107.3500,125.5084
107.3500,121.5084
107.3690,121.4127
107.4232,121.3316
107.5043,121.2774
107.6000,121.2584
110.4000,121.2584
110.4957,121.2774
110.5768,121.3316
110.6310,121.4127
110.6500,121.5084
Z" /> 
<path style="fill:#000000; fill-opacity:1.0000; stroke:none;fill-rule:evenodd;"
d="M 110.6500,116.7084
110.6310,116.8040
110.5768,116.8851
110.4957,116.9393
110.4000,116.9584
107.6000,116.9584
107.5043,116.9393
107.4232,116.8851
107.3690,116.8040
107.3500,116.7084
107.3500,112.7084
107.3690,112.6127
107.4232,112.5316
107.5043,112.4774
107.6000,112.4584
110.4000,112.4584
110.4957,112.4774
110.5768,112.5316
110.6310,112.6127
110.6500,112.7084
Z" /> 
</g>
<g style="fill:#000000; fill-opacity:1.0000; stroke:none;">
<circle cx="121.5000" cy="114.7084" r="1.2500" /> 
<path style="fill:#000000; fill-opacity:1.0000; stroke:none;fill-rule:evenodd;"
d="M 132.3500,139.6479
132.3690,139.5522
132.4232,139.4711
132.5043,139.4169
132.6000,139.3979
133.4000,139.3979
133.4957,139.4169
133.5768,139.4711
133.6310,139.5522
133.6500,139.6479
133.6500,140.8979
133.6310,140.9936
133.5768,141.0747
133.4957,141.1289
133.4000,141.1479
132.6000,141.1479
132.5043,141.1289
132.4232,141.0747
132.3690,140.9936
132.3500,140.8979
Z" /> 
<path style="fill:#000000; fill-opacity:1.0000; stroke:none;fill-rule:evenodd;"
d="M 129.2500,139.6479
129.2690,139.5522
129.3232,139.4711
129.4043,139.4169
129.5000,139.3979
130.3000,139.3979
130.3957,139.4169
130.4768,139.4711
130.5310,139.5522
130.5500,139.6479
130.5500,140.8979
130.5310,140.9936
130.4768,141.0747
130.3957,141.1289
130.3000,141.1479
129.5000,141.1479
129.4043,141.1289
129.3232,141.0747
129.2690,140.9936
129.2500,140.8979
Z" /> 
<path style="fill:#000000; fill-opacity:1.0000; stroke:none;fill-rule:evenodd;"
d="M 151.8500,131.6250
151.8690,131.5293
151.9232,131.4482
152.0043,131.3940
152.1000,131.3750
152.9000,131.3750
152.9957,131.3940
153.0768,131.4482
153.1310,131.5293
153.1500,131.6250
153.1500,132.8750
153.1310,132.9707
153.0768,133.0518
152.9957,133.1060
152.9000,133.1250
152.1000,133.1250
152.0043,133.1060
151.9232,133.0518
151.8690,132.9707
151.8500,132.8750
Z" /> 
<path style="fill:#000000; fill-opacity:1.0000; stroke:none;fill-rule:evenodd;"
d="M 148.7500,131.6250
148.7690,131.5293
148.8232,131.4482
148.9043,131.3940
149.0000,131.3750
149.8000,131.3750
149.8957,131.3940
149.9768,131.4482
150.0310,131.5293
150.0500,131.6250
150.0500,132.8750
150.0310,132.9707
149.9768,133.0518
149.8957,133.1060
149.8000,133.1250
149.0000,133.1250
148.9043,133.1060
148.8232,133.0518
148.7690,132.9707
148.7500,132.8750
Z" /> 
<path style="fill:#000000; fill-opacity:1.0000; stroke:none;fill-rule:evenodd;"
d="M 126.6000,83.9084
126.6957,83.9274
126.7768,83.9816
126.8310,84.0627
126.8500,84.1584
126.8500,86.9584
126.8310,87.0540
126.7768,87.1351
126.6957,87.1893
126.6000,87.2084
125.4000,87.2084
125.3043,87.1893
125.2232,87.1351
125.1690,87.0540
125.1500,86.9584
125.1500,84.1584
125.1690,84.0627
125.2232,83.9816
125.3043,83.9274
125.4000,83.9084
Z" /> 
<path style="fill:#000000; fill-opacity:1.0000; stroke:none;fill-rule:evenodd;"
d="M 126.6000,78.4084
126.6957,78.4274
126.7768,78.4816
126.8310,78.5627
126.8500,78.6584
126.8500,81.4584
126.8310,81.5540
126.7768,81.6351
126.6957,81.6893
126.6000,81.7084
125.4000,81.7084
125.3043,81.6893
125.2232,81.6351
125.1690,81.5540
125.1500,81.4584
125.1500,78.6584
125.1690,78.5627
125.2232,78.4816
125.3043,78.4274
125.4000,78.4084
Z" /> 
<path style="fill:#000000; fill-opacity:1.0000; stroke:none;fill-rule:evenodd;"
d="M 149.8500,141.0500
149.7926,141.0386
149.7439,141.0061
149.7114,140.9574
149.7000,140.9000
149.7000,139.7250
149.7114,139.6676
149.7439,139.6189
149.7926,139.5864
149.8500,139.5750
150.1500,139.5750
150.2074,139.5864
150.2561,139.6189
150.2886,139.6676
150.3000,139.7250
150.3000,140.9000
150.2886,140.9574
150.2561,141.0061
150.2074,141.0386
150.1500,141.0500
Z" /> 
<path style="fill:#000000; fill-opacity:1.0000; stroke:none;fill-rule:evenodd;"
d="M 148.9000,142.9250
148.8426,142.9136
148.7939,142.8811
148.7614,142.8324
148.7500,142.7750
148.7500,141.6000
148.7614,141.5426
148.7939,141.4939
148.8426,141.4614
148.9000,141.4500
149.2000,141.4500
149.2574,141.4614
149.3061,141.4939
149.3386,141.5426
149.3500,141.6000
149.3500,142.7750
149.3386,142.8324
149.3061,142.8811
149.2574,142.9136
149.2000,142.9250
Z" /> 
<path style="fill:#000000; fill-opacity:1.0000; stroke:none;fill-rule:evenodd;"
d="M 150.8000,142.9250
150.7426,142.9136
150.6939,142.8811
150.6614,142.8324
150.6500,142.7750
150.6500,141.6000
150.6614,141.5426
150.6939,141.4939
150.7426,141.4614
150.8000,141.4500
151.1000,141.4500
151.1574,141.4614
151.2061,141.4939
151.2386,141.5426
151.2500,141.6000
151.2500,142.7750
151.2386,142.8324
151.2061,142.8811
151.1574,142.9136
151.1000,142.9250
Z" /> 
<path style="fill:#000000; fill-opacity:1.0000; stroke:none;fill-rule:evenodd;"
d="M 138.4000,64.6250
138.3810,64.7207
138.3268,64.8018
138.2457,64.8560
138.1500,64.8750
137.3500,64.8750
137.2543,64.8560
137.1732,64.8018
137.1190,64.7207
137.1000,64.6250
137.1000,63.3750
137.1190,63.2793
137.1732,63.1982
137.2543,63.1440
137.3500,63.1250
138.1500,63.1250
138.2457,63.1440
138.3268,63.1982
138.3810,63.2793
138.4000,63.3750
Z" /> 
<path style="fill:#000000; fill-opacity:1.0000; stroke:none;fill-rule:evenodd;"
d="M 141.5000,64.6250
141.4810,64.7207
141.4268,64.8018
141.3457,64.8560
141.2500,64.8750
140.4500,64.8750
140.3543,64.8560
140.2732,64.8018
140.2190,64.7207
140.2000,64.6250
140.2000,63.3750
140.2190,63.2793
140.2732,63.1982
140.3543,63.1440
140.4500,63.1250
141.2500,63.1250
141.3457,63.1440
141.4268,63.1982
141.4810,63.2793
141.5000,63.3750
Z" /> 
<path style="fill:#000000; fill-opacity:1.0000; stroke:none;fill-rule:evenodd;"
d="M 147.8500,138.1250
147.8690,138.0293
147.9232,137.9482
148.0043,137.8940
148.1000,137.8750
148.9000,137.8750
148.9957,137.8940
149.0768,137.9482
149.1310,138.0293
149.1500,138.1250
149.1500,139.3750
149.1310,139.4707
149.0768,139.5518
148.9957,139.6060
148.9000,139.6250
148.1000,139.6250
148.0043,139.6060
147.9232,139.5518
147.8690,139.4707
147.8500,139.3750
Z" /> 
<path style="fill:#000000; fill-opacity:1.0000; stroke:none;fill-rule:evenodd;"
d="M 144.7500,138.1250
144.7690,138.0293
144.8232,137.9482
144.9043,137.8940
145.0000,137.8750
145.8000,137.8750
145.8957,137.8940
145.9768,137.9482
146.0310,138.0293
146.0500,138.1250
146.0500,139.3750
146.0310,139.4707
145.9768,139.5518
145.8957,139.6060
145.8000,139.6250
145.0000,139.6250
144.9043,139.6060
144.8232,139.5518
144.7690,139.4707
144.7500,139.3750
Z" /> 
<path style="fill:#000000; fill-opacity:1.0000; stroke:none;fill-rule:evenodd;"
d="M 135.6500,67.7084
135.7457,67.7274
135.8268,67.7816
135.8810,67.8627
135.9000,67.9584
135.9000,70.9584
135.8810,71.0540
135.8268,71.1351
135.7457,71.1893
135.6500,71.2084
134.3500,71.2084
134.2543,71.1893
134.1732,71.1351
134.1190,71.0540
134.1000,70.9584
134.1000,67.9584
134.1190,67.8627
134.1732,67.7816
134.2543,67.7274
134.3500,67.7084
Z" /> 
<path style="fill:#000000; fill-opacity:1.0000; stroke:none;fill-rule:evenodd;"
d="M 135.6500,62.7084
135.7457,62.7274
135.8268,62.7816
135.8810,62.8627
135.9000,62.9584
135.9000,65.9584
135.8810,66.0540
135.8268,66.1351
135.7457,66.1893
135.6500,66.2084
134.3500,66.2084
134.2543,66.1893
134.1732,66.1351
134.1190,66.0540
134.1000,65.9584
134.1000,62.9584
134.1190,62.8627
134.1732,62.7816
134.2543,62.7274
134.3500,62.7084
Z" /> 
<path style="fill:#000000; fill-opacity:1.0000; stroke:none;fill-rule:evenodd;"
d="M 144.6250,143.6500
144.7207,143.6690
144.8018,143.7232
144.8560,143.8043
144.8750,143.9000
144.8750,144.7000
144.8560,144.7957
144.8018,144.8768
144.7207,144.9310
144.6250,144.9500
143.3750,144.9500
143.2793,144.9310
143.1982,144.8768
143.1440,144.7957
143.1250,144.7000
143.1250,143.9000
143.1440,143.8043
143.1982,143.7232
143.2793,143.6690
143.3750,143.6500
Z" /> 
<path style="fill:#000000; fill-opacity:1.0000; stroke:none;fill-rule:evenodd;"
d="M 144.6250,140.5500
144.7207,140.5690
144.8018,140.6232
144.8560,140.7043
144.8750,140.8000
144.8750,141.6000
144.8560,141.6957
144.8018,141.7768
144.7207,141.8310
144.6250,141.8500
143.3750,141.8500
143.2793,141.8310
143.1982,141.7768
143.1440,141.6957
143.1250,141.6000
143.1250,140.8000
143.1440,140.7043
143.1982,140.6232
143.2793,140.5690
143.3750,140.5500
Z" /> 
<path style="fill:#000000; fill-opacity:1.0000; stroke:none;fill-rule:evenodd;"
d="M 114.1000,126.6084
114.1190,126.5127
114.1732,126.4316
114.2543,126.3774
114.3500,126.3584
117.1500,126.3584
117.2457,126.3774
117.3268,126.4316
117.3810,126.5127
117.4000,126.6084
117.4000,130.6084
117.3810,130.7040
117.3268,130.7851
117.2457,130.8393
117.1500,130.8584
114.3500,130.8584
114.2543,130.8393
114.1732,130.7851
114.1190,130.7040
114.1000,130.6084
Z" /> 
<path style="fill:#000000; fill-opacity:1.0000; stroke:none;fill-rule:evenodd;"
d="M 114.1000,135.4084
114.1190,135.3127
114.1732,135.2316
114.2543,135.1774
114.3500,135.1584
117.1500,135.1584
117.2457,135.1774
117.3268,135.2316
117.3810,135.3127
117.4000,135.4084
117.4000,139.4084
117.3810,139.5040
117.3268,139.5851
117.2457,139.6393
117.1500,139.6584
114.3500,139.6584
114.2543,139.6393
114.1732,139.5851
114.1190,139.5040
114.1000,139.4084
Z" /> 
<path style="fill:none; 
stroke:#000000; stroke-width:0.2000; stroke-opacity:1; 
stroke-linecap:round; stroke-linejoin:round;fill:none"
d="M 179.0000,149.8084
104.0000,149.8084
104.0000,49.8084
179.0000,49.8084
Z" /> 
</g> 
</svg>
